<?xml version="1.0" encoding="UTF-8"?>
<svg version="1.1" xmlns="http://www.w3.org/2000/svg" width="1024" height="1024">
<path d="M0 0 C337.92 0 675.84 0 1024 0 C1024 337.92 1024 675.84 1024 1024 C686.08 1024 348.16 1024 0 1024 C0 686.08 0 348.16 0 0 Z " fill="#FDFDFD" transform="translate(0,0)"/>
<path d="M0 0 C1.76527584 -0.00390312 3.53054852 -0.0095516 5.29581392 -0.0167709 C10.09703218 -0.03139804 14.89791821 -0.02142099 19.69912529 -0.00703418 C24.8961783 0.00414476 30.09318731 -0.00788967 35.29023743 -0.01687622 C45.45111003 -0.03076323 55.61185781 -0.02328641 65.7727244 -0.00820064 C77.61877622 0.00871357 89.46479741 0.00544243 101.31085758 0.00170528 C122.45346917 -0.00416486 143.59602108 0.0099657 164.73861694 0.03465271 C185.23050167 0.05857704 205.7223067 0.06565349 226.21420288 0.05516052 C248.55915941 0.0437391 270.90407914 0.04183593 293.24903524 0.05625862 C295.63372953 0.05778437 298.01842383 0.05930473 300.40311813 0.06081963 C301.57626774 0.06157744 302.74941736 0.06233525 303.95811696 0.06311603 C312.20576301 0.06784891 320.45339257 0.06601454 328.70103836 0.06175423 C338.75730415 0.05681653 348.81349475 0.06286126 358.86974336 0.08264852 C363.99568034 0.09248778 369.12150308 0.09766211 374.24744606 0.08975601 C378.94771345 0.08265501 383.64775122 0.08960625 388.34798853 0.10735964 C390.0401947 0.11137561 391.73242209 0.11045275 393.42462011 0.10384078 C418.44411795 0.01451514 439.65860485 7.01790919 458.15853882 24.31370544 C474.83814881 42.10052724 481.49975776 63.80378125 481.35397339 87.7376709 C481.35859437 89.41546382 481.36495524 91.09325267 481.37288237 92.77103323 C481.38943448 97.33507602 481.38139437 101.8987802 481.36893749 106.46282351 C481.35983098 111.40291124 481.37388427 116.34294356 481.38485718 121.28302002 C481.40258715 130.9420354 481.39882722 140.60092603 481.38720661 150.25994617 C481.37815128 158.11366057 481.37695736 165.96734015 481.38130188 173.82105827 C481.38191481 174.94135625 481.38252774 176.06165424 481.38315925 177.21590064 C481.38443823 179.49217214 481.38573508 181.76844362 481.38704962 184.0447151 C481.3984391 205.35856919 481.38536706 226.67235432 481.36384815 247.98619711 C481.34597622 266.25303452 481.34908526 284.51977025 481.36752319 302.78660583 C481.38895452 324.02882876 481.39734319 345.27099136 481.38507414 366.51322359 C481.38380002 368.78053851 481.38254253 371.04785344 481.38130188 373.31516838 C481.38068478 374.43056666 481.38006768 375.54596495 481.37943187 376.69516318 C481.37598595 384.53504162 481.38179091 392.37488162 481.39122009 400.2147541 C481.4024665 409.77516187 481.39934447 419.33543835 481.37809712 428.89583118 C481.36762261 433.76864026 481.36340319 438.64123087 481.37669373 443.51403809 C481.38869827 447.98310811 481.38192364 452.45175914 481.36078352 456.92079168 C481.35635139 458.52891005 481.35850645 460.13706454 481.36828667 461.74515928 C481.50508516 486.12698447 472.85876585 506.00076111 455.84603882 523.50120544 C446.4478095 532.78381507 436.31782885 538.27371806 423.84603882 542.50120544 C423.21667172 542.75116164 422.58730461 543.00111783 421.93886578 543.25864846 C413.53658905 546.27036427 405.0295253 545.92226798 396.23687744 545.8888855 C394.44535842 545.89306214 392.65384205 545.89854146 390.86233056 545.90520531 C385.95607624 545.91963584 381.04999026 545.91542261 376.14372683 545.9080385 C370.84564425 545.90330308 365.5475979 545.91582016 360.24952698 545.92605591 C349.87549403 545.94324332 339.50152166 545.94408383 329.12747817 545.938843 C320.69201579 545.93479908 312.2565713 545.93624752 303.82110977 545.94159126 C302.6198021 545.94233968 301.41849442 545.94308811 300.18078349 545.94385921 C297.74015552 545.94539072 295.29952756 545.94692907 292.85889961 545.94847418 C269.97464816 545.96219963 247.0904309 545.95676176 224.20618023 545.94528896 C203.28867809 545.93536202 182.37126447 545.94828789 161.45377599 545.97222316 C139.96053708 545.99663128 118.46733937 546.00621747 96.97408688 545.99957043 C84.91346293 545.99608132 72.852907 545.99828966 60.79229355 546.01582146 C50.52251289 546.03056506 40.25284814 546.0311509 29.9830697 546.01375055 C24.74765657 546.00525499 19.5124503 546.00305557 14.27704811 546.0184021 C9.47524424 546.03230274 4.67382338 546.02741724 -0.12795864 546.00816286 C-1.85606108 546.0044189 -3.58419461 546.00727804 -5.31226923 546.01777451 C-19.3852479 546.09711024 -32.97876601 544.50452714 -45.59146118 537.68870544 C-46.25121948 537.34613708 -46.91097778 537.00356873 -47.59072876 536.65061951 C-52.90913344 533.8118695 -57.59724006 530.44723198 -62.15396118 526.50120544 C-62.94673462 525.90436951 -63.73950806 525.30753357 -64.55630493 524.69261169 C-79.30758318 512.24830027 -87.76245162 492.30490661 -90.15396118 473.50120544 C-90.43497238 468.01618655 -90.42895979 462.5392458 -90.41465759 457.04910278 C-90.41768233 455.39554018 -90.42157342 453.74197897 -90.42625016 452.08842021 C-90.43649739 447.56824621 -90.43435672 443.04815182 -90.43006957 438.52797139 C-90.42759637 433.64372544 -90.43662387 428.75949837 -90.44410706 423.8752594 C-90.45683969 414.31552323 -90.45864953 404.75581517 -90.45630679 395.19607195 C-90.45452184 387.42328157 -90.45627709 379.6504997 -90.46053123 371.87771034 C-90.46112642 370.77032299 -90.46172161 369.66293565 -90.46233484 368.52199111 C-90.46354662 366.27213122 -90.46476076 364.02227133 -90.46597721 361.77241144 C-90.47684726 340.68515564 -90.47469282 319.59791584 -90.46859237 298.51065914 C-90.46342393 279.23438104 -90.47467768 259.95815349 -90.49369059 240.68188538 C-90.51307916 220.87234737 -90.52132318 201.06283326 -90.51756734 181.25328571 C-90.51565681 170.13843135 -90.51812837 159.02362002 -90.53228188 147.90877342 C-90.54420964 138.44632387 -90.54558491 128.98394381 -90.53349171 119.52149328 C-90.5276128 114.69747751 -90.52647624 109.87358876 -90.53849411 105.04958153 C-90.54938579 100.62607915 -90.54621071 96.20280936 -90.53223243 91.77931771 C-90.52959451 90.18654131 -90.5319233 88.59374648 -90.53996829 87.00098821 C-90.65598218 62.30087179 -83.27556272 42.38990382 -66.15396118 24.50120544 C-65.57903931 23.86311951 -65.00411743 23.22503357 -64.41177368 22.56761169 C-47.77334038 4.6952276 -23.2938082 -0.14480646 0 0 Z " fill="#FDFDFD" transform="translate(314.1539611816406,238.49879455566406)"/>
<path d="M0 0 C10.85833787 4.96930254 15.90137374 13.8363089 21.27734375 24.1015625 C22.32390515 26.05945825 23.37213584 28.01646244 24.421875 29.97265625 C24.95506348 30.96894043 25.48825195 31.96522461 26.03759766 32.99169922 C28.61366549 37.75356879 31.28744074 42.45864647 33.96484375 47.1640625 C38.71791308 55.53541749 43.42129319 63.93277603 48.08984375 72.3515625 C57.90600198 90.04888438 67.79222116 107.70578572 77.76049805 125.31787109 C84.69078346 137.56874611 91.55292207 149.85779522 98.42285156 162.14257812 C100.18643741 165.29580341 101.95046192 168.44878254 103.71484375 171.6015625 C104.29556641 172.63925781 104.87628906 173.67695312 105.47460938 174.74609375 C109.3275025 181.62533756 113.20306397 188.49141997 117.08984375 195.3515625 C121.84421157 203.7429926 126.5409535 212.16506601 131.21484375 220.6015625 C136.13267121 229.47642081 141.10553963 238.3155105 146.15771484 247.11450195 C151.29450372 256.07071134 156.32904685 265.08352178 161.36328125 274.09765625 C163.39913355 277.74203228 165.44368118 281.38106626 167.50390625 285.01171875 C167.92518799 285.75510498 168.34646973 286.49849121 168.78051758 287.2644043 C169.54380273 288.60955474 170.30911204 289.95355962 171.0769043 291.29614258 C175.16626301 298.51060497 176.05382155 305.70468227 173.8984375 313.8125 C170.78193216 321.95207865 166.53921563 327.14733169 158.65234375 330.9765625 C152.01284428 333.45117126 145.56426035 333.26442807 138.53959656 333.25071716 C137.20011895 333.2551734 135.86064397 333.26048871 134.52117282 333.26658589 C130.85076246 333.28072978 127.18043692 333.28242987 123.51000321 333.28198898 C119.54737171 333.28364035 115.58477485 333.2967127 111.62216187 333.30818176 C102.96309066 333.33100454 94.30404401 333.33894918 85.64494681 333.34400821 C80.23610619 333.34726786 74.82727266 333.35379189 69.41843605 333.3610096 C54.43607024 333.3805706 39.453711 333.39697819 24.4713316 333.39988613 C23.03401331 333.40016749 23.03401331 333.40016749 21.56765829 333.40045452 C19.62523449 333.40082077 17.68281068 333.40118447 15.74038687 333.40154564 C14.77619836 333.40172845 13.81200985 333.40191126 12.81860352 333.40209961 C11.37055124 333.40237043 11.37055124 333.40237043 9.89324538 333.40264673 C-5.751843 333.40618898 -21.39679379 333.43321676 -37.04183445 333.4705975 C-53.11314808 333.50868885 -69.18439345 333.52804366 -85.25575322 333.52834564 C-94.27578352 333.52892996 -103.2956496 333.53740584 -112.31563759 333.56634331 C-119.99529591 333.59086806 -127.67473009 333.5981326 -135.354417 333.58309578 C-139.27070889 333.57593177 -143.18655824 333.57676197 -147.10280037 333.59950638 C-150.69251101 333.62015426 -154.28144054 333.61744306 -157.87114324 333.59663153 C-159.7751955 333.59150538 -161.6792659 333.61087153 -163.58321553 333.63129324 C-172.67962085 333.54261444 -179.24379437 331.45592366 -186.22265625 325.5390625 C-191.97319518 318.60458909 -195.13770903 312.28278927 -194.89453125 303.17578125 C-193.84876119 297.05802642 -190.71920352 291.876657 -187.74316406 286.50878906 C-186.1716059 283.65710935 -184.64504963 280.78364297 -183.12109375 277.90625 C-177.24146026 266.83919166 -171.21150201 255.86938935 -164.95361328 245.01196289 C-160.88972569 237.95528468 -156.91964171 230.84921952 -152.97265625 223.7265625 C-146.37829562 211.82796915 -139.74419715 199.95231622 -133.09033203 188.08691406 C-131.31815491 184.92390811 -129.54926226 181.75908564 -127.78125 178.59375 C-122.3672372 168.90458001 -116.9357921 159.22758203 -111.41015625 149.6015625 C-106.1812774 140.49070367 -101.07475232 131.31444685 -95.98461914 122.12548828 C-91.45358351 113.95101691 -86.87200988 105.80684627 -82.25976562 97.67797852 C-78.09407344 90.32522737 -73.99836938 82.93510712 -69.91015625 75.5390625 C-64.57569455 65.89389009 -59.09480828 56.348995 -53.4921875 46.85742188 C-48.71642788 38.72234953 -44.22135302 30.45032615 -39.87255859 22.0793457 C-34.6538449 12.20894669 -29.70309019 4.70083379 -19.34765625 -0.0234375 C-13.7712265 -2.81165237 -5.75486359 -1.7593632 0 0 Z " fill="#2DCEB4" transform="translate(520.34765625,346.0234375)"/>
<path d="M0 0 C1.76527584 -0.00390312 3.53054852 -0.0095516 5.29581392 -0.0167709 C10.09703218 -0.03139804 14.89791821 -0.02142099 19.69912529 -0.00703418 C24.8961783 0.00414476 30.09318731 -0.00788967 35.29023743 -0.01687622 C45.45111003 -0.03076323 55.61185781 -0.02328641 65.7727244 -0.00820064 C77.61877622 0.00871357 89.46479741 0.00544243 101.31085758 0.00170528 C122.45346917 -0.00416486 143.59602108 0.0099657 164.73861694 0.03465271 C185.23050167 0.05857704 205.7223067 0.06565349 226.21420288 0.05516052 C248.55915941 0.0437391 270.90407914 0.04183593 293.24903524 0.05625862 C295.63372953 0.05778437 298.01842383 0.05930473 300.40311813 0.06081963 C301.57626774 0.06157744 302.74941736 0.06233525 303.95811696 0.06311603 C312.20576301 0.06784891 320.45339257 0.06601454 328.70103836 0.06175423 C338.75730415 0.05681653 348.81349475 0.06286126 358.86974336 0.08264852 C363.99568034 0.09248778 369.12150308 0.09766211 374.24744606 0.08975601 C378.94771345 0.08265501 383.64775122 0.08960625 388.34798853 0.10735964 C390.0401947 0.11137561 391.73242209 0.11045275 393.42462011 0.10384078 C418.44411795 0.01451514 439.65860485 7.01790919 458.15853882 24.31370544 C474.83814881 42.10052724 481.49975776 63.80378125 481.35397339 87.7376709 C481.35859437 89.41546382 481.36495524 91.09325267 481.37288237 92.77103323 C481.38943448 97.33507602 481.38139437 101.8987802 481.36893749 106.46282351 C481.35983098 111.40291124 481.37388427 116.34294356 481.38485718 121.28302002 C481.40258715 130.9420354 481.39882722 140.60092603 481.38720661 150.25994617 C481.37815128 158.11366057 481.37695736 165.96734015 481.38130188 173.82105827 C481.38191481 174.94135625 481.38252774 176.06165424 481.38315925 177.21590064 C481.38443823 179.49217214 481.38573508 181.76844362 481.38704962 184.0447151 C481.3984391 205.35856919 481.38536706 226.67235432 481.36384815 247.98619711 C481.34597622 266.25303452 481.34908526 284.51977025 481.36752319 302.78660583 C481.38895452 324.02882876 481.39734319 345.27099136 481.38507414 366.51322359 C481.38380002 368.78053851 481.38254253 371.04785344 481.38130188 373.31516838 C481.38068478 374.43056666 481.38006768 375.54596495 481.37943187 376.69516318 C481.37598595 384.53504162 481.38179091 392.37488162 481.39122009 400.2147541 C481.4024665 409.77516187 481.39934447 419.33543835 481.37809712 428.89583118 C481.36762261 433.76864026 481.36340319 438.64123087 481.37669373 443.51403809 C481.38869827 447.98310811 481.38192364 452.45175914 481.36078352 456.92079168 C481.35635139 458.52891005 481.35850645 460.13706454 481.36828667 461.74515928 C481.50508516 486.12698447 472.85876585 506.00076111 455.84603882 523.50120544 C446.4478095 532.78381507 436.31782885 538.27371806 423.84603882 542.50120544 C423.21667172 542.75116164 422.58730461 543.00111783 421.93886578 543.25864846 C413.53658905 546.27036427 405.0295253 545.92226798 396.23687744 545.8888855 C394.44535842 545.89306214 392.65384205 545.89854146 390.86233056 545.90520531 C385.95607624 545.91963584 381.04999026 545.91542261 376.14372683 545.9080385 C370.84564425 545.90330308 365.5475979 545.91582016 360.24952698 545.92605591 C349.87549403 545.94324332 339.50152166 545.94408383 329.12747817 545.938843 C320.69201579 545.93479908 312.2565713 545.93624752 303.82110977 545.94159126 C302.6198021 545.94233968 301.41849442 545.94308811 300.18078349 545.94385921 C297.74015552 545.94539072 295.29952756 545.94692907 292.85889961 545.94847418 C269.97464816 545.96219963 247.0904309 545.95676176 224.20618023 545.94528896 C203.28867809 545.93536202 182.37126447 545.94828789 161.45377599 545.97222316 C139.96053708 545.99663128 118.46733937 546.00621747 96.97408688 545.99957043 C84.91346293 545.99608132 72.852907 545.99828966 60.79229355 546.01582146 C50.52251289 546.03056506 40.25284814 546.0311509 29.9830697 546.01375055 C24.74765657 546.00525499 19.5124503 546.00305557 14.27704811 546.0184021 C9.47524424 546.03230274 4.67382338 546.02741724 -0.12795864 546.00816286 C-1.85606108 546.0044189 -3.58419461 546.00727804 -5.31226923 546.01777451 C-19.3852479 546.09711024 -32.97876601 544.50452714 -45.59146118 537.68870544 C-46.25121948 537.34613708 -46.91097778 537.00356873 -47.59072876 536.65061951 C-52.90913344 533.8118695 -57.59724006 530.44723198 -62.15396118 526.50120544 C-62.94673462 525.90436951 -63.73950806 525.30753357 -64.55630493 524.69261169 C-79.30758318 512.24830027 -87.76245162 492.30490661 -90.15396118 473.50120544 C-90.43497238 468.01618655 -90.42895979 462.5392458 -90.41465759 457.04910278 C-90.41768233 455.39554018 -90.42157342 453.74197897 -90.42625016 452.08842021 C-90.43649739 447.56824621 -90.43435672 443.04815182 -90.43006957 438.52797139 C-90.42759637 433.64372544 -90.43662387 428.75949837 -90.44410706 423.8752594 C-90.45683969 414.31552323 -90.45864953 404.75581517 -90.45630679 395.19607195 C-90.45452184 387.42328157 -90.45627709 379.6504997 -90.46053123 371.87771034 C-90.46112642 370.77032299 -90.46172161 369.66293565 -90.46233484 368.52199111 C-90.46354662 366.27213122 -90.46476076 364.02227133 -90.46597721 361.77241144 C-90.47684726 340.68515564 -90.47469282 319.59791584 -90.46859237 298.51065914 C-90.46342393 279.23438104 -90.47467768 259.95815349 -90.49369059 240.68188538 C-90.51307916 220.87234737 -90.52132318 201.06283326 -90.51756734 181.25328571 C-90.51565681 170.13843135 -90.51812837 159.02362002 -90.53228188 147.90877342 C-90.54420964 138.44632387 -90.54558491 128.98394381 -90.53349171 119.52149328 C-90.5276128 114.69747751 -90.52647624 109.87358876 -90.53849411 105.04958153 C-90.54938579 100.62607915 -90.54621071 96.20280936 -90.53223243 91.77931771 C-90.52959451 90.18654131 -90.5319233 88.59374648 -90.53996829 87.00098821 C-90.65598218 62.30087179 -83.27556272 42.38990382 -66.15396118 24.50120544 C-65.57903931 23.86311951 -65.00411743 23.22503357 -64.41177368 22.56761169 C-47.77334038 4.6952276 -23.2938082 -0.14480646 0 0 Z M-62.48403931 40.18382263 C-67.73228808 47.35108756 -71.75193803 54.91366152 -74.15396118 63.50120544 C-74.49413363 64.54583419 -74.83430609 65.59046293 -75.1847868 66.66674709 C-76.8619396 73.48011896 -76.43276536 80.57662973 -76.41465759 87.54785156 C-76.41768001 89.19398752 -76.42156995 90.84012208 -76.42625016 92.48625416 C-76.43652775 96.99987395 -76.43434891 101.51341429 -76.43006957 106.0270406 C-76.42760182 110.89908842 -76.43661727 115.77111714 -76.44410706 120.64315796 C-76.4568561 130.18559331 -76.45864737 139.72800053 -76.45630679 149.27044297 C-76.4545232 157.02994793 -76.45627418 164.78944435 -76.46053123 172.54894829 C-76.46112642 173.65367802 -76.46172161 174.75840775 -76.46233484 175.89661415 C-76.46354661 178.14099591 -76.46476074 180.38537767 -76.46597721 182.62975942 C-76.47685418 203.67935773 -76.4746899 224.72894002 -76.46859237 245.77853923 C-76.46342677 265.01876665 -76.47466894 284.25894338 -76.49369059 303.49916077 C-76.51308336 323.26679819 -76.52132222 343.03441165 -76.51756734 362.80205864 C-76.515657 373.8951919 -76.51812621 384.98828206 -76.53228188 396.08140755 C-76.5442152 405.52853019 -76.54557892 414.97558322 -76.53349171 424.42270685 C-76.52761587 429.23872467 -76.52646753 434.0546153 -76.53849411 438.87062454 C-76.54939681 443.28813091 -76.54619775 447.70540456 -76.53223243 452.12290024 C-76.52959744 453.7124194 -76.53191391 455.30195705 -76.53996829 456.89145798 C-76.60101647 469.84895697 -75.83324253 483.11289627 -69.52896118 494.75120544 C-69.18123657 495.4132196 -68.83351196 496.07523376 -68.47525024 496.75730896 C-60.11592722 512.13182658 -46.54076152 523.76127655 -29.82351977 529.26900136 C-20.67371951 531.86867888 -11.81563417 531.93342166 -2.40040588 531.90907288 C-0.61754696 531.91540302 1.16530778 531.92302113 2.9481563 531.93180692 C7.82128139 531.95200502 12.6942588 531.95363945 17.56741893 531.95201564 C22.8334972 531.95346536 28.09952034 531.97207013 33.36557007 531.98826599 C44.86783653 532.02031767 56.37005802 532.03019386 67.87236333 532.03590822 C75.06142918 532.03966544 82.25048312 532.04847882 89.43954277 532.05840683 C109.36494323 532.08533705 129.29033222 532.10785352 149.2157526 532.11028481 C151.12641441 532.11051817 151.12641441 532.11051817 153.07567545 532.11075624 C155.65763565 532.11104728 158.23959584 532.11133266 160.82155604 532.11161239 C162.74394479 532.11182668 162.74394479 532.11182668 164.70516968 532.11204529 C165.98833596 532.11218496 167.27150224 532.11232462 168.59355234 532.11246853 C189.37962848 532.11560298 210.16549613 532.15218818 230.95150346 532.20368154 C252.31939186 532.25619223 273.68717742 532.28239712 295.05513185 532.28183591 C307.04155989 532.28208809 319.02774825 532.29323169 331.01411629 532.33301163 C341.22123926 532.36671566 351.42802921 532.37602788 361.63519061 532.35425468 C366.83672796 532.34385756 372.03761395 532.34446699 377.23908043 532.37601852 C382.01345845 532.40469466 386.78668653 532.40023547 391.56104975 532.37085955 C393.27569583 532.36587298 394.99042842 532.37237521 396.70496453 532.39242406 C414.05211439 532.5818771 429.50638294 527.8516144 442.84603882 516.50120544 C443.68650757 515.85280701 444.52697632 515.20440857 445.39291382 514.53636169 C457.41721032 504.56079087 465.71633151 487.13808124 467.2180109 471.66959977 C467.40713805 467.34734931 467.38029839 463.02672717 467.35397339 458.70143127 C467.35859092 457.03447708 467.36494953 455.36752696 467.37288237 453.70058525 C467.38948219 449.15256766 467.38137214 444.60488855 467.36893749 440.05687022 C467.35985066 435.13922453 467.37387478 430.22163519 467.38485718 425.30400085 C467.40260911 415.68267466 467.39881701 406.06147355 467.38720661 396.44014253 C467.37815841 388.6168674 467.37695429 380.79362722 467.38130188 372.97034836 C467.38222128 371.29761777 467.38222128 371.29761777 467.38315925 369.59109464 C467.38443821 367.32537254 467.38573506 365.05965045 467.38704962 362.79392837 C467.39844595 341.56592819 467.38535711 320.33799718 467.36384815 299.11000834 C467.34598297 280.91534017 467.34907836 262.72077411 467.36752319 244.52610779 C467.38895511 223.3750989 467.39734223 202.22415062 467.38507414 181.0731324 C467.38380001 178.81531963 467.38254252 176.55750685 467.38130188 174.29969406 C467.38068478 173.18893904 467.38006768 172.07818401 467.37943187 170.93376974 C467.37598557 163.12548521 467.38179188 155.31723928 467.39122009 147.50896072 C467.40246748 137.98507785 467.39934275 128.46132677 467.37809712 118.93745889 C467.36762277 114.08289778 467.3634028 109.22855596 467.37669373 104.37399673 C467.38869908 99.92146026 467.3819223 95.46934431 467.36078352 91.01684545 C467.35635163 89.41469391 467.35850589 87.81250612 467.36828667 86.2103783 C467.47620668 67.04780991 462.82752627 49.98418316 449.14682007 35.77464294 C448.38756226 35.02440857 447.62830444 34.27417419 446.84603882 33.50120544 C446.15896851 32.79222107 445.47189819 32.08323669 444.76400757 31.35276794 C430.51091544 17.54921676 412.0784467 13.88599524 393.02796936 13.98654175 C391.25035793 13.98120786 389.47275101 13.97413735 387.69515258 13.96549469 C382.84123751 13.94695191 377.98762929 13.95314341 373.13370192 13.96364772 C367.88678662 13.97066364 362.63993285 13.95462361 357.39303589 13.94165039 C347.12567924 13.92004445 336.85843357 13.92012868 326.59106167 13.92827594 C318.24243227 13.9345846 309.89383514 13.93343095 301.54520607 13.92700386 C300.35540631 13.92610221 299.16560655 13.92520055 297.93975225 13.92427157 C295.52239689 13.9224203 293.10504153 13.92055774 290.68768618 13.91868401 C268.03518111 13.9021171 245.38273837 13.910815 222.73023704 13.92766959 C202.02630043 13.94236223 181.32250901 13.92774226 160.61859109 13.89889943 C139.33769292 13.86947459 118.05686167 13.85854237 96.77594405 13.86808163 C94.36673567 13.86910414 91.95752727 13.87009875 89.54831886 13.87106514 C88.36307357 13.87154153 87.17782828 13.87201792 85.95666647 13.87250875 C77.62435642 13.87466897 69.29211001 13.86488952 60.95981407 13.85029411 C50.7962151 13.83273863 40.63280109 13.8329342 30.46920928 13.85564577 C25.2884168 13.86675921 20.10794981 13.8700163 14.92717171 13.85134506 C10.17536875 13.83444089 5.42417267 13.84102484 0.67240832 13.86556185 C-1.03743348 13.87041314 -2.74732517 13.86701788 -4.45712487 13.85407441 C-27.15770325 13.69476384 -48.08199563 21.96449718 -62.48403931 40.18382263 Z " fill="#22334D" transform="translate(314.1539611816406,238.49879455566406)"/>
<path d="M0 0 C10.85833787 4.96930254 15.90137374 13.8363089 21.27734375 24.1015625 C22.32390515 26.05945825 23.37213584 28.01646244 24.421875 29.97265625 C24.95506348 30.96894043 25.48825195 31.96522461 26.03759766 32.99169922 C28.61366549 37.75356879 31.28744074 42.45864647 33.96484375 47.1640625 C38.71791308 55.53541749 43.42129319 63.93277603 48.08984375 72.3515625 C57.90600198 90.04888438 67.79222116 107.70578572 77.76049805 125.31787109 C84.69078346 137.56874611 91.55292207 149.85779522 98.42285156 162.14257812 C100.18643741 165.29580341 101.95046192 168.44878254 103.71484375 171.6015625 C104.29556641 172.63925781 104.87628906 173.67695312 105.47460938 174.74609375 C109.3275025 181.62533756 113.20306397 188.49141997 117.08984375 195.3515625 C121.84421157 203.7429926 126.5409535 212.16506601 131.21484375 220.6015625 C136.13267121 229.47642081 141.10553963 238.3155105 146.15771484 247.11450195 C151.29450372 256.07071134 156.32904685 265.08352178 161.36328125 274.09765625 C163.39913355 277.74203228 165.44368118 281.38106626 167.50390625 285.01171875 C167.92518799 285.75510498 168.34646973 286.49849121 168.78051758 287.2644043 C169.54380273 288.60955474 170.30911204 289.95355962 171.0769043 291.29614258 C175.16626301 298.51060497 176.05382155 305.70468227 173.8984375 313.8125 C170.78193216 321.95207865 166.53921563 327.14733169 158.65234375 330.9765625 C152.01284428 333.45117126 145.56426035 333.26442807 138.53959656 333.25071716 C137.20011895 333.2551734 135.86064397 333.26048871 134.52117282 333.26658589 C130.85076246 333.28072978 127.18043692 333.28242987 123.51000321 333.28198898 C119.54737171 333.28364035 115.58477485 333.2967127 111.62216187 333.30818176 C102.96309066 333.33100454 94.30404401 333.33894918 85.64494681 333.34400821 C80.23610619 333.34726786 74.82727266 333.35379189 69.41843605 333.3610096 C54.43607024 333.3805706 39.453711 333.39697819 24.4713316 333.39988613 C23.03401331 333.40016749 23.03401331 333.40016749 21.56765829 333.40045452 C19.62523449 333.40082077 17.68281068 333.40118447 15.74038687 333.40154564 C14.77619836 333.40172845 13.81200985 333.40191126 12.81860352 333.40209961 C11.37055124 333.40237043 11.37055124 333.40237043 9.89324538 333.40264673 C-5.751843 333.40618898 -21.39679379 333.43321676 -37.04183445 333.4705975 C-53.11314808 333.50868885 -69.18439345 333.52804366 -85.25575322 333.52834564 C-94.27578352 333.52892996 -103.2956496 333.53740584 -112.31563759 333.56634331 C-119.99529591 333.59086806 -127.67473009 333.5981326 -135.354417 333.58309578 C-139.27070889 333.57593177 -143.18655824 333.57676197 -147.10280037 333.59950638 C-150.69251101 333.62015426 -154.28144054 333.61744306 -157.87114324 333.59663153 C-159.7751955 333.59150538 -161.6792659 333.61087153 -163.58321553 333.63129324 C-172.67962085 333.54261444 -179.24379437 331.45592366 -186.22265625 325.5390625 C-191.97319518 318.60458909 -195.13770903 312.28278927 -194.89453125 303.17578125 C-193.84876119 297.05802642 -190.71920352 291.876657 -187.74316406 286.50878906 C-186.1716059 283.65710935 -184.64504963 280.78364297 -183.12109375 277.90625 C-177.24146026 266.83919166 -171.21150201 255.86938935 -164.95361328 245.01196289 C-160.88972569 237.95528468 -156.91964171 230.84921952 -152.97265625 223.7265625 C-146.37829562 211.82796915 -139.74419715 199.95231622 -133.09033203 188.08691406 C-131.31815491 184.92390811 -129.54926226 181.75908564 -127.78125 178.59375 C-122.3672372 168.90458001 -116.9357921 159.22758203 -111.41015625 149.6015625 C-106.1812774 140.49070367 -101.07475232 131.31444685 -95.98461914 122.12548828 C-91.45358351 113.95101691 -86.87200988 105.80684627 -82.25976562 97.67797852 C-78.09407344 90.32522737 -73.99836938 82.93510712 -69.91015625 75.5390625 C-64.57569455 65.89389009 -59.09480828 56.348995 -53.4921875 46.85742188 C-48.71642788 38.72234953 -44.22135302 30.45032615 -39.87255859 22.0793457 C-34.6538449 12.20894669 -29.70309019 4.70083379 -19.34765625 -0.0234375 C-13.7712265 -2.81165237 -5.75486359 -1.7593632 0 0 Z M-23.34765625 16.9765625 C-26.14031573 21.26983339 -28.52794207 25.76019528 -30.91015625 30.2890625 C-31.60880797 31.59022929 -32.30911119 32.89051055 -33.01098633 34.18994141 C-34.44066165 36.83851797 -35.86439528 39.49015256 -37.28417969 42.14404297 C-40.29435771 47.75420741 -43.41278668 53.30327741 -46.53515625 58.8515625 C-47.10621094 59.86951904 -47.67726563 60.88747559 -48.265625 61.9362793 C-54.79828539 73.57769588 -61.37533343 85.19404221 -67.95214844 96.81054688 C-76.46082531 111.84168061 -84.9172765 126.90138813 -93.34765625 141.9765625 C-95.70123568 146.18522466 -98.05530957 150.39360925 -100.41015625 154.6015625 C-100.991604 155.64070801 -101.57305176 156.67985352 -102.17211914 157.75048828 C-105.47810112 163.65392868 -108.80052882 169.54765953 -112.13842773 175.43310547 C-117.60826776 185.07802911 -123.00299909 194.76188827 -128.34765625 204.4765625 C-134.20823602 215.12899944 -140.14262918 225.73672133 -146.140625 236.3125 C-151.31341219 245.43608097 -156.42264505 254.59539277 -161.54199219 263.74902344 C-163.41613749 267.09896948 -165.29182449 270.4480481 -167.16796875 273.796875 C-168.10781616 275.47450928 -168.10781616 275.47450928 -169.06665039 277.18603516 C-170.25847301 279.31335409 -171.45036291 281.44063533 -172.64233398 283.56787109 C-173.71360875 285.480442 -174.78304439 287.3940446 -175.8503418 289.30883789 C-176.8344913 291.06227041 -177.83044725 292.80913792 -178.83911133 294.54858398 C-179.29310303 295.33821533 -179.74709473 296.12784668 -180.21484375 296.94140625 C-180.61429199 297.62581787 -181.01374023 298.31022949 -181.42529297 299.01538086 C-183.36331296 303.13610998 -183.0676978 306.77621207 -181.6484375 311.11328125 C-179.60414953 315.77977825 -177.17810173 318.98031668 -172.34765625 320.9765625 C-168.02541288 321.57685997 -163.73075422 321.51589549 -159.37294006 321.48449707 C-158.03630835 321.48910802 -156.69968172 321.49546225 -155.36306566 321.50340605 C-151.69588777 321.52009641 -148.02912652 321.51185458 -144.36194718 321.49946117 C-140.40479792 321.49041162 -136.44772035 321.50437998 -132.49058533 321.51538086 C-124.74057246 321.53317221 -116.9907145 321.52932324 -109.24069554 321.5177303 C-102.9417815 321.50869801 -96.64291089 321.50747109 -90.34399223 321.51182556 C-89.44760919 321.51243849 -88.55122615 321.51305143 -87.62767999 321.51368293 C-85.80670129 321.51496183 -83.98572262 321.51625868 -82.16474395 321.5175733 C-65.08693355 321.52898107 -48.00920901 321.51586265 -30.93141269 321.49437183 C-16.27885776 321.47650372 -1.62642959 321.4796022 13.02612305 321.49804688 C30.04112621 321.51945538 47.05605408 321.52787919 64.07106882 321.51559782 C65.88566719 321.51432363 67.70026557 321.51306614 69.51486397 321.51182556 C70.85408919 321.51089991 70.85408919 321.51089991 72.22036947 321.50995556 C78.51098001 321.50650237 84.80154278 321.51233039 91.09214592 321.52174377 C98.75946668 321.53296505 106.42662364 321.52992117 114.09392565 321.5086208 C118.00571594 321.49811158 121.91723321 321.49398615 125.82902145 321.50721741 C129.41114139 321.51915027 132.99273561 321.51256465 136.57480795 321.4913072 C138.48209188 321.48473335 140.3894124 321.49776946 142.29665798 321.51153612 C148.96930506 321.4504202 153.25347028 321.02265364 158.65234375 316.9765625 C162.28974778 312.97541806 163.15107144 308.99212087 163.0390625 303.58984375 C162.23881498 298.18211051 159.32766873 293.66105298 156.65234375 288.9765625 C156.23903809 288.24421387 155.82573242 287.51186523 155.39990234 286.75732422 C152.92768925 282.37972406 150.43221392 278.01599547 147.921875 273.66015625 C144.67877532 268.03148399 141.47197401 262.38286011 138.27734375 256.7265625 C137.4718811 255.30089966 137.4718811 255.30089966 136.65014648 253.84643555 C132.04098167 245.68008644 127.4605714 237.49773245 122.88330078 229.31347656 C118.4615354 221.41090336 114.01088227 213.52503665 109.54907227 205.64501953 C105.5400164 198.55978309 101.56106005 191.45806413 97.58984375 184.3515625 C93.33844184 176.7446502 89.05390668 169.15880026 84.71484375 161.6015625 C79.48505477 152.48934379 74.37755527 143.31174682 69.28710938 134.12109375 C65.29970549 126.92669531 61.27582991 119.75465088 57.21484375 112.6015625 C52.27036956 103.88935914 47.416017 95.12959709 42.58984375 86.3515625 C37.41223213 76.93441583 32.17098117 67.55863048 26.81274414 58.24267578 C23.66460312 52.76563263 20.57902541 47.2578476 17.52734375 41.7265625 C15.90807209 38.80667625 14.28259179 35.89033391 12.65234375 32.9765625 C11.99806396 31.80625488 11.99806396 31.80625488 11.33056641 30.61230469 C10.01227468 28.26835618 8.67855408 25.93389784 7.33984375 23.6015625 C6.9432959 22.89354492 6.54674805 22.18552734 6.13818359 21.45605469 C3.42175088 16.77223502 0.6101411 13.45546118 -4.34765625 10.9765625 C-7.00576962 10.62403163 -7.00576962 10.62403163 -10.03515625 10.5390625 C-11.55689453 10.44818359 -11.55689453 10.44818359 -13.109375 10.35546875 C-17.85924992 11.26648215 -20.25694514 13.30840611 -23.34765625 16.9765625 Z " fill="#1E344E" transform="translate(520.34765625,346.0234375)"/>
<path d="M0 0 C4.37209124 3.69198816 7.7365325 7.39512547 8.32592773 13.22241211 C8.28640991 15.01304077 8.28640991 15.01304077 8.24609375 16.83984375 C8.23420517 17.4936351 8.22231659 18.14742645 8.21006775 18.82102966 C8.04511541 26.07877024 7.5681631 33.32183472 7.0625 40.5625 C6.88459468 43.16782458 6.70886344 45.7732984 6.53515625 48.37890625 C6.49022537 49.05063873 6.44529449 49.72237122 6.39900208 50.41445923 C6.08820369 55.21512143 5.86152928 60.01600562 5.66201782 64.82249451 C5.18515069 76.2835467 4.43947988 87.70186016 3.43530273 99.12890625 C3.26768515 101.07095823 3.10807334 103.01371512 2.95581055 104.95703125 C2.73080552 107.82721155 2.48330352 110.69465334 2.23046875 113.5625 C2.16675583 114.42496338 2.10304291 115.28742676 2.03739929 116.17602539 C1.52682619 121.57467351 0.45682852 124.78246283 -3 129 C-7.21267777 131.92688054 -12.07157873 131.62286525 -17 131 C-22.07356896 128.60158558 -23.86094796 126.08664686 -26 121 C-26.54385376 117.57922363 -26.54385376 117.57922363 -26.78369141 113.78320312 C-26.83129105 113.08614761 -26.87889069 112.3890921 -26.92793274 111.6709137 C-27.08156079 109.37497787 -27.2167139 107.07835903 -27.3515625 104.78125 C-27.45590814 103.16094133 -27.56134613 101.54070269 -27.66781616 99.92053223 C-27.94533094 95.64876424 -28.20693315 91.37616038 -28.46551514 87.10321045 C-28.72700187 82.83506252 -29.00522539 78.5680088 -29.28125 74.30078125 C-33.41215933 9.9513973 -33.41215933 9.9513973 -28 3 C-20.17072361 -4.41720921 -9.32856379 -5.12356567 0 0 Z " fill="#1C314B" transform="translate(523,450)"/>
<path d="M0 0 C2.875 0.5 2.875 0.5 5.875 2.5 C6.53612559 7.30150804 5.4765736 9.71488675 2.6875 13.5625 C-7.03575889 27.94030068 -9.06617588 43.80703463 -6.82470703 60.77294922 C-5.09323489 69.68617075 -1.07275501 78.46288806 4.53125 85.61328125 C6.48419401 88.3553509 6.36292983 90.22389973 5.875 93.5 C4.1875 95.4375 4.1875 95.4375 1.875 96.5 C-1.42829978 96.30632119 -2.78082647 95.84152094 -5.15234375 93.48828125 C-15.3887695 79.14891185 -19.48587734 65.57431488 -19.4375 48.1875 C-19.45361328 47.04087891 -19.46972656 45.89425781 -19.48632812 44.71289062 C-19.49258573 33.65569893 -17.39672258 23.92165726 -12.25 14.125 C-11.92386719 13.46628906 -11.59773438 12.80757813 -11.26171875 12.12890625 C-5.51553569 0.88248571 -5.51553569 0.88248571 0 0 Z " fill="#21324C" transform="translate(302.125,294.5)"/>
<path d="M0 0 C3.86579388 0.66907971 5.31835205 2.05372958 7.67578125 5.12890625 C19.59013988 23.54738125 23.47634906 44.08474238 19.06640625 65.671875 C15.94995575 76.70619736 11.47948699 87.33301301 3.25 95.5625 C0.3125 95.9375 0.3125 95.9375 -2.75 95.5625 C-4.6875 93.8125 -4.6875 93.8125 -5.75 91.5625 C-5.30302962 87.58446364 -2.98147871 84.4627762 -0.9375 81.125 C7.54299272 66.82963613 10.75266245 49.93071105 7.25 33.5625 C4.8754161 25.25145636 0.74588235 16.13582725 -4.51171875 9.2578125 C-5.75 7.5625 -5.75 7.5625 -5.5625 4.9375 C-4.41129988 1.57245349 -3.49665937 0.71522578 0 0 Z " fill="#21324D" transform="translate(717.75,294.4375)"/>
<path d="M0 0 C4.77076367 2.73434551 7.69052023 6.52664221 9.8125 11.5625 C11.08845442 17.55431298 10.44252662 22.25943743 7.25 27.5 C3.54064444 32.31353583 0.27420139 35.02355248 -5.796875 35.96875 C-11.57256555 36.28784893 -15.83679667 35.56682012 -20.52734375 32.08984375 C-24.47767744 28.45553675 -25.93644554 25.65723567 -26.5625 20.43359375 C-26.74482131 15.42545522 -26.68985326 11.64449163 -24.5625 7.0625 C-17.52660804 -0.34370207 -10.09823326 -4.27232946 0 0 Z " fill="#1D344D" transform="translate(519.1875,596.4375)"/>
<path d="M0 0 C3.56604284 0.55937927 4.82782128 1.50252199 6.95703125 4.3828125 C14.44136724 17.26062236 16.2983384 31.37083024 13.0625 45.875 C11.08285092 52.70007586 8.24359933 60.46260045 2.1875 64.5 C-0.3125 64.875 -0.3125 64.875 -2.8125 64.5 C-4.6875 62.8125 -4.6875 62.8125 -5.8125 60.5 C-5.37106801 56.76958879 -4.15944482 53.96515977 -2.375 50.6875 C3.54167389 39.0935552 3.31277726 28.78726318 -0.64453125 16.4453125 C-1.73243422 13.46686931 -1.73243422 13.46686931 -3.4296875 10.81640625 C-5.197757 7.85464011 -5.18944639 5.89251747 -4.8125 2.5 C-2.8125 0.5 -2.8125 0.5 0 0 Z " fill="#20314C" transform="translate(697.8125,310.5)"/>
<path d="M0 0 C3.5625 0.1875 3.5625 0.1875 5.5625 2.1875 C6.21248525 6.84572764 5.05226774 9.41677059 2.65234375 13.37109375 C-2.61094206 22.14323677 -2.66866008 32.30906218 -0.8984375 42.19921875 C0.19906924 46.13697645 1.62618216 49.42851286 3.8125 52.875 C5.92060209 56.86533611 5.61731243 58.88034924 4.5625 63.1875 C1.0975 63.6825 1.0975 63.6825 -2.4375 64.1875 C-10.78952113 53.97019415 -13.61390115 45.05459609 -13.6875 32 C-13.708125 31.10474609 -13.72875 30.20949219 -13.75 29.28710938 C-13.80004311 20.62339513 -12.01663656 12.98851025 -7.3125 5.625 C-6.79429687 4.79871094 -6.27609375 3.97242188 -5.7421875 3.12109375 C-3.77518066 0.20591895 -3.77518066 0.20591895 0 0 Z " fill="#22314B" transform="translate(322.4375,310.8125)"/>
<path d="M0 0 C4.13214993 1.43360304 5.04474905 3.2431857 7.0625 7.0625 C9.94618258 13.26241754 10.1455976 20.36361951 8.234375 26.890625 C6.79076295 30.5750677 5.26189543 33.76340685 3.0625 37.0625 C-0.4375 37.375 -0.4375 37.375 -3.9375 37.0625 C-5.9375 35.0625 -5.9375 35.0625 -6.1875 32.25 C-5.9375 29.0625 -5.9375 29.0625 -4.9375 26.7109375 C-3.83703723 23.79643063 -3.6702321 21.60390516 -3.6875 18.5 C-3.68234375 17.57058594 -3.6771875 16.64117187 -3.671875 15.68359375 C-3.94634171 12.97525312 -4.65597546 11.42609001 -5.9375 9.0625 C-6.26054569 5.89665221 -6.4270192 3.90556084 -4.8125 1.125 C-2.9375 0.0625 -2.9375 0.0625 0 0 Z " fill="#233551" transform="translate(677.9375,323.9375)"/>
<path d="M0 0 C2 3 2 3 1.75 5.9375 C1 9 1 9 -0.02734375 10.88671875 C-1.7989017 14.73576635 -1.45995789 18.85380818 -1 23 C-0.04605164 25.02237052 0.94535351 27.0282696 2 29 C1.7658669 32.43395207 1.44988842 33.55011158 -1 36 C-3.8125 36.625 -3.8125 36.625 -7 36 C-12.75348381 29.40491616 -13.51276908 22.37620142 -13.359375 13.89453125 C-12.86520315 8.53921243 -11.17665582 4.33180338 -8 0 C-5.06791253 -1.46604374 -3.11702298 -0.77925574 0 0 Z " fill="#21334E" transform="translate(347,325)"/>
<path d="M0 0 C0.99 0.33 1.98 0.66 3 1 C-0.08993314 4.35478456 -2.53194683 6.79241806 -7 8 C-7.66 7.67 -8.32 7.34 -9 7 C-7.57277341 5.8001722 -6.13284224 4.6154424 -4.6875 3.4375 C-3.88699219 2.77621094 -3.08648438 2.11492188 -2.26171875 1.43359375 C-1.51535156 0.96050781 -0.76898437 0.48742187 0 0 Z " fill="#263A53" transform="translate(758,753)"/>
<path d="M0 0 C2 2 2 2 2.9375 4.5 C3.8583474 7.30191747 3.8583474 7.30191747 7 9 C4.6875 9.25 4.6875 9.25 2 9 C0.125 7.3125 0.125 7.3125 -1 5 C-0.6875 2.25 -0.6875 2.25 0 0 Z " fill="#364962" transform="translate(693,366)"/>
<path d="M0 0 C1.1171875 1.734375 1.1171875 1.734375 2 4 C1.3203125 6.140625 1.3203125 6.140625 0.125 8.25 C-0.26429688 8.95640625 -0.65359375 9.6628125 -1.0546875 10.390625 C-1.36664062 10.92171875 -1.67859375 11.4528125 -2 12 C-2.33 12 -2.66 12 -3 12 C-2.49202991 7.6822542 -1.80317221 3.96697886 0 0 Z " fill="#2A3D54" transform="translate(776,727)"/>
<path d="M0 0 C0.66 0 1.32 0 2 0 C1.67 1.32 1.34 2.64 1 4 C1.99 3.67 2.98 3.34 4 3 C4.33 4.32 4.66 5.64 5 7 C3.35 7 1.7 7 0 7 C-0.38133299 5.0085944 -0.71325582 3.00720923 -1 1 C-0.67 0.67 -0.34 0.34 0 0 Z " fill="#162B4F" transform="translate(696,367)"/>
<path d="M0 0 C0.66 0.99 1.32 1.98 2 3 C0.75 5.9375 0.75 5.9375 -1 9 C-2.32 9.33 -3.64 9.66 -5 10 C-3.35 6.7 -1.7 3.4 0 0 Z " fill="#2A4259" transform="translate(720,370)"/>
<path d="M0 0 C0.66 0.33 1.32 0.66 2 1 C0.02 3.97 0.02 3.97 -2 7 C-2.99 6.34 -3.98 5.68 -5 5 C-3.35 3.35 -1.7 1.7 0 0 Z " fill="#2D425A" transform="translate(767,744)"/>
<path d="M0 0 C0.66 0.99 1.32 1.98 2 3 C-0.625 7.875 -0.625 7.875 -4 9 C-2.80100302 5.9168649 -1.52299523 2.93720508 0 0 Z " fill="#293B52" transform="translate(236,277)"/>
<path d="M0 0 C1.65 0.33 3.3 0.66 5 1 C4.67 1.99 4.34 2.98 4 4 C2.35 4 0.7 4 -1 4 C-0.67 2.68 -0.34 1.36 0 0 Z " fill="#23335E" transform="translate(778,744)"/>
<path d="M0 0 C1.2065625 0.0309375 1.2065625 0.0309375 2.4375 0.0625 C0.07457344 2.58838702 -1.22712511 3.95070837 -4.5625 5.0625 C-3.43829114 0.08386076 -3.43829114 0.08386076 0 0 Z " fill="#182742" transform="translate(717.5625,294.9375)"/>
<path d="M0 0 C0.66 0 1.32 0 2 0 C2.33 1.32 2.66 2.64 3 4 C1.68 4.99 0.36 5.98 -1 7 C-0.67 4.69 -0.34 2.38 0 0 Z " fill="#24374D" transform="translate(230,289)"/>
</svg>
