<?xml version="1.0" encoding="UTF-8"?>
<svg version="1.1" xmlns="http://www.w3.org/2000/svg" width="1024" height="1024">
<path d="M0 0 C337.92 0 675.84 0 1024 0 C1024 337.92 1024 675.84 1024 1024 C686.08 1024 348.16 1024 0 1024 C0 686.08 0 348.16 0 0 Z " fill="#FDFDFD" transform="translate(0,0)"/>
<path d="M0 0 C1.80097423 -0.00462079 3.60194467 -0.01098154 5.40290737 -0.01890898 C10.30286905 -0.03546377 15.20251538 -0.02741964 20.10247755 -0.0149641 C25.40591436 -0.00585866 30.70929952 -0.01991041 36.01272583 -0.03088379 C46.38281327 -0.04861528 56.75278452 -0.04485302 67.12287641 -0.03323323 C75.55530575 -0.02417798 83.98770268 -0.02298393 92.4201355 -0.02732849 C94.22440432 -0.02824789 94.22440432 -0.02824789 96.06512302 -0.02918586 C98.50913152 -0.03046484 100.95314001 -0.03176169 103.39714849 -0.03307623 C126.28290511 -0.0444663 149.1685975 -0.03139303 172.05434358 -0.00987476 C191.66622539 0.00799477 211.27801248 0.00489022 230.88989258 -0.0135498 C253.69705926 -0.03498433 276.50416975 -0.04336781 299.3113451 -0.03110075 C301.7460664 -0.02982663 304.18078771 -0.02856915 306.61550903 -0.02732849 C307.81325421 -0.02671139 309.01099939 -0.02609429 310.24503988 -0.02545848 C318.66157318 -0.02201333 327.07807064 -0.0278159 335.49459839 -0.0372467 C345.75979504 -0.04849678 356.02486943 -0.04536353 366.29005218 -0.02412373 C371.52158313 -0.01365376 376.75291067 -0.00942197 381.98443985 -0.02272034 C386.78355613 -0.0347345 391.58228254 -0.02793463 396.38136399 -0.00681013 C398.10725338 -0.00238199 399.83317646 -0.00452378 401.55904377 -0.01431328 C425.17661383 -0.13788659 448.14503931 6.49898089 465.88500977 22.81262207 C484.66613434 42.31264137 492.01271956 65.13425362 491.90550232 91.83883667 C491.90968361 93.55131205 491.91516546 95.26378465 491.92182213 96.9762522 C491.93619108 101.64544069 491.93205897 106.31445138 491.92465532 110.98364925 C491.91990466 116.03353437 491.9324502 121.08338207 491.94267273 126.133255 C491.95982884 136.01210259 491.96070738 145.89088648 491.95545983 155.7697451 C491.95141103 163.80274743 491.9528701 171.83573101 491.95820808 179.86873245 C491.95895651 181.01399094 491.95970493 182.15924943 491.96047603 183.33921272 C491.96200758 185.66613455 491.96354592 187.99305637 491.965091 190.31997819 C491.97880445 212.11883943 491.97338641 233.91766474 491.96190578 255.71652515 C491.95197412 275.6379296 491.96491502 295.55924116 491.98883998 315.48063128 C492.01325058 335.96150616 492.02283405 356.44233782 492.01618725 376.92322695 C492.01269946 388.41146523 492.01489805 399.8996321 492.03243828 411.38785934 C492.04718475 421.16713446 492.0477637 430.94628786 492.03036737 440.72556065 C492.02187528 445.70987219 492.01966395 450.69396651 492.03501892 455.67826653 C492.04892939 460.25046503 492.04402178 464.82226152 492.02477968 469.39443715 C492.02103879 471.03897504 492.02388583 472.68354564 492.03439134 474.32805423 C492.16001178 495.51706027 486.36514355 515.42885263 473.51782227 532.50793457 C472.99833008 533.2117627 472.47883789 533.91559082 471.94360352 534.64074707 C459.3367417 550.32787487 439.26756895 560.67247348 419.51782227 563.50793457 C417.01201796 563.59854881 414.50408505 563.63698929 411.99664402 563.63936234 C410.88627139 563.64244129 410.88627139 563.64244129 409.75346699 563.64558244 C407.27130189 563.65123992 404.7891925 563.64979673 402.30702209 563.64837646 C400.50999575 563.65096083 398.71296997 563.65397419 396.91594499 563.65737987 C391.97596966 563.66544496 387.03600887 563.66723917 382.09602773 563.66797733 C376.7685942 563.66982878 371.44116819 563.67737666 366.11373901 563.68411255 C354.46263331 563.69769372 342.81153105 563.70372048 331.16041875 563.70812321 C323.88331164 563.71088644 316.60620586 563.71512399 309.32909966 563.71962738 C289.17574808 563.73182061 269.02239758 563.74211927 248.8690424 563.74550247 C247.57918044 563.74572204 246.28931848 563.7459416 244.96036979 563.74616782 C243.66743801 563.7463861 242.37450623 563.74660438 241.0423947 563.74682927 C238.42246886 563.74727274 235.80254302 563.7477193 233.18261719 563.74816895 C231.8830462 563.74839038 230.58347521 563.7486118 229.24452328 563.74883994 C208.19677879 563.75278616 187.14906896 563.77023458 166.10133786 563.79352847 C144.48506689 563.81725813 122.86881329 563.82970509 101.25252908 563.83087039 C89.1186668 563.83178633 76.98484966 563.83751814 64.85099983 563.85569 C54.51633829 563.87111289 44.18173584 563.87619859 33.84706498 563.8679519 C28.57740208 563.86405294 23.30785808 563.8649381 18.03820992 563.87900925 C13.20614088 563.89179351 8.37427956 563.89051107 3.54221063 563.87841853 C1.80189036 563.87646933 0.06155513 563.8795037 -1.67874419 563.8882629 C-27.23626902 564.00866696 -49.22507981 556.60048804 -67.72827148 538.45324707 C-85.89966069 519.62994108 -90.80645196 495.61263683 -90.74287415 470.44204712 C-90.74589936 468.73399911 -90.7497907 467.02595246 -90.75446671 465.31790817 C-90.7647076 460.6517738 -90.76257491 455.98571661 -90.75828612 451.31957603 C-90.75581179 446.27651892 -90.76484179 441.23348005 -90.77232361 436.19042969 C-90.78505276 426.32134787 -90.78686655 416.45229329 -90.78452335 406.58320464 C-90.78273812 398.55919873 -90.78449421 390.53520106 -90.78874779 382.51119614 C-90.78934298 381.36786458 -90.78993817 380.22453303 -90.79055139 379.04655506 C-90.79176318 376.72365571 -90.79297731 374.40075636 -90.79419377 372.077857 C-90.80506232 350.30911684 -90.80290999 328.54039217 -90.79680892 306.77165113 C-90.79163973 286.87141744 -90.80289651 266.9712327 -90.82190714 247.0710087 C-90.84129403 226.61959214 -90.84954009 206.16819872 -90.84578389 185.71677291 C-90.84387322 174.24199365 -90.84634637 162.76725604 -90.86049843 151.29248428 C-90.87242398 141.52446804 -90.87380387 131.75651911 -90.86170826 121.98850192 C-90.85582802 117.00853509 -90.85469654 112.02869132 -90.86671066 107.04873276 C-90.87759765 102.48279022 -90.87443275 97.91707308 -90.86044898 93.35114096 C-90.8578098 91.70657783 -90.86014386 90.06199687 -90.86818484 88.41745128 C-90.98289691 63.18914487 -83.27320395 41.67575152 -65.45874023 23.32824707 C-47.19434339 5.45168081 -24.61079513 -0.13959789 0 0 Z " fill="#FCFCFC" transform="translate(311.482177734375,237.4920654296875)"/>
<path d="M0 0 C1.33804688 0.29197266 1.33804688 0.29197266 2.703125 0.58984375 C20.71123693 5.03921644 37.25898241 13.54596533 51 26 C52.46566406 27.32451172 52.46566406 27.32451172 53.9609375 28.67578125 C73.19156129 46.65842736 86.68679026 72.72520044 88.12280273 99.27001953 C88.49623265 110.7998099 88.19106101 121.83656096 85 133 C84.76893555 133.80969238 84.53787109 134.61938477 84.29980469 135.45361328 C79.9922121 150.12381069 74.31351127 162.77601645 65 175 C65.91244206 176.25308709 66.83017771 177.50232026 67.75 178.75 C68.26046875 179.44609375 68.7709375 180.1421875 69.296875 180.859375 C71.905111 184.16635131 71.905111 184.16635131 75 187 C78.01292162 187.25857919 78.01292162 187.25857919 81.25 186.875 C86.86017609 186.73755693 89.79088732 187.16649731 93.98046875 190.90625 C97.9625671 195.03469239 101.87158989 199.20181424 105.67138672 203.49804688 C107.59997212 205.67824853 109.55086681 207.8381707 111.5 210 C112.21929688 210.80179688 112.93859375 211.60359375 113.6796875 212.4296875 C116.31079759 215.3442842 118.96650534 218.23541039 121.625 221.125 C125.14245216 224.94904656 128.59875204 228.81558207 131.9921875 232.75 C133.65682421 234.61542946 135.34943576 236.43702583 137.0703125 238.25 C155.77505836 257.98671325 155.77505836 257.98671325 155.40234375 273.90234375 C154.96846883 280.63280907 151.88075632 285.27055614 147.06640625 289.83203125 C140.57496018 295.03278044 134.19658841 297.71736539 125.81640625 297.38671875 C112.33638482 295.53578654 103.17552023 282.68170502 94.78344727 273.02416992 C91.86860063 269.71588881 88.84076451 266.51668693 85.8125 263.3125 C84.4878845 261.90532128 83.16367073 260.49776431 81.83984375 259.08984375 C81.18999512 258.39874512 80.54014648 257.70764648 79.87060547 256.99560547 C76.70591538 253.6194404 73.56712011 250.21958928 70.43896484 246.80957031 C67.80899805 243.94553203 65.15653755 241.10663296 62.47265625 238.29296875 C61.88307129 237.6705127 61.29348633 237.04805664 60.68603516 236.40673828 C59.55469625 235.21347745 58.41798053 234.02528177 57.27490234 232.84326172 C53.479526 228.82455807 50.37006723 225.00899905 49.671875 219.33203125 C49.69765625 218.50058594 49.7234375 217.66914062 49.75 216.8125 C49.76546875 215.97332031 49.7809375 215.13414062 49.796875 214.26953125 C50 212 50 212 51 209 C49.62500127 207.29548088 48.22420707 205.61174314 46.8125 203.9375 C46.03519531 202.99777344 45.25789062 202.05804687 44.45703125 201.08984375 C42.22467026 198.73554285 42.22467026 198.73554285 39.53515625 198.9921875 C36.66619976 200.13269717 34.23309154 201.53278646 31.625 203.1875 C8.20075733 217.09386304 -21.29778433 221.39572244 -47.83984375 214.90234375 C-48.88269531 214.60457031 -49.92554688 214.30679688 -51 214 C-51.99128906 213.73316406 -52.98257813 213.46632813 -54.00390625 213.19140625 C-82.21903413 204.73813891 -105.62744027 184.96944958 -119.85229492 159.39306641 C-122.67972047 154.01600649 -124.89877446 148.46813973 -126.9375 142.75 C-127.22012695 141.95899902 -127.50275391 141.16799805 -127.79394531 140.35302734 C-131.45843136 129.44724709 -132.36742217 118.63955731 -132.3125 107.1875 C-132.30686035 105.95354492 -132.3012207 104.71958984 -132.29541016 103.44824219 C-131.92046605 75.30144798 -119.91346857 48.94921986 -100 29 C-84.15965458 14.54474043 -65.88840968 4.69164055 -45 0 C-44.12601563 -0.22558594 -43.25203125 -0.45117188 -42.3515625 -0.68359375 C-28.94037896 -3.75082027 -13.3415425 -2.92997964 0 0 Z " fill="#1F324D" transform="translate(558,365)"/>
<path d="M0 0 C1.80097423 -0.00462079 3.60194467 -0.01098154 5.40290737 -0.01890898 C10.30286905 -0.03546377 15.20251538 -0.02741964 20.10247755 -0.0149641 C25.40591436 -0.00585866 30.70929952 -0.01991041 36.01272583 -0.03088379 C46.38281327 -0.04861528 56.75278452 -0.04485302 67.12287641 -0.03323323 C75.55530575 -0.02417798 83.98770268 -0.02298393 92.4201355 -0.02732849 C94.22440432 -0.02824789 94.22440432 -0.02824789 96.06512302 -0.02918586 C98.50913152 -0.03046484 100.95314001 -0.03176169 103.39714849 -0.03307623 C126.28290511 -0.0444663 149.1685975 -0.03139303 172.05434358 -0.00987476 C191.66622539 0.00799477 211.27801248 0.00489022 230.88989258 -0.0135498 C253.69705926 -0.03498433 276.50416975 -0.04336781 299.3113451 -0.03110075 C301.7460664 -0.02982663 304.18078771 -0.02856915 306.61550903 -0.02732849 C307.81325421 -0.02671139 309.01099939 -0.02609429 310.24503988 -0.02545848 C318.66157318 -0.02201333 327.07807064 -0.0278159 335.49459839 -0.0372467 C345.75979504 -0.04849678 356.02486943 -0.04536353 366.29005218 -0.02412373 C371.52158313 -0.01365376 376.75291067 -0.00942197 381.98443985 -0.02272034 C386.78355613 -0.0347345 391.58228254 -0.02793463 396.38136399 -0.00681013 C398.10725338 -0.00238199 399.83317646 -0.00452378 401.55904377 -0.01431328 C425.17661383 -0.13788659 448.14503931 6.49898089 465.88500977 22.81262207 C484.66613434 42.31264137 492.01271956 65.13425362 491.90550232 91.83883667 C491.90968361 93.55131205 491.91516546 95.26378465 491.92182213 96.9762522 C491.93619108 101.64544069 491.93205897 106.31445138 491.92465532 110.98364925 C491.91990466 116.03353437 491.9324502 121.08338207 491.94267273 126.133255 C491.95982884 136.01210259 491.96070738 145.89088648 491.95545983 155.7697451 C491.95141103 163.80274743 491.9528701 171.83573101 491.95820808 179.86873245 C491.95895651 181.01399094 491.95970493 182.15924943 491.96047603 183.33921272 C491.96200758 185.66613455 491.96354592 187.99305637 491.965091 190.31997819 C491.97880445 212.11883943 491.97338641 233.91766474 491.96190578 255.71652515 C491.95197412 275.6379296 491.96491502 295.55924116 491.98883998 315.48063128 C492.01325058 335.96150616 492.02283405 356.44233782 492.01618725 376.92322695 C492.01269946 388.41146523 492.01489805 399.8996321 492.03243828 411.38785934 C492.04718475 421.16713446 492.0477637 430.94628786 492.03036737 440.72556065 C492.02187528 445.70987219 492.01966395 450.69396651 492.03501892 455.67826653 C492.04892939 460.25046503 492.04402178 464.82226152 492.02477968 469.39443715 C492.02103879 471.03897504 492.02388583 472.68354564 492.03439134 474.32805423 C492.16001178 495.51706027 486.36514355 515.42885263 473.51782227 532.50793457 C472.99833008 533.2117627 472.47883789 533.91559082 471.94360352 534.64074707 C459.3367417 550.32787487 439.26756895 560.67247348 419.51782227 563.50793457 C417.01201796 563.59854881 414.50408505 563.63698929 411.99664402 563.63936234 C410.88627139 563.64244129 410.88627139 563.64244129 409.75346699 563.64558244 C407.27130189 563.65123992 404.7891925 563.64979673 402.30702209 563.64837646 C400.50999575 563.65096083 398.71296997 563.65397419 396.91594499 563.65737987 C391.97596966 563.66544496 387.03600887 563.66723917 382.09602773 563.66797733 C376.7685942 563.66982878 371.44116819 563.67737666 366.11373901 563.68411255 C354.46263331 563.69769372 342.81153105 563.70372048 331.16041875 563.70812321 C323.88331164 563.71088644 316.60620586 563.71512399 309.32909966 563.71962738 C289.17574808 563.73182061 269.02239758 563.74211927 248.8690424 563.74550247 C247.57918044 563.74572204 246.28931848 563.7459416 244.96036979 563.74616782 C243.66743801 563.7463861 242.37450623 563.74660438 241.0423947 563.74682927 C238.42246886 563.74727274 235.80254302 563.7477193 233.18261719 563.74816895 C231.8830462 563.74839038 230.58347521 563.7486118 229.24452328 563.74883994 C208.19677879 563.75278616 187.14906896 563.77023458 166.10133786 563.79352847 C144.48506689 563.81725813 122.86881329 563.82970509 101.25252908 563.83087039 C89.1186668 563.83178633 76.98484966 563.83751814 64.85099983 563.85569 C54.51633829 563.87111289 44.18173584 563.87619859 33.84706498 563.8679519 C28.57740208 563.86405294 23.30785808 563.8649381 18.03820992 563.87900925 C13.20614088 563.89179351 8.37427956 563.89051107 3.54221063 563.87841853 C1.80189036 563.87646933 0.06155513 563.8795037 -1.67874419 563.8882629 C-27.23626902 564.00866696 -49.22507981 556.60048804 -67.72827148 538.45324707 C-85.89966069 519.62994108 -90.80645196 495.61263683 -90.74287415 470.44204712 C-90.74589936 468.73399911 -90.7497907 467.02595246 -90.75446671 465.31790817 C-90.7647076 460.6517738 -90.76257491 455.98571661 -90.75828612 451.31957603 C-90.75581179 446.27651892 -90.76484179 441.23348005 -90.77232361 436.19042969 C-90.78505276 426.32134787 -90.78686655 416.45229329 -90.78452335 406.58320464 C-90.78273812 398.55919873 -90.78449421 390.53520106 -90.78874779 382.51119614 C-90.78934298 381.36786458 -90.78993817 380.22453303 -90.79055139 379.04655506 C-90.79176318 376.72365571 -90.79297731 374.40075636 -90.79419377 372.077857 C-90.80506232 350.30911684 -90.80290999 328.54039217 -90.79680892 306.77165113 C-90.79163973 286.87141744 -90.80289651 266.9712327 -90.82190714 247.0710087 C-90.84129403 226.61959214 -90.84954009 206.16819872 -90.84578389 185.71677291 C-90.84387322 174.24199365 -90.84634637 162.76725604 -90.86049843 151.29248428 C-90.87242398 141.52446804 -90.87380387 131.75651911 -90.86170826 121.98850192 C-90.85582802 117.00853509 -90.85469654 112.02869132 -90.86671066 107.04873276 C-90.87759765 102.48279022 -90.87443275 97.91707308 -90.86044898 93.35114096 C-90.8578098 91.70657783 -90.86014386 90.06199687 -90.86818484 88.41745128 C-90.98289691 63.18914487 -83.27320395 41.67575152 -65.45874023 23.32824707 C-47.19434339 5.45168081 -24.61079513 -0.13959789 0 0 Z M-59.12670898 36.69934082 C-72.65607335 52.83136898 -76.95179346 70.09726719 -76.86985779 90.64302063 C-76.87403696 92.35860739 -76.87951766 94.07419138 -76.8861776 95.78977031 C-76.90057454 100.47680931 -76.89640553 105.16367161 -76.88901079 109.85072005 C-76.8842671 114.91629963 -76.89679961 119.98184164 -76.9070282 125.04740906 C-76.92419834 134.96095348 -76.92505986 144.87443447 -76.91981529 154.78798989 C-76.91576884 162.84869929 -76.9172228 170.90938999 -76.92256355 178.9700985 C-76.92331197 180.11869205 -76.9240604 181.2672856 -76.9248315 182.45068502 C-76.92636303 184.78429265 -76.92790137 187.11790027 -76.92944647 189.45150789 C-76.94316519 211.321387 -76.93773835 233.19123032 -76.92626125 255.06110861 C-76.91633076 275.05121418 -76.92926751 295.04122717 -76.95319545 315.03131846 C-76.97760182 335.57653588 -76.98719045 356.1217102 -76.98054272 376.66694182 C-76.97705377 388.19374292 -76.97926113 399.72047284 -76.99679375 411.24726295 C-77.01153499 421.06028499 -77.01212606 430.87318572 -76.99472284 440.68620542 C-76.98622613 445.6886063 -76.98403076 450.69079065 -76.99937439 455.69318008 C-77.01327117 460.28082591 -77.00839455 464.86807076 -76.98913515 469.45569368 C-76.98539007 471.10700299 -76.98825362 472.75834481 -76.9987468 474.40962503 C-77.07833699 487.90406008 -75.22324656 500.52502995 -68.91967773 512.69543457 C-68.41259277 513.68458862 -68.41259277 513.68458862 -67.89526367 514.69372559 C-59.36065958 530.50570621 -44.34070355 541.80110841 -27.48217773 547.50793457 C-18.7244769 550.06398837 -9.98439354 549.79318805 -0.94857788 549.77536011 C0.84691413 549.77909933 2.6424045 549.78370193 4.43789232 549.78909075 C9.3597039 549.80130269 14.28144741 549.80106241 19.20327067 549.798702 C24.51634308 549.79829337 29.82939379 549.80933741 35.14245605 549.81881714 C45.54769353 549.83541857 55.95290834 549.84092631 66.35815795 549.84204189 C74.81844011 549.84299284 83.2787148 549.84710548 91.7389946 549.85344315 C115.73700249 549.87105377 139.73499251 549.88028238 163.73300691 549.8787822 C165.6729578 549.87866233 165.6729578 549.87866233 167.65209961 549.87854004 C168.94698348 549.87845828 170.24186735 549.87837652 171.57599013 549.87829228 C192.55566022 549.87747959 213.53525847 549.89661345 234.51490779 549.92481677 C256.06799678 549.95356181 277.62105076 549.96735615 299.17415941 549.96562922 C311.2699826 549.96496585 323.3657305 549.97043509 335.46153641 549.99198532 C345.76137414 550.01021846 356.06110245 550.01452694 366.36094935 550.00096647 C371.61243779 549.99444745 376.86371645 549.99428115 382.11518478 550.01167297 C386.93053906 550.02745591 391.74551812 550.0244869 396.56086354 550.00710471 C398.29503736 550.00404627 400.02923955 550.00762318 401.76337989 550.01882486 C423.64792107 550.15073016 442.23356793 544.0824123 458.40454102 528.71496582 C466.77909319 519.88875241 472.54424735 508.22558622 475.51782227 496.50793457 C475.76787409 495.5654002 475.76787409 495.5654002 476.02297747 494.60382473 C477.95239402 486.38570039 477.80286 478.19328751 477.7852478 469.80990601 C477.78898847 468.11738353 477.79359165 466.42486278 477.79897845 464.73234475 C477.8111725 460.09976126 477.81095223 455.46725019 477.8085897 450.83465433 C477.80818062 445.83105776 477.81922942 440.82748413 477.82870483 435.82389832 C477.84529638 426.02740155 477.85081356 416.23092885 477.85192959 406.4344192 C477.852881 398.46806722 477.85699591 390.50172316 477.86333084 382.53537369 C477.88093867 359.93177758 477.8901705 337.32820045 477.88866989 314.72459744 C477.88858998 313.50679986 477.88851007 312.28900229 477.88842773 311.03430176 C477.88834597 309.81501107 477.88826421 308.59572038 477.88817997 307.33948149 C477.88736734 287.58595538 477.90650062 267.83250557 477.93470447 248.07900153 C477.96345896 227.77905949 477.97724333 207.47915463 477.97551692 187.17919171 C477.97485387 175.7892574 477.98030851 164.39940307 478.00187302 153.00948715 C478.02011863 143.3106361 478.02440444 133.61190127 478.01085417 123.91304044 C478.00434143 118.96925689 478.00414585 114.0256961 478.02156067 109.08193398 C478.03737176 104.54659024 478.03434641 100.01164441 478.01699241 95.47630991 C478.01394009 93.84510836 478.01748732 92.21387651 478.02871256 90.58271073 C478.16500504 69.35321428 472.61799802 50.1637968 457.51782227 34.50793457 C448.25916998 25.7087342 437.75954646 20.00786931 425.51782227 16.50793457 C424.30435781 16.15753018 423.09089334 15.8071258 421.84065723 15.4461031 C414.37073512 13.82937586 406.64390186 14.22905569 399.03996277 14.24723816 C397.25058261 14.24421554 395.46120373 14.2403255 393.67182714 14.23564559 C388.76702327 14.22537108 383.86229255 14.22754604 378.9574827 14.23182619 C373.66287536 14.2342944 368.36828559 14.22527803 363.07368469 14.2177887 C352.70554618 14.2050422 342.33743357 14.20324796 331.96928855 14.20558896 C323.54092223 14.20737239 315.11256376 14.20562194 306.68419838 14.20136452 C305.48437569 14.20076933 304.28455299 14.20017414 303.04837203 14.19956091 C300.61087661 14.19834915 298.17338119 14.19713502 295.73588578 14.19591854 C272.87894987 14.18504312 250.02202871 14.18720546 227.16509197 14.19330338 C206.26100576 14.19847213 185.35696616 14.1872182 164.45288917 14.16820516 C142.98230627 14.14882676 121.51174543 14.1405708 100.04115373 14.14432842 C87.98959559 14.14624051 75.93807711 14.14375212 63.88652611 14.12961388 C53.62650655 14.11769908 43.36655107 14.11629631 33.10653063 14.12840404 C27.87367625 14.13429208 22.64093907 14.13539414 17.4080925 14.12340164 C12.61330287 14.11254094 7.81872828 14.11564853 3.02394871 14.12966333 C1.29386772 14.13230973 -0.43623012 14.12994552 -2.16629455 14.12192746 C-24.21255762 14.02688417 -43.5513935 20.43068855 -59.12670898 36.69934082 Z " fill="#22324C" transform="translate(311.482177734375,237.4920654296875)"/>
<path d="M0 0 C1.33804688 0.29197266 1.33804688 0.29197266 2.703125 0.58984375 C20.71123693 5.03921644 37.25898241 13.54596533 51 26 C52.46566406 27.32451172 52.46566406 27.32451172 53.9609375 28.67578125 C73.19156129 46.65842736 86.68679026 72.72520044 88.12280273 99.27001953 C88.49623265 110.7998099 88.19106101 121.83656096 85 133 C84.76893555 133.80969238 84.53787109 134.61938477 84.29980469 135.45361328 C79.9922121 150.12381069 74.31351127 162.77601645 65 175 C65.91244206 176.25308709 66.83017771 177.50232026 67.75 178.75 C68.26046875 179.44609375 68.7709375 180.1421875 69.296875 180.859375 C71.905111 184.16635131 71.905111 184.16635131 75 187 C78.01292162 187.25857919 78.01292162 187.25857919 81.25 186.875 C86.86017609 186.73755693 89.79088732 187.16649731 93.98046875 190.90625 C97.9625671 195.03469239 101.87158989 199.20181424 105.67138672 203.49804688 C107.59997212 205.67824853 109.55086681 207.8381707 111.5 210 C112.21929688 210.80179688 112.93859375 211.60359375 113.6796875 212.4296875 C116.31079759 215.3442842 118.96650534 218.23541039 121.625 221.125 C125.14245216 224.94904656 128.59875204 228.81558207 131.9921875 232.75 C133.65682421 234.61542946 135.34943576 236.43702583 137.0703125 238.25 C155.77505836 257.98671325 155.77505836 257.98671325 155.40234375 273.90234375 C154.96846883 280.63280907 151.88075632 285.27055614 147.06640625 289.83203125 C140.57496018 295.03278044 134.19658841 297.71736539 125.81640625 297.38671875 C112.33638482 295.53578654 103.17552023 282.68170502 94.78344727 273.02416992 C91.86860063 269.71588881 88.84076451 266.51668693 85.8125 263.3125 C84.4878845 261.90532128 83.16367073 260.49776431 81.83984375 259.08984375 C81.18999512 258.39874512 80.54014648 257.70764648 79.87060547 256.99560547 C76.70591538 253.6194404 73.56712011 250.21958928 70.43896484 246.80957031 C67.80899805 243.94553203 65.15653755 241.10663296 62.47265625 238.29296875 C61.88307129 237.6705127 61.29348633 237.04805664 60.68603516 236.40673828 C59.55469625 235.21347745 58.41798053 234.02528177 57.27490234 232.84326172 C53.479526 228.82455807 50.37006723 225.00899905 49.671875 219.33203125 C49.69765625 218.50058594 49.7234375 217.66914062 49.75 216.8125 C49.76546875 215.97332031 49.7809375 215.13414062 49.796875 214.26953125 C50 212 50 212 51 209 C49.62500127 207.29548088 48.22420707 205.61174314 46.8125 203.9375 C46.03519531 202.99777344 45.25789062 202.05804687 44.45703125 201.08984375 C42.22467026 198.73554285 42.22467026 198.73554285 39.53515625 198.9921875 C36.66619976 200.13269717 34.23309154 201.53278646 31.625 203.1875 C8.20075733 217.09386304 -21.29778433 221.39572244 -47.83984375 214.90234375 C-48.88269531 214.60457031 -49.92554688 214.30679688 -51 214 C-51.99128906 213.73316406 -52.98257813 213.46632813 -54.00390625 213.19140625 C-82.21903413 204.73813891 -105.62744027 184.96944958 -119.85229492 159.39306641 C-122.67972047 154.01600649 -124.89877446 148.46813973 -126.9375 142.75 C-127.22012695 141.95899902 -127.50275391 141.16799805 -127.79394531 140.35302734 C-131.45843136 129.44724709 -132.36742217 118.63955731 -132.3125 107.1875 C-132.30686035 105.95354492 -132.3012207 104.71958984 -132.29541016 103.44824219 C-131.92046605 75.30144798 -119.91346857 48.94921986 -100 29 C-84.15965458 14.54474043 -65.88840968 4.69164055 -45 0 C-44.12601563 -0.22558594 -43.25203125 -0.45117188 -42.3515625 -0.68359375 C-28.94037896 -3.75082027 -13.3415425 -2.92997964 0 0 Z M-68 19 C-69.02867187 19.54785156 -70.05734375 20.09570312 -71.1171875 20.66015625 C-92.67483176 32.70062168 -110.24635651 52.29398846 -117.6640625 76.13427734 C-118.95625803 80.71932239 -120.02148078 85.33888156 -121 90 C-121.1750708 90.78511963 -121.3501416 91.57023926 -121.53051758 92.37915039 C-124.09600217 106.70077136 -122.66962891 122.3091685 -118 136 C-117.67056396 137.00232666 -117.67056396 137.00232666 -117.33447266 138.02490234 C-108.48559689 164.70930407 -90.41402211 185.28245345 -65.4152832 197.98095703 C-44.81818333 207.9198923 -18.97228483 210.58671434 3 204 C3.99676758 203.70198486 3.99676758 203.70198486 5.01367188 203.39794922 C30.73447896 195.51519498 52.9701346 178.80822548 66 155 C68.77839601 149.49261324 70.97978466 143.82208135 73 138 C73.43441406 136.79601562 73.86882812 135.59203125 74.31640625 134.3515625 C79.40571075 117.71822584 79.46395941 96.5454835 74 80 C73.64808594 78.92492187 73.29617188 77.84984375 72.93359375 76.7421875 C63.42102541 50.18234323 45.01065072 29.3830435 19.625 17.125 C-7.68695807 4.6679974 -41.30122788 4.76293098 -68 19 Z " fill="#21334E" transform="translate(558,365)"/>
<path d="M0 0 C1.04220703 -0.01160156 2.08441406 -0.02320313 3.15820312 -0.03515625 C13.69445212 0.00403624 23.33766486 2.17912352 32.6875 7.0625 C33.70469116 7.58469116 33.70469116 7.58469116 34.74243164 8.11743164 C44.45874851 13.2619085 52.00068496 20.48441039 59.5625 28.375 C57.97582422 32.27785767 55.42899519 34.71020982 52.4375 37.625 C51.52742187 38.51703125 50.61734375 39.4090625 49.6796875 40.328125 C48.63167969 41.34132813 48.63167969 41.34132813 47.5625 42.375 C42.8125 40.5 42.8125 40.5 40.5625 39.375 C32.84191284 38.49992628 26.67830613 38.61570601 20.44140625 43.5546875 C15.36447977 48.47328987 13.28493394 52.32074317 13.125 59.5 C13.22232711 63.8167434 14.06705378 67.32708534 15.5625 71.375 C14.60472656 72.26058594 13.64695312 73.14617187 12.66015625 74.05859375 C4.38807972 81.74393119 -3.7210013 89.54798953 -11.58764648 97.65014648 C-15.61697944 101.74995484 -19.65541562 105.17865231 -24.4375 108.375 C-25.283125 107.88902344 -26.12875 107.40304687 -27 106.90234375 C-32.66851939 104.38371752 -38.34517024 104.69566548 -44.4375 105.375 C-47.02054779 106.42333018 -48.32473338 107.49064058 -50.4375 109.375 C-53.4375 110.375 -53.4375 110.375 -55.27514648 109.67260742 C-70.64932175 100.65926875 -70.64932175 100.65926875 -73.05859375 91.85180664 C-73.7951211 88.03188577 -74.2072324 84.2562883 -74.4375 80.375 C-74.49131836 79.69969238 -74.54513672 79.02438477 -74.60058594 78.32861328 C-75.98240621 59.30237762 -69.72134359 40.87675979 -57.4375 26.375 C-42.46894913 9.34827338 -22.69157845 -0.25166261 0 0 Z " fill="#FBFBFB" transform="translate(535.4375,398.625)"/>
<path d="M0 0 C0.70931671 -0.00040283 1.41863342 -0.00080566 2.14944458 -0.0012207 C13.5778989 0.03614877 23.86943669 1.01930139 34.5 5.4375 C35.22703125 5.73221191 35.9540625 6.02692383 36.703125 6.33056641 C64.01561889 17.64994696 83.19713919 38.29646118 94.5 65.4375 C102.21871538 84.87491281 102.60240425 109.80637085 95.5 129.4375 C95.25330566 130.13375488 95.00661133 130.83000977 94.75244141 131.54736328 C89.57161077 145.91947726 82.07629345 157.37191184 71.5 168.4375 C70.59894531 169.45070313 70.59894531 169.45070313 69.6796875 170.484375 C55.71029297 185.60276735 36.19662731 193.26010812 16.5 197.4375 C15.72914063 197.63214844 14.95828125 197.82679688 14.1640625 198.02734375 C-12.13572592 202.07643141 -38.35562217 194.51978719 -59.6875 179.1875 C-81.21972362 162.25074424 -95.55720351 138.820086 -99.5 111.4375 C-101.68848548 83.14714451 -95.08773628 57.91532161 -77.27734375 35.66015625 C-56.99243783 12.44163078 -30.70086451 -0.01786362 0 0 Z M-63.8125 42.75 C-81.55693782 63.20219295 -85.92377221 85.63077846 -84.2890625 111.81640625 C-81.52338346 133.91110883 -67.86368841 153.66976187 -50.70703125 167.203125 C-37.91316648 176.11675551 -23.29063189 182.85438952 -7.5 183.4375 C-6.18386719 183.50066406 -4.86773438 183.56382812 -3.51171875 183.62890625 C18.46038306 184.35907525 40.32201382 177.05835342 56.75 162.125 C72.66912009 147.14665977 83.97850813 127.08238144 84.73828125 104.91015625 C85.1328289 82.34872379 80.70293047 62.77358107 65.5 45.4375 C64.64728516 44.3546875 64.64728516 44.3546875 63.77734375 43.25 C52.07119915 28.93420533 32.27485693 17.61670889 13.81201172 15.62060547 C-16.70562714 13.20368581 -42.33851431 20.26278211 -63.8125 42.75 Z " fill="#F9FAF9" transform="translate(535.5,373.5625)"/>
<path d="M0 0 C2 2 2 2 2.24839699 4.24895012 C2.24763755 5.19597263 2.24687811 6.14299513 2.24609566 7.11871529 C2.25007775 8.2095168 2.25405985 9.30031832 2.25816262 10.42417443 C2.25233693 11.63232461 2.24651125 12.8404748 2.24050903 14.0852356 C2.24221788 15.36101278 2.24392673 16.63678997 2.24568737 17.95122707 C2.25017643 21.50404439 2.24213596 25.05674198 2.23213124 28.60954404 C2.22352138 32.43640223 2.22641515 36.26325326 2.22793579 40.09011841 C2.22898621 46.72429132 2.22269327 53.358425 2.21146011 59.99258804 C2.19522926 69.58455435 2.18999959 79.17650162 2.18748413 88.76848017 C2.18310323 104.32955093 2.16978342 119.89060076 2.15087891 135.45166016 C2.13253032 150.57079971 2.11836882 165.68993359 2.10986328 180.80908203 C2.10933783 181.7404992 2.10881239 182.67191638 2.10827102 183.63155831 C2.10566101 188.30404724 2.10313358 192.97653621 2.10064721 197.6490252 C2.0799024 236.43269812 2.04466614 275.21634768 2 314 C2.82023679 313.99924056 3.64047357 313.99848112 4.48556602 313.99769866 C53.05190266 313.95298534 101.61823713 313.91864858 150.18459021 313.89786934 C156.01026721 313.8953678 161.83594416 313.89277916 167.66162109 313.89013672 C169.40137196 313.88934979 169.40137196 313.88934979 171.17626931 313.88854696 C189.97958358 313.87983387 208.78288567 313.86405895 227.58619271 313.84569441 C246.86647318 313.82702045 266.14674726 313.81588859 285.4270364 313.81182301 C297.33310531 313.80907274 309.2391398 313.80037257 321.14519812 313.78416707 C329.29909469 313.77363106 337.45297335 313.77039166 345.60687624 313.77299725 C350.31791753 313.77428384 355.02889851 313.77225091 359.7399292 313.76158905 C364.046617 313.75191294 368.35320349 313.75132803 372.65989579 313.75820221 C374.22385307 313.7590528 375.78781648 313.75646809 377.35176156 313.75023364 C379.46608915 313.74229038 381.58004358 313.74648235 383.69436455 313.75390434 C384.87225701 313.7531449 386.05014948 313.75238546 387.26373565 313.75160301 C390 314 390 314 392 316 C392.25 319 392.25 319 392 322 C389.2062579 324.7937421 387.51012697 324.25266105 383.59342289 324.25726891 C382.92510639 324.26077498 382.25678988 324.26428105 381.56822136 324.26789337 C379.30671689 324.2772701 377.04546642 324.27226811 374.78395081 324.26742554 C373.15506448 324.27115865 371.52617994 324.2757588 369.89729828 324.28115618 C365.40396679 324.29344352 360.91070943 324.29311901 356.41736495 324.29076743 C351.57815826 324.29036071 346.73897579 324.30138449 341.89978027 324.31088257 C332.41269006 324.32752463 322.92562468 324.33299355 313.43852109 324.33410732 C305.73073325 324.33505623 298.02295363 324.3391586 290.31516838 324.34550858 C268.48385377 324.36312927 246.65255886 324.37234608 224.82123709 324.37084763 C223.05432068 324.37072776 223.05432068 324.37072776 221.25170898 324.37060547 C220.07233408 324.37052371 218.89295918 324.37044195 217.67784565 324.37035771 C198.55521368 324.36954444 179.43266041 324.38869025 160.31005121 324.4168822 C140.69634254 324.44557107 121.0826723 324.45942472 101.46894211 324.45769465 C90.44874401 324.45702939 79.42862843 324.46258099 68.40844917 324.48405075 C59.02706619 324.50221001 49.6458031 324.50665331 40.26441021 324.4930319 C35.47418538 324.48647572 30.68419094 324.48647994 25.89398766 324.5037384 C21.51381749 324.51935786 17.1340625 324.51672073 12.75390314 324.49917014 C11.16441625 324.4960755 9.57489921 324.49982422 7.98544783 324.51089029 C5.83392633 324.52488436 3.68388706 324.51452844 1.53241825 324.49777794 C0.33472531 324.49821267 -0.86296762 324.49864741 -2.09695429 324.49909532 C-5 324 -5 324 -6.88468093 322.30854625 C-8.224711 319.53488133 -8.37596109 317.64432141 -8.37752342 314.56548214 C-8.38534666 313.45513164 -8.39316991 312.34478115 -8.40123022 311.20078367 C-8.39453805 309.98105079 -8.38784589 308.7613179 -8.38095093 307.50462341 C-8.3856309 306.20883631 -8.39031087 304.91304921 -8.39513266 303.57799584 C-8.40767942 299.97844718 -8.40145573 296.37913653 -8.39217401 292.77958691 C-8.3853989 288.89883808 -8.39585704 285.01813077 -8.40411377 281.13739014 C-8.41746941 273.53418428 -8.41456535 265.93106715 -8.40587585 258.32785778 C-8.3991074 252.15043458 -8.39817894 245.97303628 -8.4014473 239.79561043 C-8.401907 238.91722904 -8.40236669 238.03884766 -8.40284032 237.13384866 C-8.40379947 235.34958298 -8.40477211 233.56531731 -8.4057581 231.78105164 C-8.41431722 215.04150263 -8.40446941 198.30200286 -8.388357 181.56246192 C-8.374951 167.18948446 -8.37728321 152.81657967 -8.39111328 138.44360352 C-8.40715585 121.76340047 -8.41349567 105.08324061 -8.40427649 88.40303093 C-8.40332081 86.62554523 -8.4023777 84.84805952 -8.4014473 83.07057381 C-8.40098447 82.19595294 -8.40052164 81.32133207 -8.40004479 80.42020754 C-8.3974511 74.2474734 -8.401834 68.07476658 -8.40888596 61.90203667 C-8.41728637 54.38353201 -8.41505156 46.86512136 -8.39904372 39.34662753 C-8.39114162 35.50829537 -8.38810224 31.67012013 -8.39799118 27.83178902 C-8.40853336 23.67718612 -8.39597407 19.52298188 -8.38095093 15.36839294 C-8.38764309 14.14642934 -8.39433526 12.92446573 -8.40123022 11.66547292 C-8.39340697 10.55773018 -8.38558373 9.44998743 -8.37752342 8.30867672 C-8.37703637 7.34901341 -8.37654931 6.38935011 -8.37604749 5.4006061 C-8 3 -8 3 -6.63656104 1.18773896 C-4.33467483 -0.48286168 -2.7744749 -0.35570191 0 0 Z " fill="#21334C" transform="translate(316,359)"/>
<path d="M0 0 C1.97119141 -0.34057617 1.97119141 -0.34057617 4.3515625 -0.29296875 C5.62773437 -0.2784668 5.62773437 -0.2784668 6.9296875 -0.26367188 C7.81914062 -0.23853516 8.70859375 -0.21339844 9.625 -0.1875 C10.97078125 -0.16719727 10.97078125 -0.16719727 12.34375 -0.14648438 C14.56309789 -0.11106925 16.78125188 -0.06168461 19 0 C19.47308594 0.99257813 19.94617188 1.98515625 20.43359375 3.0078125 C27.91476165 19.33958299 27.91476165 19.33958299 39.26661682 32.93463135 C45.60069368 38.43968181 49.62391624 43.15114612 50.40353298 51.7276268 C50.58806639 56.74041147 50.49147174 61.72206055 50.33984375 66.734375 C50.32063316 68.90671745 50.30693875 71.07911497 50.29847717 73.25152588 C50.26046649 78.92758603 50.14274935 84.59930068 50.00921631 90.27380371 C49.91325622 94.92513233 49.87413897 99.57614634 49.83782101 104.22826767 C49.76185964 113.81908181 49.65080705 123.4103137 49.43334961 132.99902344 C49.42011658 133.88621063 49.40688354 134.77339783 49.39324951 135.68746948 C49.23097192 141.76902808 49.23097192 141.76902808 47 144 C44.98864746 144.25396729 44.98864746 144.25396729 42.49023438 144.25878906 C41.55586548 144.26509338 40.62149658 144.27139771 39.65881348 144.27789307 C38.64734253 144.2738446 37.63587158 144.26979614 36.59375 144.265625 C35.55810913 144.26753845 34.52246826 144.2694519 33.45544434 144.27142334 C31.26309975 144.27278597 29.07074711 144.26908414 26.87841797 144.26074219 C23.51381384 144.25004392 20.14974368 144.26063503 16.78515625 144.2734375 C14.65885298 144.27211592 12.53255005 144.26955356 10.40625 144.265625 C8.88904358 144.27169769 8.88904358 144.27169769 7.34118652 144.27789307 C5.93963318 144.26843658 5.93963318 144.26843658 4.50976562 144.25878906 C3.27305115 144.25640228 3.27305115 144.25640228 2.01135254 144.25396729 C0 144 0 144 -2 142 C-2.25168228 139.59146976 -2.25168228 139.59146976 -2.25396729 136.50270081 C-2.26242676 134.75072891 -2.26242676 134.75072891 -2.27105713 132.96336365 C-2.26700867 131.67551468 -2.26296021 130.38766571 -2.25878906 129.06079102 C-2.26149802 127.69592095 -2.26505841 126.33105234 -2.26940918 124.96618652 C-2.27854775 121.25337574 -2.27498271 117.54067577 -2.26865101 113.82786298 C-2.26359755 109.94683861 -2.26828073 106.06582392 -2.27142334 102.18479919 C-2.27506534 95.66541841 -2.27025824 89.1460829 -2.26074219 82.62670898 C-2.24986173 75.08542772 -2.25337928 67.54425463 -2.264395 60.002976 C-2.27346668 53.5341431 -2.2747536 47.06534279 -2.26951766 40.59650558 C-2.26639671 36.73041666 -2.26599193 32.8643786 -2.27259064 28.99829292 C-2.2783616 25.36298935 -2.27437186 21.72782539 -2.26280212 18.09253693 C-2.25888915 16.11908155 -2.26484366 14.14561439 -2.27105713 12.17216492 C-2.26541748 11.00136383 -2.25977783 9.83056274 -2.25396729 8.62428284 C-2.25321323 7.60461205 -2.25245918 6.58494127 -2.25168228 5.53437138 C-2 3 -2 3 0 0 Z " fill="#2AD2B6" transform="translate(406,516)"/>
<path d="M0 0 C1.33664955 -0.01429802 1.33664955 -0.01429802 2.70030212 -0.02888489 C3.66488846 -0.02797348 4.62947479 -0.02706207 5.62329102 -0.02612305 C6.61216812 -0.03040817 7.60104523 -0.0346933 8.61988831 -0.03910828 C10.71386956 -0.04485816 12.8078708 -0.04534701 14.90185547 -0.04101562 C18.11077887 -0.03785795 21.31877874 -0.06129897 24.52758789 -0.08666992 C26.55948777 -0.08894302 28.59139013 -0.08964636 30.62329102 -0.08862305 C32.06713417 -0.10243767 32.06713417 -0.10243767 33.54014587 -0.11653137 C34.43439774 -0.11030258 35.3286496 -0.10407379 36.25 -0.09765625 C37.03672592 -0.09828568 37.82345184 -0.0989151 38.63401794 -0.0995636 C40.68969727 0.2746582 40.68969727 0.2746582 42.44390869 1.3024292 C44.4061239 4.40884535 44.09771166 7.64287298 44.06201172 11.20263672 C44.06566238 12.00940857 44.06931305 12.81618042 44.07307434 13.6473999 C44.08118598 16.31633498 44.06756603 18.98466414 44.05297852 21.65356445 C44.05246003 23.505366 44.05297728 25.35716811 44.05448914 27.20896912 C44.05439939 31.09024266 44.04396386 34.97130858 44.02587891 38.85253906 C44.00317583 43.83520236 44.00265021 48.81756261 44.00939655 53.8002634 C44.01273273 57.62374073 44.00611336 61.44714856 43.99626732 65.27061272 C43.99241014 67.10828221 43.99126924 68.94595942 43.99285316 70.78363228 C43.99322271 73.34793036 43.98063538 75.91183505 43.96435547 78.47607422 C43.96683289 79.24028183 43.9693103 80.00448944 43.97186279 80.79185486 C43.91844055 86.04591491 43.91844055 86.04591491 41.68969727 88.2746582 C39.71630859 88.52862549 39.71630859 88.52862549 37.27172852 88.53344727 C35.9002063 88.54290375 35.9002063 88.54290375 34.50097656 88.55255127 C33.51137939 88.54850281 32.52178223 88.54445435 31.50219727 88.5402832 C30.48875244 88.54219666 29.47530762 88.54411011 28.43115234 88.54608154 C26.28588615 88.54744411 24.14061173 88.54374267 21.99536133 88.53540039 C18.70318155 88.52470202 15.41154748 88.5352934 12.11938477 88.5480957 C10.03865439 88.54677412 7.95792435 88.54421176 5.87719727 88.5402832 C4.8876001 88.54433167 3.89800293 88.54838013 2.87841797 88.55255127 C1.50689575 88.54309479 1.50689575 88.54309479 0.10766602 88.53344727 C-0.69904541 88.53185608 -1.50575684 88.53026489 -2.33691406 88.52862549 C-4.31030273 88.2746582 -4.31030273 88.2746582 -6.31030273 86.2746582 C-6.50877881 83.60503334 -6.58304092 81.03914528 -6.5690918 78.3684082 C-6.57259644 77.55202881 -6.57610107 76.73564941 -6.57971191 75.89453125 C-6.58853621 73.18782117 -6.58267766 70.48137108 -6.57592773 67.7746582 C-6.57727418 65.89900665 -6.57921455 64.02335543 -6.58172607 62.14770508 C-6.58467828 58.21342654 -6.58037659 54.27923871 -6.57104492 50.3449707 C-6.55965033 45.29391256 -6.56620929 40.24306694 -6.57818985 35.1920166 C-6.58540584 31.31793609 -6.58312172 27.44390623 -6.57793427 23.56982422 C-6.57659705 21.707031 -6.578248 19.84423322 -6.58289337 17.98144531 C-6.58795434 15.38114178 -6.58025454 12.78118575 -6.5690918 10.1809082 C-6.57314026 9.40577881 -6.57718872 8.63064941 -6.58135986 7.83203125 C-6.53598633 2.14672694 -5.87725267 0.03445446 0 0 Z " fill="#1D2F49" transform="translate(341.310302734375,571.725341796875)"/>
<path d="M0 0 C0.5411998 0.26019928 1.0823996 0.52039856 1.63999939 0.78848267 C4.12174424 1.9794087 6.60576411 3.16551464 9.08984375 4.3515625 C9.94106812 4.76092041 10.79229248 5.17027832 11.66931152 5.59204102 C24.31541693 11.618058 35.83038472 13.63839745 50 16 C50 38.44 50 60.88 50 84 C47.64145005 85.17927497 46.21183285 85.13283758 43.58203125 85.14526367 C42.21050903 85.15483345 42.21050903 85.15483345 40.8112793 85.16459656 C39.82168213 85.16570938 38.83208496 85.1668222 37.8125 85.16796875 C36.79905518 85.17129715 35.78561035 85.17462555 34.74145508 85.17805481 C32.59619603 85.18312315 30.45092909 85.18546316 28.30566406 85.18530273 C25.01354078 85.187491 21.72175152 85.20565268 18.4296875 85.22460938 C16.34895948 85.22754288 14.26822987 85.22952796 12.1875 85.23046875 C11.19790283 85.23765427 10.20830566 85.24483978 9.1887207 85.25224304 C7.81719849 85.2476281 7.81719849 85.2476281 6.41796875 85.24291992 C5.61125732 85.24434494 4.8045459 85.24576996 3.97338867 85.24723816 C2 85 2 85 0 83 C-0.18795611 80.34955896 -0.25183861 77.80449186 -0.22705078 75.15380859 C-0.22734283 74.34397018 -0.22763489 73.53413177 -0.22793579 72.69975281 C-0.2265395 70.01587304 -0.21096435 67.33226893 -0.1953125 64.6484375 C-0.19158343 62.79041699 -0.18873596 60.93239452 -0.18673706 59.07437134 C-0.17909224 54.17853386 -0.15943649 49.28281461 -0.1373291 44.38702393 C-0.11688893 39.39344889 -0.10773926 34.39985479 -0.09765625 29.40625 C-0.07619138 19.60411466 -0.04204522 9.80206715 0 0 Z " fill="#29D5B8" transform="translate(475,575)"/>
<path d="M0 0 C0.0462719 10.65691222 0.08184295 21.31380068 0.10362434 31.97079277 C0.11407654 36.91887832 0.12826183 41.86689532 0.15087891 46.81494141 C0.17255623 51.58707481 0.1845578 56.35914213 0.18975449 61.13132095 C0.19345946 62.9550493 0.200694 64.77877389 0.21146011 66.60247421 C0.22590721 69.15026512 0.22798081 71.69778042 0.22705078 74.24560547 C0.23424133 75.00517548 0.24143188 75.76474548 0.24884033 76.54733276 C0.22810432 81.77189568 0.22810432 81.77189568 -2 84 C-3.97338867 84.25396729 -3.97338867 84.25396729 -6.41796875 84.25878906 C-7.78949097 84.26824554 -7.78949097 84.26824554 -9.1887207 84.27789307 C-10.17831787 84.2738446 -11.16791504 84.26979614 -12.1875 84.265625 C-13.20094482 84.26753845 -14.21438965 84.2694519 -15.25854492 84.27142334 C-17.40381112 84.27278591 -19.54908553 84.26908447 -21.69433594 84.26074219 C-24.98651572 84.25004382 -28.27814978 84.26063519 -31.5703125 84.2734375 C-33.65104288 84.27211592 -35.73177291 84.26955355 -37.8125 84.265625 C-38.80209717 84.26967346 -39.79169434 84.27372192 -40.8112793 84.27789307 C-42.18280151 84.26843658 -42.18280151 84.26843658 -43.58203125 84.25878906 C-44.38874268 84.25719788 -45.1954541 84.25560669 -46.02661133 84.25396729 C-48 84 -48 84 -50 82 C-50.24050903 79.21591187 -50.24050903 79.21591187 -50.22705078 75.62255859 C-50.22748886 74.64188667 -50.22748886 74.64188667 -50.22793579 73.6414032 C-50.22654065 71.47694704 -50.2109712 69.31283364 -50.1953125 67.1484375 C-50.19158302 65.64914132 -50.18873574 64.1498427 -50.18673706 62.65054321 C-50.17909548 58.70163257 -50.1594426 54.75286871 -50.1373291 50.80401611 C-50.1168819 46.77561428 -50.10773776 42.74718876 -50.09765625 38.71875 C-50.07619711 30.81243259 -50.04205495 22.90623455 -50 15 C-49.39410538 14.90010269 -48.78821075 14.80020538 -48.16395569 14.69728088 C-31.97276284 12.05809355 -31.97276284 12.05809355 -16.4375 6.9375 C-15.57705078 6.59912109 -14.71660156 6.26074219 -13.83007812 5.91210938 C-9.61796364 4.22530598 -4.34221322 0 0 0 Z " fill="#29D4B8" transform="translate(595,576)"/>
<path d="M0 0 C3.63108881 0.92218128 5.27705469 2.92680839 7.8359375 5.625 C8.56200195 6.3821228 8.56200195 6.3821228 9.30273438 7.15454102 C12.49872739 10.51214717 15.58877514 13.95837686 18.6015625 17.48046875 C20.92243483 20.15727318 23.31294815 22.76753016 25.7109375 25.375 C26.17870605 25.88393799 26.64647461 26.39287598 27.12841797 26.91723633 C28.08956952 27.9623291 29.05099825 29.007167 30.01269531 30.05175781 C37.20807637 37.86818322 44.38183568 45.70282935 51.4609375 53.625 C52.11191406 54.346875 52.76289062 55.06875 53.43359375 55.8125 C55.1403633 57.72582128 56.80659253 59.66635842 58.4609375 61.625 C59.2653125 62.553125 60.0696875 63.48125 60.8984375 64.4375 C63.21003871 69.15316647 63.22916689 73.4701808 62.4609375 78.625 C60.7109375 82.0625 60.7109375 82.0625 58.4609375 84.625 C57.5328125 85.73875 57.5328125 85.73875 56.5859375 86.875 C52.73407713 90.04712031 48.98965352 90.85630262 44.0859375 90.6875 C38.35090808 89.81913448 35.34757209 86.72375725 31.4609375 82.625 C31.01878906 82.15980957 30.57664062 81.69461914 30.12109375 81.21533203 C27.03086213 77.94818675 23.99589993 74.63326596 20.97802734 71.29931641 C18.65053875 68.730614 16.30501625 66.17855322 13.9609375 63.625 C13.05073775 62.63155027 12.14058175 61.63806045 11.23046875 60.64453125 C8.37465046 57.5293694 5.51352611 54.41913732 2.6484375 51.3125 C1.91548462 50.51767212 1.91548462 50.51767212 1.16772461 49.70678711 C-1.62149973 46.68689198 -4.42241527 43.67843023 -7.234375 40.6796875 C-7.85723389 40.01493408 -8.48009277 39.35018066 -9.12182617 38.6652832 C-10.32361506 37.38376526 -11.52681549 36.10356899 -12.73168945 34.82495117 C-14.34672686 33.10279274 -15.94442602 31.36603601 -17.5390625 29.625 C-18.04066895 29.0976123 -18.54227539 28.57022461 -19.05908203 28.02685547 C-21.04531462 25.83969735 -22.42662688 24.00703931 -23.265625 21.15625 C-22.08462797 17.04180873 -19.07878785 14.86946001 -15.9140625 12.125 C-15.29660156 11.56941406 -14.67914062 11.01382813 -14.04296875 10.44140625 C-12.8140955 9.34188807 -11.5755172 8.25311366 -10.32714844 7.17578125 C-9.17126513 6.17330026 -8.03228908 5.15083317 -6.91503906 4.10546875 C-4.6856603 2.07746244 -2.9508543 0.72636414 0 0 Z " fill="#2AD2B6" transform="translate(640.5390625,561.375)"/>
<path d="M0 0 C6.74284794 5.99577104 9.50794251 18.41470727 10.15673828 27.09765625 C10.95050861 45.44611621 8.13993451 64.40835233 -4 79 C-4.33 79 -4.66 79 -5 79 C-5.04898438 77.92878906 -5.09796875 76.85757813 -5.1484375 75.75390625 C-5.22345294 74.35674361 -5.2990013 72.9596095 -5.375 71.5625 C-5.4059375 70.85544922 -5.436875 70.14839844 -5.46875 69.41992188 C-5.57280629 67.60760812 -5.77919892 65.80182012 -6 64 C-8.34421233 62.82789384 -9.73032235 62.87322916 -12.34204102 62.87060547 C-13.2395961 62.86745331 -14.13715118 62.86430115 -15.06190491 62.86105347 C-16.03276535 62.8630777 -17.00362579 62.86510193 -18.00390625 62.8671875 C-18.9975267 62.86623077 -19.99114716 62.86527405 -21.01487732 62.86428833 C-23.11725935 62.86360714 -25.21964348 62.8654572 -27.32202148 62.86962891 C-30.55261928 62.87498362 -33.78307839 62.86967895 -37.01367188 62.86328125 C-39.05208364 62.86394193 -41.09049532 62.86522289 -43.12890625 62.8671875 C-44.10179092 62.86516327 -45.0746756 62.86313904 -46.07704163 62.86105347 C-46.97144455 62.86420563 -47.86584747 62.86735779 -48.78735352 62.87060547 C-49.57852066 62.87140106 -50.36968781 62.87219666 -51.18482971 62.87301636 C-53.02068492 62.8020061 -53.02068492 62.8020061 -54 64 C-54.11691317 65.40606696 -54.16719894 66.81777194 -54.18945312 68.22851562 C-54.21452942 69.57496155 -54.21452942 69.57496155 -54.2401123 70.9486084 C-54.25368774 71.92463013 -54.26726318 72.90065186 -54.28125 73.90625 C-54.29965942 74.9012854 -54.31806885 75.8963208 -54.33703613 76.92150879 C-54.39599226 80.11427712 -54.44872575 83.30709959 -54.5 86.5 C-54.56741556 90.6980365 -54.64108427 94.89589204 -54.71875 99.09375 C-54.73232544 100.06977173 -54.74590088 101.04579346 -54.7598877 102.0513916 C-54.78496399 103.39783752 -54.78496399 103.39783752 -54.81054688 104.77148438 C-54.82933899 105.9627594 -54.82933899 105.9627594 -54.84851074 107.17810059 C-55 109 -55 109 -56 110 C-67.10320079 110.63656719 -77.23198334 109.90840321 -88 107 C-88 103.31436229 -86.72863594 102.30608408 -84.2890625 99.6953125 C-81.09254992 95.49141414 -80.76720418 91.60571049 -80.875 86.4375 C-80.89304687 85.32246094 -80.91109375 84.20742188 -80.9296875 83.05859375 C-80.95289063 82.04925781 -80.97609375 81.03992188 -81 80 C-81 76 -81 76 -78.421875 73.25 C-77.20651545 72.15702869 -75.9817469 71.07446949 -74.75 70 C-67.12189876 63.15249219 -59.91610999 55.94734477 -52.79199219 48.578125 C-51.98149414 47.753125 -51.17099609 46.928125 -50.3359375 46.078125 C-49.61970215 45.33981445 -48.9034668 44.60150391 -48.16552734 43.84082031 C-45.83119728 41.85650817 -43.93771095 40.84618523 -41 40 C-38.99538701 40.65266469 -36.99620166 41.32204472 -35 42 C-28.02153203 42.85742269 -21.8908141 41.99692318 -16 38 C-11.21748675 32.97779038 -9.85956637 28.36101417 -9.875 21.5625 C-9.87242187 20.42941406 -9.86984375 19.29632813 -9.8671875 18.12890625 C-9.81630393 15.11286205 -9.81630393 15.11286205 -10.84765625 12.94921875 C-11 11 -11 11 -8.69140625 8.203125 C-7.66082506 7.20578836 -6.61719591 6.22179962 -5.5625 5.25 C-5.03333984 4.74339844 -4.50417969 4.23679687 -3.95898438 3.71484375 C-2.65022899 2.46504131 -1.32648041 1.23097382 0 0 Z " fill="#F8F9F9" transform="translate(600,437)"/>
<path d="M0 0 C1.97119141 -0.34057617 1.97119141 -0.34057617 4.3515625 -0.29296875 C5.62773437 -0.2784668 5.62773437 -0.2784668 6.9296875 -0.26367188 C7.81914062 -0.23853516 8.70859375 -0.21339844 9.625 -0.1875 C10.97078125 -0.16719727 10.97078125 -0.16719727 12.34375 -0.14648438 C14.56309789 -0.11106925 16.78125188 -0.06168461 19 0 C19.67154933 1.28913487 20.33708859 2.58140204 21 3.875 C21.37125 4.59429688 21.7425 5.31359375 22.125 6.0546875 C23 8 23 8 23 10 C18.05 10 13.1 10 8 10 C8 51.25 8 92.5 8 135 C18.23 135 28.46 135 39 135 C39 102 39 69 39 35 C48.89789401 43.48390916 48.89789401 43.48390916 49.37473011 45.89405918 C49.3744785 46.97004321 49.3744785 46.97004321 49.3742218 48.06776428 C49.38474327 49.30649544 49.38474327 49.30649544 49.39547729 50.57025146 C49.38783356 51.47269592 49.38018982 52.37514038 49.37231445 53.30493164 C49.37596512 54.25800705 49.37961578 55.21108246 49.38337708 56.19303894 C49.39149487 59.34892496 49.37786308 62.50429956 49.36328125 65.66015625 C49.36276283 67.84826151 49.36327981 70.03636725 49.36479187 72.22447205 C49.36470209 76.81190944 49.35426079 81.39917128 49.33618164 85.98657227 C49.31348101 91.87723431 49.31295224 97.76764002 49.31969929 103.65833378 C49.32303476 108.17665398 49.31641737 112.69491535 49.30657005 117.21322441 C49.30271148 119.38582489 49.30157254 121.5584319 49.3031559 123.73103523 C49.30352525 126.76230552 49.29094327 129.79324249 49.2746582 132.82446289 C49.27713562 133.72893158 49.27961304 134.63340027 49.28216553 135.5652771 C49.2287413 141.7712587 49.2287413 141.7712587 47 144 C44.98864746 144.25396729 44.98864746 144.25396729 42.49023438 144.25878906 C41.55586548 144.26509338 40.62149658 144.27139771 39.65881348 144.27789307 C38.64734253 144.2738446 37.63587158 144.26979614 36.59375 144.265625 C35.55810913 144.26753845 34.52246826 144.2694519 33.45544434 144.27142334 C31.26309975 144.27278597 29.07074711 144.26908414 26.87841797 144.26074219 C23.51381384 144.25004392 20.14974368 144.26063503 16.78515625 144.2734375 C14.65885298 144.27211592 12.53255005 144.26955356 10.40625 144.265625 C8.88904358 144.27169769 8.88904358 144.27169769 7.34118652 144.27789307 C5.93963318 144.26843658 5.93963318 144.26843658 4.50976562 144.25878906 C3.27305115 144.25640228 3.27305115 144.25640228 2.01135254 144.25396729 C0 144 0 144 -2 142 C-2.25168228 139.59146976 -2.25168228 139.59146976 -2.25396729 136.50270081 C-2.26242676 134.75072891 -2.26242676 134.75072891 -2.27105713 132.96336365 C-2.26700867 131.67551468 -2.26296021 130.38766571 -2.25878906 129.06079102 C-2.26149802 127.69592095 -2.26505841 126.33105234 -2.26940918 124.96618652 C-2.27854775 121.25337574 -2.27498271 117.54067577 -2.26865101 113.82786298 C-2.26359755 109.94683861 -2.26828073 106.06582392 -2.27142334 102.18479919 C-2.27506534 95.66541841 -2.27025824 89.1460829 -2.26074219 82.62670898 C-2.24986173 75.08542772 -2.25337928 67.54425463 -2.264395 60.002976 C-2.27346668 53.5341431 -2.2747536 47.06534279 -2.26951766 40.59650558 C-2.26639671 36.73041666 -2.26599193 32.8643786 -2.27259064 28.99829292 C-2.2783616 25.36298935 -2.27437186 21.72782539 -2.26280212 18.09253693 C-2.25888915 16.11908155 -2.26484366 14.14561439 -2.27105713 12.17216492 C-2.26541748 11.00136383 -2.25977783 9.83056274 -2.25396729 8.62428284 C-2.25321323 7.60461205 -2.25245918 6.58494127 -2.25168228 5.53437138 C-2 3 -2 3 0 0 Z " fill="#1F314B" transform="translate(406,516)"/>
<path d="M0 0 C10.23 0 20.46 0 31 0 C31 22.77 31 45.54 31 69 C20.77 69 10.54 69 0 69 C0 46.23 0 23.46 0 0 Z " fill="#2AD0B5" transform="translate(344,582)"/>
<path d="M0 0 C2.60478883 -0.0809313 5.20706653 -0.14045434 7.8125 -0.1875 C8.55048828 -0.21263672 9.28847656 -0.23777344 10.04882812 -0.26367188 C15.51594963 -0.33788619 15.51594963 -0.33788619 17.71451283 1.19679737 C19.44261737 3.62087652 19.36961668 5.17841321 19.36076355 8.14421082 C19.36488754 9.20851822 19.36901154 10.27282562 19.3732605 11.36938477 C19.36247467 12.53679199 19.35168884 13.70419922 19.34057617 14.90698242 C19.34123329 16.75106438 19.34123329 16.75106438 19.34190369 18.63240051 C19.34017038 22.00423173 19.32511401 25.37551352 19.30418181 28.74724746 C19.28544186 32.27063491 19.2836667 35.7940295 19.28010559 39.31745911 C19.27077721 45.98979815 19.2461528 52.66198993 19.21605712 59.3342641 C19.18253771 66.93029894 19.16603331 74.52634078 19.15097082 82.12243116 C19.11960385 97.74837276 19.06682806 113.3741674 19 129 C18.34 129 17.68 129 17 129 C16.00273838 127.82358958 15.05255133 126.60712043 14.125 125.375 C8.28462098 118.5531465 0.64726696 114.96198516 -8.25 114.125 C-9.8324615 114.05794655 -11.41613079 114.00623571 -13 114 C-11.51335643 109.95302584 -9.53274341 106.41412059 -7.375 102.6875 C-3.68717888 96.00770532 -1.05420955 89.09899846 1.375 81.875 C1.87507568 80.41066528 1.87507568 80.41066528 2.38525391 78.91674805 C9.77830415 56.17372061 9.66725935 29.67980772 2 7 C1.64341309 6.31486328 1.28682617 5.62972656 0.91943359 4.92382812 C0 3 0 3 0 0 Z " fill="#253550" transform="translate(647,428)"/>
<path d="M0 0 C0.0462719 10.65691222 0.08184295 21.31380068 0.10362434 31.97079277 C0.11407654 36.91887832 0.12826183 41.86689532 0.15087891 46.81494141 C0.17255623 51.58707481 0.1845578 56.35914213 0.18975449 61.13132095 C0.19345946 62.9550493 0.200694 64.77877389 0.21146011 66.60247421 C0.22590721 69.15026512 0.22798081 71.69778042 0.22705078 74.24560547 C0.23424133 75.00517548 0.24143188 75.76474548 0.24884033 76.54733276 C0.22810432 81.77189568 0.22810432 81.77189568 -2 84 C-3.97338867 84.25396729 -3.97338867 84.25396729 -6.41796875 84.25878906 C-7.78949097 84.26824554 -7.78949097 84.26824554 -9.1887207 84.27789307 C-10.17831787 84.2738446 -11.16791504 84.26979614 -12.1875 84.265625 C-13.20094482 84.26753845 -14.21438965 84.2694519 -15.25854492 84.27142334 C-17.40381112 84.27278591 -19.54908553 84.26908447 -21.69433594 84.26074219 C-24.98651572 84.25004382 -28.27814978 84.26063519 -31.5703125 84.2734375 C-33.65104288 84.27211592 -35.73177291 84.26955355 -37.8125 84.265625 C-38.80209717 84.26967346 -39.79169434 84.27372192 -40.8112793 84.27789307 C-42.18280151 84.26843658 -42.18280151 84.26843658 -43.58203125 84.25878906 C-44.38874268 84.25719788 -45.1954541 84.25560669 -46.02661133 84.25396729 C-48 84 -48 84 -50 82 C-50.24050903 79.21591187 -50.24050903 79.21591187 -50.22705078 75.62255859 C-50.22748886 74.64188667 -50.22748886 74.64188667 -50.22793579 73.6414032 C-50.22654065 71.47694704 -50.2109712 69.31283364 -50.1953125 67.1484375 C-50.19158302 65.64914132 -50.18873574 64.1498427 -50.18673706 62.65054321 C-50.17909548 58.70163257 -50.1594426 54.75286871 -50.1373291 50.80401611 C-50.1168819 46.77561428 -50.10773776 42.74718876 -50.09765625 38.71875 C-50.07619711 30.81243259 -50.04205495 22.90623455 -50 15 C-46.7 14.67 -43.4 14.34 -40 14 C-40 33.8 -40 53.6 -40 74 C-30.1 74 -20.2 74 -10 74 C-10.0928125 69.07707031 -10.185625 64.15414062 -10.28125 59.08203125 C-10.322135 55.96020195 -10.3606448 52.83870341 -10.390625 49.71679688 C-10.43842385 44.76289193 -10.49491665 39.81017148 -10.60351562 34.85717773 C-10.69054271 30.8629684 -10.738293 26.87002899 -10.75901794 22.87494469 C-10.77378295 21.35214933 -10.80261892 19.82942242 -10.84584045 18.30716896 C-11.17107587 6.37621676 -11.17107587 6.37621676 -8.23608398 2.92709351 C-5.5106647 1.15932162 -3.27825111 0 0 0 Z " fill="#1D344D" transform="translate(595,576)"/>
<path d="M0 0 C2.97 1.65 5.94 3.3 9 5 C9.33 28.1 9.66 51.2 10 75 C20.23 75.33 30.46 75.66 41 76 C41 55.87 41 35.74 41 15 C43.97 15.33 46.94 15.66 50 16 C50 38.44 50 60.88 50 84 C47.64145005 85.17927497 46.21183285 85.13283758 43.58203125 85.14526367 C42.21050903 85.15483345 42.21050903 85.15483345 40.8112793 85.16459656 C39.82168213 85.16570938 38.83208496 85.1668222 37.8125 85.16796875 C36.79905518 85.17129715 35.78561035 85.17462555 34.74145508 85.17805481 C32.59619603 85.18312315 30.45092909 85.18546316 28.30566406 85.18530273 C25.01354078 85.187491 21.72175152 85.20565268 18.4296875 85.22460938 C16.34895948 85.22754288 14.26822987 85.22952796 12.1875 85.23046875 C11.19790283 85.23765427 10.20830566 85.24483978 9.1887207 85.25224304 C7.81719849 85.2476281 7.81719849 85.2476281 6.41796875 85.24291992 C5.61125732 85.24434494 4.8045459 85.24576996 3.97338867 85.24723816 C2 85 2 85 0 83 C-0.18795611 80.34955896 -0.25183861 77.80449186 -0.22705078 75.15380859 C-0.22734283 74.34397018 -0.22763489 73.53413177 -0.22793579 72.69975281 C-0.2265395 70.01587304 -0.21096435 67.33226893 -0.1953125 64.6484375 C-0.19158343 62.79041699 -0.18873596 60.93239452 -0.18673706 59.07437134 C-0.17909224 54.17853386 -0.15943649 49.28281461 -0.1373291 44.38702393 C-0.11688893 39.39344889 -0.10773926 34.39985479 -0.09765625 29.40625 C-0.07619138 19.60411466 -0.04204522 9.80206715 0 0 Z " fill="#1B2D48" transform="translate(475,575)"/>
<path d="M0 0 C-0.01047363 0.66306152 -0.02094727 1.32612305 -0.03173828 2.00927734 C-0.22041012 15.83486294 0.04074934 29.30273871 2 43 C-6.00941423 43.13781381 -6.00941423 43.13781381 -10 41 C-14.69408229 41.66564992 -17.12596859 44.83269524 -20.25 48.125 C-23.63479104 51.64844514 -27.02359844 55.0688055 -30.74462891 58.24023438 C-34.89764647 61.85211092 -38.74325296 65.69669057 -42.5703125 69.6484375 C-43.97466408 71.08001232 -45.37962986 72.51098484 -46.78515625 73.94140625 C-48.96788174 76.16753962 -51.14647088 78.3971794 -53.31494141 80.63720703 C-55.43032355 82.81912557 -57.56122796 84.98482875 -59.6953125 87.1484375 C-60.33920929 87.82127777 -60.98310608 88.49411804 -61.64651489 89.18734741 C-64.54444604 92.10228413 -66.33496277 93.80168631 -70.33544922 94.99462891 C-73 95 -73 95 -74.9375 93.9375 C-76.58499408 90.93324608 -75.93892953 89.25909423 -75 86 C-73.22227838 83.59219983 -71.11942435 81.60270922 -68.9375 79.5625 C-68.11475586 78.76102539 -68.11475586 78.76102539 -67.27539062 77.94335938 C-64.39184303 75.16005098 -61.42835723 72.5018626 -58.37890625 69.90234375 C-52.27242507 64.59967563 -46.68130883 58.74875229 -41 53 C-26.90006131 38.73267934 -26.90006131 38.73267934 -20 33 C-20.15863525 32.24170898 -20.31727051 31.48341797 -20.48071289 30.70214844 C-21.88736595 23.38252642 -22.54766664 15.46422534 -18.5 8.9375 C-13.23542518 2.29794211 -8.48840554 -0.31665532 0 0 Z " fill="#20334E" transform="translate(417,456)"/>
<path d="M0 0 C3.80734551 3.20112334 7.53495347 6.38543028 10.9375 10.0234375 C11.60523438 10.735 12.27296875 11.4465625 12.9609375 12.1796875 C13.63382813 12.90414062 14.30671875 13.62859375 15 14.375 C15.67289063 15.09171875 16.34578125 15.8084375 17.0390625 16.546875 C20.91740087 20.6947504 24.70472991 24.90663834 28.40820312 29.21142578 C30.04196062 31.04714778 31.74667401 32.77871238 33.5 34.5 C43.43258427 44.29775281 43.43258427 44.29775281 45 49 C38.91277254 49.04934154 32.8256608 49.08569167 26.73828125 49.10986328 C24.66632053 49.11993712 22.59437407 49.13359666 20.52246094 49.15087891 C17.54879236 49.17506664 14.5753113 49.18646908 11.6015625 49.1953125 C10.20618759 49.21079636 10.20618759 49.21079636 8.78262329 49.22659302 C7.92188202 49.22674408 7.06114075 49.22689514 6.17431641 49.22705078 C5.41486725 49.231492 4.65541809 49.23593323 3.87295532 49.24050903 C2 49 2 49 0 47 C-0.24050903 44.97518921 -0.24050903 44.97518921 -0.22705078 42.45849609 C-0.22689972 41.51767181 -0.22674866 40.57684753 -0.22659302 39.60751343 C-0.21627045 38.58976837 -0.20594788 37.57202332 -0.1953125 36.5234375 C-0.1924826 35.48305328 -0.18965271 34.44266907 -0.18673706 33.37075806 C-0.17551704 30.03872306 -0.15040915 26.70695414 -0.125 23.375 C-0.11497256 21.11979554 -0.1058463 18.86458688 -0.09765625 16.609375 C-0.07557178 11.07282546 -0.04207639 5.53643173 0 0 Z " fill="#1D354C" transform="translate(615,611)"/>
<path d="M0 0 C10.23 0 20.46 0 31 0 C32.51667832 16.68346154 32.51667832 16.68346154 29.88525391 20.70263672 C26.45473833 24.03463492 22.28919388 25.98127641 18 28 C17.07316406 28.51691406 16.14632812 29.03382813 15.19140625 29.56640625 C10.0282731 32.39364453 5.95487431 33.51128142 0 35 C0 23.45 0 11.9 0 0 Z " fill="#27D0B7" transform="translate(555,509)"/>
<path d="M0 0 C0.79052765 -0.00570007 1.5810553 -0.01140015 2.39553833 -0.01727295 C4.07178401 -0.02673708 5.74804842 -0.03326252 7.42431641 -0.03710938 C9.99023933 -0.04680857 12.55535927 -0.07781494 15.12109375 -0.109375 C16.74739106 -0.11590543 18.37369412 -0.12115574 20 -0.125 C20.76883514 -0.1373468 21.53767029 -0.1496936 22.32980347 -0.16241455 C25.21287821 -0.15035198 27.5466599 -0.11347244 30.11621094 1.27441406 C31.70977125 4.29773935 31.52245123 6.99513624 31.53125 10.390625 C31.53412018 11.08953857 31.53699036 11.78845215 31.53994751 12.50854492 C31.54198675 13.98454601 31.53646653 15.46057421 31.52392578 16.93652344 C31.5078683 19.19527638 31.5237772 21.45224018 31.54296875 23.7109375 C31.54098629 25.14583728 31.53714256 26.58073595 31.53125 28.015625 C31.52786621 29.32144531 31.52448242 30.62726563 31.52099609 31.97265625 C31.1328125 35.203125 31.1328125 35.203125 29.76416016 37.12890625 C27.41298305 38.67712225 25.88647594 38.61617452 23.1328125 38.203125 C21.17851511 36.67182299 20.2563148 35.74615853 19.70043945 33.30200195 C19.67425537 32.60550537 19.64807129 31.90900879 19.62109375 31.19140625 C19.56791992 30.05541992 19.56791992 30.05541992 19.51367188 28.89648438 C19.49111328 28.11080078 19.46855469 27.32511719 19.4453125 26.515625 C19.41115234 25.71833984 19.37699219 24.92105469 19.34179688 24.09960938 C19.25943146 22.13460596 19.19444183 20.16888804 19.1328125 18.203125 C15.8328125 21.503125 12.5328125 24.803125 9.1328125 28.203125 C5.44479206 26.97378485 4.40924277 25.26453122 2.1328125 22.203125 C3.50435936 19.01893079 4.99451233 17.23199904 7.6953125 15.078125 C10.34306916 12.99408866 10.34306916 12.99408866 12.1328125 10.203125 C11.57295654 10.21883545 11.01310059 10.2345459 10.4362793 10.25073242 C7.8977266 10.31312348 5.35933521 10.35212718 2.8203125 10.390625 C1.93923828 10.41576172 1.05816406 10.44089844 0.15039062 10.46679688 C-1.12094727 10.48129883 -1.12094727 10.48129883 -2.41796875 10.49609375 C-3.19825439 10.5118042 -3.97854004 10.52751465 -4.7824707 10.54370117 C-7.42270604 10.11237101 -8.31689568 9.35834752 -9.8671875 7.203125 C-9.24693511 -0.55002987 -7.00031243 0.03849282 0 0 Z " fill="#273753" transform="translate(625.8671875,376.796875)"/>
<path d="M0 0 C2 2 2 2 2.4375 4.9375 C2.293125 5.948125 2.14875 6.95875 2 8 C-1.47748266 10.56866686 -4.84329625 11.59621582 -9 12.625 C-21.89839854 16.44620547 -31.52011688 24.77404328 -38.1875 36.3125 C-40.85792033 41.4023351 -42.61589447 46.4360791 -44 52 C-44.20496094 52.79277344 -44.40992188 53.58554687 -44.62109375 54.40234375 C-45.0956314 56.26449496 -45.55022713 58.13171269 -46 60 C-49.375 60.625 -49.375 60.625 -53 61 C-55.40848293 58.59151707 -55.32146485 57.9334721 -55.375 54.625 C-55.0268595 39.50264698 -46.32612413 26.36167017 -36 16 C-35.38511719 15.36191406 -34.77023437 14.72382813 -34.13671875 14.06640625 C-25.86668488 6.11513171 -11.78525821 -1.42851615 0 0 Z " fill="#21334F" transform="translate(529,411)"/>
<path d="M0 0 C1.98 0 3.96 0 6 0 C6 36.3 6 72.6 6 110 C2.37 108.35 -1.26 106.7 -5 105 C-8.33146802 104.22612749 -8.33146802 104.22612749 -11.1875 104.1875 C-12.10917969 104.13980469 -13.03085937 104.09210938 -13.98046875 104.04296875 C-14.64691406 104.02878906 -15.31335938 104.01460937 -16 104 C-14.51335643 99.95302584 -12.53274341 96.41412059 -10.375 92.6875 C-6.68717888 86.00770532 -4.05420955 79.09899846 -1.625 71.875 C-1.12492432 70.41066528 -1.12492432 70.41066528 -0.61474609 68.91674805 C3.19119546 57.20863971 4.38874591 45.64666495 4.375 33.375 C4.37628906 32.1674707 4.37757813 30.95994141 4.37890625 29.71582031 C4.25864462 19.42525089 2.73023934 9.89711761 0 0 Z " fill="#26D7B9" transform="translate(650,438)"/>
<path d="M0 0 C3.1926695 0.77993156 4.9866079 2.17140231 7.22265625 4.54296875 C9.48707383 8.29341037 9.55229335 11.01658114 8.953125 15.28125 C7.63169351 19.37274109 4.94305251 21.5602426 1.22265625 23.54296875 C-2.59387805 24.37566714 -4.60535452 24.25370998 -7.9609375 22.21875 C-10.35680301 20.45494883 -12.67129366 18.64901884 -14.77734375 16.54296875 C-15.21572832 13.16114495 -15.25463376 9.92071344 -14.77734375 6.54296875 C-10.40643793 0.87260444 -6.89585982 -0.95308632 0 0 Z " fill="#29D0B4" transform="translate(501.77734375,512.45703125)"/>
<path d="M0 0 C3.63467079 1.62400184 4.77408696 2.66113044 7 6 C7.54679399 9.71819916 7.5490121 13.28193784 7 17 C4.49691193 20.29353694 2.24598503 22.6855621 -1.953125 23.2734375 C-6.24672199 23.46329043 -9.09582964 23.4342668 -12.5 20.625 C-16.13542732 16.80780131 -16.39236502 14.44157848 -16.359375 9.328125 C-15.75455722 5.40995764 -13.83123243 3.69641184 -11 1 C-7.55359623 -0.72320188 -3.7757718 -0.3723512 0 0 Z " fill="#29D2B7" transform="translate(574,447)"/>
<path d="M0 0 C1.65 1.65 3.3 3.3 5 5 C5.65742187 5.64582031 6.31484375 6.29164063 6.9921875 6.95703125 C10.93541362 10.8429906 14.65418511 14.83759831 18.2578125 19.0390625 C20.62401343 21.7023649 23.15193909 24.17956321 25.71484375 26.65234375 C27 28 27 28 27 29 C18.09 29 9.18 29 0 29 C0 19.43 0 9.86 0 0 Z " fill="#29D5B8" transform="translate(625,621)"/>
<path d="M0 0 C0.99 0.33 1.98 0.66 3 1 C2.99777939 1.83716049 2.99555878 2.67432098 2.99327087 3.53684998 C2.97326968 11.40967414 2.95802675 19.28248983 2.94818783 27.15533352 C2.94295959 31.20325742 2.93586301 35.25116041 2.92456055 39.29907227 C2.91372957 43.20235971 2.90772272 47.10562699 2.90512276 51.0089283 C2.90326889 52.50133647 2.899649 53.99374348 2.89426994 55.48614311 C2.88705669 57.56948139 2.88600917 59.65273531 2.88647461 61.73608398 C2.884254 62.92411118 2.88203339 64.11213837 2.87974548 65.33616638 C2.69637405 67.92120693 2.69637405 67.92120693 4 69 C17.365 69.495 17.365 69.495 31 70 C31 50.2 31 30.4 31 10 C31.33 10 31.66 10 32 10 C32 30.13 32 50.26 32 71 C26.905625 71.020625 21.81125 71.04125 16.5625 71.0625 C14.95318604 71.071604 13.34387207 71.08070801 11.68579102 71.09008789 C10.42951904 71.09258545 9.17324707 71.09508301 7.87890625 71.09765625 C5.93866577 71.10551147 5.93866577 71.10551147 3.95922852 71.11352539 C1 71 1 71 0 70 C-0.09429342 67.82194281 -0.11742538 65.6407872 -0.11352539 63.46069336 C-0.11367142 62.77779739 -0.11381744 62.09490143 -0.1139679 61.39131165 C-0.11326876 59.12412386 -0.1054764 56.85701726 -0.09765625 54.58984375 C-0.09579207 53.02185613 -0.09436817 51.45386793 -0.09336853 49.88587952 C-0.08954334 45.75123497 -0.07971306 41.61662534 -0.06866455 37.48199463 C-0.05845044 33.26599602 -0.05387091 29.04999178 -0.04882812 24.83398438 C-0.03809079 16.55597353 -0.02101436 8.2779911 0 0 Z " fill="#23A094" transform="translate(484,580)"/>
<path d="M0 0 C0.33 7.59 0.66 15.18 1 23 C-4 23 -4 23 -6.6875 20.75 C-9.5233952 17.37758409 -10.80555196 15.49076834 -11.375 11.125 C-10.89861498 7.15512486 -9.46959574 5.10463464 -7 2 C-4 0 -4 0 0 0 Z " fill="#26CFB4" transform="translate(416,466)"/>
<path d="M0 0 C3.44428265 1.44781793 5.36130962 3.27694609 7.75 6.125 C8.36359375 6.84945312 8.9771875 7.57390625 9.609375 8.3203125 C10.06828125 8.87460937 10.5271875 9.42890625 11 10 C10.09827532 11.17825358 9.17798498 12.34231577 8.25 13.5 C7.73953125 14.1496875 7.2290625 14.799375 6.703125 15.46875 C5 17 5 17 1 17 C-1.140625 15.1015625 -1.140625 15.1015625 -3.25 12.625 C-3.95640625 11.81289063 -4.6628125 11.00078125 -5.390625 10.1640625 C-7 8 -7 8 -7 6 C-5.46875 4.4921875 -5.46875 4.4921875 -3.5 2.875 C-2.8503125 2.33617187 -2.200625 1.79734375 -1.53125 1.2421875 C-1.0259375 0.83226562 -0.520625 0.42234375 0 0 Z " fill="#F4F5F6" transform="translate(614,549)"/>
<path d="M0 0 C1.98 0 3.96 0 6 0 C6 36.3 6 72.6 6 110 C5.67 110 5.34 110 5 110 C4.99453156 108.35320503 4.99453156 108.35320503 4.98895264 106.67314148 C4.95175246 96.24514179 4.89371169 85.8174306 4.81609726 75.3896513 C4.77685745 70.03067114 4.74455516 64.67184954 4.72900391 59.31274414 C4.71368075 54.12536184 4.67896439 48.93841618 4.63169098 43.75123024 C4.61703663 41.78809248 4.60896834 39.82489233 4.60811615 37.86170006 C4.59671461 24.74651791 3.20371899 12.72811096 0 0 Z " fill="#247F80" transform="translate(650,438)"/>
<path d="M0 0 C1.65 0 3.3 0 5 0 C5 6.27 5 12.54 5 19 C3.03339633 15.06679266 2.16464517 11.5124724 1.375 7.25 C1.2409375 6.55261719 1.106875 5.85523438 0.96875 5.13671875 C0.64056736 3.42548068 0.31956498 1.71286829 0 0 Z " fill="#31D7BC" transform="translate(650,438)"/>
<path d="M0 0 C0 3 0 3 -2 6 C0.64738916 7.4606285 1.89448334 8 5 8 C4.34 9.32 3.68 10.64 3 12 C1.68 12 0.36 12 -1 12 C-3.25 9.5 -3.25 9.5 -5 7 C-3.70700306 4.11562221 -2.34058637 2.12780579 0 0 Z " fill="#32435C" transform="translate(633,392)"/>
<path d="M0 0 C0.33 0 0.66 0 1 0 C1 5.61 1 11.22 1 17 C-0.98 17.99 -0.98 17.99 -3 19 C-2.68798326 16.95825942 -2.37536431 14.91661087 -2.0625 12.875 C-1.88847656 11.73804688 -1.71445312 10.60109375 -1.53515625 9.4296875 C-1.04410734 6.28267331 -0.52981281 3.14069217 0 0 Z " fill="#38D5BB" transform="translate(654,485)"/>
<path d="M0 0 C0.99 0.66 1.98 1.32 3 2 C2.52949219 2.36351562 2.05898437 2.72703125 1.57421875 3.1015625 C-2.47192944 6.36863868 -5.00283426 9.06582581 -7 14 C-7.99 13.67 -8.98 13.34 -10 13 C-8.71053695 11.20674674 -7.41835648 9.41544722 -6.125 7.625 C-5.04605469 6.12839844 -5.04605469 6.12839844 -3.9453125 4.6015625 C-2 2 -2 2 0 0 Z " fill="#263A54" transform="translate(244,263)"/>
<path d="M0 0 C0 3.68072261 -0.73731743 4.19508747 -3.25 6.75 C-3.85328125 7.38421875 -4.4565625 8.0184375 -5.078125 8.671875 C-7 10 -7 10 -9.234375 9.703125 C-10.10835937 9.35507812 -10.10835937 9.35507812 -11 9 C-9.54405245 7.68485396 -8.08516421 6.37296283 -6.625 5.0625 C-5.81289062 4.33160156 -5.00078125 3.60070312 -4.1640625 2.84765625 C-2 1 -2 1 0 0 Z " fill="#223650" transform="translate(256,253)"/>
<path d="M0 0 C1.485 0.99 1.485 0.99 3 2 C3 2.66 3 3.32 3 4 C2.34 4 1.68 4 1 4 C1 11.26 1 18.52 1 26 C0.67 26 0.34 26 0 26 C0 17.42 0 8.84 0 0 Z " fill="#11233D" transform="translate(615,611)"/>
<path d="M0 0 C2 2 2 2 2.3125 4.3125 C1.93561734 7.55369092 0.83034467 9.32488086 -1 12 C-1.66 12.99 -2.32 13.98 -3 15 C-4.28497537 11.14507389 -3.4052209 9.59653164 -2.0625 5.8125 C-1.68222656 4.72582031 -1.30195312 3.63914062 -0.91015625 2.51953125 C-0.60980469 1.68808594 -0.30945313 0.85664062 0 0 Z " fill="#2F4056" transform="translate(786,734)"/>
<path d="M0 0 C0 3 0 3 -1.6796875 4.97265625 C-2.40414062 5.66230469 -3.12859375 6.35195313 -3.875 7.0625 C-4.95394531 8.10083984 -4.95394531 8.10083984 -6.0546875 9.16015625 C-7.01761719 10.07087891 -7.01761719 10.07087891 -8 11 C-8.66 11.66 -9.32 12.32 -10 13 C-10.33 12.01 -10.66 11.02 -11 10 C-5.555 5.05 -5.555 5.05 0 0 Z " fill="#22CCAF" transform="translate(630,569)"/>
<path d="M0 0 C0.99 0.33 1.98 0.66 3 1 C1.35 2.65 -0.3 4.3 -2 6 C-2.33 5.01 -2.66 4.02 -3 3 C-2.01 2.01 -1.02 1.02 0 0 Z " fill="#263957" transform="translate(771,779)"/>
<path d="M0 0 C0.66 0.66 1.32 1.32 2 2 C0.69593116 4.01920337 -0.63823419 6.01924973 -2 8 C-2.33 8 -2.66 8 -3 8 C-3.1875 5.125 -3.1875 5.125 -3 2 C-2.01 1.34 -1.02 0.68 0 0 Z " fill="#2C3F59" transform="translate(248,277)"/>
<path d="M0 0 C1.65 0 3.3 0 5 0 C5 1.65 5 3.3 5 5 C4.34 5 3.68 5 3 5 C3 4.34 3 3.68 3 3 C2.34 3 1.68 3 1 3 C0.67 2.01 0.34 1.02 0 0 Z " fill="#26C5B2" transform="translate(650,438)"/>
</svg>
