<?xml version="1.0" encoding="UTF-8"?>
<svg version="1.1" xmlns="http://www.w3.org/2000/svg" width="1024" height="1024">
<path d="M0 0 C337.92 0 675.84 0 1024 0 C1024 337.92 1024 675.84 1024 1024 C686.08 1024 348.16 1024 0 1024 C0 686.08 0 348.16 0 0 Z " fill="#FEFEFE" transform="translate(0,0)"/>
<path d="M0 0 C1.78713312 -0.00346152 3.57426409 -0.00822939 5.36139065 -0.01418173 C10.24612068 -0.02665358 15.13067386 -0.02053875 20.01540434 -0.01122308 C25.29362193 -0.0044172 30.57180975 -0.01492147 35.85002136 -0.02316284 C46.17999826 -0.03648623 56.50990967 -0.03362855 66.8398891 -0.02492492 C75.23766653 -0.01814294 83.63542565 -0.01723388 92.03320503 -0.02049637 C93.22955717 -0.02095607 94.42590931 -0.02141577 95.65851455 -0.0218894 C98.08908264 -0.0228486 100.51965072 -0.02382124 102.9502188 -0.02480717 C125.72947413 -0.03335708 148.50869321 -0.02353338 171.2879426 -0.00740607 C190.8209726 0.00599502 210.35394911 0.00366995 229.88697815 -0.01016235 C252.58455904 -0.02622817 275.28210817 -0.03253133 297.97969395 -0.02332556 C300.40150233 -0.02236994 302.82331071 -0.02142683 305.24511909 -0.02049637 C307.03235505 -0.01980213 307.03235505 -0.01980213 308.85569678 -0.01909386 C317.23998154 -0.01650686 325.62424612 -0.02086878 334.00852776 -0.02793503 C344.23112083 -0.03636142 354.45364482 -0.03404598 364.67623001 -0.0180928 C369.88897347 -0.01022519 375.10160188 -0.00709271 380.31434441 -0.01704025 C385.09180133 -0.02601903 389.86903721 -0.02100205 394.64647425 -0.0051076 C396.36907888 -0.00177322 398.09170241 -0.0034234 399.81429475 -0.01073496 C412.94039244 -0.06214857 425.13478249 0.94395599 436.83106995 7.50595093 C437.90808167 8.09799316 437.90808167 8.09799316 439.0068512 8.70199585 C455.76365814 18.17282581 467.40163014 32.61014981 473.37472874 50.97388315 C476.05876463 61.0916524 476.7743289 70.44164305 476.70727539 80.87643433 C476.7111781 82.58238737 476.71682626 84.28833715 476.72404629 85.99427938 C476.73867966 90.6362082 476.72869257 95.27779359 476.71430957 99.91971087 C476.70313407 104.94365707 476.71516401 109.96755766 476.72415161 114.99150085 C476.73804152 124.8152906 476.73055936 134.63895128 476.71547603 144.46273482 C476.69856288 155.91698832 476.70183289 167.37121015 476.70557011 178.8254723 C476.71144092 199.27091173 476.69730776 219.71628947 476.67262268 240.16171265 C476.64870424 259.97456169 476.64161945 279.78732832 476.65211487 299.60018921 C476.66353931 321.20535561 476.66543528 342.81048394 476.65101677 364.41564989 C476.64949103 366.72202078 476.64797067 369.02839168 476.64645576 371.33476257 C476.64569795 372.46936892 476.64494014 373.60397526 476.64415936 374.77296361 C476.63942833 382.74611421 476.64125957 390.71924774 476.64552116 398.69239807 C476.65046172 408.41671847 476.64440167 418.14096115 476.62462687 427.86526382 C476.6147951 432.82119656 476.60960502 437.77701128 476.61751938 442.73295021 C476.62463049 447.2791107 476.61764609 451.82503418 476.59991575 456.37116367 C476.59590616 458.00621722 476.59681159 459.64129275 476.60343461 461.2763378 C476.65373668 474.86936998 475.85099673 488.84825709 469.58106995 501.19345093 C469.23479553 501.89792358 468.88852112 502.60239624 468.53175354 503.32821655 C460.0914808 519.838674 444.78440539 533.31945595 427.20606995 539.38095093 C416.45218418 542.32996055 406.40741787 542.81155422 395.34367371 542.76863098 C393.57345124 542.77281179 391.80323145 542.77829338 390.03301656 542.78495079 C385.20420793 542.79932603 380.37557113 542.79518562 375.54675341 542.78778398 C370.32508806 542.7830349 365.10345897 542.79557748 359.88180542 542.80580139 C349.66606986 542.82296058 339.45039589 542.8238354 329.23464967 542.81858849 C320.92800144 542.81454027 312.62137134 542.81599808 304.31472397 542.82133675 C303.13061042 542.82208517 301.94649688 542.82283359 300.7265011 542.82360469 C298.32066127 542.82513623 295.91482145 542.82667458 293.50898163 542.82821966 C270.96902907 542.84193422 248.42911125 542.83651429 225.88915949 542.82503445 C205.28877094 542.81510264 184.68847222 542.82804372 164.08809753 542.85196864 C142.91113532 542.87637701 121.73421492 542.88596326 100.55723894 542.87931591 C88.67776208 542.87582763 76.79835428 542.87802998 64.91888809 542.89556694 C54.80657434 542.91031061 44.69437829 542.91089599 34.58206679 542.89349603 C29.42763537 542.88500166 24.27341405 542.88279828 19.11899376 542.89814758 C14.39136432 542.91205113 9.66412384 542.90715912 4.93651657 542.88790835 C3.23545142 542.88416536 1.53435469 542.88702065 -0.16668217 542.89752 C-22.85731878 543.02750396 -42.40939257 536.55331455 -58.79393005 520.38095093 C-66.2993546 512.13555494 -71.07839472 502.797051 -74.79393005 492.38095093 C-75.05458647 491.65171455 -75.31524289 490.92247816 -75.58379799 490.17114371 C-78.28963456 481.57094196 -78.21681656 473.16568215 -78.18161011 464.25895691 C-78.18578817 462.53257152 -78.19126826 460.80618887 -78.19792992 459.07981128 C-78.21234173 454.35823931 -78.20815313 449.63684253 -78.20076311 444.91526115 C-78.19602306 439.81419811 -78.20854882 434.71317252 -78.21878052 429.61212158 C-78.23595854 419.62658268 -78.23681044 409.64110673 -78.23156761 399.65555689 C-78.22752215 391.53571703 -78.22897395 383.41589573 -78.23431587 375.29605675 C-78.23506429 374.13929034 -78.23581272 372.98252394 -78.23658382 371.79070401 C-78.23811534 369.44050958 -78.23965369 367.09031515 -78.24119879 364.74012073 C-78.2549207 342.70950288 -78.24948873 320.67892057 -78.23801357 298.64830353 C-78.22808569 278.51331335 -78.24101474 258.37841512 -78.26494776 238.24343912 C-78.28935824 217.55021697 -78.29894158 196.85703762 -78.29229504 176.16380137 C-78.28880662 164.5536756 -78.29100978 152.94362049 -78.30854607 141.33350563 C-78.32329256 131.44802461 -78.3238717 121.562664 -78.30647516 111.67718527 C-78.2979822 106.63821322 -78.29577376 101.59945604 -78.31112671 96.56049538 C-78.32503509 91.93821726 -78.32013216 87.31633686 -78.30088747 82.69408139 C-78.29714586 81.03128435 -78.29999571 79.36845498 -78.31049912 77.7056869 C-78.43480039 56.50242023 -72.77386028 37.01559838 -57.79393005 21.38095093 C-51.69066983 15.41473996 -45.35936404 10.81139692 -37.79393005 6.94345093 C-37.17840271 6.62553589 -36.56287537 6.30762085 -35.92869568 5.98007202 C-24.34436953 0.40098852 -12.59485221 -0.05338348 0 0 Z " fill="#FDFDFD" transform="translate(312.79393005371094,245.61904907226563)"/>
<path d="M0 0 C83.49 0 166.98 0 253 0 C253 81.84 253 163.68 253 248 C202.1696875 248.12375 202.1696875 248.12375 150.3125 248.25 C134.27974487 248.30462402 134.27974487 248.30462402 117.9230957 248.36035156 C104.84216309 248.37841797 104.84216309 248.37841797 98.71281433 248.3817749 C94.44413386 248.38549218 90.17565362 248.40044476 85.9070282 248.42230225 C80.45149041 248.44986459 74.99624119 248.45794147 69.54064023 248.4522891 C67.5451004 248.45346997 65.54954984 248.46132718 63.55407012 248.47686052 C45.41677787 248.61141598 29.93982106 245.75769454 16.1875 232.75 C1.96002513 217.44195741 -0.76980201 200.77144056 -0.56762695 180.73242188 C-0.56609163 178.71800027 -0.56676894 176.70357598 -0.56945324 174.68915558 C-0.57057227 169.34238101 -0.54180203 163.99617715 -0.50640106 158.64953613 C-0.47771724 153.61432288 -0.47657423 148.57924154 -0.47302246 143.54394531 C-0.44688844 128.86255596 -0.37708205 114.18127056 -0.3125 99.5 C-0.209375 66.665 -0.10625 33.83 0 0 Z " fill="#FDFEFE" transform="translate(251,524)"/>
<path d="M0 0 C83.49 0 166.98 0 253 0 C253.0825 32.360625 253.165 64.72125 253.25 98.0625 C253.28641602 108.26293213 253.32283203 118.46336426 253.36035156 128.97290039 C253.37841797 141.47351074 253.37841797 141.47351074 253.3817749 147.33421326 C253.38548646 151.40864355 253.40041598 155.48286326 253.42230225 159.55723572 C253.44992433 164.76917271 253.45793062 169.9808075 253.4522891 175.19281089 C253.45346719 177.09633705 253.46128869 178.99987477 253.47686052 180.9033376 C253.63634925 201.36450645 249.69258183 218.79434388 235 234 C231.82931181 236.65042047 228.54808586 238.88735508 225 241 C224.34386719 241.39832031 223.68773437 241.79664063 223.01171875 242.20703125 C211.05531135 248.81647385 198.04604664 248.41841597 184.81933594 248.34057617 C182.76535179 248.33965581 180.71136669 248.34005996 178.65738297 248.34167194 C173.18621002 248.34234569 167.71523628 248.32503284 162.24411011 248.30384064 C157.09909478 248.28668095 151.95412645 248.28594722 146.80908203 248.28381348 C131.78936192 248.26810839 116.7696784 248.22622464 101.75 248.1875 C68.1725 248.125625 34.595 248.06375 0 248 C0 166.16 0 84.32 0 0 Z " fill="#FDFDFD" transform="translate(520,524)"/>
<path d="M0 0 C51.10875 -0.12375 51.10875 -0.12375 103.25 -0.25 C113.99981445 -0.28641602 124.74962891 -0.32283203 135.82519531 -0.36035156 C148.97412109 -0.37841797 148.97412109 -0.37841797 155.13397217 -0.3817749 C159.42686265 -0.38549443 163.71955433 -0.40045605 168.01239014 -0.42230225 C173.49693828 -0.44984115 178.98119943 -0.45794575 184.4658103 -0.4522891 C186.47316646 -0.45347107 188.48053316 -0.46134226 190.48782969 -0.47686052 C208.3156453 -0.6082265 223.35971334 2.50405467 236.8125 15.25 C250.52456521 29.95569312 252.60731531 44.82375844 252.45410156 64.01879883 C252.45287411 66.04286766 252.45341379 68.06693821 252.45556259 70.09100628 C252.45646007 75.47723919 252.43339492 80.8631116 252.40512085 86.24925995 C252.38222268 91.31637114 252.38126198 96.38339775 252.37841797 101.45056152 C252.35748692 116.23792149 252.30164187 131.02521539 252.25 145.8125 C252.12625 195.4053125 252.12625 195.4053125 252 246 C168.84 246 85.68 246 0 246 C0 164.82 0 83.64 0 0 Z " fill="#FEFEFE" transform="translate(520,262)"/>
<path d="M0 0 C1.78713312 -0.00346152 3.57426409 -0.00822939 5.36139065 -0.01418173 C10.24612068 -0.02665358 15.13067386 -0.02053875 20.01540434 -0.01122308 C25.29362193 -0.0044172 30.57180975 -0.01492147 35.85002136 -0.02316284 C46.17999826 -0.03648623 56.50990967 -0.03362855 66.8398891 -0.02492492 C75.23766653 -0.01814294 83.63542565 -0.01723388 92.03320503 -0.02049637 C93.22955717 -0.02095607 94.42590931 -0.02141577 95.65851455 -0.0218894 C98.08908264 -0.0228486 100.51965072 -0.02382124 102.9502188 -0.02480717 C125.72947413 -0.03335708 148.50869321 -0.02353338 171.2879426 -0.00740607 C190.8209726 0.00599502 210.35394911 0.00366995 229.88697815 -0.01016235 C252.58455904 -0.02622817 275.28210817 -0.03253133 297.97969395 -0.02332556 C300.40150233 -0.02236994 302.82331071 -0.02142683 305.24511909 -0.02049637 C307.03235505 -0.01980213 307.03235505 -0.01980213 308.85569678 -0.01909386 C317.23998154 -0.01650686 325.62424612 -0.02086878 334.00852776 -0.02793503 C344.23112083 -0.03636142 354.45364482 -0.03404598 364.67623001 -0.0180928 C369.88897347 -0.01022519 375.10160188 -0.00709271 380.31434441 -0.01704025 C385.09180133 -0.02601903 389.86903721 -0.02100205 394.64647425 -0.0051076 C396.36907888 -0.00177322 398.09170241 -0.0034234 399.81429475 -0.01073496 C412.94039244 -0.06214857 425.13478249 0.94395599 436.83106995 7.50595093 C437.90808167 8.09799316 437.90808167 8.09799316 439.0068512 8.70199585 C455.76365814 18.17282581 467.40163014 32.61014981 473.37472874 50.97388315 C476.05876463 61.0916524 476.7743289 70.44164305 476.70727539 80.87643433 C476.7111781 82.58238737 476.71682626 84.28833715 476.72404629 85.99427938 C476.73867966 90.6362082 476.72869257 95.27779359 476.71430957 99.91971087 C476.70313407 104.94365707 476.71516401 109.96755766 476.72415161 114.99150085 C476.73804152 124.8152906 476.73055936 134.63895128 476.71547603 144.46273482 C476.69856288 155.91698832 476.70183289 167.37121015 476.70557011 178.8254723 C476.71144092 199.27091173 476.69730776 219.71628947 476.67262268 240.16171265 C476.64870424 259.97456169 476.64161945 279.78732832 476.65211487 299.60018921 C476.66353931 321.20535561 476.66543528 342.81048394 476.65101677 364.41564989 C476.64949103 366.72202078 476.64797067 369.02839168 476.64645576 371.33476257 C476.64569795 372.46936892 476.64494014 373.60397526 476.64415936 374.77296361 C476.63942833 382.74611421 476.64125957 390.71924774 476.64552116 398.69239807 C476.65046172 408.41671847 476.64440167 418.14096115 476.62462687 427.86526382 C476.6147951 432.82119656 476.60960502 437.77701128 476.61751938 442.73295021 C476.62463049 447.2791107 476.61764609 451.82503418 476.59991575 456.37116367 C476.59590616 458.00621722 476.59681159 459.64129275 476.60343461 461.2763378 C476.65373668 474.86936998 475.85099673 488.84825709 469.58106995 501.19345093 C469.23479553 501.89792358 468.88852112 502.60239624 468.53175354 503.32821655 C460.0914808 519.838674 444.78440539 533.31945595 427.20606995 539.38095093 C416.45218418 542.32996055 406.40741787 542.81155422 395.34367371 542.76863098 C393.57345124 542.77281179 391.80323145 542.77829338 390.03301656 542.78495079 C385.20420793 542.79932603 380.37557113 542.79518562 375.54675341 542.78778398 C370.32508806 542.7830349 365.10345897 542.79557748 359.88180542 542.80580139 C349.66606986 542.82296058 339.45039589 542.8238354 329.23464967 542.81858849 C320.92800144 542.81454027 312.62137134 542.81599808 304.31472397 542.82133675 C303.13061042 542.82208517 301.94649688 542.82283359 300.7265011 542.82360469 C298.32066127 542.82513623 295.91482145 542.82667458 293.50898163 542.82821966 C270.96902907 542.84193422 248.42911125 542.83651429 225.88915949 542.82503445 C205.28877094 542.81510264 184.68847222 542.82804372 164.08809753 542.85196864 C142.91113532 542.87637701 121.73421492 542.88596326 100.55723894 542.87931591 C88.67776208 542.87582763 76.79835428 542.87802998 64.91888809 542.89556694 C54.80657434 542.91031061 44.69437829 542.91089599 34.58206679 542.89349603 C29.42763537 542.88500166 24.27341405 542.88279828 19.11899376 542.89814758 C14.39136432 542.91205113 9.66412384 542.90715912 4.93651657 542.88790835 C3.23545142 542.88416536 1.53435469 542.88702065 -0.16668217 542.89752 C-22.85731878 543.02750396 -42.40939257 536.55331455 -58.79393005 520.38095093 C-66.2993546 512.13555494 -71.07839472 502.797051 -74.79393005 492.38095093 C-75.05458647 491.65171455 -75.31524289 490.92247816 -75.58379799 490.17114371 C-78.28963456 481.57094196 -78.21681656 473.16568215 -78.18161011 464.25895691 C-78.18578817 462.53257152 -78.19126826 460.80618887 -78.19792992 459.07981128 C-78.21234173 454.35823931 -78.20815313 449.63684253 -78.20076311 444.91526115 C-78.19602306 439.81419811 -78.20854882 434.71317252 -78.21878052 429.61212158 C-78.23595854 419.62658268 -78.23681044 409.64110673 -78.23156761 399.65555689 C-78.22752215 391.53571703 -78.22897395 383.41589573 -78.23431587 375.29605675 C-78.23506429 374.13929034 -78.23581272 372.98252394 -78.23658382 371.79070401 C-78.23811534 369.44050958 -78.23965369 367.09031515 -78.24119879 364.74012073 C-78.2549207 342.70950288 -78.24948873 320.67892057 -78.23801357 298.64830353 C-78.22808569 278.51331335 -78.24101474 258.37841512 -78.26494776 238.24343912 C-78.28935824 217.55021697 -78.29894158 196.85703762 -78.29229504 176.16380137 C-78.28880662 164.5536756 -78.29100978 152.94362049 -78.30854607 141.33350563 C-78.32329256 131.44802461 -78.3238717 121.562664 -78.30647516 111.67718527 C-78.2979822 106.63821322 -78.29577376 101.59945604 -78.31112671 96.56049538 C-78.32503509 91.93821726 -78.32013216 87.31633686 -78.30088747 82.69408139 C-78.29714586 81.03128435 -78.29999571 79.36845498 -78.31049912 77.7056869 C-78.43480039 56.50242023 -72.77386028 37.01559838 -57.79393005 21.38095093 C-51.69066983 15.41473996 -45.35936404 10.81139692 -37.79393005 6.94345093 C-37.17840271 6.62553589 -36.56287537 6.30762085 -35.92869568 5.98007202 C-24.34436953 0.40098852 -12.59485221 -0.05338348 0 0 Z M-50.79393005 37.38095093 C-61.13438751 51.76767435 -62.38647196 66.19257556 -62.24803162 83.23788452 C-62.24680384 85.23203818 -62.24734438 87.22619357 -62.24949265 89.22034645 C-62.25038923 94.52157566 -62.22734323 99.82243775 -62.1990509 105.12358093 C-62.17613356 110.11278334 -62.17519101 115.10190012 -62.17234802 120.09115601 C-62.15142635 134.64613556 -62.09558128 149.20104799 -62.04393005 163.75595093 C-61.96143005 196.30220093 -61.87893005 228.84845093 -61.79393005 262.38095093 C21.69606995 262.38095093 105.18606995 262.38095093 191.20606995 262.38095093 C191.20606995 181.20095093 191.20606995 100.02095093 191.20606995 16.38095093 C139.63325745 16.22626343 139.63325745 16.22626343 87.01856995 16.06845093 C70.75088318 16.0001709 70.75088318 16.0001709 54.15455627 15.93051147 C44.40971008 15.91378646 44.40971008 15.91378646 34.66485596 15.9037323 C30.33362957 15.89908516 26.00271145 15.8803926 21.67156982 15.85307312 C16.13645597 15.81862509 10.60178651 15.80852306 5.06657541 15.81558955 C3.04172028 15.81411321 1.01684866 15.80428842 -1.00791395 15.78487527 C-21.58357495 15.59685955 -37.11880422 21.11314325 -50.79393005 37.38095093 Z M207.20606995 16.38095093 C207.20606995 97.56095093 207.20606995 178.74095093 207.20606995 262.38095093 C290.36606995 262.38095093 373.52606995 262.38095093 459.20606995 262.38095093 C459.28856995 229.31907593 459.37106995 196.25720093 459.45606995 162.19345093 C459.51069397 146.55224854 459.51069397 146.55224854 459.56642151 130.59506226 C459.5798018 121.22277333 459.5798018 121.22277333 459.58784485 111.85047913 C459.59156144 107.68596315 459.60651126 103.52165252 459.62837219 99.35719299 C459.6559417 94.03421248 459.66401012 88.71152774 459.65835905 83.38848245 C459.65953959 81.44178623 459.66739254 79.49507896 459.68293047 77.54844439 C459.82456947 58.92861288 456.44316342 45.29029417 443.58106995 31.13095093 C429.30038801 17.66550477 413.63016218 15.93263689 394.97706604 16.04037476 C392.89328847 16.04129471 390.80950996 16.04089167 388.7257328 16.03927898 C383.1653516 16.03860406 377.60516562 16.05594179 372.04483032 16.07711029 C366.8196809 16.09424504 361.59457802 16.09500236 356.36940002 16.09713745 C341.10659766 16.11285478 325.84383131 16.15473846 310.58106995 16.19345093 C276.46731995 16.25532593 242.35356995 16.31720093 207.20606995 16.38095093 Z M-61.79393005 278.38095093 C-61.91768005 311.17470093 -62.04143005 343.96845093 -62.16893005 377.75595093 C-62.22355408 388.08569214 -62.2781781 398.41543335 -62.3344574 409.05819702 C-62.35453208 418.3705232 -62.35453208 418.3705232 -62.36659241 427.68286133 C-62.37215075 431.80976984 -62.39450746 435.93620866 -62.42738342 440.06298828 C-62.46891332 445.34705974 -62.48080894 450.63046026 -62.47236371 455.91467977 C-62.47412641 457.84139059 -62.48580158 459.76812785 -62.50922084 461.69469714 C-62.71204922 479.21134772 -59.68741639 494.86882444 -47.79393005 508.38095093 C-47.27443787 509.02032593 -46.75494568 509.65970093 -46.2197113 510.31845093 C-38.3673841 519.17951538 -25.51665598 525.59033798 -13.72316575 526.54933715 C-7.66612554 526.82383146 -1.60467461 526.75677801 4.45680237 526.7215271 C6.53068939 526.72060695 8.60457734 526.72101052 10.67846394 526.72262287 C16.20770795 526.72329723 21.73675527 526.70597152 27.26595306 526.68479156 C32.46364936 526.66764476 37.66129899 526.66689884 42.85902405 526.6647644 C58.03723184 526.649053 73.21540341 526.60716928 88.39356995 526.56845093 C139.28575745 526.47563843 139.28575745 526.47563843 191.20606995 526.38095093 C191.20606995 444.54095093 191.20606995 362.70095093 191.20606995 278.38095093 C107.71606995 278.38095093 24.22606995 278.38095093 -61.79393005 278.38095093 Z M207.20606995 278.38095093 C207.20606995 360.22095093 207.20606995 442.06095093 207.20606995 526.38095093 C240.78356995 526.44282593 274.36106995 526.50470093 308.95606995 526.56845093 C324.84585999 526.60941895 324.84585999 526.60941895 341.05665588 526.6512146 C350.57133338 526.66124933 350.57133338 526.66124933 360.08601379 526.6672821 C364.31636803 526.67007145 368.54660875 526.68129162 372.77693176 526.69767761 C378.18191234 526.71833457 383.58672909 526.72440967 388.99174547 526.72016776 C390.9697882 526.72105409 392.94783695 526.72695565 394.92584562 526.73859632 C413.99604803 526.84556369 429.90810273 524.08696408 444.20606995 510.38095093 C454.98416865 498.4014718 460.57238552 483.84906391 460.44657898 467.78181458 C460.44829102 466.96752991 460.45000305 466.15324524 460.45176697 465.31428528 C460.45505156 462.60391206 460.44407274 459.89379142 460.43312073 457.18344116 C460.4325075 455.19990834 460.432776 453.21637507 460.43385124 451.23284245 C460.43430138 445.93764372 460.42273872 440.64253602 460.40863037 435.3473587 C460.39721136 430.37226587 460.39670255 425.39719479 460.39527893 420.42208862 C460.38479867 405.88753074 460.35687624 391.35298968 460.33106995 376.81845093 C460.26919495 328.09188843 460.26919495 328.09188843 460.20606995 278.38095093 C376.71606995 278.38095093 293.22606995 278.38095093 207.20606995 278.38095093 Z " fill="#293B52" transform="translate(312.79393005371094,245.61904907226563)"/>
<path d="M0 0 C10.19987032 7.4370112 17.68032839 16.76076339 20.66015625 29.19140625 C21.95646713 37.5466201 21.9496624 46.16359637 19.125 54.1875 C18.78726563 55.15300781 18.44953125 56.11851562 18.1015625 57.11328125 C17.13363904 59.81454282 16.14115009 62.50407452 15.125 65.1875 C15.67961914 65.16131592 16.23423828 65.13513184 16.80566406 65.1081543 C19.32848569 65.00395997 21.85085489 64.93911109 24.375 64.875 C25.24769531 64.83310547 26.12039063 64.79121094 27.01953125 64.74804688 C27.86386719 64.73193359 28.70820313 64.71582031 29.578125 64.69921875 C30.35317383 64.67303467 31.12822266 64.64685059 31.92675781 64.61987305 C35.41124262 65.51963173 36.21185097 67.14196913 38.125 70.1875 C39.78618464 73.88132668 41.1821325 77.65881558 42.57421875 81.4609375 C43.19959282 83.13308823 43.19959282 83.13308823 43.83760071 84.83901978 C45.17134415 88.41031574 46.49236999 91.98615218 47.8125 95.5625 C49.11244578 99.06039478 50.41506302 102.55728135 51.71878052 106.05377197 C52.57930114 108.36302285 53.4377682 110.67304004 54.29415894 112.98382568 C56.39549271 118.6368728 58.53757188 124.26779687 60.77587891 129.86816406 C61.19561478 130.92025055 61.61535065 131.97233704 62.04780579 133.05630493 C62.84065802 135.03255847 63.6408448 137.0058912 64.44963074 138.97567749 C64.97886894 140.29410141 64.97886894 140.29410141 65.51879883 141.63916016 C65.98592033 142.7815062 65.98592033 142.7815062 66.46247864 143.94692993 C67.23063647 146.54475023 67.4477211 148.49348785 67.125 151.1875 C66.06250477 152.81389236 66.06250477 152.81389236 64.125 154.1875 C61.61332565 154.48209204 59.34917064 154.59242442 56.83703613 154.56845093 C55.71543114 154.57547089 55.71543114 154.57547089 54.57116747 154.58263266 C52.05833381 154.59462654 49.54604111 154.58510854 47.03320312 154.57568359 C45.23469219 154.57974735 43.43618374 154.58508813 41.63768005 154.59161377 C36.74725437 154.60531648 31.85701807 154.59997655 26.96658897 154.59047651 C21.85504002 154.5828952 16.74350758 154.58992126 11.63195801 154.59463501 C3.04708944 154.60009703 -5.53770177 154.59288925 -14.12255859 154.57861328 C-24.05589163 154.56228593 -33.98903996 154.56757412 -43.92236853 154.5840925 C-52.44216671 154.59769466 -60.9619092 154.59963325 -69.48171473 154.59177649 C-74.57405787 154.58709298 -79.66631413 154.58649369 -84.75865173 154.59638596 C-89.54555368 154.60503489 -94.33221686 154.59907176 -99.11909294 154.58170319 C-100.8787439 154.57772723 -102.63841486 154.57889125 -104.39805794 154.58549118 C-106.79465776 154.59365321 -109.19048588 154.58345058 -111.58703613 154.56845093 C-112.28829479 154.57514309 -112.98955344 154.58183526 -113.71206236 154.58873022 C-116.59428502 154.55358547 -118.4434846 154.49987047 -120.81728458 152.78149605 C-122.61579341 150.07111109 -121.90736879 147.84217839 -121.44259644 144.74780273 C-120.42102802 140.13973221 -118.72336072 135.84224097 -116.97265625 131.46875 C-116.57896347 130.46014923 -116.18527069 129.45154846 -115.77964783 128.41238403 C-114.50957901 125.16645677 -113.22408956 121.92691021 -111.9375 118.6875 C-111.06366046 116.46694588 -110.19061462 114.24607926 -109.31835938 112.02490234 C-107.61319844 107.68825069 -105.90160268 103.35423188 -104.18408203 99.02246094 C-102.52300453 94.83133316 -100.87502208 90.63551932 -99.24351501 86.43280029 C-98.12689229 83.556932 -97.00060187 80.68486344 -95.875 77.8125 C-95.49738525 76.83603516 -95.11977051 75.85957031 -94.73071289 74.85351562 C-94.21432251 73.55317383 -94.21432251 73.55317383 -93.6875 72.2265625 C-93.40519531 71.50678223 -93.12289063 70.78700195 -92.83203125 70.04541016 C-91.7362035 67.91805067 -90.78431972 66.63929979 -88.875 65.1875 C-86.7902832 64.84692383 -86.7902832 64.84692383 -84.42578125 64.89453125 C-83.57822266 64.90419922 -82.73066406 64.91386719 -81.85742188 64.92382812 C-80.97634766 64.94896484 -80.09527344 64.97410156 -79.1875 65 C-78.29482422 65.01353516 -77.40214844 65.02707031 -76.48242188 65.04101562 C-74.27933834 65.07635921 -72.07747418 65.12569507 -69.875 65.1875 C-70.22433594 64.22328125 -70.57367188 63.2590625 -70.93359375 62.265625 C-71.39333086 60.98961997 -71.85296063 59.71357626 -72.3125 58.4375 C-72.54259766 57.80328125 -72.77269531 57.1690625 -73.00976562 56.515625 C-77.3705517 44.38126374 -77.64591607 31.89899586 -72.35546875 19.984375 C-70.23346627 15.97552598 -67.91080465 12.55343943 -64.875 9.1875 C-64.27816406 8.51074219 -63.68132812 7.83398438 -63.06640625 7.13671875 C-46.13264447 -10.95548951 -20.72491026 -12.88686924 0 0 Z " fill="#283A51" transform="translate(406.875,573.8125)"/>
<path d="M0 0 C1.34121918 0.01052147 1.34121918 0.01052147 2.70953369 0.02125549 C3.72681549 0.0347831 3.72681549 0.0347831 4.76464844 0.04858398 C4.7749559 0.83563217 4.78526337 1.62268036 4.79588318 2.43357849 C4.89369031 9.83556505 4.9961803 17.23746467 5.10398769 24.63931179 C5.15925138 28.44505803 5.21267673 32.25081191 5.26196289 36.05664062 C5.30955584 39.72657733 5.36189653 43.39641789 5.41758919 47.06624031 C5.4380358 48.46930625 5.45674501 49.87239858 5.47372246 51.27551079 C5.49771531 53.23435324 5.52835043 55.19311099 5.55932617 57.15185547 C5.58264259 58.8273069 5.58264259 58.8273069 5.60643005 60.53660583 C5.48283881 62.98719399 5.48283881 62.98719399 6.76464844 64.04858398 C8.78879835 64.17233567 10.81722581 64.22655709 12.8449707 64.25390625 C14.79688072 64.28382408 14.79688072 64.28382408 16.78822327 64.31434631 C18.21916584 64.33133198 19.65010968 64.34821074 21.08105469 64.36499023 C22.53694764 64.38555304 23.99283453 64.40654933 25.44871521 64.42796326 C29.2873749 64.48325359 33.12608909 64.53263201 36.96484375 64.58081055 C40.87928132 64.6309749 44.7936394 64.68668734 48.70800781 64.74194336 C56.39348745 64.84961002 64.07903301 64.95103592 71.76464844 65.04858398 C71.8910363 81.43687687 64.80877084 96.12926698 53.76464844 108.04858398 C53.12269531 108.74467773 52.48074219 109.44077148 51.81933594 110.15795898 C39.45704861 122.28522183 22.2182815 127.58932657 5.21557617 127.47094727 C-12.93122473 126.84611087 -28.27346967 118.39237628 -40.79785156 105.61108398 C-53.72275927 90.7847888 -57.49345946 72.95239205 -56.48095703 53.79370117 C-55.22763262 39.78537142 -46.86615627 25.3968152 -36.57128906 15.91577148 C-26.07727388 7.52757874 -13.86824013 -0.14141114 0 0 Z " fill="#FCFDFD" transform="translate(634.2353515625,327.951416015625)"/>
<path d="M0 0 C6.59747202 -1.13431922 13.51515062 -2.05878609 20 0 C24.75800504 3.85773735 27.00889631 9.98083664 29.61474609 15.37744141 C32.01100757 19.91403654 35.09051823 23.92313614 38.1875 28 C38.78675293 28.7955127 39.38600586 29.59102539 40.00341797 30.41064453 C41.14890724 31.92704202 42.2978309 33.44085319 43.45068359 34.95166016 C44.81488568 36.75526172 46.14292808 38.57777943 47.45703125 40.41796875 C48.13121094 41.33191406 48.80539062 42.24585938 49.5 43.1875 C50.0465625 43.94417969 50.593125 44.70085938 51.15625 45.48046875 C52.99216082 47.24376796 52.99216082 47.24376796 55.93359375 47.54296875 C60.03950071 46.81593554 61.01747417 45.39148532 63.5625 42.125 C63.97959229 41.59543701 64.39668457 41.06587402 64.82641602 40.52026367 C66.24358875 38.69855395 67.62401665 36.85299708 69 35 C69.51014648 34.3198584 70.02029297 33.6397168 70.54589844 32.93896484 C72.18876151 30.73896996 73.81539986 28.52784172 75.4375 26.3125 C75.99501953 25.5587207 76.55253906 24.80494141 77.12695312 24.02832031 C80.42365323 19.48240498 83.20648548 14.95449162 85.60595703 9.87329102 C86.08661621 9.04885498 86.56727539 8.22441895 87.0625 7.375 C87.42974686 6.74200989 87.79699371 6.10901978 88.17536926 5.45684814 C90.21899857 2.40852305 91.69751142 0.32642379 95.35522461 -0.59025574 C98.06288651 -0.72561658 100.66674007 -0.64576613 103.37109375 -0.4609375 C104.76177063 -0.41102661 104.76177063 -0.41102661 106.18054199 -0.36010742 C108.45736619 -0.27358077 110.72681895 -0.15274693 113 0 C113.6771671 1.76063446 114.354333 3.52126938 115.03149414 5.28190613 C115.64019909 6.86452452 116.24892366 8.44713537 116.85766602 10.02973938 C118.55025722 14.43021557 120.24249454 18.83082732 121.93408203 23.23168945 C125.01138116 31.23667643 128.09042991 39.24091993 131.1875 47.23828125 C131.87803467 49.02419678 131.87803467 49.02419678 132.58251953 50.84619141 C133.42532199 53.02499656 134.26996122 55.20309237 135.11669922 57.38037109 C135.48811035 58.34152832 135.85952148 59.30268555 136.2421875 60.29296875 C136.71954346 61.52309692 136.71954346 61.52309692 137.20654297 62.77807617 C138 65 138 65 139 69 C84.55 69 30.1 69 -26 69 C-22.62478003 57.74926676 -22.62478003 57.74926676 -20.65576172 52.6640625 C-20.21875946 51.53009033 -19.7817572 50.39611816 -19.33151245 49.2277832 C-18.86891022 48.03886475 -18.40630798 46.84994629 -17.9296875 45.625 C-17.4428252 44.36624563 -16.9562687 43.10737294 -16.47000122 41.84838867 C-15.4586693 39.23218744 -14.44494359 36.6169326 -13.42919922 34.00244141 C-12.12683788 30.650158 -10.82867054 27.29627081 -9.53202629 23.94177246 C-8.29095084 20.73148389 -7.04793331 17.52194855 -5.8046875 14.3125 C-5.3380368 13.1073877 -4.87138611 11.90227539 -4.39059448 10.66064453 C-3.95989655 9.55188965 -3.52919861 8.44313477 -3.08544922 7.30078125 C-2.70589081 6.32278564 -2.3263324 5.34479004 -1.93527222 4.3371582 C-1 2 -1 2 0 0 Z " fill="#FBFBFB" transform="translate(323,649)"/>
<path d="M0 0 C29.12586544 -0.83562118 52.97999466 7.27820109 74.36108398 27.41992188 C88.46650406 41.1690647 98.83725351 58.57681207 102.51074219 78.08251953 C102.71441406 79.09572266 102.91808594 80.10892578 103.12792969 81.15283203 C104.23331406 87.31572848 104.73016314 93.39522348 104.82324219 99.64501953 C104.84088623 100.3240332 104.85853027 101.00304687 104.87670898 101.70263672 C104.87279849 104.53667823 104.69435183 106.71758516 103.41210938 109.26611328 C100.62135635 111.93216394 98.53176788 111.58435488 94.72558594 111.57861328 C94.06869278 111.58006851 93.41179962 111.58152374 92.73500061 111.58302307 C91.3489233 111.58136554 89.96282731 111.5698201 88.5769043 111.54907227 C86.45184534 111.52006871 84.32927399 111.52847207 82.20410156 111.54150391 C80.8570842 111.53526767 79.51007472 111.52687761 78.16308594 111.51611328 C76.93581787 111.50636475 75.7085498 111.49661621 74.4440918 111.48657227 C73.47608643 111.35323486 72.50808105 111.21989746 71.51074219 111.08251953 C69.21054858 107.63222912 69.07941704 106.13697595 69.51074219 102.08251953 C72.71454236 99.94665275 73.53014186 99.85119778 77.19824219 99.95751953 C78.00648438 99.97556641 78.81472656 99.99361328 79.64746094 100.01220703 C80.26234375 100.03541016 80.87722656 100.05861328 81.51074219 100.08251953 C80.48076744 90.53404774 79.14386208 81.35110156 76.51074219 72.08251953 C73.67391482 71.23698567 72.45555679 71.09378186 69.44824219 71.70751953 C66.51074219 72.08251953 66.51074219 72.08251953 64.63574219 70.95751953 C63.0701396 68.34818188 62.85456025 67.07179281 63.51074219 64.08251953 C66.51074219 61.77001953 66.51074219 61.77001953 69.51074219 60.08251953 C66.52148119 51.24060015 57.97180427 43.48597456 50.51074219 38.08251953 C49.85074219 38.08251953 49.19074219 38.08251953 48.51074219 38.08251953 C47.12841776 39.70878357 45.79136703 41.37501973 44.51074219 43.08251953 C39.76074219 42.33251953 39.76074219 42.33251953 37.51074219 40.08251953 C37.81171018 35.94420964 38.18972235 33.56404929 40.51074219 30.08251953 C39.78757812 29.95619141 39.06441406 29.82986328 38.31933594 29.69970703 C35.57792692 29.09728335 33.17791235 28.24296622 30.57324219 27.20751953 C24.03778063 24.76118556 17.34950579 23.40035427 10.51074219 22.08251953 C10.53523437 23.19626953 10.55972656 24.31001953 10.58496094 25.45751953 C10.51074219 29.08251953 10.51074219 29.08251953 9.32324219 31.08251953 C7.51074219 32.08251953 7.51074219 32.08251953 4.94824219 31.89501953 C2.51074219 31.08251953 2.51074219 31.08251953 0.51074219 29.08251953 C0.38574219 25.95751953 0.38574219 25.95751953 0.51074219 23.08251953 C-9.16491488 23.30379235 -18.80407475 25.739928 -27.48925781 30.08251953 C-27.38226562 30.76958984 -27.27527344 31.45666016 -27.16503906 32.16455078 C-27.04515625 33.06560547 -26.92527344 33.96666016 -26.80175781 34.89501953 C-26.67414063 35.78833984 -26.54652344 36.68166016 -26.41503906 37.60205078 C-26.48925781 40.08251953 -26.48925781 40.08251953 -27.81347656 41.91064453 C-29.48925781 43.08251953 -29.48925781 43.08251953 -31.98925781 43.02001953 C-34.93628519 41.91488427 -35.86809435 40.72757571 -37.48925781 38.08251953 C-45.98377106 40.91900023 -52.95743125 49.52408024 -57.48925781 57.08251953 C-58.15641304 59.22081719 -58.15641304 59.22081719 -58.48925781 61.08251953 C-56.50925781 61.74251953 -54.52925781 62.40251953 -52.48925781 63.08251953 C-51.73925781 65.33251953 -51.73925781 65.33251953 -51.48925781 68.08251953 C-53.11425781 70.45751953 -53.11425781 70.45751953 -55.48925781 72.08251953 C-57.98925781 71.89501953 -57.98925781 71.89501953 -60.48925781 71.08251953 C-61.82087092 70.74237923 -63.15395144 70.40785901 -64.48925781 70.08251953 C-67.90023941 80.23613918 -69.21295722 89.44494689 -69.48925781 100.08251953 C-68.22082031 100.05802734 -66.95238281 100.03353516 -65.64550781 100.00830078 C-62.8281627 99.95390082 -61.59349894 100.033005 -58.98925781 101.27001953 C-57.48925781 103.08251953 -57.48925781 103.08251953 -57.05175781 105.58251953 C-57.57825982 108.59110242 -58.0398364 109.29727794 -60.48925781 111.08251953 C-64.62798241 111.64841421 -68.76661717 111.55522605 -72.94091797 111.52856445 C-74.98279352 111.5200465 -77.02187696 111.54882787 -79.06347656 111.58056641 C-80.34867188 111.57992187 -81.63386719 111.57927734 -82.95800781 111.57861328 C-84.72821289 111.58139282 -84.72821289 111.58139282 -86.53417969 111.58422852 C-89.48925781 111.08251953 -89.48925781 111.08251953 -91.37255859 109.36401367 C-92.65815125 106.73745849 -92.8762999 104.99974576 -92.88769531 102.08251953 C-92.89381836 101.11870361 -92.89994141 100.1548877 -92.90625 99.16186523 C-92.89239258 98.14568115 -92.87853516 97.12949707 -92.86425781 96.08251953 C-92.85555664 95.04248779 -92.84685547 94.00245605 -92.83789062 92.9309082 C-92.69765091 85.59073834 -91.90086298 79.0447188 -89.48925781 72.08251953 C-89.10640625 70.70580078 -89.10640625 70.70580078 -88.71582031 69.30126953 C-84.8370593 56.06366315 -77.84437846 43.21723356 -68.48925781 33.08251953 C-67.61785156 32.11958984 -66.74644531 31.15666016 -65.84863281 30.16455078 C-50.66065722 13.89634564 -28.95480172 1.46254975 -6.43457031 0.21142578 C-4.28970059 0.14134588 -2.14483609 0.07110186 0 0 Z " fill="#273C53" transform="translate(640.4892578125,573.91748046875)"/>
<path d="M0 0 C7.93609999 5.57507216 14.97591454 13.45506873 17.296875 23.0546875 C20.68776528 43.95999273 8.44324909 63.62963086 -3.33984375 80.0546875 C-4.96610708 82.27804692 -6.61828398 84.48074367 -8.27734375 86.6796875 C-9.11912175 87.80942508 -9.96026983 88.93963229 -10.80078125 90.0703125 C-12.94667966 92.94996423 -15.1098286 95.81626257 -17.27734375 98.6796875 C-17.81488281 99.45054687 -18.35242188 100.22140625 -18.90625 101.015625 C-19.35871094 101.56476563 -19.81117188 102.11390625 -20.27734375 102.6796875 C-20.93734375 102.6796875 -21.59734375 102.6796875 -22.27734375 102.6796875 C-24.20023727 100.36430463 -26.00112229 98.04205092 -27.77734375 95.6171875 C-28.31488281 94.88765869 -28.85242188 94.15812988 -29.40625 93.40649414 C-31.04123217 91.17216345 -32.66163319 88.92798299 -34.27734375 86.6796875 C-34.72207031 86.06609375 -35.16679687 85.4525 -35.625 84.8203125 C-41.35133162 76.85012052 -46.14487406 68.48666288 -50.71484375 59.8046875 C-51.22337891 58.84167725 -51.73191406 57.87866699 -52.25585938 56.88647461 C-58.2339132 45.28443625 -61.88522215 34.05226599 -58.5859375 20.9296875 C-57.65144727 18.67752695 -56.60048563 16.72603737 -55.27734375 14.6796875 C-54.84164063 13.99648438 -54.4059375 13.31328125 -53.95703125 12.609375 C-41.464142 -5.34488659 -19.45347135 -11.27834188 0 0 Z " fill="#FBFCFB" transform="translate(400.27734375,581.3203125)"/>
<path d="M0 0 C0.90556641 -0.00773437 1.81113281 -0.01546875 2.74414062 -0.0234375 C3.60845703 -0.02085937 4.47277344 -0.01828125 5.36328125 -0.015625 C6.14614502 -0.01336914 6.92900879 -0.01111328 7.7355957 -0.00878906 C9.6875 0.25 9.6875 0.25 11.6875 2.25 C11.92800903 4.88223267 11.92800903 4.88223267 11.91455078 8.26025391 C11.91439972 9.52141022 11.91424866 10.78256653 11.91409302 12.0819397 C11.90387898 13.46348222 11.89344697 14.84502315 11.8828125 16.2265625 C11.87908288 17.63617757 11.87623567 19.04579523 11.87423706 20.45541382 C11.86659655 24.16759382 11.84694461 27.87961761 11.8248291 31.59173584 C11.80437959 35.37884406 11.79523727 39.1659775 11.78515625 42.953125 C11.763699 50.38548793 11.72955816 57.81772208 11.6875 65.25 C12.49738373 65.24555878 13.30726746 65.24111755 14.14169312 65.23654175 C21.76402597 65.19651249 29.38630806 65.16603985 37.00871849 65.14637566 C40.92773284 65.13592635 44.84666053 65.12174638 48.765625 65.09912109 C52.54573039 65.07743339 56.32575228 65.06544002 60.10591507 65.06024551 C61.55005839 65.05654241 62.994197 65.0493114 64.4383049 65.03853989 C66.45670894 65.02407983 68.47519652 65.02318355 70.49365234 65.02294922 C72.21906754 65.01628738 72.21906754 65.01628738 73.9793396 65.00949097 C76.6875 65.25 76.6875 65.25 78.6875 67.25 C80.64170908 85.47413589 75.2659376 103.33319489 64.375 118 C63.17139875 119.43845027 61.94065038 120.85450394 60.6875 122.25 C59.95917969 123.07113281 59.23085938 123.89226562 58.48046875 124.73828125 C52.30580432 131.31195469 45.58194963 135.93756934 37.6875 140.25 C36.92824219 140.67152344 36.16898438 141.09304688 35.38671875 141.52734375 C19.13350248 149.63864754 -2.41684344 149.62139741 -19.42919922 143.93896484 C-29.17444106 140.37387897 -37.61175377 135.218587 -45.3125 128.25 C-46.08207031 127.57324219 -46.85164062 126.89648438 -47.64453125 126.19921875 C-60.99610629 113.75746143 -68.79860935 95.97109168 -69.68359375 77.8046875 C-70.13082263 56.95582239 -65.17165606 40.3052536 -51.3125 24.25 C-50.74144531 23.58355469 -50.17039062 22.91710937 -49.58203125 22.23046875 C-40.92213121 12.8689137 -29.27841931 6.38247421 -17.3125 2.25 C-15.72695313 1.69892578 -15.72695313 1.69892578 -14.109375 1.13671875 C-9.33754605 0.02231014 -4.88058904 -0.04259423 0 0 Z M-44.3125 31.25 C-54.41395811 43.32289985 -59.91654328 56.63892835 -59.8125 72.4375 C-59.80750488 73.44200195 -59.80250977 74.44650391 -59.79736328 75.48144531 C-59.5947764 84.19687245 -57.95855853 91.26939848 -54.3125 99.25 C-53.8896875 100.21808594 -53.466875 101.18617188 -53.03125 102.18359375 C-45.56929859 117.47625579 -31.51790328 128.91262771 -15.578125 134.54296875 C-14.83046875 134.77628906 -14.0828125 135.00960937 -13.3125 135.25 C-12.64734375 135.47300781 -11.9821875 135.69601562 -11.296875 135.92578125 C4.07000136 140.23671794 21.3856486 137.14651212 35.4375 130.1875 C50.52452326 121.37428839 62.78589241 106.81900868 67.36328125 89.7265625 C68.44903475 84.80743438 68.71553135 80.296381 68.6875 75.25 C67.46934349 75.2345388 67.46934349 75.2345388 66.22657776 75.21876526 C58.58913512 75.12096021 50.95177678 75.01847052 43.31446934 74.91066074 C39.38765386 74.85539585 35.46083099 74.8019703 31.53393555 74.75268555 C27.74729158 74.70509439 23.96074084 74.65275376 20.17420769 74.59705925 C18.72648362 74.57661182 17.27873397 74.55790276 15.83096504 74.54092598 C13.80985841 74.51693492 11.7888339 74.48629925 9.76782227 74.45532227 C8.61532486 74.43977798 7.46282745 74.4242337 6.27540588 74.40821838 C3.6875 74.25 3.6875 74.25 2.6875 73.25 C2.56386703 71.28712234 2.5095456 69.31984842 2.48217773 67.35327148 C2.4522599 65.46142372 2.4522599 65.46142372 2.42173767 63.53135681 C2.40475205 62.14460373 2.38787329 60.75784934 2.37109375 59.37109375 C2.35053074 57.9600411 2.32953445 56.54899471 2.30812073 55.13795471 C2.25283245 51.4176641 2.20345314 47.69731727 2.15527344 43.97692871 C2.10510758 40.18313575 2.04939592 36.38942477 1.99414062 32.59570312 C1.88647649 25.14720477 1.78505003 17.69863841 1.6875 10.25 C0.10155014 10.22696119 -1.4844976 10.21060353 -3.07055664 10.19702148 C-3.9537709 10.18718735 -4.83698517 10.17735321 -5.7469635 10.16722107 C-20.54638508 10.64473534 -34.48178711 21.01171195 -44.3125 31.25 Z " fill="#283A52" transform="translate(637.3125,317.75)"/>
<path d="M0 0 C0.7437085 0.00217529 1.48741699 0.00435059 2.25366211 0.0065918 C4.52116059 0.00974886 6.78735072 -0.01369197 9.0546875 -0.0390625 C10.49413898 -0.04133579 11.93359397 -0.04203885 13.37304688 -0.04101562 C14.68523193 -0.04399658 15.99741699 -0.04697754 17.34936523 -0.05004883 C20.59570312 0.32226562 20.59570312 0.32226562 22.27478981 1.54901123 C23.99162982 3.85377571 23.97284289 5.20674791 23.97665405 8.06665039 C23.98934326 9.53039597 23.98934326 9.53039597 24.00228882 11.02371216 C23.99621613 12.09289886 23.99014343 13.16208557 23.98388672 14.26367188 C23.98914368 15.39070526 23.99440063 16.51773865 23.99981689 17.67892456 C24.01304967 21.41434478 24.00426688 25.14934087 23.99414062 28.88476562 C23.99616041 31.47404055 23.99907104 34.06331492 24.00283813 36.65258789 C24.00726595 42.08323089 24.00110064 47.51371369 23.98681641 52.94433594 C23.9704895 59.2240902 23.97577792 65.50355227 23.99229562 71.78329945 C24.00754568 77.8226863 24.00593706 83.86193012 23.99715042 89.90133667 C23.99514497 92.47223959 23.99761972 95.04314993 24.00458908 97.61404419 C24.01218282 101.20318537 24.00062779 104.7917605 23.98388672 108.38085938 C23.99299576 109.98463943 23.99299576 109.98463943 24.00228882 111.62081909 C23.99382935 112.59664948 23.98536987 113.57247986 23.97665405 114.57788086 C23.97552298 115.42664291 23.9743919 116.27540497 23.97322655 117.14988708 C23.5064711 119.83573238 22.77558611 120.72193565 20.59570312 122.32226562 C17.45703125 122.71044922 17.45703125 122.71044922 13.62695312 122.72070312 C12.9502356 122.7235733 12.27351807 122.72644348 11.57629395 122.72940063 C10.14737103 122.7314396 8.7184201 122.72592131 7.28955078 122.71337891 C5.10320588 122.69732073 2.91870933 122.71323097 0.73242188 122.73242188 C-0.65690512 122.73043941 -2.04623096 122.72659566 -3.43554688 122.72070312 C-4.69947266 122.71731934 -5.96339844 122.71393555 -7.265625 122.71044922 C-10.40429688 122.32226562 -10.40429688 122.32226562 -12.077075 121.09732151 C-13.80984417 118.7798777 -13.77908197 117.41252464 -13.77851868 114.53318787 C-13.78553299 113.54749817 -13.7925473 112.56180847 -13.79977417 111.54624939 C-13.79213043 110.4661409 -13.78448669 109.38603241 -13.77661133 108.27319336 C-13.78026199 107.13480011 -13.78391266 105.99640686 -13.78767395 104.82351685 C-13.79579729 101.05081384 -13.7821549 97.2785379 -13.76757812 93.50585938 C-13.76705977 90.89176941 -13.76757651 88.27767905 -13.76908875 85.66358948 C-13.76997172 80.18168001 -13.75888963 74.6998942 -13.74047852 69.21801758 C-13.71930021 62.87580814 -13.71580319 56.53377973 -13.72204047 50.19154209 C-13.72773009 44.09450046 -13.72198983 37.99753296 -13.71086693 31.90049934 C-13.7070071 29.30365316 -13.70586993 26.7068015 -13.70745277 24.10995293 C-13.70782195 20.48717604 -13.69524479 16.86467845 -13.67895508 13.24194336 C-13.6814325 12.15981064 -13.68390991 11.07767792 -13.6864624 9.9627533 C-13.67937759 8.97988342 -13.67229279 7.99701355 -13.66499329 6.98435974 C-13.66294042 6.12730155 -13.66088755 5.27024336 -13.65877247 4.38721371 C-12.8730731 -1.98836196 -4.84601917 0.0187876 0 0 Z " fill="#243A50" transform="translate(421.404296875,321.677734375)"/>
<path d="M0 0 C17.83348348 0.45653718 35.37685597 9.60412709 47.51171875 22.25390625 C54.51513552 30.17538352 59.02207511 39.28420652 62.125 49.3125 C62.57166016 50.55966797 62.57166016 50.55966797 63.02734375 51.83203125 C65.10572733 57.91393711 65.98333505 63.89170792 65.125 70.3125 C62.34408115 73.09341885 60.67414775 72.56603599 56.77929688 72.57128906 C55.80344383 72.57654602 55.80344383 72.57654602 54.80787659 72.58190918 C52.65305983 72.59072629 50.49857022 72.58487763 48.34375 72.578125 C46.84924252 72.57947166 45.35473547 72.5814122 43.86022949 72.58392334 C40.72627598 72.58687457 37.59243638 72.58257707 34.45849609 72.57324219 C30.43649987 72.56184757 26.41477055 72.56840706 22.39278412 72.58038712 C19.30619283 72.5876058 16.21966507 72.58531777 13.1330719 72.58013153 C11.64986642 72.57879505 10.16665522 72.58044269 8.68345642 72.58509064 C6.61238269 72.59015612 4.54174434 72.58244584 2.47070312 72.57128906 C1.29092896 72.56969788 0.11115479 72.56810669 -1.10437012 72.56646729 C-3.875 72.3125 -3.875 72.3125 -5.875 70.3125 C-6.12896729 67.50390625 -6.12896729 67.50390625 -6.13378906 63.875 C-6.1372937 63.21467773 -6.14079834 62.55435547 -6.14440918 61.87402344 C-6.15322681 59.68674268 -6.14737743 57.49978417 -6.140625 55.3125 C-6.14197165 53.79557228 -6.14391217 52.27864499 -6.14642334 50.76171875 C-6.14937464 47.58068742 -6.14507684 44.39976831 -6.13574219 41.21875 C-6.12434757 37.13622098 -6.13090702 33.05395491 -6.14288712 28.97143555 C-6.15010561 25.83852142 -6.14781786 22.70566989 -6.14263153 19.57275391 C-6.141295 18.06721974 -6.14294288 16.56167993 -6.14759064 15.05615234 C-6.15265579 12.95394788 -6.14494627 10.85217242 -6.13378906 8.75 C-6.13219788 7.55246094 -6.13060669 6.35492188 -6.12896729 5.12109375 C-5.71639054 0.55845696 -4.47255894 0.36069024 0 0 Z " fill="#263950" transform="translate(662.875,303.6875)"/>
<path d="M0 0 C0.7437085 0.00217529 1.48741699 0.00435059 2.25366211 0.0065918 C4.52116059 0.00974886 6.78735072 -0.01369197 9.0546875 -0.0390625 C10.49413898 -0.04133579 11.93359397 -0.04203885 13.37304688 -0.04101562 C14.68523193 -0.04399658 15.99741699 -0.04697754 17.34936523 -0.05004883 C20.59570312 0.32226562 20.59570312 0.32226562 22.27433777 1.39118958 C24.26041792 4.29369629 24.01354615 7.19660378 23.98388672 10.59179688 C23.98914368 11.32868744 23.99440063 12.065578 23.99981689 12.82479858 C24.01302547 15.26166961 24.00427615 17.69788791 23.99414062 20.13476562 C23.99616112 21.82723109 23.99907236 23.51969572 24.00283813 25.2121582 C24.00726264 28.75968716 24.00082648 32.30698955 23.98681641 35.85449219 C23.96972433 40.40444472 23.97956485 44.95386639 23.9975338 49.50379944 C24.0083683 52.99877938 24.00492686 56.49363323 23.99715042 59.98861694 C23.99514748 61.6663723 23.99761097 63.34413906 24.00458908 65.0218811 C24.01219824 67.36580788 24.00060777 69.70887195 23.98388672 72.05273438 C23.99299576 73.09547012 23.99299576 73.09547012 24.00228882 74.15927124 C23.96487688 76.98641124 23.89416908 78.88829013 22.26760864 81.25334167 C19.50305397 83.02084508 16.85868536 82.69316888 13.62695312 82.68554688 C12.61187683 82.68629463 12.61187683 82.68629463 11.57629395 82.6870575 C10.14734965 82.68471986 8.71840101 82.67500945 7.28955078 82.65844727 C5.10346625 82.63484942 2.91860146 82.63788857 0.73242188 82.64453125 C-9.98543265 82.60150844 -9.98543265 82.60150844 -13.40429688 80.32226562 C-13.70152998 77.78994861 -13.80355496 75.50130887 -13.77661133 72.96679688 C-13.78026199 72.2089389 -13.78391266 71.45108093 -13.78767395 70.67025757 C-13.79579835 68.15820092 -13.78215413 65.64678553 -13.76757812 63.13476562 C-13.76705974 61.39363607 -13.76757659 59.65250593 -13.76908875 57.91137695 C-13.76899894 54.25951417 -13.75855219 50.60787176 -13.74047852 46.95605469 C-13.71779099 42.2681808 -13.7172463 37.58062912 -13.72399616 32.89271545 C-13.72733302 29.29656089 -13.72071143 25.70048017 -13.71086693 22.1043396 C-13.70700973 20.37552273 -13.70586885 18.64669765 -13.70745277 16.9178772 C-13.70782244 14.50433621 -13.69523138 12.09121281 -13.67895508 9.67773438 C-13.6814325 8.95870941 -13.68390991 8.23968445 -13.6864624 7.49887085 C-13.58670944 -1.73979942 -7.51960603 0.02915286 0 0 Z " fill="#233A50" transform="translate(372.404296875,361.677734375)"/>
<path d="M0 0 C16.56380569 1.65638057 28.43448232 8.02508878 39.1484375 20.6171875 C46.59060698 30.194663 49.50463135 39.03705078 51 51 C34.17 51 17.34 51 0 51 C0 34.17 0 17.34 0 0 Z " fill="#2ACAB1" transform="translate(666,315)"/>
<path d="M0 0 C0.72348129 -0.0004985 1.44696259 -0.00099701 2.19236755 -0.00151062 C3.719663 0.00082736 5.24696247 0.01053972 6.77416992 0.02709961 C9.11607148 0.05073057 11.45683735 0.04765434 13.79882812 0.04101562 C15.28255889 0.04659126 16.76628485 0.05370043 18.25 0.0625 C19.30315147 0.06113289 19.30315147 0.06113289 20.37757874 0.05973816 C25.32754524 0.13223274 25.32754524 0.13223274 27.55859375 2.36328125 C27.81929016 4.29197693 27.81929016 4.29197693 27.83325195 6.67358398 C27.84754997 8.01023354 27.84754997 8.01023354 27.86213684 9.37388611 C27.86122543 10.33847244 27.86031403 11.30305878 27.859375 12.296875 C27.86366013 13.28575211 27.86794525 14.27462921 27.87236023 15.29347229 C27.87811012 17.38745355 27.87859896 19.48145478 27.87426758 21.57543945 C27.87110991 24.78436285 27.89455093 27.99236272 27.91992188 31.20117188 C27.92219497 33.23307175 27.92289832 35.26497411 27.921875 37.296875 C27.93108475 38.2594371 27.94029449 39.22199921 27.94978333 40.21372986 C27.94355453 41.10798172 27.93732574 42.00223358 27.9309082 42.92358398 C27.93153763 43.71030991 27.93216705 44.49703583 27.93281555 45.30760193 C27.45863261 47.91238889 26.66244619 48.79313952 24.55859375 50.36328125 C21.43579102 50.76733398 21.43579102 50.76733398 17.625 50.796875 C16.95065414 50.80211685 16.27630829 50.8073587 15.58152771 50.8127594 C14.15682348 50.81917564 12.73206624 50.81784764 11.30737305 50.80932617 C9.13168553 50.80082265 6.95863072 50.82956467 4.78320312 50.86132812 C3.3971362 50.86294052 2.01106464 50.86236187 0.625 50.859375 C-1.26303345 50.86215454 -1.26303345 50.86215454 -3.18920898 50.86499023 C-6.44140625 50.36328125 -6.44140625 50.36328125 -8.85205078 48.93798828 C-11.29986621 44.97260249 -10.99391709 41.24449125 -10.9375 36.671875 C-10.93895523 35.73021988 -10.94041046 34.78856476 -10.94190979 33.81837463 C-10.9402517 31.83046368 -10.92870044 29.84253977 -10.90795898 27.85473633 C-10.87897686 24.80820375 -10.88735726 21.7634083 -10.90039062 18.71679688 C-10.89415398 16.78514778 -10.88576361 14.85350418 -10.875 12.921875 C-10.87793564 12.00933456 -10.88087128 11.09679413 -10.88389587 10.15660095 C-10.8712117 9.30884598 -10.85852753 8.461091 -10.84545898 7.58764648 C-10.840056 6.84248276 -10.83465302 6.09731903 -10.8290863 5.32957458 C-9.69013309 -0.44713767 -4.89829205 -0.06443869 0 0 Z " fill="#283E54" transform="translate(319.44140625,393.63671875)"/>
<path d="M0 0 C5.82978688 3.52294648 10.53488288 8.98877883 12.5625 15.5 C13.39479488 22.83295593 13.71904429 29.73842432 9.125 35.8203125 C3.76297585 41.58448846 -0.87797866 45.67612303 -9.02246094 45.98168945 C-17.05741125 46.05166406 -22.40220067 45.34061225 -28.4375 39.5 C-33.42369853 34.38258572 -35.59254393 29.10442194 -35.875 22.0625 C-35.67067663 15.29196666 -33.47671436 10.93572826 -29.1875 5.8125 C-28.28 5.049375 -27.3725 4.28625 -26.4375 3.5 C-25.90769531 3.03335938 -25.37789063 2.56671875 -24.83203125 2.0859375 C-17.91484437 -3.19413265 -7.90169105 -3.43484816 0 0 Z " fill="#33D3BA" transform="translate(390.4375,591.5)"/>
<path d="M0 0 C5.61 0 11.22 0 17 0 C17 33.33 17 66.66 17 101 C11.39 101 5.78 101 0 101 C0 67.67 0 34.34 0 0 Z " fill="#2DD0B3" transform="translate(418,333)"/>
<path d="M0 0 C0.66929474 -0.00311998 1.33858948 -0.00623996 2.02816588 -0.00945449 C4.28144393 -0.01746181 6.53445471 -0.01110034 8.78773499 -0.00482178 C10.39890705 -0.00753046 12.01007787 -0.0110907 13.62124634 -0.01544189 C18.00551774 -0.02458355 22.38969535 -0.02101416 26.77396846 -0.01468372 C31.35567277 -0.00963203 35.93736887 -0.01431294 40.51907349 -0.01745605 C48.21541287 -0.0210985 55.91171392 -0.01628971 63.60804749 -0.0067749 C72.51261245 0.00410632 81.4170858 0.00058761 90.32164854 -0.01042771 C97.95819857 -0.01949728 105.59472099 -0.02078737 113.23127466 -0.01555037 C117.79600276 -0.01242836 122.36068778 -0.0120276 126.92541313 -0.01862335 C131.2173295 -0.02439126 135.50912755 -0.02041013 139.80103111 -0.00883484 C141.37846429 -0.00618511 142.95590738 -0.00695867 144.53333664 -0.01136017 C146.68243477 -0.0168049 148.83115098 -0.00999482 150.98022461 0 C152.18425399 0.00075405 153.38828337 0.0015081 154.62879848 0.002285 C157.55360413 0.25396729 157.55360413 0.25396729 160.55360413 2.25396729 C160.29799089 4.59708859 159.9608964 6.93240131 159.55360413 9.25396729 C156.7050472 10.67824575 154.29318338 10.38653548 151.10720825 10.39440918 C150.10326614 10.39886586 150.10326614 10.39886586 149.07904238 10.40341258 C146.82584017 10.4121167 144.57269098 10.41360925 142.31947327 10.4151001 C140.70830165 10.419727 139.09713114 10.42475148 137.48596191 10.43014526 C133.10172164 10.44328209 128.71749668 10.44971651 124.33323979 10.45415592 C121.59642978 10.45708408 118.85962398 10.46118835 116.12281609 10.4656601 C107.56649293 10.4793373 99.01017937 10.48900333 90.45384604 10.49286199 C80.56435727 10.49734595 70.6750065 10.51490854 60.78555971 10.54386258 C53.14901476 10.56544761 45.51250873 10.57556453 37.87593359 10.5769031 C33.31116687 10.57795326 28.74652983 10.58390568 24.18179512 10.60172272 C19.8898532 10.61814898 15.5981392 10.6203856 11.30617714 10.61158371 C9.72873577 10.61081045 8.15128243 10.61519391 6.57387161 10.62504196 C4.42463412 10.63767586 2.27621442 10.63193241 0.12698364 10.62145996 C-1.07704574 10.62292652 -2.28107512 10.62439308 -3.52159023 10.62590408 C-6.44639587 10.25396729 -6.44639587 10.25396729 -8.36895084 8.89115524 C-9.44639587 7.25396729 -9.44639587 7.25396729 -9.25889587 4.69146729 C-7.54684568 -0.4446833 -4.92023901 0.00308238 0 0 Z " fill="#273B50" transform="translate(302.44639587402344,454.74603271484375)"/>
<path d="M0 0 C2.475 0.495 2.475 0.495 5 1 C6.14264918 5.0564724 5.87152578 7.14824156 4.12890625 10.95703125 C3.71922607 11.89732178 3.3095459 12.8376123 2.88745117 13.80639648 C2.23160034 15.29441772 2.23160034 15.29441772 1.5625 16.8125 C-2.14187645 25.61655183 -3.67459712 32.26659181 -3.0703125 41.73046875 C-2.9647732 46.63804611 -4.17496457 49.02967993 -7 53 C-11.2405132 57.2405132 -15.47799864 58.71977763 -21.375 59.375 C-27.12341482 58.7803364 -31.2930907 56.7069093 -35.375 52.625 C-38.57562923 47.45475278 -40.08302596 42.07634566 -39 36 C-36.77942785 30.41242078 -33.30521717 27.02518633 -28.2578125 23.91015625 C-26 23 -26 23 -22.6171875 22.78125 C-17.6635089 21.71134102 -16.01080161 19.32636883 -13 15.4375 C-11.96379936 14.16255094 -10.92734209 12.8878104 -9.890625 11.61328125 C-9.39755859 10.99404785 -8.90449219 10.37481445 -8.39648438 9.73681641 C-6.57813066 7.47531844 -4.67475848 5.29622146 -2.75 3.125 C-1.93789063 2.20074219 -1.93789063 2.20074219 -1.109375 1.2578125 C-0.74328125 0.84273437 -0.3771875 0.42765625 0 0 Z " fill="#293C55" transform="translate(667,628)"/>
<path d="M0 0 C5.61 0 11.22 0 17 0 C17 20.46 17 40.92 17 62 C11.39 62 5.78 62 0 62 C0 41.54 0 21.08 0 0 Z " fill="#2CD0B3" transform="translate(369,372)"/>
<path d="M0 0 C4.79765866 2.39882933 7.565249 5.22414226 10 10 C10.72157531 14.96083027 9.92017009 18.35417878 7.25390625 22.48828125 C4.65385466 25.62292288 1.79041228 26.67981678 -2.140625 27.3828125 C-6.64857397 27.73547517 -9.38632519 27.18303297 -12.9375 24.3125 C-16.46492342 20.82590324 -17.74682432 17.98320946 -18.375 13.0625 C-17.73615512 7.84526684 -15.14334836 4.98743722 -11.25 1.625 C-7.26245631 -0.36877185 -4.37028828 -0.8565765 0 0 Z " fill="#F9FDFB" transform="translate(383,600)"/>
<path d="M0 0 C5.61 0 11.22 0 17 0 C17 9.9 17 19.8 17 30 C11.39 30 5.78 30 0 30 C0 20.1 0 10.2 0 0 Z " fill="#2DCFB5" transform="translate(320,404)"/>
<path d="M0 0 C1.98 0 3.96 0 6 0 C8.31 6.6 10.62 13.2 13 20 C15.31 13.4 17.62 6.8 20 0 C22.31 0 24.62 0 27 0 C28.17171756 3.28989086 29.33651088 6.58219102 30.5 9.875 C30.83386719 10.81214844 31.16773438 11.74929688 31.51171875 12.71484375 C31.82753906 13.61074219 32.14335938 14.50664063 32.46875 15.4296875 C32.76201172 16.25710449 33.05527344 17.08452148 33.35742188 17.93701172 C34 20 34 20 34 22 C32.35 22 30.7 22 29 22 C28.67 20.35 28.34 18.7 28 17 C25.03 17 22.06 17 19 17 C18.67 18.65 18.34 20.3 18 22 C14.7 22 11.4 22 8 22 C7.34 20.68 6.68 19.36 6 18 C3.69 18 1.38 18 -1 18 C-1.33 19.32 -1.66 20.64 -2 22 C-3.65 22 -5.3 22 -7 22 C-3.25 3.25 -3.25 3.25 0 0 Z " fill="#3AD7C1" transform="translate(673,698)"/>
<path d="M0 0 C4.38889325 0.66498383 7.9811485 2.18757677 12 4 C11.72285156 4.969375 11.44570313 5.93875 11.16015625 6.9375 C8.49094894 16.67398465 7.26815439 25.91739504 7 36 C9.64 36 12.28 36 15 36 C15 36.33 15 36.66 15 37 C8.07 37 1.14 37 -6 37 C-6.31708179 23.84110575 -4.58687891 12.35785336 0 0 Z " fill="#35CBB3" transform="translate(564,638)"/>
<path d="M0 0 C0.81898266 2.20611566 1.63027543 4.4145834 2.4375 6.625 C3.11619141 8.46964844 3.11619141 8.46964844 3.80859375 10.3515625 C5.85511176 16.61860455 6.1337495 22.35661632 6.0625 28.875 C6.041875 31.55625 6.02125 34.2375 6 37 C-0.93 37 -7.86 37 -15 37 C-15 36.67 -15 36.34 -15 36 C-12.03 36 -9.06 36 -6 36 C-7.16784232 19.75741815 -7.16784232 19.75741815 -13 5 C-11.39967863 4.15930585 -9.79458829 3.32768495 -8.1875 2.5 C-6.84751953 1.80390625 -6.84751953 1.80390625 -5.48046875 1.09375 C-3 0 -3 0 0 0 Z " fill="#34CDB6" transform="translate(728,638)"/>
<path d="M0 0 C1.98 3.63 3.96 7.26 6 11 C4.865625 11.78375 3.73125 12.5675 2.5625 13.375 C-4.80021914 18.90684759 -10.87816248 25.75632495 -15 34 C-16.62542193 33.35522931 -18.25032424 32.70914857 -19.875 32.0625 C-20.77992188 31.70285156 -21.68484375 31.34320312 -22.6171875 30.97265625 C-25 30 -25 30 -27 29 C-23.7930246 19.73540439 -16.19825157 11.49050981 -9 5 C-8.45214844 4.4946875 -7.90429688 3.989375 -7.33984375 3.46875 C-3.41822917 0 -3.41822917 0 0 0 Z " fill="#30CEB7" transform="translate(597,600)"/>
<path d="M0 0 C5.05148684 2.67097367 9.00707179 5.48875937 13 9.5625 C13.51401367 10.08118652 14.02802734 10.59987305 14.55761719 11.13427734 C26 23.01952142 26 23.01952142 26 29 C20.555 31.475 20.555 31.475 15 34 C13.576875 31.834375 13.576875 31.834375 12.125 29.625 C6.80825512 22.01730001 0.30558162 15.69367393 -7 10 C-3.535 5.05 -3.535 5.05 0 0 Z " fill="#31D0B7" transform="translate(696,600)"/>
<path d="M0 0 C12.7574161 -0.99667313 25.01131156 3.79244764 36 10 C34.61702141 13.57770548 33.04383021 16.74845193 31 20 C27.06042516 19.57410002 23.66893392 18.54488285 20 17.125 C13.48854416 14.66411876 6.82123051 13.3144561 0 12 C0 8.04 0 4.08 0 0 Z " fill="#32CDB7" transform="translate(651,584)"/>
<path d="M0 0 C0 4.29 0 8.58 0 13 C-1.505625 13.061875 -3.01125 13.12375 -4.5625 13.1875 C-13.49301105 13.98776657 -22.80747348 16.60560511 -30 22 C-31.98 18.04 -33.96 14.08 -36 10 C-29.30084565 6.31546511 -23.13584158 3.4853697 -15.75 1.625 C-15.10160156 1.45774414 -14.45320312 1.29048828 -13.78515625 1.11816406 C-9.07528794 0.00757138 -4.79971842 -0.13865853 0 0 Z " fill="#32CEB8" transform="translate(641,584)"/>
<path d="M0 0 C1.90625 0.46875 1.90625 0.46875 4.40625 2.34375 C6.5365491 6.78187313 6.56334763 10.62941925 5.90625 15.46875 C3.75407609 21.04483696 3.75407609 21.04483696 0.90625 22.46875 C-5.43492647 22.92992647 -5.43492647 22.92992647 -7.96875 21.15625 C-11.06604514 16.5103073 -10.63241348 10.81635117 -10.09375 5.46875 C-7.7969903 0.58813564 -5.1495898 -0.38429775 0 0 Z " fill="#4CDCC6" transform="translate(622.09375,697.53125)"/>
<path d="M0 0 C2.55191715 2.36632318 2.97890591 3.83884874 3.43359375 7.3125 C3.43552734 9.1378125 3.43552734 9.1378125 3.4375 11 C3.45683594 12.216875 3.47617187 13.43375 3.49609375 14.6875 C3 18 3 18 1.1953125 20.4140625 C-1.95007569 22.68635361 -4.21583959 22.4128175 -8 22 C-11 20 -11 20 -12 17 C-12.17032265 14.8584021 -12.26617837 12.71036073 -12.3125 10.5625 C-12.36857422 8.86287109 -12.36857422 8.86287109 -12.42578125 7.12890625 C-12 4 -12 4 -10.234375 1.62109375 C-6.5773845 -1.03214236 -4.43929117 -0.56371951 0 0 Z " fill="#48D6C5" transform="translate(606,698)"/>
<path d="M0 0 C2.99331422 0.78136417 4.18033588 2.08403105 6.03515625 4.53125 C6.53125 7.37109375 6.53125 7.37109375 6.47265625 10.46875 C6.47136719 11.48839844 6.47007812 12.50804687 6.46875 13.55859375 C5.97854884 16.91934227 5.08352432 18.83704353 3.03515625 21.53125 C0.28436741 22.44817961 -1.32433288 22.64011083 -4.15234375 22.59375 C-6.03953125 22.5628125 -6.03953125 22.5628125 -7.96484375 22.53125 C-7.96484375 21.21125 -7.96484375 19.89125 -7.96484375 18.53125 C-4.00484375 18.03625 -4.00484375 18.03625 0.03515625 17.53125 C0.36515625 16.54125 0.69515625 15.55125 1.03515625 14.53125 C0.12765625 14.61375 -0.77984375 14.69625 -1.71484375 14.78125 C-4.96484375 14.53125 -4.96484375 14.53125 -7.33984375 12.90625 C-9.44021645 9.83647452 -9.4977821 8.18568439 -8.96484375 4.53125 C-7.1087795 0.1230974 -4.56920145 0.07043085 0 0 Z " fill="#45D5BE" transform="translate(657.96484375,697.46875)"/>
<path d="M0 0 C4.11289267 0.85685264 5.59686932 2.20235933 8 5.625 C8 9.14455419 7.63108355 11.47420059 5.9375 14.5625 C2.72688264 16.32316113 -0.49995202 16.37853146 -4 15.625 C-6.73080856 13.23554251 -7.76900145 11.65166021 -8.5625 8.125 C-7.50109364 3.40763841 -4.65431864 0.96964972 0 0 Z " fill="#F2F5F7" transform="translate(646,660.375)"/>
<path d="M0 0 C0.99 0.66 1.98 1.32 3 2 C2.67 3.32 2.34 4.64 2 6 C0.88625 5.79375 -0.2275 5.5875 -1.375 5.375 C-2.57125 5.25125 -3.7675 5.1275 -5 5 C-7.23194769 6.80885466 -7.23194769 6.80885466 -7.23046875 9.34765625 C-7.21628906 10.24355469 -7.20210937 11.13945313 -7.1875 12.0625 C-7.18105469 12.96097656 -7.17460938 13.85945312 -7.16796875 14.78515625 C-7.24394743 16.97325599 -7.24394743 16.97325599 -6 18 C-3.32941149 18.14115161 -0.67567762 18.04247107 2 18 C1.67 19.65 1.34 21.3 1 23 C-3.63547188 23.45445803 -6.94218162 23.60446764 -11.0625 21.25 C-14.00757289 16.30987773 -13.9923303 11.60511568 -13 6 C-9.17197399 0.86238615 -6.27517752 -0.38419454 0 0 Z " fill="#4DD9C0" transform="translate(644,697)"/>
<path d="M0 0 C2.12261076 2.12261076 2.58711498 3.26899902 3.5078125 6.0625 C3.77207031 6.85914063 4.03632812 7.65578125 4.30859375 8.4765625 C4.57800781 9.30929687 4.84742188 10.14203125 5.125 11 C5.40214844 11.83273437 5.67929687 12.66546875 5.96484375 13.5234375 C8 19.71913485 8 19.71913485 8 22 C6.35 22 4.7 22 3 22 C1.74335022 19.09399739 1 17.20395416 1 14 C-0.98 14 -2.96 14 -5 14 C-4.53411505 8.29290936 -3.06242216 4.84060277 0 0 Z M1 12 C2 14 2 14 2 14 Z " fill="#41D9C5" transform="translate(699,698)"/>
<path d="M0 0 C1.9375 0.375 1.9375 0.375 4 1 C5.17635297 3.35270593 5.13359359 4.820752 5.125 7.4375 C5.12757813 8.21996094 5.13015625 9.00242187 5.1328125 9.80859375 C5 12 5 12 4 15 C2.35 15 0.7 15 -1 15 C-1.92867074 12.21398777 -2.16342217 10.38933911 -2.1875 7.5 C-2.20167969 6.7265625 -2.21585938 5.953125 -2.23046875 5.15625 C-2 3 -2 3 0 0 Z " fill="#EDFCF9" transform="translate(600,701)"/>
<path d="M0 0 C2.0078125 0.23046875 2.0078125 0.23046875 5.0078125 2.23046875 C4.3478125 3.55046875 3.6878125 4.87046875 3.0078125 6.23046875 C3.0078125 5.24046875 3.0078125 4.25046875 3.0078125 3.23046875 C2.3478125 3.23046875 1.6878125 3.23046875 1.0078125 3.23046875 C1.2140625 4.17921875 1.4203125 5.12796875 1.6328125 6.10546875 C1.7565625 7.13671875 1.8803125 8.16796875 2.0078125 9.23046875 C0.0078125 11.23046875 0.0078125 11.23046875 -2.6171875 11.35546875 C-3.4009375 11.31421875 -4.1846875 11.27296875 -4.9921875 11.23046875 C-6.52663844 8.16156688 -5.54203039 5.52952609 -4.9921875 2.23046875 C-5.6521875 1.90046875 -6.3121875 1.57046875 -6.9921875 1.23046875 C-5.11574989 -0.64596886 -2.49413049 0.05061888 0 0 Z " fill="#58DAC6" transform="translate(657.9921875,697.76953125)"/>
<path d="M0 0 C1.32 0.66 2.64 1.32 4 2 C4.05410687 3.77049689 4.09284119 5.54146849 4.125 7.3125 C4.14820313 8.29863281 4.17140625 9.28476562 4.1953125 10.30078125 C4 13 4 13 2 16 C0.68 15.34 -0.64 14.68 -2 14 C-2.05389087 12.04196493 -2.09274217 10.08351091 -2.125 8.125 C-2.14820313 7.03445313 -2.17140625 5.94390625 -2.1953125 4.8203125 C-2 2 -2 2 0 0 Z " fill="#F0FCFB" transform="translate(619,701)"/>
<path d="M0 0 C3.43949292 3.02565019 3.5240466 5.47844272 4 10 C4.30903983 11.33917261 4.62942911 12.67653254 5 14 C6.65 14 8.3 14 10 14 C10.33 13.01 10.66 12.02 11 11 C11 12.32 11 13.64 11 15 C9.68 15.33 8.36 15.66 7 16 C8.32 16.66 9.64 17.32 11 18 C4.375 18.25 4.375 18.25 1 16 C-0.14077657 12.57767028 -0.09815117 9.91326783 -0.0625 6.3125 C-0.05347656 5.13300781 -0.04445313 3.95351563 -0.03515625 2.73828125 C-0.02355469 1.83464844 -0.01195312 0.93101562 0 0 Z " fill="#4CDACA" transform="translate(594,702)"/>
<path d="M0 0 C0.66 0 1.32 0 2 0 C1.67 1.32 1.34 2.64 1 4 C0.34 4 -0.32 4 -1 4 C-0.34 4.66 0.32 5.32 1 6 C1.45847689 8.36030696 1.82143131 10.7398174 2.125 13.125 C2.29257812 14.40632812 2.46015625 15.68765625 2.6328125 17.0078125 C2.75398437 17.99523437 2.87515625 18.98265625 3 20 C1.125 19.75 1.125 19.75 -1 19 C-3.17382597 15.96354467 -3.29739859 13.16460955 -3.3125 9.5 C-3.32925781 8.5615625 -3.34601562 7.623125 -3.36328125 6.65625 C-2.94383084 3.58930075 -2.13966608 2.20734409 0 0 Z " fill="#49DCC3" transform="translate(615,699)"/>
<path d="M0 0 C2.15732809 2.15732809 2.48294825 3.11822443 3.1875 6 C3.45626953 7.051875 3.45626953 7.051875 3.73046875 8.125 C4 10 4 10 3 12 C0.35139573 12.59355614 -2.29197322 12.74209269 -5 13 C-4.34 10.03 -3.68 7.06 -3 4 C-2.34 4 -1.68 4 -1 4 C-0.67 2.68 -0.34 1.36 0 0 Z " fill="#3ADAC0" transform="translate(678,698)"/>
<path d="M0 0 C3.3125 -0.3125 3.3125 -0.3125 7 0 C8.9375 2.5 8.9375 2.5 10 5 C8 8 8 8 5 9 C3.60560336 9.06665376 2.20830125 9.08538199 0.8125 9.0625 C-1.0746875 9.0315625 -1.0746875 9.0315625 -3 9 C-3 7.68 -3 6.36 -3 5 C-0.36 4.67 2.28 4.34 5 4 C5.33 3.01 5.66 2.02 6 1 C4.02 1 2.04 1 0 1 C0 0.67 0 0.34 0 0 Z " fill="#4DDCCA" transform="translate(653,711)"/>
<path d="M0 0 C2.625 -0.1875 2.625 -0.1875 5 0 C4.67 1.32 4.34 2.64 4 4 C3.34 4 2.68 4 2 4 C1.87625 4.94875 1.7525 5.8975 1.625 6.875 C1 10 1 10 -1 12 C-1.66 11.67 -2.32 11.34 -3 11 C-2.25 3.375 -2.25 3.375 0 0 Z " fill="#35D8BE" transform="translate(673,698)"/>
<path d="M0 0 C-0.33 0.99 -0.66 1.98 -1 3 C-1.99 3.33 -2.98 3.66 -4 4 C-4.66 7.3 -5.32 10.6 -6 14 C-6.33 14 -6.66 14 -7 14 C-7.33 12.02 -7.66 10.04 -8 8 C-8.33 8 -8.66 8 -9 8 C-9.22223194 5.25913944 -9.34781139 3.56036279 -7.875 1.1875 C-5.22464043 -0.49106106 -3.06753576 -0.20450238 0 0 Z " fill="#35D3C1" transform="translate(604,698)"/>
<path d="M0 0 C0.33 0 0.66 0 1 0 C1.05406122 1.93719378 1.09282025 3.87481921 1.125 5.8125 C1.14820313 6.89144531 1.17140625 7.97039063 1.1953125 9.08203125 C1 12 1 12 -1 15 C-4.125 15.1875 -4.125 15.1875 -7 15 C-7.33 14.34 -7.66 13.68 -8 13 C-6.35 13 -4.7 13 -3 13 C-3 11.02 -3 9.04 -3 7 C-2.67 7.66 -2.34 8.32 -2 9 C-1.34 9 -0.68 9 0 9 C0 6.03 0 3.06 0 0 Z " fill="#3CD9C7" transform="translate(608,704)"/>
<path d="M0 0 C0.33 0.99 0.66 1.98 1 3 C4.3 3 7.6 3 11 3 C11 3.33 11 3.66 11 4 C8.69 4.33 6.38 4.66 4 5 C3.67 6.32 3.34 7.64 3 9 C1.35 9 -0.3 9 -2 9 C-1.34 6.03 -0.68 3.06 0 0 Z " fill="#58E1CA" transform="translate(668,711)"/>
<path d="M0 0 C2.0625 0.4375 2.0625 0.4375 4 1 C4.38218767 2.65614657 4.71395102 4.32457024 5 6 C4 7 4 7 1.4375 7.0625 C0.2309375 7.0315625 0.2309375 7.0315625 -1 7 C-1.04254356 5.00045254 -1.04080783 2.99958364 -1 1 C-0.67 0.67 -0.34 0.34 0 0 Z " fill="#EBFAF8" transform="translate(655,701)"/>
<path d="M0 0 C0.66 0 1.32 0 2 0 C0.33248852 3.94139078 -2.22710649 6.7892812 -5 10 C-5.33 9.34 -5.66 8.68 -6 8 C-6.66 8 -7.32 8 -8 8 C-7.34 6.68 -6.68 5.36 -6 4 C-4.68 4 -3.36 4 -2 4 C-1.34 2.68 -0.68 1.36 0 0 Z " fill="#2F415F" transform="translate(773,757)"/>
<path d="M0 0 C-1.47721422 3.45201639 -3.43794001 5.64961936 -6.125 8.25 C-6.84945312 8.95640625 -7.57390625 9.6628125 -8.3203125 10.390625 C-8.87460937 10.92171875 -9.42890625 11.4528125 -10 12 C-10.99 11.67 -11.98 11.34 -13 11 C-11.21427748 9.16052663 -9.42197551 7.32842259 -7.625 5.5 C-7.11710938 4.97535156 -6.60921875 4.45070313 -6.0859375 3.91015625 C-2.2265625 0 -2.2265625 0 0 0 Z " fill="#31465D" transform="translate(596,334)"/>
<path d="M0 0 C0.33 0 0.66 0 1 0 C1.66 4.62 2.32 9.24 3 14 C1.68 13.67 0.36 13.34 -1 13 C-2.12758089 9.61725734 -1.81750262 8.23221777 -1.0625 4.8125 C-0.86785156 3.91144531 -0.67320312 3.01039063 -0.47265625 2.08203125 C-0.23869141 1.05142578 -0.23869141 1.05142578 0 0 Z " fill="#39D6C0" transform="translate(615,705)"/>
<path d="M0 0 C0.99 0.33 1.98 0.66 3 1 C1 3 1 3 -1.125 4.125 C-5.30580612 6.85161269 -8.56030271 10.40666858 -12 14 C-12 11 -12 11 -10.13671875 8.80859375 C-8.92435547 7.63490234 -8.92435547 7.63490234 -7.6875 6.4375 C-6.88699219 5.65246094 -6.08648438 4.86742187 -5.26171875 4.05859375 C-3 2 -3 2 0 0 Z " fill="#E8F5EE" transform="translate(601,611)"/>
<path d="M0 0 C1.32 0.99 2.64 1.98 4 3 C3.67 4.32 3.34 5.64 3 7 C0.69 7 -1.62 7 -4 7 C-4 5.35 -4 3.7 -4 2 C-3.01 3.485 -3.01 3.485 -2 5 C-1.34 3.35 -0.68 1.7 0 0 Z " fill="#4EE2CE" transform="translate(688,713)"/>
<path d="M0 0 C0.33 0 0.66 0 1 0 C1.66 4.29 2.32 8.58 3 13 C1.68 12.67 0.36 12.34 -1 12 C-1.02698189 10.37509046 -1.04638757 8.75005367 -1.0625 7.125 C-1.07410156 6.22007812 -1.08570313 5.31515625 -1.09765625 4.3828125 C-1 2 -1 2 0 0 Z " fill="#48DCBF" transform="translate(632,701)"/>
<path d="M0 0 C5.625 -0.25 5.625 -0.25 9 2 C8.67 3.32 8.34 4.64 8 6 C7.01 5.67 6.02 5.34 5 5 C4.67 4.34 4.34 3.68 4 3 C1.97536745 2.34786708 1.97536745 2.34786708 0 2 C0 1.34 0 0.68 0 0 Z " fill="#72DEC9" transform="translate(638,697)"/>
<path d="M0 0 C0.66 0 1.32 0 2 0 C1.57709963 1.96153791 1.13618382 3.91919875 0.6875 5.875 C0.44386719 6.96554687 0.20023438 8.05609375 -0.05078125 9.1796875 C-1 12 -1 12 -4 14 C-3.46148032 8.72250715 -2.22656164 4.74354436 0 0 Z " fill="#405362" transform="translate(241,288)"/>
<path d="M0 0 C3.3125 -0.3125 3.3125 -0.3125 7 0 C8.9375 2.5 8.9375 2.5 10 5 C9.01 5.99 8.02 6.98 7 8 C7 7.34 7 6.68 7 6 C5.68 5.67 4.36 5.34 3 5 C3.66 4.67 4.32 4.34 5 4 C5.33 3.01 5.66 2.02 6 1 C4.02 1 2.04 1 0 1 C0 0.67 0 0.34 0 0 Z " fill="#63E0CF" transform="translate(653,711)"/>
<path d="M0 0 C1 2 2 4 3 6 C5.32156597 6.40729228 7.6568787 6.74438677 10 7 C10 7.33 10 7.66 10 8 C6.37 8.33 2.74 8.66 -1 9 C-0.67 6.03 -0.34 3.06 0 0 Z " fill="#48DBC5" transform="translate(690,707)"/>
<path d="M0 0 C0.66 0.33 1.32 0.66 2 1 C2.40729228 3.32156597 2.74438677 5.6568787 3 8 C1.35 8 -0.3 8 -2 8 C-1.125 2.25 -1.125 2.25 0 0 Z " fill="#D8FAF5" transform="translate(675,703)"/>
<path d="M0 0 C2.125 0.40234375 2.125 0.40234375 4 1 C2.75482035 2.13033298 1.50363348 3.25405036 0.25 4.375 C-0.44609375 5.00148438 -1.1421875 5.62796875 -1.859375 6.2734375 C-3.84508688 7.87505183 -5.67954093 8.96520068 -8 10 C-3.25423729 2.54237288 -3.25423729 2.54237288 0 0 Z " fill="#32475E" transform="translate(667,628)"/>
<path d="M0 0 C2.67927341 4.01891012 2.15601248 6.24161923 2 11 C1.01 11 0.02 11 -1 11 C-2.0625 9.1875 -2.0625 9.1875 -3 7 C-2.67 6.01 -2.34 5.02 -2 4 C-1.34 4.33 -0.68 4.66 0 5 C0 3.35 0 1.7 0 0 Z " fill="#42DFC7" transform="translate(682,709)"/>
<path d="M0 0 C0.33 1.32 0.66 2.64 1 4 C0 5 0 5 -3.5625 5.0625 C-4.696875 5.041875 -5.83125 5.02125 -7 5 C-7.33 4.34 -7.66 3.68 -8 3 C-5.36 2.01 -2.72 1.02 0 0 Z " fill="#38D7C2" transform="translate(645,715)"/>
<path d="M0 0 C2.45823172 3.68734758 3.01242616 6.69699971 4 11 C2.35 11 0.7 11 -1 11 C-1 7 -1 7 0 4 C0 2.68 0 1.36 0 0 Z " fill="#4FDECB" transform="translate(703,709)"/>
<path d="M0 0 C0.33 0 0.66 0 1 0 C1.33 3.3 1.66 6.6 2 10 C1.1646875 9.01 1.1646875 9.01 0.3125 8 C-1.84062308 5.74507789 -1.84062308 5.74507789 -4.75 5.75 C-5.4925 5.8325 -6.235 5.915 -7 6 C-6.67 5.34 -6.34 4.68 -6 4 C-4.68 4 -3.36 4 -2 4 C-2 3.34 -2 2.68 -2 2 C-1.34 2 -0.68 2 0 2 C0 1.34 0 0.68 0 0 Z " fill="#34D6C0" transform="translate(681,708)"/>
<path d="M0 0 C2.5654594 2.5654594 2.54046087 4.47686668 3 8 C1.35 8 -0.3 8 -2 8 C-1.125 2.25 -1.125 2.25 0 0 Z " fill="#E3FCF7" transform="translate(696,703)"/>
<path d="M0 0 C0.33 1.32 0.66 2.64 1 4 C-1.4375 6.75 -1.4375 6.75 -4 9 C-4.99 8.67 -5.98 8.34 -7 8 C-4.69 5.36 -2.38 2.72 0 0 Z " fill="#354A5E" transform="translate(256,266)"/>
<path d="M0 0 C0.99 0.33 1.98 0.66 3 1 C2.01 2.485 2.01 2.485 1 4 C0.75812349 6.74518321 0.75812349 6.74518321 0.875 9.6875 C0.89304687 10.68136719 0.91109375 11.67523437 0.9296875 12.69921875 C0.95289063 13.45847656 0.97609375 14.21773437 1 15 C0.34 15 -0.32 15 -1 15 C-1.02693575 12.87506859 -1.04636628 10.75004088 -1.0625 8.625 C-1.07410156 7.44164062 -1.08570313 6.25828125 -1.09765625 5.0390625 C-1 2 -1 2 0 0 Z " fill="#6FE1CB" transform="translate(636,700)"/>
<path d="M0 0 C1.32 0 2.64 0 4 0 C4 0.66 4 1.32 4 2 C-1.41176471 6 -1.41176471 6 -4 6 C-4 5.34 -4 4.68 -4 4 C-3.34 4 -2.68 4 -2 4 C-1.34 2.68 -0.68 1.36 0 0 Z " fill="#2F4158" transform="translate(755,773)"/>
<path d="M0 0 C0.66 0.33 1.32 0.66 2 1 C2.20086443 4.71599191 2.1519437 5.77208445 0 9 C-0.66 9 -1.32 9 -2 9 C-1.34 6.03 -0.68 3.06 0 0 Z " fill="#4BDDC4" transform="translate(693,698)"/>
<path d="M0 0 C2.35953094 2.35953094 2.49141413 3.77895617 3 7 C1.02 6.34 -0.96 5.68 -3 5 C-2.34 4.67 -1.68 4.34 -1 4 C-0.34786708 1.97536745 -0.34786708 1.97536745 0 0 Z " fill="#4FDEC6" transform="translate(678,698)"/>
</svg>
