<?xml version="1.0" encoding="UTF-8"?>
<svg version="1.1" xmlns="http://www.w3.org/2000/svg" width="1024" height="1024">
<path d="M0 0 C337.92 0 675.84 0 1024 0 C1024 337.92 1024 675.84 1024 1024 C686.08 1024 348.16 1024 0 1024 C0 686.08 0 348.16 0 0 Z " fill="#FCFCFC" transform="translate(0,0)"/>
<path d="M0 0 C1.82725924 -0.00533469 3.65451409 -0.01240565 5.48176068 -0.02104706 C10.46830214 -0.03957919 15.4545447 -0.03340205 20.44109809 -0.02289402 C25.83252815 -0.01587506 31.22389845 -0.03192043 36.61531067 -0.04489136 C47.16427387 -0.06649218 57.71312902 -0.06641439 68.26210705 -0.05826581 C76.84001338 -0.05195602 85.41788829 -0.05311184 93.9957943 -0.05953789 C95.21847418 -0.06043954 96.44115406 -0.0613412 97.70088485 -0.06227018 C100.18507695 -0.06412146 102.66926904 -0.06598402 105.15346112 -0.06785773 C128.42977638 -0.08442284 151.70603096 -0.07572826 174.98234256 -0.05887216 C196.2545929 -0.04417945 217.52670194 -0.05879992 238.79893408 -0.08764232 C260.66634475 -0.1170698 282.53369029 -0.12799862 304.40111989 -0.11846012 C306.87689188 -0.11743762 309.35266388 -0.11644301 311.8284359 -0.11547661 C313.04641481 -0.11500022 314.26439373 -0.11452383 315.51928109 -0.114033 C324.08006184 -0.11187314 332.64078061 -0.12165028 341.20154762 -0.13624763 C351.64433328 -0.15380638 362.08693891 -0.15360288 372.5297176 -0.13089598 C377.85240655 -0.11978555 383.17477876 -0.11651861 388.49745369 -0.13519669 C393.38002643 -0.15210916 398.26200879 -0.14550581 403.14454403 -0.1209799 C404.90080688 -0.11613131 406.65711834 -0.11951628 408.41334013 -0.13246734 C431.83274495 -0.29256277 452.25520529 7.48683806 469.16362 24.0068512 C486.5000048 42.15875638 493.10644251 63.66478707 492.99378967 88.26974487 C492.99725286 89.93185917 493.00202183 91.59397116 493.00797141 93.25607842 C493.02042074 97.79071476 493.01433881 102.32516013 493.00501275 106.85979688 C492.99819742 111.7631368 493.00871587 116.66644493 493.01695251 121.56977844 C493.03026651 131.16334869 493.02742226 140.75684838 493.01871459 150.35042135 C493.01192807 158.15175352 493.01102552 165.95306597 493.01428604 173.75440025 C493.01474574 174.8664899 493.01520544 175.97857954 493.01567907 177.12436887 C493.01663829 179.38388824 493.01761093 181.64340759 493.01859684 183.90292694 C493.02714421 205.07324167 493.01732747 226.24351738 493.00119574 247.41382571 C492.98779872 265.55642602 492.99011686 283.69896873 493.00395203 301.84156799 C493.02002896 322.93361537 493.02631447 344.02562856 493.01711524 365.11768121 C493.01615964 367.36961408 493.01521653 369.62154696 493.01428604 371.87347984 C493.01382321 372.98133005 493.01336039 374.08918025 493.01288354 375.23060167 C493.01029957 383.0158676 493.01465194 390.80111173 493.0217247 398.58637428 C493.03016364 408.08385681 493.02780962 417.58126501 493.01188247 427.07873908 C493.00403104 431.91921508 493.00085436 436.75956743 493.01082993 441.60004234 C493.01984293 446.04084513 493.01473652 450.48141097 492.99889727 454.9221926 C492.99557712 456.51898021 492.99718024 458.11578831 493.00452463 459.71256248 C493.10064345 482.36821313 488.19860573 505.23672772 472.61283875 522.5146637 C471.76076843 523.47114807 470.90869812 524.42763245 470.0308075 525.4131012 C456.44661459 540.09827478 437.91626929 549.71807786 417.74624527 550.70358551 C413.09209356 550.80614971 408.43801503 550.79609595 403.7829895 550.78881836 C401.97965955 550.79327629 400.17633156 550.79859214 398.3730064 550.80468708 C393.43870574 550.81881088 388.50446824 550.82053144 383.57015026 550.82009017 C378.24001136 550.82174335 372.9098981 550.83481915 367.57977295 550.84628296 C355.93495936 550.86909293 344.29016404 550.87704918 332.64533114 550.8821094 C325.36833917 550.88537092 318.09135247 550.89189612 310.81436348 550.89911079 C290.6488064 550.91867108 270.48325421 550.93507878 250.31768703 550.93798733 C248.38358811 550.93826868 248.38358811 550.93826868 246.41041649 550.93855572 C243.79673294 550.93892196 241.1830494 550.93928566 238.56936585 550.93964683 C237.27201025 550.93982964 235.97465464 550.94001245 234.63798523 550.94020081 C232.68956448 550.94047163 232.68956448 550.94047163 230.7017817 550.94074792 C209.65958509 550.94428873 188.61749088 550.97130786 167.57532977 551.00869869 C145.94871182 551.0468192 124.32214462 551.06614508 102.69549233 551.06644684 C90.56213568 551.06703054 78.42890121 551.07546664 66.2955761 551.1044445 C55.96328553 551.12900837 45.63116172 551.13620742 35.29884981 551.12119698 C30.03275345 551.11404878 24.76698604 551.11479526 19.50092697 551.13760757 C14.66877497 551.15833866 9.83720189 551.15546654 5.0050552 551.13473273 C3.26819329 551.1312647 1.53128839 551.1360321 -0.20551724 551.15043717 C-21.6398438 551.31658441 -39.84668179 545.49860723 -56.38716125 531.5146637 C-57.35911438 530.74251526 -58.3310675 529.97036682 -59.33247375 529.17481995 C-74.4402959 516.54341749 -82.26159915 496.5667404 -84.38716125 477.5146637 C-84.65895442 471.9022713 -84.66241375 466.30148073 -84.64785767 460.68365479 C-84.65088388 459.01329227 -84.6547757 457.34293115 -84.65945023 455.67257243 C-84.66967844 451.1151722 -84.6675617 446.5578511 -84.66326964 442.00044453 C-84.66079296 437.07256874 -84.66982823 432.14471154 -84.67730713 427.21684265 C-84.69003004 417.57516111 -84.69185083 407.93350746 -84.68950687 398.29181894 C-84.68772085 390.45139719 -84.68947942 382.61098387 -84.69373131 374.77056313 C-84.6943265 373.65292276 -84.69492169 372.53528239 -84.69553491 371.38377414 C-84.69674671 369.11298078 -84.69796085 366.84218742 -84.69917729 364.57139406 C-84.71004355 343.29521923 -84.70789466 322.01906027 -84.70179244 300.74288455 C-84.69662409 281.29995522 -84.70787823 261.857076 -84.72689066 242.41415658 C-84.74628567 222.42600368 -84.75452214 202.43787447 -84.75076741 182.4497121 C-84.74885789 171.23757294 -84.7513186 160.02547642 -84.76548195 148.81334496 C-84.77741791 139.26829024 -84.77877581 129.72330443 -84.76669178 120.17824873 C-84.76081866 115.31346631 -84.75966014 110.44880978 -84.77169418 105.58403587 C-84.78260557 101.1210338 -84.7793877 96.65826194 -84.7654325 92.1952704 C-84.76279996 90.59040521 -84.76510612 88.98552166 -84.77316836 87.38067456 C-84.88699175 63.01008363 -78.60876866 41.93254331 -61.6254425 23.6631012 C-44.01724116 6.76168629 -23.92392135 -0.12301611 0 0 Z " fill="#FCFCFC" transform="translate(306.3871612548828,236.48533630371094)"/>
<path d="M0 0 C1.27676809 0.60357265 2.54969597 1.21531396 3.81933594 1.83374023 C4.51757477 2.16622772 5.2158136 2.49871521 5.93521118 2.84127808 C8.2280288 3.93483585 10.51574256 5.03867164 12.80371094 6.14233398 C14.4115473 6.9108295 16.01978936 7.67847673 17.62841797 8.4453125 C20.95490415 10.03173057 24.27977848 11.62145387 27.60351562 13.21362305 C34.48461097 16.50671627 41.3837541 19.76134438 48.2862854 23.00921631 C49.71126524 23.67974013 51.13605061 24.35067739 52.56063843 25.02203369 C62.45946628 29.68662481 72.38592903 34.28347493 82.37548828 38.75146484 C83.18840332 39.1163501 84.00131836 39.48123535 84.83886719 39.85717773 C85.53890869 40.16905029 86.2389502 40.48092285 86.96020508 40.80224609 C88.55371094 41.57983398 88.55371094 41.57983398 89.55371094 42.57983398 C89.62576605 44.26592364 89.63757161 45.95484058 89.61621094 47.64233398 C89.6071875 48.56143555 89.59816406 49.48053711 89.58886719 50.42749023 C89.57146484 51.49290039 89.57146484 51.49290039 89.55371094 52.57983398 C85.41559458 51.27043002 81.52756222 49.73011254 77.60058594 47.88452148 C76.44099365 47.34150391 75.28140137 46.79848633 74.08666992 46.23901367 C72.82564449 45.64437002 71.56465932 45.049641 70.30371094 44.45483398 C68.98100402 43.83379228 67.65816587 43.21303 66.33520508 42.5925293 C62.80328424 40.93494171 59.27333454 39.27319538 55.74371338 37.61071777 C52.81644345 36.23278547 49.88782031 34.85774366 46.95913696 33.4828186 C43.30269586 31.76614801 39.6468629 30.04818433 35.99121094 28.32983398 C35.32029419 28.01447693 34.64937744 27.69911987 33.95812988 27.37420654 C22.13754123 21.81569387 10.34736226 16.19585842 -1.44628906 10.57983398 C-1.77628906 33.67983398 -2.10628906 56.77983398 -2.44628906 80.57983398 C2.99871094 81.07483398 2.99871094 81.07483398 8.55371094 81.57983398 C20.78946405 84.9940001 32.27263664 91.0933975 43.61621094 96.70483398 C45.35407766 97.55755762 47.09211664 98.40993028 48.83032227 99.26196289 C58.75827704 104.14160107 68.59820625 109.15710216 78.3659668 114.3503418 C88.05949736 119.4594958 98.00906071 124.00952284 107.96777344 128.57202148 C109.59017944 129.31959717 109.59017944 129.31959717 111.24536133 130.08227539 C113.52118692 131.11245133 115.81049307 132.11319206 118.11010742 133.08911133 C128.79748551 137.7168833 128.79748551 137.7168833 132.36621094 143.45483398 C132.99140625 144.42163086 133.61660156 145.38842773 134.26074219 146.38452148 C134.68742188 147.10897461 135.11410156 147.83342773 135.55371094 148.57983398 C118.61152975 154.22722771 77.54965067 125.51632311 61.30236816 117.45672607 C56.64755356 115.12249496 52.06710926 112.64980738 47.48291016 110.1809082 C40.72767078 106.58451694 33.8124328 103.35132543 26.86621094 100.14233398 C25.76607666 99.63347656 24.66594238 99.12461914 23.5324707 98.6003418 C11.68526758 93.1795888 -0.06932551 88.09555449 -13.19628906 92.95483398 C-14.96556754 93.79016546 -16.7126449 94.67285938 -18.44628906 95.57983398 C-19.7768497 96.24683694 -21.10759656 96.91346848 -22.43847656 97.57983398 C-32.69958448 102.79870212 -42.64060753 108.54282802 -52.5625 114.37475586 C-58.94906067 118.12864118 -65.35544586 121.8389838 -71.82128906 125.45483398 C-72.57031494 125.87764648 -73.31934082 126.30045898 -74.09106445 126.73608398 C-79.20727539 129.57983398 -79.20727539 129.57983398 -81.44628906 129.57983398 C-81.44628906 143.10983398 -81.44628906 156.63983398 -81.44628906 170.57983398 C-75.83628906 167.27983398 -70.22628906 163.97983398 -64.44628906 160.57983398 C-60.39138066 158.27200044 -56.33434301 155.97512959 -52.25878906 153.70483398 C-51.21577637 153.12258057 -50.17276367 152.54032715 -49.09814453 151.94042969 C-41.7700244 147.85701925 -34.4280877 143.79884249 -27.07128906 139.76733398 C-26.14421143 139.2576709 -25.21713379 138.74800781 -24.26196289 138.22290039 C-23.40755615 137.75674316 -22.55314941 137.29058594 -21.67285156 136.81030273 C-20.92600098 136.40191162 -20.17915039 135.99352051 -19.40966797 135.57275391 C-12.79994856 132.2300868 -4.58394741 132.59913733 2.48730469 134.27514648 C5.93225058 135.53720265 9.23880327 137.01608377 12.55371094 138.57983398 C13.42398926 138.98282715 14.29426758 139.38582031 15.19091797 139.80102539 C27.51357092 145.52585182 39.64713993 151.58556664 51.66088867 157.9309082 C58.77582936 161.68163663 65.95517184 165.2903637 73.16168213 168.86047363 C81.51491192 173.00100035 89.855666 177.14702121 97.99121094 181.70483398 C98.60472412 182.04667725 99.2182373 182.38852051 99.8503418 182.74072266 C104.55625227 185.43203563 108.5243865 188.03584733 111.55371094 192.57983398 C111.88964844 194.63061523 111.88964844 194.63061523 111.92871094 196.89233398 C111.95707031 197.6309668 111.98542969 198.36959961 112.01464844 199.13061523 C110.69958304 206.11829326 104.99147192 209.99550161 99.58886719 213.90795898 C88.7439311 221.263313 77.09171847 227.49522134 65.65917969 233.87670898 C48.00693191 243.73441885 30.34035838 253.86850747 14.55371094 266.57983398 C13.80089844 267.15733398 13.04808594 267.73483398 12.27246094 268.32983398 C6.26296709 273.17330664 2.00430287 279.22805818 -0.44628906 286.57983398 C0.37097656 286.83506836 1.18824219 287.09030273 2.03027344 287.35327148 C6.09898134 288.76965095 9.99490167 290.45489352 13.92871094 292.20483398 C15.03279297 292.69209961 15.03279297 292.69209961 16.15917969 293.18920898 C17.95842063 293.98367901 19.7562159 294.7814217 21.55371094 295.57983398 C21.85792969 294.8025293 22.16214844 294.02522461 22.47558594 293.22436523 C23.58972655 290.49149134 24.4249009 288.6326151 26.55371094 286.57983398 C29.67871094 286.26733398 29.67871094 286.26733398 32.55371094 286.57983398 C33.55371094 287.57983398 33.55371094 287.57983398 33.86621094 290.20483398 C33.45920468 294.60050158 31.91926279 296.88365921 29.55371094 300.57983398 C30.68808594 300.90983398 31.82246094 301.23983398 32.99121094 301.57983398 C40.80856998 304.15629476 48.15678579 308.00451196 55.55371094 311.57983398 C56.10285156 310.59756836 56.10285156 310.59756836 56.66308594 309.59545898 C75.15290125 278.42691318 116.34701507 258.05309728 146.55371094 239.57983398 C147.47958008 239.01280762 148.40544922 238.44578125 149.359375 237.86157227 C163.89381368 228.98883184 178.62788216 220.52791358 193.51904297 212.27075195 C197.44674487 210.08223519 201.35563181 207.8614386 205.26416016 205.63891602 C214.96536422 200.12313127 224.73431758 194.75117609 234.56030273 189.46118164 C241.56166829 185.6828477 248.50887454 181.81785468 255.42871094 177.89233398 C256.37198242 177.35777588 257.31525391 176.82321777 258.28710938 176.27246094 C261.94514224 174.19802653 265.60228846 172.12207947 269.25585938 170.03979492 C271.76851035 168.60971734 274.28555142 167.18768278 276.80371094 165.76733398 C277.54862793 165.3404126 278.29354492 164.91349121 279.06103516 164.47363281 C284.21217926 161.57983398 284.21217926 161.57983398 287.55371094 161.57983398 C287.55371094 154.97983398 287.55371094 148.37983398 287.55371094 141.57983398 C285.57371094 142.56983398 285.57371094 142.56983398 283.55371094 143.57983398 C280.30371094 143.70483398 280.30371094 143.70483398 277.55371094 143.57983398 C277.22371094 141.59983398 276.89371094 139.61983398 276.55371094 137.57983398 C280.348114 134.23183129 282.47677885 133.27214468 287.55371094 131.57983398 C287.22371094 125.96983398 286.89371094 120.35983398 286.55371094 114.57983398 C284.90628906 115.50022461 283.25886719 116.42061523 281.56152344 117.36889648 C234.57253327 143.57818693 234.57253327 143.57818693 216.55371094 151.57983398 C215.13445312 152.23918945 215.13445312 152.23918945 213.68652344 152.91186523 C207.69788093 155.55171855 202.07660258 156.33181529 195.55371094 156.57983398 C196.46138196 155.13663706 197.380272 153.70049293 198.30371094 152.26733398 C198.81417969 151.46682617 199.32464844 150.66631836 199.85058594 149.84155273 C202.86630741 145.83672995 206.19381523 144.17577129 210.80371094 142.39233398 C218.61261016 139.21440261 226.06151018 135.42705974 233.55371094 131.57983398 C234.4737793 131.11013184 235.39384766 130.64042969 236.34179688 130.15649414 C251.629138 122.34279754 266.71228038 114.21352027 281.55371094 105.57983398 C282.8414164 105.03399406 282.8414164 105.03399406 284.15513611 104.47712708 C286.91142195 102.72325967 286.91142195 102.72325967 287.19294739 99.18196106 C287.22519175 97.75349134 287.22985009 96.32424363 287.21313477 94.89550781 C287.22361847 94.11478409 287.23410217 93.33406036 287.24490356 92.52967834 C287.27371216 89.94833924 287.26735569 87.36833667 287.26074219 84.78686523 C287.27385379 82.99751601 287.28915636 81.2081816 287.30656433 79.41886902 C287.34649049 74.70879341 287.35660965 69.99910428 287.3605957 65.28887939 C287.36991285 60.48274962 287.40731741 55.6768483 287.44238281 50.87084961 C287.50703609 41.44052181 287.54021265 32.010364 287.55371094 22.57983398 C283.72578643 24.64420427 279.89938837 26.71138858 276.07324219 28.77905273 C274.99820435 29.35876831 273.9231665 29.93848389 272.81555176 30.5357666 C265.81551132 34.3208352 258.89915771 38.21016402 252.06542969 42.28686523 C249.55371094 43.57983398 249.55371094 43.57983398 246.55371094 43.57983398 C246.22371094 40.60983398 245.89371094 37.63983398 245.55371094 34.57983398 C252.40554873 30.39033457 259.35783357 26.44872675 266.42871094 22.64233398 C273.48130129 18.83664341 280.43623763 14.96981713 287.21386719 10.68920898 C289.9392963 9.39701889 291.57447952 9.12976947 294.55371094 9.57983398 C296.6272832 11.16370731 297.45819311 12.05035958 297.92630643 14.6452052 C297.92516727 15.44603538 297.9240281 16.24686555 297.92285442 17.07196331 C297.92882757 17.99755289 297.93480071 18.92314247 297.94095486 19.87678021 C297.93221634 20.89525204 297.92347782 21.91372386 297.91447449 22.96305847 C297.91703776 24.04367957 297.91960104 25.12430067 297.92224199 26.23766786 C297.92720316 29.87685635 297.91064815 33.51563457 297.89428711 37.15478516 C297.89344134 39.75617971 297.89391499 42.35757498 297.89561462 44.95896912 C297.89718906 50.56893895 297.88776217 56.17880425 297.87090111 61.78874779 C297.84653863 69.89980552 297.83870867 78.01081262 297.83493713 86.12190298 C297.82836832 99.28100435 297.80839551 112.44004999 297.7800293 125.59912109 C297.75249984 138.38329794 297.73126082 151.16745966 297.71850586 163.95166016 C297.71771769 164.73943882 297.71692952 165.52721748 297.71611746 166.33886822 C297.7122024 170.29085104 297.70841127 174.24283396 297.70468175 178.19481695 C297.67357246 210.9898632 297.62072498 243.78484114 297.55371094 276.57983398 C296.89371094 276.57983398 296.23371094 276.57983398 295.55371094 276.57983398 C295.55371094 275.91983398 295.55371094 275.25983398 295.55371094 274.57983398 C295.00070312 274.3181543 294.44769531 274.05647461 293.87792969 273.78686523 C291.55371094 272.57983398 291.55371094 272.57983398 289.13574219 271.02905273 C273.68701963 261.20200919 256.31052093 257.84009921 238.30371094 261.64233398 C221.72981012 266.6099258 208.20169351 276.44586448 199.55371094 291.57983398 C197.75090273 295.19464839 196.0940755 298.84604706 194.55371094 302.57983398 C194.22371094 302.57983398 193.89371094 302.57983398 193.55371094 302.57983398 C193.55371094 282.44983398 193.55371094 262.31983398 193.55371094 241.57983398 C203.57786592 235.94124681 213.6056834 230.31692977 223.67871094 224.76733398 C224.94125001 224.07097537 226.20378244 223.3746047 227.46630859 222.67822266 C234.94033101 218.55798325 242.42915887 214.46595275 249.92871094 210.39233398 C257.73787768 206.1471605 265.50152916 201.82541378 273.24121094 197.45483398 C274.22847168 196.89771729 275.21573242 196.34060059 276.23291016 195.76660156 C279.74010178 193.77931662 283.19839499 191.81671128 286.55371094 189.57983398 C286.77456734 186.6291925 286.83432083 183.89615168 286.74121094 180.95483398 C286.7209082 179.75213867 286.7209082 179.75213867 286.70019531 178.52514648 C286.66480145 176.5430902 286.61099327 174.56137847 286.55371094 172.57983398 C285.80089844 172.99644287 285.04808594 173.41305176 284.27246094 173.84228516 C271.16274349 181.09419424 258.04917869 188.33661486 244.86621094 195.45483398 C235.05313772 200.75590028 225.28717864 206.13418651 215.55371094 211.57983398 C214.61978516 212.10158203 213.68585938 212.62333008 212.72363281 213.16088867 C209.60396354 214.90376 206.48495018 216.64779902 203.36621094 218.39233398 C202.43623291 218.91239014 201.50625488 219.43244629 200.5480957 219.96826172 C189.53085108 226.13862062 178.54699117 232.36624081 167.55371094 238.57983398 C167.22371094 278.17983398 166.89371094 317.77983398 166.55371094 358.57983398 C172.16371094 355.27983398 177.77371094 351.97983398 183.55371094 348.57983398 C192.15371094 343.57983398 192.15371094 343.57983398 195.55371094 343.57983398 C197.03871094 348.03483398 197.03871094 348.03483398 198.55371094 352.57983398 C197.74216553 353.01328125 196.93062012 353.44672852 196.09448242 353.89331055 C193.05433927 355.51767203 190.01468315 357.14293793 186.9753418 358.76879883 C185.66531149 359.46935152 184.35509378 360.16955389 183.04467773 360.86938477 C181.15004666 361.8812982 179.2561161 362.89451253 177.36230469 363.90795898 C176.22591553 364.51542969 175.08952637 365.12290039 173.91870117 365.7487793 C172.17077728 366.69990961 170.4253178 367.66189133 168.74856567 368.73352051 C164.19645831 371.59967072 164.19645831 371.59967072 161.0144043 371.50146484 C158.01338475 370.37745961 155.09917645 369.16477751 152.18261719 367.83374023 C151.56112289 367.55143051 150.9396286 367.26912079 150.29930115 366.97825623 C148.23566564 366.03854198 146.17588926 365.09068696 144.11621094 364.14233398 C142.6481853 363.47094968 141.18008471 362.79972925 139.71191406 362.12866211 C127.8040146 356.67161394 115.96888414 351.06285257 104.14254761 345.4317627 C92.36329821 339.82425476 80.53468966 334.34352135 68.64523315 328.97396851 C58.43056802 324.35984634 48.25900425 319.66236652 38.11621094 314.89233398 C36.79047046 314.26947911 35.46470572 313.64667586 34.13891602 313.02392578 C31.5498765 311.8075665 28.96093741 310.59099378 26.37207031 309.37426758 C25.74179932 309.07808533 25.11152832 308.78190308 24.4621582 308.47674561 C23.18459148 307.87632847 21.90708545 307.27578216 20.62963867 306.67510986 C16.3788661 304.67703029 12.12353153 302.68893612 7.86621094 300.70483398 C6.79121338 300.19863525 5.71621582 299.69243652 4.60864258 299.17089844 C3.61727295 298.71030029 2.62590332 298.24970215 1.60449219 297.77514648 C0.74509033 297.37312012 -0.11431152 296.97109375 -0.99975586 296.55688477 C-6.01501956 294.53928818 -6.01501956 294.53928818 -11.15917969 295.65283203 C-12.13048828 296.21010986 -13.10179687 296.7673877 -14.10253906 297.34155273 C-15.19622803 297.95957764 -16.28991699 298.57760254 -17.41674805 299.21435547 C-18.5934287 299.89839448 -19.76993821 300.58272796 -20.94628906 301.26733398 C-22.1695928 301.96532142 -23.39364181 302.66200418 -24.6184082 303.35742188 C-27.08545321 304.76138911 -29.54758464 306.17339342 -32.00537109 307.59350586 C-34.96766335 309.30353919 -37.93643889 311.0008843 -40.91113281 312.68920898 C-47.92464028 316.67650777 -54.92858868 320.67618899 -61.87330627 324.78239441 C-64.42770303 326.28975454 -66.98874019 327.78561567 -69.55056763 329.28030396 C-70.80540746 330.01639289 -72.0571647 330.75776449 -73.30563354 331.50460815 C-75.0530297 332.54938933 -76.811971 333.57478678 -78.57128906 334.59936523 C-80.09109375 335.49812378 -80.09109375 335.49812378 -81.64160156 336.41503906 C-84.81720313 337.73387568 -86.23194853 337.67618434 -89.44628906 336.57983398 C-91.07325543 334.95286762 -90.58165489 333.14286296 -90.59168339 330.89486313 C-90.59860803 329.87532067 -90.60553267 328.85577821 -90.61266714 327.80534053 C-90.61521126 326.67161612 -90.61775538 325.53789171 -90.62037659 324.36981201 C-90.62687554 323.17600457 -90.63337449 321.98219714 -90.64007038 320.75221372 C-90.65699964 317.4234593 -90.66933246 314.09474545 -90.67962706 310.76596761 C-90.68924576 307.91451507 -90.70256139 305.06308463 -90.71589602 302.21164742 C-90.76354409 291.99586759 -90.79613458 281.78005647 -90.82519531 271.56420898 C-90.82865668 270.35548164 -90.82865668 270.35548164 -90.83218798 269.12233555 C-90.87761731 253.13137404 -90.91615857 237.14039898 -90.94291782 221.14939499 C-90.94890727 217.6315789 -90.95499287 214.113763 -90.96118164 210.59594727 C-90.96271462 209.72157419 -90.9642476 208.84720112 -90.96582704 207.94633189 C-90.99154703 193.77823059 -91.04843174 179.61042636 -91.11764694 165.44247791 C-91.1880725 150.90707733 -91.22834511 136.37183048 -91.23966736 121.83626199 C-91.24683498 113.67072085 -91.2676627 105.50569582 -91.32269478 97.3403244 C-91.36952557 90.38676205 -91.38943911 83.43379336 -91.37381328 76.48007885 C-91.36669066 72.93069512 -91.37264155 69.38258321 -91.41339111 65.83339882 C-91.45719548 61.98769294 -91.43922161 58.1437028 -91.41505432 54.29779053 C-91.43767493 53.172989 -91.46029554 52.04818748 -91.48360163 50.88930106 C-91.36514941 43.5153508 -91.36514941 43.5153508 -88.71098793 40.8130765 C-86.66665575 39.51360142 -84.67338813 38.5238579 -82.44628906 37.57983398 C-81.40947998 36.98638184 -80.3726709 36.39292969 -79.30444336 35.78149414 C-78.30324463 35.23283691 -77.3020459 34.68417969 -76.27050781 34.11889648 C-74.55395996 33.17542358 -74.55395996 33.17542358 -72.80273438 32.21289062 C-71.57976584 31.54351423 -70.35678373 30.87416263 -69.13378906 30.20483398 C-66.53819685 28.78003528 -63.94344094 27.35371626 -61.34863281 25.92749023 C-60.36275681 25.38604622 -60.36275681 25.38604622 -59.35696411 24.83366394 C-53.76776216 21.76219662 -48.19519008 18.66147476 -42.62597656 15.55395508 C-38.22529355 13.10112564 -33.81683902 10.66246833 -29.40771484 8.22485352 C-26.66131112 6.69927492 -23.92615085 5.15524048 -21.19238281 3.60717773 C-19.67332954 2.76386826 -18.15383686 1.92134952 -16.63378906 1.07983398 C-15.97668945 0.69964111 -15.31958984 0.31944824 -14.64257812 -0.07226562 C-9.09218887 -3.09995143 -5.71344704 -2.35442912 0 0 Z " fill="#1D2E4A" transform="translate(405.4462890625,329.420166015625)"/>
<path d="M0 0 C1.82725924 -0.00533469 3.65451409 -0.01240565 5.48176068 -0.02104706 C10.46830214 -0.03957919 15.4545447 -0.03340205 20.44109809 -0.02289402 C25.83252815 -0.01587506 31.22389845 -0.03192043 36.61531067 -0.04489136 C47.16427387 -0.06649218 57.71312902 -0.06641439 68.26210705 -0.05826581 C76.84001338 -0.05195602 85.41788829 -0.05311184 93.9957943 -0.05953789 C95.21847418 -0.06043954 96.44115406 -0.0613412 97.70088485 -0.06227018 C100.18507695 -0.06412146 102.66926904 -0.06598402 105.15346112 -0.06785773 C128.42977638 -0.08442284 151.70603096 -0.07572826 174.98234256 -0.05887216 C196.2545929 -0.04417945 217.52670194 -0.05879992 238.79893408 -0.08764232 C260.66634475 -0.1170698 282.53369029 -0.12799862 304.40111989 -0.11846012 C306.87689188 -0.11743762 309.35266388 -0.11644301 311.8284359 -0.11547661 C313.04641481 -0.11500022 314.26439373 -0.11452383 315.51928109 -0.114033 C324.08006184 -0.11187314 332.64078061 -0.12165028 341.20154762 -0.13624763 C351.64433328 -0.15380638 362.08693891 -0.15360288 372.5297176 -0.13089598 C377.85240655 -0.11978555 383.17477876 -0.11651861 388.49745369 -0.13519669 C393.38002643 -0.15210916 398.26200879 -0.14550581 403.14454403 -0.1209799 C404.90080688 -0.11613131 406.65711834 -0.11951628 408.41334013 -0.13246734 C431.83274495 -0.29256277 452.25520529 7.48683806 469.16362 24.0068512 C486.5000048 42.15875638 493.10644251 63.66478707 492.99378967 88.26974487 C492.99725286 89.93185917 493.00202183 91.59397116 493.00797141 93.25607842 C493.02042074 97.79071476 493.01433881 102.32516013 493.00501275 106.85979688 C492.99819742 111.7631368 493.00871587 116.66644493 493.01695251 121.56977844 C493.03026651 131.16334869 493.02742226 140.75684838 493.01871459 150.35042135 C493.01192807 158.15175352 493.01102552 165.95306597 493.01428604 173.75440025 C493.01474574 174.8664899 493.01520544 175.97857954 493.01567907 177.12436887 C493.01663829 179.38388824 493.01761093 181.64340759 493.01859684 183.90292694 C493.02714421 205.07324167 493.01732747 226.24351738 493.00119574 247.41382571 C492.98779872 265.55642602 492.99011686 283.69896873 493.00395203 301.84156799 C493.02002896 322.93361537 493.02631447 344.02562856 493.01711524 365.11768121 C493.01615964 367.36961408 493.01521653 369.62154696 493.01428604 371.87347984 C493.01382321 372.98133005 493.01336039 374.08918025 493.01288354 375.23060167 C493.01029957 383.0158676 493.01465194 390.80111173 493.0217247 398.58637428 C493.03016364 408.08385681 493.02780962 417.58126501 493.01188247 427.07873908 C493.00403104 431.91921508 493.00085436 436.75956743 493.01082993 441.60004234 C493.01984293 446.04084513 493.01473652 450.48141097 492.99889727 454.9221926 C492.99557712 456.51898021 492.99718024 458.11578831 493.00452463 459.71256248 C493.10064345 482.36821313 488.19860573 505.23672772 472.61283875 522.5146637 C471.76076843 523.47114807 470.90869812 524.42763245 470.0308075 525.4131012 C456.44661459 540.09827478 437.91626929 549.71807786 417.74624527 550.70358551 C413.09209356 550.80614971 408.43801503 550.79609595 403.7829895 550.78881836 C401.97965955 550.79327629 400.17633156 550.79859214 398.3730064 550.80468708 C393.43870574 550.81881088 388.50446824 550.82053144 383.57015026 550.82009017 C378.24001136 550.82174335 372.9098981 550.83481915 367.57977295 550.84628296 C355.93495936 550.86909293 344.29016404 550.87704918 332.64533114 550.8821094 C325.36833917 550.88537092 318.09135247 550.89189612 310.81436348 550.89911079 C290.6488064 550.91867108 270.48325421 550.93507878 250.31768703 550.93798733 C248.38358811 550.93826868 248.38358811 550.93826868 246.41041649 550.93855572 C243.79673294 550.93892196 241.1830494 550.93928566 238.56936585 550.93964683 C237.27201025 550.93982964 235.97465464 550.94001245 234.63798523 550.94020081 C232.68956448 550.94047163 232.68956448 550.94047163 230.7017817 550.94074792 C209.65958509 550.94428873 188.61749088 550.97130786 167.57532977 551.00869869 C145.94871182 551.0468192 124.32214462 551.06614508 102.69549233 551.06644684 C90.56213568 551.06703054 78.42890121 551.07546664 66.2955761 551.1044445 C55.96328553 551.12900837 45.63116172 551.13620742 35.29884981 551.12119698 C30.03275345 551.11404878 24.76698604 551.11479526 19.50092697 551.13760757 C14.66877497 551.15833866 9.83720189 551.15546654 5.0050552 551.13473273 C3.26819329 551.1312647 1.53128839 551.1360321 -0.20551724 551.15043717 C-21.6398438 551.31658441 -39.84668179 545.49860723 -56.38716125 531.5146637 C-57.35911438 530.74251526 -58.3310675 529.97036682 -59.33247375 529.17481995 C-74.4402959 516.54341749 -82.26159915 496.5667404 -84.38716125 477.5146637 C-84.65895442 471.9022713 -84.66241375 466.30148073 -84.64785767 460.68365479 C-84.65088388 459.01329227 -84.6547757 457.34293115 -84.65945023 455.67257243 C-84.66967844 451.1151722 -84.6675617 446.5578511 -84.66326964 442.00044453 C-84.66079296 437.07256874 -84.66982823 432.14471154 -84.67730713 427.21684265 C-84.69003004 417.57516111 -84.69185083 407.93350746 -84.68950687 398.29181894 C-84.68772085 390.45139719 -84.68947942 382.61098387 -84.69373131 374.77056313 C-84.6943265 373.65292276 -84.69492169 372.53528239 -84.69553491 371.38377414 C-84.69674671 369.11298078 -84.69796085 366.84218742 -84.69917729 364.57139406 C-84.71004355 343.29521923 -84.70789466 322.01906027 -84.70179244 300.74288455 C-84.69662409 281.29995522 -84.70787823 261.857076 -84.72689066 242.41415658 C-84.74628567 222.42600368 -84.75452214 202.43787447 -84.75076741 182.4497121 C-84.74885789 171.23757294 -84.7513186 160.02547642 -84.76548195 148.81334496 C-84.77741791 139.26829024 -84.77877581 129.72330443 -84.76669178 120.17824873 C-84.76081866 115.31346631 -84.75966014 110.44880978 -84.77169418 105.58403587 C-84.78260557 101.1210338 -84.7793877 96.65826194 -84.7654325 92.1952704 C-84.76279996 90.59040521 -84.76510612 88.98552166 -84.77316836 87.38067456 C-84.88699175 63.01008363 -78.60876866 41.93254331 -61.6254425 23.6631012 C-44.01724116 6.76168629 -23.92392135 -0.12301611 0 0 Z M-29.38716125 18.5146637 C-30.56149719 19.0096637 -31.73583313 19.5046637 -32.945755 20.0146637 C-50.72690529 29.2791979 -62.16942205 43.50638328 -68.51216125 62.3584137 C-70.02301819 67.80829051 -70.51313688 72.91525417 -70.52138233 78.56452751 C-70.52373456 79.25382512 -70.52608679 79.94312274 -70.5285103 80.65330815 C-70.53516519 82.962161 -70.53474314 85.27095712 -70.53433228 87.57981873 C-70.5376331 89.25238859 -70.54135913 90.92495766 -70.54547375 92.59752572 C-70.5554772 97.19352155 -70.55920789 101.78950432 -70.56186306 106.38550949 C-70.56577108 111.34281721 -70.57534912 116.30011464 -70.58407593 121.25741577 C-70.6038271 133.22988224 -70.6139052 145.20234954 -70.62280372 157.17482823 C-70.62718914 162.81621524 -70.63255532 168.45760131 -70.63779259 174.09898758 C-70.65480412 192.85835259 -70.66929732 211.61771701 -70.67654133 230.37708855 C-70.67845115 235.24391048 -70.68037149 240.11073241 -70.68232727 244.97755432 C-70.68281101 246.18714456 -70.68329475 247.39673479 -70.68379315 248.64297928 C-70.69208984 268.22862649 -70.71742102 287.81421255 -70.74990795 307.39983307 C-70.78300685 327.51884228 -70.80099268 347.63782046 -70.80418557 367.75685704 C-70.80634812 379.04848785 -70.81505945 390.34002952 -70.84064674 401.63163376 C-70.86239247 411.2500608 -70.87038514 420.86837703 -70.86067996 430.48682587 C-70.8561464 435.39008156 -70.85796641 440.29310882 -70.87744141 445.19633293 C-70.89515368 449.69482179 -70.89401049 454.19291692 -70.87854411 458.69141044 C-70.87618021 460.3092757 -70.88042758 461.92716882 -70.89237276 463.54499172 C-71.03505018 484.16440722 -65.83336904 502.86394381 -51.16059875 518.01075745 C-43.82316905 524.63511299 -35.68175474 530.06151061 -26.38716125 533.5146637 C-25.73179614 533.77917473 -25.07643103 534.04368577 -24.40120637 534.3162123 C-16.00541555 537.3102958 -7.45757963 536.93234105 1.32484436 536.89561462 C3.12746324 536.89907441 4.93008 536.90384112 6.73269236 536.90979636 C11.6694772 536.92229216 16.60608753 536.91614237 21.54287291 536.9068377 C26.87359504 536.90004166 32.20428746 536.91053127 37.53500366 536.91877747 C47.97186764 536.93211159 58.40866685 536.92923831 68.84553336 536.92053954 C77.32965627 536.91376143 85.81376105 536.91284684 94.29788589 536.91611099 C96.10990583 536.91680054 96.10990583 536.91680054 97.95853222 536.91750402 C100.41269711 536.91846321 102.866862 536.91943585 105.32102688 536.92042179 C128.33010535 536.92897494 151.33914795 536.91914311 174.34822054 536.90302069 C194.08227791 536.889621 213.81628233 536.8919429 233.55033875 536.90577698 C256.47459428 536.92183998 279.39881837 536.92814739 302.32307875 536.91894019 C304.76877252 536.91798456 307.21446629 536.91704144 309.66016006 536.91611099 C310.86343783 536.91564817 312.06671559 536.91518534 313.30645632 536.91470849 C321.77734937 536.91212051 330.24822244 536.91648553 338.7191124 536.92354965 C349.04681798 536.93197298 359.37445518 536.92966709 369.70215295 536.91370742 C374.96944042 536.90583545 380.23661396 536.9027148 385.50390053 536.91265488 C390.330112 536.92162465 395.15610445 536.91663133 399.98229618 536.90072222 C401.72378522 536.89738404 403.46529294 536.8990467 405.20676987 536.90634958 C414.71641194 536.94315446 423.47349749 536.47384132 432.61283875 533.5146637 C433.48453056 533.23502537 434.35622237 532.95538705 435.25432909 532.66727483 C451.6623551 527.11021469 464.73341163 513.70172017 472.30033875 498.4521637 C477.77444903 485.34950694 479.20736895 472.28476655 479.12750244 458.24732971 C479.13284293 456.578348 479.13991716 454.90937111 479.1485495 453.24040318 C479.16700451 448.70529095 479.16093179 444.17050907 479.15039647 439.63538408 C479.14335533 434.72458167 479.15943929 429.81384382 479.1723938 424.90306091 C479.19395651 415.30300747 479.19392694 405.70307293 479.18576825 396.10300326 C479.17945079 388.29604879 479.18062125 380.48912881 479.18704033 372.68217468 C479.18839281 371.0111232 479.18839281 371.0111232 479.18977262 369.3063131 C479.19162394 367.0426886 479.1934865 364.77906411 479.19536018 362.51543963 C479.2119114 341.3236083 479.20324191 320.13184369 479.1863746 298.94001639 C479.17167673 279.57881012 479.18631207 260.21775904 479.21514476 240.85657275 C479.24457955 220.94172702 479.25549935 201.02695281 479.24596256 181.1120863 C479.24494008 178.85710845 479.24394547 176.60213058 479.24297905 174.34715271 C479.24250266 173.23785906 479.24202627 172.12856541 479.24153544 170.9856568 C479.23937689 163.19428279 479.24914545 155.40297695 479.26375008 147.61161804 C479.28131766 138.10763259 479.28109247 128.60384494 479.25839842 119.09986711 C479.24729704 114.25713457 479.24400021 109.41474996 479.26269913 104.57203293 C479.27963661 100.12810981 479.27297565 95.68483453 479.24848234 91.24095237 C479.24364187 89.64426693 479.24699593 88.04752787 479.25996978 86.4508878 C479.40927717 66.62581629 473.76688306 49.35583976 459.83940125 34.75294495 C459.10463562 34.01431213 458.36987 33.27567932 457.61283875 32.5146637 C457.02244812 31.88946838 456.4320575 31.26427307 455.82377625 30.62013245 C451.6722677 26.56921111 446.98160643 23.89737972 441.86283875 21.2646637 C441.23176208 20.93514709 440.60068542 20.60563049 439.95048523 20.26612854 C428.22794442 14.51877624 416.36762623 14.07880883 403.58439636 14.12698364 C401.7718013 14.12280517 399.95920886 14.11732484 398.14662123 14.11066383 C393.19155725 14.09625826 388.23666029 14.10043861 383.28158736 14.10783064 C377.92771977 14.11257206 372.57388781 14.10004395 367.22003174 14.08981323 C356.74200348 14.07263976 346.26403523 14.07178211 335.78599656 14.07702614 C327.26854922 14.0810713 318.75111959 14.07962017 310.2336731 14.07427788 C309.02038007 14.07352946 307.80708703 14.07278103 306.55702755 14.07200993 C304.09207173 14.07047842 301.62711591 14.06894008 299.1621601 14.06739496 C276.06055791 14.0536755 252.95898961 14.05910402 229.8573882 14.07058018 C208.73038247 14.08051488 187.6034643 14.06756677 166.47647208 14.04364599 C144.77074693 14.01925547 123.06506256 14.00964682 101.35932398 14.01629871 C89.17813222 14.01979065 76.99700781 14.01756028 64.81582642 14.00004768 C54.44789811 13.98532648 44.08008461 13.98468944 33.71215856 14.00211859 C28.42457087 14.01063099 23.13718828 14.01277203 17.84961128 13.99746704 C13.00492072 13.98361774 8.1606109 13.98838639 3.31594235 14.00770628 C1.56778257 14.01146577 -0.18040772 14.0085458 -1.92854029 13.99809463 C-11.72030222 13.94373883 -20.2419813 14.58919644 -29.38716125 18.5146637 Z " fill="#1F2E48" transform="translate(306.3871612548828,236.48533630371094)"/>
<path d="M0 0 C10.08684268 7.25635111 17.85019397 15.89499142 23.625 26.890625 C24.0890625 27.76589844 24.553125 28.64117187 25.03125 29.54296875 C33.12096385 45.93404595 31.85287233 63.51674313 26.4765625 80.5234375 C17.91753208 105.681702 2.68190261 128.47298947 -13.86816406 149.01806641 C-15.12911814 150.5850654 -16.37501585 152.16416435 -17.6171875 153.74609375 C-23.83639118 161.65557893 -30.25552821 169.77115321 -37.375 176.890625 C-42.86174024 176.55562601 -45.23380689 173.52811315 -48.85546875 169.73828125 C-53.14349713 164.89181196 -57.09544329 159.80345309 -61.01953125 154.66064453 C-62.29319223 152.99745251 -63.58069776 151.34637243 -64.875 149.69921875 C-67.40926845 146.45421797 -69.90511586 143.18472066 -72.375 139.890625 C-72.83487305 139.27944824 -73.29474609 138.66827148 -73.76855469 138.03857422 C-94.41362743 110.36970388 -113.69957496 78.05688502 -108.90234375 42.375 C-104.96059147 24.34207339 -92.44488466 8.49318417 -77.125 -1.421875 C-53.01007258 -15.55327968 -23.62164379 -14.76352737 0 0 Z " fill="#28D3B5" transform="translate(613.375,325.109375)"/>
<path d="M0 0 C0 46.86 0 93.72 0 142 C-5.61 144.97 -11.22 147.94 -17 151 C-20.85336523 153.20370563 -24.68528222 155.42042886 -28.5 157.6875 C-37.19592642 162.8075844 -45.94297854 167.82394104 -54.75 172.75 C-56.34811523 173.64464966 -56.34811523 173.64464966 -57.97851562 174.55737305 C-61.95537369 176.77610583 -65.92080293 178.97498779 -70 181 C-70.51521247 162.58089439 -70.90246906 144.16367056 -71.13986778 125.738904 C-71.25305965 117.18244651 -71.40716314 108.63047808 -71.65966797 100.0769043 C-71.87980499 92.61619306 -72.02106386 85.1587315 -72.06994689 77.69486302 C-72.09851205 73.74498128 -72.16491618 69.80438898 -72.32606125 65.85750771 C-73.26605957 41.92276459 -73.26605957 41.92276459 -67.85638809 35.42537308 C-62.64556129 31.12313664 -56.91726739 28.42200093 -50.63350677 26.03668976 C-47.01858967 24.61366417 -43.84100752 22.75459987 -40.5078125 20.765625 C-38.38193862 19.59061404 -36.25437761 18.41864943 -34.125 17.25 C-31.8461309 15.99259205 -29.56748427 14.73478082 -27.2890625 13.4765625 C-26.21688477 12.88520508 -25.14470703 12.29384766 -24.04003906 11.68457031 C-19.19858424 9.00178535 -14.38153972 6.27556938 -9.57861328 3.52441406 C-3.37333917 0 -3.37333917 0 0 0 Z " fill="#FBFCFC" transform="translate(394,473)"/>
<path d="M0 0 C15.46609633 -1.13915602 28.46053588 2.28959921 40.73583984 12.04736328 C51.95413846 21.96419261 59.13718966 34.48170139 60.40771484 49.48095703 C61.05456794 64.97308863 56.22695814 78.49068066 46.25146484 90.39892578 C36.99982223 100.30340607 23.91219539 106.5388429 10.37646484 107.39892578 C-6.94287328 107.85153238 -20.74221766 102.80416318 -33.48291016 90.82470703 C-43.46715661 79.6984716 -48.89742563 64.4741832 -48.31103516 49.53955078 C-46.33295662 34.26242638 -39.4449051 20.85252126 -27.45556641 10.94189453 C-19.12974372 5.1982105 -10.12459094 0.86812364 0 0 Z " fill="#F8F9F9" transform="translate(652.87353515625,597.83935546875)"/>
<path d="M0 0 C3.4167387 0.68334774 5.69432191 1.1535525 8.72265625 2.49609375 C9.41544678 2.80208496 10.1082373 3.10807617 10.82202148 3.42333984 C11.56137939 3.7580127 12.3007373 4.09268555 13.0625 4.4375 C14.24017944 4.96657959 14.24017944 4.96657959 15.44165039 5.50634766 C28.58647027 11.4745398 41.40129999 18.10785177 54.13891602 24.89355469 C59.19028962 27.56796292 64.28303201 30.14986958 69.40625 32.68359375 C70.38756393 33.1698246 70.38756393 33.1698246 71.38870239 33.6658783 C74.6403809 35.2760766 77.89522917 36.87924445 81.15576172 38.47143555 C89.41654823 42.5358209 97.242517 47.03592631 105 52 C104.27099609 56.75 104.27099609 56.75 101.83203125 59 C100.83558594 59.66 99.83914063 60.32 98.8125 61 C98.24499023 61.37680908 97.67748047 61.75361816 97.09277344 62.1418457 C84.93706261 70.08114352 72.2530023 77.22276349 59.55249023 84.24267578 C26.98916875 100.37264212 26.98916875 100.37264212 2 125 C1.34 125 0.68 125 0 125 C0 83.75 0 42.5 0 0 Z " fill="#29D2B4" transform="translate(403,473)"/>
<path d="M0 0 C0 37.62 0 75.24 0 114 C-4.46995091 113.10600982 -7.97204365 111.77440342 -12.01171875 109.82421875 C-12.68858231 109.50312637 -13.36544586 109.182034 -14.06282043 108.85121155 C-15.51650028 108.16091457 -16.96899634 107.46812016 -18.42041016 106.77307129 C-21.49159079 105.30246988 -24.56849721 103.84404212 -27.64517212 102.38497925 C-29.20435924 101.64545392 -30.76325755 100.90531935 -32.3218689 100.1645813 C-39.02666271 96.97958893 -45.75672534 93.8527885 -52.5 90.75 C-53.52174316 90.27715576 -54.54348633 89.80431152 -55.59619141 89.31713867 C-60.54279034 87.03159561 -65.49833059 84.77097014 -70.48025513 82.56329346 C-72.32357901 81.74506262 -74.16411879 80.92087464 -76.00390625 80.09472656 C-78.32791717 79.05325844 -80.65718196 78.02341437 -82.9921875 77.00683594 C-84.02730469 76.54051758 -85.06242187 76.07419922 -86.12890625 75.59375 C-87.04744385 75.18833984 -87.96598145 74.78292969 -88.91235352 74.36523438 C-91 73 -91 73 -91.84912109 70.95410156 C-92.20237468 66.37895317 -88.24119464 62.50283464 -85.48046875 59.16015625 C-73.32159037 46.17787753 -57.15821342 36.49922333 -42.49023438 26.67041016 C-40.3577546 25.23997617 -38.23183241 23.8007021 -36.109375 22.35546875 C-28.22956539 17.01342775 -20.19055303 11.93147678 -12.125 6.875 C-11.04686035 6.19824219 -9.9687207 5.52148438 -8.85791016 4.82421875 C-7.35429932 3.88642578 -7.35429932 3.88642578 -5.8203125 2.9296875 C-4.91555176 2.36491699 -4.01079102 1.80014648 -3.07861328 1.21826172 C-1 0 -1 0 0 0 Z " fill="#FAFBFB" transform="translate(563,574)"/>
<path d="M0 0 C0 26.4 0 52.8 0 80 C-3.63 78.35 -7.26 76.7 -11 75 C-26.60774657 68.92742079 -42.93417691 69.1654065 -58.421875 75.37109375 C-75.32440155 83.06580289 -85.96467381 95.94662868 -93 113 C-93.33 113 -93.66 113 -94 113 C-94 92.87 -94 72.74 -94 52 C-83.97584502 46.36141282 -73.94802754 40.73709579 -63.875 35.1875 C-62.61246092 34.49114138 -61.3499285 33.79477071 -60.08740234 33.09838867 C-52.61337993 28.97814926 -45.12455207 24.88611877 -37.625 20.8125 C-29.81583325 16.56732651 -22.05218178 12.2455798 -14.3125 7.875 C-12.83160889 7.03932495 -12.83160889 7.03932495 -11.32080078 6.18676758 C-0.40229636 0 -0.40229636 0 0 0 Z " fill="#29D4B5" transform="translate(693,519)"/>
<path d="M0 0 C10.08684268 7.25635111 17.85019397 15.89499142 23.625 26.890625 C24.0890625 27.76589844 24.553125 28.64117187 25.03125 29.54296875 C33.12096385 45.93404595 31.85287233 63.51674313 26.4765625 80.5234375 C17.91753208 105.681702 2.68190261 128.47298947 -13.86816406 149.01806641 C-15.12911814 150.5850654 -16.37501585 152.16416435 -17.6171875 153.74609375 C-23.83639118 161.65557893 -30.25552821 169.77115321 -37.375 176.890625 C-42.86174024 176.55562601 -45.23380689 173.52811315 -48.85546875 169.73828125 C-53.14349713 164.89181196 -57.09544329 159.80345309 -61.01953125 154.66064453 C-62.29319223 152.99745251 -63.58069776 151.34637243 -64.875 149.69921875 C-67.40926845 146.45421797 -69.90511586 143.18472066 -72.375 139.890625 C-72.83487305 139.27944824 -73.29474609 138.66827148 -73.76855469 138.03857422 C-94.41362743 110.36970388 -113.69957496 78.05688502 -108.90234375 42.375 C-104.96059147 24.34207339 -92.44488466 8.49318417 -77.125 -1.421875 C-53.01007258 -15.55327968 -23.62164379 -14.76352737 0 0 Z M-86.375 18.890625 C-97.47477903 32.17363263 -101.67178608 46.85265344 -100.375 63.890625 C-95.23839657 98.9835543 -67.87371929 133.02624363 -45.375 158.890625 C-43.69896777 160.88304223 -42.03627254 162.88584512 -40.375 164.890625 C-34.34361606 160.40574977 -29.99497192 154.77603493 -25.375 148.890625 C-24.58996094 147.89804687 -23.80492187 146.90546875 -22.99609375 145.8828125 C-20.41720574 142.57951774 -17.88153707 139.24896827 -15.375 135.890625 C-14.90690918 135.26446289 -14.43881836 134.63830078 -13.95654297 133.99316406 C-5.4356503 122.50092702 1.78782919 110.44820194 8.625 97.890625 C9.25535156 96.74464844 9.88570312 95.59867187 10.53515625 94.41796875 C19.44946691 77.47849862 24.3975394 57.66625604 19.0625 38.765625 C12.94518351 22.18898066 0.89907571 10.13331096 -14.875 2.640625 C-16.36494078 2.03205764 -17.86550598 1.44893101 -19.375 0.890625 C-20.1690625 0.5915625 -20.963125 0.2925 -21.78125 -0.015625 C-45.31742767 -7.67197195 -70.03492522 1.31045526 -86.375 18.890625 Z " fill="#1B2F4A" transform="translate(613.375,325.109375)"/>
<path d="M0 0 C8.68472942 4.46954694 14.70829968 11.08292612 17.94921875 20.3125 C20.32827352 29.73075799 18.24568085 37.55395546 13.61328125 45.94140625 C9.62325307 51.87802584 5.23165984 55.33790329 -1.38671875 57.94140625 C-2.29421875 58.35390625 -3.20171875 58.76640625 -4.13671875 59.19140625 C-13.31152432 61.30866907 -20.47733441 60.31706832 -28.69140625 55.6953125 C-36.72316664 50.46884813 -40.86013457 44.25399307 -43.38671875 34.94140625 C-44.62461837 25.63544155 -43.29947824 18.39945809 -37.84375 10.7890625 C-28.40449304 -0.8102075 -14.29154703 -4.46713869 0 0 Z " fill="#FAFBFB" transform="translate(586.38671875,355.05859375)"/>
<path d="M0 0 C15.46609633 -1.13915602 28.46053588 2.28959921 40.73583984 12.04736328 C51.95413846 21.96419261 59.13718966 34.48170139 60.40771484 49.48095703 C61.05456794 64.97308863 56.22695814 78.49068066 46.25146484 90.39892578 C36.99982223 100.30340607 23.91219539 106.5388429 10.37646484 107.39892578 C-6.94287328 107.85153238 -20.74221766 102.80416318 -33.48291016 90.82470703 C-43.46715661 79.6984716 -48.89742563 64.4741832 -48.31103516 49.53955078 C-46.33295662 34.26242638 -39.4449051 20.85252126 -27.45556641 10.94189453 C-19.12974372 5.1982105 -10.12459094 0.86812364 0 0 Z M-27.87353516 24.16064453 C-36.70161317 35.94365095 -39.29761376 46.65030077 -37.87353516 61.16064453 C-35.56500034 73.71258479 -28.9754222 83.94018044 -18.68603516 91.47314453 C-7.85629464 98.14188698 3.67970686 99.36732424 16.06396484 97.59814453 C28.38699204 93.85675836 38.8798488 87.53068362 45.06201172 76.01220703 C50.38112189 65.52880487 53.2027294 55.00836283 50.43896484 43.23095703 C46.10323191 30.476676 39.35466905 20.50383611 27.25146484 14.34814453 C8.2069592 5.16249923 -13.24226824 8.11789069 -27.87353516 24.16064453 Z " fill="#1E2F4B" transform="translate(652.87353515625,597.83935546875)"/>
<path d="M0 0 C0 23.76 0 47.52 0 72 C-7.92 75.96 -7.92 75.96 -16 80 C-19.57846544 81.89462758 -23.14104083 83.79857276 -26.6875 85.75 C-27.60104248 86.25023682 -28.51458496 86.75047363 -29.45581055 87.26586914 C-37.79325973 91.84935843 -46.0557564 96.56133327 -54.30078125 101.30859375 C-55.86684678 102.20632381 -57.43325296 103.10345986 -59 104 C-59.8357959 104.48098145 -60.6715918 104.96196289 -61.53271484 105.45751953 C-62.34047363 105.91626465 -63.14823242 106.37500977 -63.98046875 106.84765625 C-64.70516357 107.26152588 -65.4298584 107.67539551 -66.17651367 108.10180664 C-68 109 -68 109 -70 109 C-71.00864646 103.31729902 -71.8745136 97.58560576 -70 92 C-66.45926387 87.64320849 -60.78939236 85.59012167 -55.79638672 83.32324219 C-51.52962712 81.30422376 -47.44250344 78.97753546 -43.31835938 76.68457031 C-40.17101757 74.93531285 -37.01641881 73.20232969 -33.84765625 71.4921875 C-32.96086182 71.01120605 -32.07406738 70.53022461 -31.16040039 70.03466797 C-29 69 -29 69 -27 69 C-27.01776489 68.33458694 -27.03552979 67.66917389 -27.05383301 66.9835968 C-27.23083709 60.05720392 -27.35148304 53.13145305 -27.43945312 46.20336914 C-27.47968254 43.61814277 -27.53427474 41.03309838 -27.60351562 38.44848633 C-27.70058201 34.73212846 -27.74593407 31.01817538 -27.78125 27.30078125 C-27.82254028 26.14540359 -27.86383057 24.99002594 -27.90637207 23.79963684 C-27.91074989 15.96958152 -27.91074989 15.96958152 -25.33042908 13.22257996 C-23.27023214 11.91515047 -21.25128005 10.93321805 -19 10 C-18.16025635 9.50975342 -17.3205127 9.01950684 -16.45532227 8.5144043 C-15.74947998 8.12164307 -15.0436377 7.72888184 -14.31640625 7.32421875 C-13.14368164 6.67163086 -13.14368164 6.67163086 -11.94726562 6.00585938 C-10.76680664 5.35327148 -10.76680664 5.35327148 -9.5625 4.6875 C-8.34143555 4.0059082 -8.34143555 4.0059082 -7.09570312 3.31054688 C-6.32291016 2.88193359 -5.55011719 2.45332031 -4.75390625 2.01171875 C-4.05595947 1.62459717 -3.3580127 1.23747559 -2.63891602 0.83862305 C-1 0 -1 0 0 0 Z " fill="#F9FAFA" transform="translate(394,339)"/>
<path d="M0 0 C0 17.82 0 35.64 0 54 C-6.27 57.3 -12.54 60.6 -19 64 C-23.22311706 66.35473688 -27.43345143 68.7165964 -31.625 71.125 C-33.59527478 72.25448914 -35.56656803 73.38220424 -37.5390625 74.5078125 C-38.37646973 74.98879395 -39.21387695 75.46977539 -40.07666016 75.96533203 C-42 77 -42 77 -43 77 C-43 59.18 -43 41.36 -43 23 C-38.66875 20.69 -34.3375 18.38 -29.875 16 C-20.89730611 11.203641 -11.95640253 6.37293349 -3.17578125 1.22265625 C-1 0 -1 0 0 0 Z " fill="#2BD0B4" transform="translate(367,354)"/>
<path d="M0 0 C7.17817305 6.73252151 12.52146028 15.77210853 13.06640625 25.6640625 C13.32280506 39.06802238 10.53612985 49.69295532 1.13671875 59.77734375 C-8.12158241 68.41606453 -19.64650953 71.12596711 -32.0390625 70.7734375 C-42.21852222 70.105893 -51.09043114 64.5628968 -58.11328125 57.40234375 C-60.53258877 54.23115841 -62.39540196 50.99685026 -64.11328125 47.40234375 C-64.62181641 46.39300781 -64.62181641 46.39300781 -65.140625 45.36328125 C-69.00973949 36.12733054 -68.59503182 23.97940748 -64.92578125 14.77734375 C-64.03334662 12.96280907 -63.10020822 11.16726608 -62.11328125 9.40234375 C-61.58927734 8.40847656 -61.58927734 8.40847656 -61.0546875 7.39453125 C-56.3682409 -0.26171484 -47.61427366 -5.79196188 -39.09375 -8.14453125 C-38.44019531 -8.2940625 -37.78664063 -8.44359375 -37.11328125 -8.59765625 C-35.62828125 -8.93796875 -35.62828125 -8.93796875 -34.11328125 -9.28515625 C-21.47662066 -10.60147506 -10.28057641 -7.77219178 0 0 Z M-53.11328125 12.40234375 C-57.84980789 20.24360584 -58.97670833 27.26608047 -58.11328125 36.40234375 C-55.65657335 45.93069682 -50.88719169 52.76922164 -42.57421875 58 C-33.88970328 62.49242227 -25.63244016 62.78446605 -16.36328125 59.83984375 C-5.92619743 55.49981897 -1.42741221 48.61295128 2.88671875 38.40234375 C5.29571155 31.17536536 4.38854725 23.67996657 1.26953125 16.8203125 C-2.59574149 10.06154463 -7.82610869 4.41111855 -15.01171875 1.21875 C-29.46843825 -2.58660815 -43.71621607 0.23114496 -53.11328125 12.40234375 Z " fill="#1B2E49" transform="translate(601.11328125,353.59765625)"/>
<path d="M0 0 C3.4167387 0.68334774 5.69432191 1.1535525 8.72265625 2.49609375 C9.41544678 2.80208496 10.1082373 3.10807617 10.82202148 3.42333984 C11.56137939 3.7580127 12.3007373 4.09268555 13.0625 4.4375 C14.24017944 4.96657959 14.24017944 4.96657959 15.44165039 5.50634766 C28.58647027 11.4745398 41.40129999 18.10785177 54.13891602 24.89355469 C59.19028962 27.56796292 64.28303201 30.14986958 69.40625 32.68359375 C70.38756393 33.1698246 70.38756393 33.1698246 71.38870239 33.6658783 C74.6403809 35.2760766 77.89522917 36.87924445 81.15576172 38.47143555 C89.41654823 42.5358209 97.242517 47.03592631 105 52 C104.26367188 56.73876953 104.26367188 56.73876953 101.890625 59.08984375 C101.01921875 59.69957031 100.1478125 60.30929687 99.25 60.9375 C98.38890625 61.56527344 97.5278125 62.19304688 96.640625 62.83984375 C94 64 94 64 91.91235352 63.39013672 C87.76153424 61.40885036 83.77633815 59.15998561 79.76171875 56.91796875 C65.38734845 48.98873302 50.69027649 41.71274116 35.99627686 34.40032959 C33.0427173 32.92903939 30.09146384 31.45315498 27.14021778 29.97723103 C24.28349983 28.5490076 21.42574758 27.12286474 18.56763268 25.69743919 C17.21061206 25.02051428 15.85382916 24.34311261 14.49729347 23.66521645 C12.621345 22.72832353 10.7441061 21.7940708 8.86645508 20.8605957 C7.80252029 20.33053421 6.73858551 19.80047272 5.64241028 19.25434875 C2.98636113 17.92814617 2.98636113 17.92814617 0 17 C0 11.39 0 5.78 0 0 Z " fill="#F9FBF9" transform="translate(403,473)"/>
<path d="M0 0 C0 17.49 0 34.98 0 53 C-6.75010034 50.74996655 -6.75010034 50.74996655 -9.95410156 49.22827148 C-10.66794006 48.89129745 -11.38177856 48.55432343 -12.11724854 48.20713806 C-12.86746277 47.84874344 -13.617677 47.49034882 -14.390625 47.12109375 C-15.17644958 46.74896255 -15.96227417 46.37683136 -16.77191162 45.99342346 C-19.26614274 44.81131966 -21.75807783 43.62446216 -24.25 42.4375 C-25.93995731 41.63575808 -27.63006003 40.83432259 -29.3203125 40.03320312 C-41.25336579 34.3733171 -41.25336579 34.3733171 -44 33 C-42.44057429 28.74882674 -39.26476499 26.4501236 -35.8125 23.75 C-35.17481689 23.2449292 -34.53713379 22.7398584 -33.88012695 22.21948242 C-5.36928546 0 -5.36928546 0 0 0 Z " fill="#29D5B6" transform="translate(540,608)"/>
<path d="M0 0 C1.61337425 4.82147102 0.0636349 8.22548384 -1.8125 12.6875 C-3.95974117 18.03550679 -5.69629454 23.02647231 -6.3828125 28.7890625 C-7.50336856 32.80320638 -9.27579893 35.94484562 -12.90136719 38.16357422 C-15.17704369 39.24026576 -17.47094057 40.20055006 -19.8125 41.125 C-21.38301719 41.76977952 -22.95205346 42.41817888 -24.51953125 43.0703125 C-25.27621094 43.38299072 -26.03289063 43.69566895 -26.8125 44.01782227 C-28.92603343 44.96678934 -30.87481877 46.0368831 -32.86328125 47.22265625 C-36.27707911 49.15699999 -38.14381499 49.45906964 -42 49 C-42.33 48.67 -42.66 48.34 -43 48 C-42.62429782 37.48033894 -39.07833742 19.69389347 -31.9375 11.6875 C-28.63759782 9.79181151 -25.54835114 8.96685105 -21.890625 7.9921875 C-17.2918119 6.41367598 -13.24496357 3.90433178 -9.078125 1.42578125 C-5.75890478 -0.11167482 -3.61084558 -0.28648925 0 0 Z " fill="#21314B" transform="translate(680,627)"/>
<path d="M0 0 C4.29784091 2.1952334 6.87028928 4.95022923 8.8125 9.30078125 C9.59082597 15.73965971 9.74721386 21.87358972 5.8125 27.30078125 C1.45664163 31.42738392 -2.53719902 33.35985306 -8.5 33.73828125 C-13.72488518 33.59024284 -17.37503266 31.84646194 -21.1875 28.30078125 C-24.66131342 23.79950189 -25.86754815 19.11273205 -25.56640625 13.46875 C-24.67366212 8.36078101 -22.05105899 4.7356298 -18.1875 1.36328125 C-12.8439866 -2.11460894 -5.93168904 -1.89602203 0 0 Z " fill="#1D2E49" transform="translate(581.1875,509.69921875)"/>
<path d="M0 0 C3.80484394 0.71340824 5.4511805 1.6388541 8 4.5625 C8.625 8 8.625 8 8 11.5625 C5.55401113 14.94371991 4.10703441 16.33186783 0 17.1875 C-4.0743356 16.33868008 -5.54405875 14.88524404 -8 11.5625 C-8.625 8.5625 -8.625 8.5625 -8 5.5625 C-5.53959272 2.23371368 -4.10389613 0.76948052 0 0 Z " fill="#25D1B4" transform="translate(573,517.4375)"/>
<path d="M0 0 C5.80338832 0.0726938 11.58213159 3.08880152 16.1875 6.4375 C17.1015625 9.01953125 17.1015625 9.01953125 17.1875 11.4375 C16.8575 12.0975 16.5275 12.7575 16.1875 13.4375 C8.86547581 14.43595784 3.4278498 10.99075911 -2.8125 7.4375 C-3.8125 6.4375 -3.8125 6.4375 -3.9375 3.9375 C-3.76019925 0.391485 -3.53935277 0.55056599 0 0 Z " fill="#21334E" transform="translate(406.8125,437.5625)"/>
<path d="M0 0 C0.33 1.98 0.66 3.96 1 6 C-0.55164853 7.18106063 -2.11683106 8.34435453 -3.6875 9.5 C-4.55761719 10.1496875 -5.42773438 10.799375 -6.32421875 11.46875 C-9.23920869 13.13689023 -10.70536179 13.58371784 -14 13 C-16 10 -16 10 -15.88671875 7.5234375 C-14.49140204 3.55262432 -11.82358851 2.25814168 -8.3671875 0.09375 C-5.24071224 -1.35082603 -3.21116964 -1.15272756 0 0 Z " fill="#233651" transform="translate(466,594)"/>
<path d="M0 0 C0.66 0.66 1.32 1.32 2 2 C1.88906917 5.38339027 1.33238001 6.67623725 -1.109375 9.0546875 C-1.98078125 9.65539062 -2.8521875 10.25609375 -3.75 10.875 C-4.61109375 11.49117187 -5.4721875 12.10734375 -6.359375 12.7421875 C-9.46549001 14.22172749 -10.78909677 14.08901263 -14 13 C-15 12 -15 12 -15.625 9.3125 C-14.87360295 5.33009565 -14.09105394 4.8967428 -10.875 2.625 C-7.13655553 0.37604601 -4.4356312 -0.86548901 0 0 Z " fill="#23344E" transform="translate(548,540)"/>
<path d="M0 0 C2 2 2 2 2.375 4.4375 C2 7 2 7 0.375 8.625 C-8.30753564 13.65173116 -8.30753564 13.65173116 -13 13 C-15 11 -15 11 -15.625 8.6875 C-14.84477947 5.33255171 -13.97470854 5.03106784 -11.125 3.25 C-7.1747954 1.01296657 -4.63320619 -0.34749046 0 0 Z " fill="#22344E" transform="translate(609,505)"/>
<path d="M0 0 C2 2 2 2 2.1875 4.8125 C0.59121342 9.09726925 -1.65928365 10.02626208 -5.578125 12.1171875 C-8.26311479 13.09590958 -10.16481391 13.31396356 -13 13 C-15 11 -15 11 -15.41796875 8.58203125 C-15 6 -15 6 -12.98828125 4.19921875 C-12.10527344 3.70035156 -11.22226562 3.20148438 -10.3125 2.6875 C-9.44238281 2.17574219 -8.57226562 1.66398437 -7.67578125 1.13671875 C-4.82899448 -0.07264614 -3.05547144 -0.39039243 0 0 Z " fill="#21344E" transform="translate(382,445)"/>
<path d="M0 0 C2 2 2 2 2.4140625 4.4140625 C2 7 2 7 0.0234375 8.8359375 C-7.16727178 13.01460927 -7.16727178 13.01460927 -11.5625 12.9375 C-14 12 -14 12 -15 11 C-15.5625 8.75 -15.5625 8.75 -15 6 C-10.5366524 2.33985162 -5.83539294 -0.43765447 0 0 Z " fill="#22344F" transform="translate(668,476)"/>
<path d="M0 0 C5.13299169 0.54031491 9.09154917 2.90095606 13.5625 5.375 C13.60504356 7.37454746 13.60330783 9.37541636 13.5625 11.375 C12.5625 12.375 12.5625 12.375 9.5 12.6875 C4.8491076 12.31838156 1.18228711 11.4223147 -2.4375 8.375 C-3.5 4.6875 -3.5 4.6875 -3.4375 1.375 C-2.4375 0.375 -2.4375 0.375 0 0 Z " fill="#20324C" transform="translate(440.4375,452.625)"/>
<path d="M0 0 C1 1 1 1 1.625 3.6875 C0.87360295 7.66990435 0.09105394 8.1032572 -3.125 10.375 C-6.86662474 12.63531904 -9.55202858 13.778395 -14 13 C-15 12 -15 12 -15.625 9.3125 C-14.87360295 5.33009565 -14.09105394 4.8967428 -10.875 2.625 C-7.13337526 0.36468096 -4.44797142 -0.778395 0 0 Z " fill="#223450" transform="translate(521,558)"/>
<path d="M0 0 C2.45703125 1.19140625 2.45703125 1.19140625 4.8125 2.5625 C5.60269531 3.01753906 6.39289063 3.47257812 7.20703125 3.94140625 C8.09455078 4.46541016 8.09455078 4.46541016 9 5 C9.125 7.375 9.125 7.375 9 10 C8.34 10.66 7.68 11.32 7 12 C0.83294241 11.87665885 -3.1191681 9.43559856 -8 6 C-7.625 3.0625 -7.625 3.0625 -7 0 C-4.25930239 -1.37034881 -2.92891452 -0.79102071 0 0 Z " fill="#22334C" transform="translate(505,482)"/>
<path d="M0 0 C1 1 1 1 1.35546875 3.3203125 C1 6 1 6 -1.01171875 8.0546875 C-1.89472656 8.65539062 -2.77773438 9.25609375 -3.6875 9.875 C-4.55761719 10.49117187 -5.42773438 11.10734375 -6.32421875 11.7421875 C-9.45055686 13.21179461 -10.77619029 13.09530487 -14 12 C-15 11 -15 11 -15.3046875 8.640625 C-15 6 -15 6 -13.3203125 4.234375 C-12.59585937 3.74453125 -11.87140625 3.2546875 -11.125 2.75 C-10.04605469 1.99976563 -10.04605469 1.99976563 -8.9453125 1.234375 C-5.43825401 -0.99098742 -4.03985767 -1.03586094 0 0 Z " fill="#1E304C" transform="translate(494,576)"/>
<path d="M0 0 C0.66 0.66 1.32 1.32 2 2 C1.9375 4.4375 1.9375 4.4375 1 7 C-1.375 8.6875 -1.375 8.6875 -4 10 C-4.99 10.66 -5.98 11.32 -7 12 C-10.625 12.1875 -10.625 12.1875 -14 12 C-15 11 -15 11 -15.375 8.6875 C-15 6 -15 6 -12.8125 3.8125 C-8.56161645 1.07304171 -5.13362825 -0.55498684 0 0 Z " fill="#1F314B" transform="translate(639,491)"/>
<path d="M0 0 C1 1 1 1 1.375 3.3125 C1 6 1 6 -1.1875 8.125 C-2.115625 8.74375 -3.04375 9.3625 -4 10 C-4.825 10.598125 -5.65 11.19625 -6.5 11.8125 C-9.51488313 13.24456948 -10.87897001 13.04034333 -14 12 C-15 11 -15 11 -15.0625 7.9375 C-15.041875 6.968125 -15.02125 5.99875 -15 5 C-5.61151079 -0.84172662 -5.61151079 -0.84172662 0 0 Z " fill="#1B2E4D" transform="translate(353,462)"/>
<path d="M0 0 C5.85787712 0.33795445 10.79079444 1.79079444 15 6 C14.44444444 10.55555556 14.44444444 10.55555556 13 12 C7.74941421 11.64402808 3.40221863 11.1137644 -1 8 C-2 4.9375 -2 4.9375 -2 2 C-1.34 1.34 -0.68 0.68 0 0 Z " fill="#1F314A" transform="translate(530,496)"/>
<path d="M0 0 C4.89496223 0.52446024 8.37202415 2.80648169 12.5 5.375 C12.54254356 7.37454746 12.54080783 9.37541636 12.5 11.375 C11.5 12.375 11.5 12.375 9 12.75 C4.10503777 12.22553976 0.62797585 9.94351831 -3.5 7.375 C-3.54254356 5.37545254 -3.54080783 3.37458364 -3.5 1.375 C-2.5 0.375 -2.5 0.375 0 0 Z " fill="#1F324E" transform="translate(470.5,466.625)"/>
<path d="M0 0 C4.55740433 1.32924293 4.55740433 1.32924293 6 3.875 C5.875 7.4375 5.875 7.4375 5 10.875 C2 12.875 2 12.875 -1.0625 12.6875 C-4 11.875 -4 11.875 -6 8.875 C-6.32787294 5.72741978 -6.48302295 3.70687287 -4.875 0.9375 C-3 -0.125 -3 -0.125 0 0 Z " fill="#F1F2F3" transform="translate(659,645.125)"/>
<path d="M0 0 C0.66 0 1.32 0 2 0 C2 26.4 2 52.8 2 80 C1.67 80 1.34 80 1 80 C1 54.59 1 29.18 1 3 C0.01 2.67 -0.98 2.34 -2 2 C-1.34 1.34 -0.68 0.68 0 0 Z " fill="#ECEFEF" transform="translate(691,352)"/>
<path d="M0 0 C3.625 0.375 3.625 0.375 7 1 C7.6875 3.3125 7.6875 3.3125 8 6 C6.875 7.8125 6.875 7.8125 5 9 C2.4375 9.3125 2.4375 9.3125 0 9 C-2 7 -2 7 -2.25 4.5 C-2 2 -2 2 0 0 Z " fill="#2A3B54" transform="translate(688,647)"/>
<path d="M0 0 C3.29714793 0.32971479 4.6226839 0.6226839 7 3 C6.43181818 8.56818182 6.43181818 8.56818182 5 10 C2.5625 10.1875 2.5625 10.1875 0 10 C-2 8 -2 8 -2.25 5 C-2 2 -2 2 0 0 Z " fill="#22354E" transform="translate(657,614)"/>
<path d="M0 0 C1.2375 0.1546875 1.2375 0.1546875 2.5 0.3125 C4.5 3.3125 4.5 3.3125 4.1875 5.9375 C3.5 8.3125 3.5 8.3125 2.5 9.3125 C-0.5 9.4375 -0.5 9.4375 -3.5 9.3125 C-4.5 8.3125 -4.5 8.3125 -4.6875 5.375 C-4.45331344 1.54995285 -3.86571441 0.4832143 0 0 Z " fill="#20304D" transform="translate(659.5,678.6875)"/>
<path d="M0 0 C3.5 0.125 3.5 0.125 4.5 1.125 C4.6875 3.5625 4.6875 3.5625 4.5 6.125 C3.84 6.785 3.18 7.445 2.5 8.125 C-1.125 7.75 -1.125 7.75 -4.5 7.125 C-4.54254356 5.12545254 -4.54080783 3.12458364 -4.5 1.125 C-3.5 0.125 -3.5 0.125 0 0 Z " fill="#1C2E4B" transform="translate(627.5,647.875)"/>
<path d="M0 0 C0.99 0.33 1.98 0.66 3 1 C3.3721042 2.32303717 3.70630173 3.65737935 4 5 C4.66 5.33 5.32 5.66 6 6 C6 6.66 6 7.32 6 8 C1.125 7.125 1.125 7.125 0 6 C-0.04080783 4.00041636 -0.04254356 1.99954746 0 0 Z " fill="#223551" transform="translate(338,467)"/>
<path d="M0 0 C0.99 0.33 1.98 0.66 3 1 C1.90716423 2.03295436 0.80029421 3.05107835 -0.3125 4.0625 C-0.92738281 4.63097656 -1.54226562 5.19945312 -2.17578125 5.78515625 C-2.77777344 6.18605469 -3.37976563 6.58695312 -4 7 C-4.99 6.67 -5.98 6.34 -7 6 C-5.90716423 4.96704564 -4.80029421 3.94892165 -3.6875 2.9375 C-3.07261719 2.36902344 -2.45773438 1.80054688 -1.82421875 1.21484375 C-0.92123047 0.61349609 -0.92123047 0.61349609 0 0 Z " fill="#22344D" transform="translate(250,256)"/>
<path d="M0 0 C0 3 0 3 -1.53125 4.82421875 C-2.1809375 5.43910156 -2.830625 6.05398438 -3.5 6.6875 C-4.1496875 7.31011719 -4.799375 7.93273437 -5.46875 8.57421875 C-5.9740625 9.04472656 -6.479375 9.51523437 -7 10 C-7.66 9.34 -8.32 8.68 -9 8 C-6.03 5.36 -3.06 2.72 0 0 Z " fill="#293E59" transform="translate(627,608)"/>
<path d="M0 0 C1.25 1.5625 1.25 1.5625 2 4 C0.93237266 6.57001015 -0.46544943 8.6530403 -2 11 C-2.66 11 -3.32 11 -4 11 C-3.52269162 9.5410574 -3.04308958 8.08286504 -2.5625 6.625 C-2.29566406 5.81289063 -2.02882812 5.00078125 -1.75390625 4.1640625 C-1 2 -1 2 0 0 Z " fill="#324358" transform="translate(230,281)"/>
<path d="M0 0 C0.99 0 1.98 0 3 0 C2.79375 0.598125 2.5875 1.19625 2.375 1.8125 C1.69328085 4.28450846 1.69328085 4.28450846 4 7 C2.35 6.67 0.7 6.34 -1 6 C-1.042721 4.33388095 -1.04063832 2.66617115 -1 1 C-0.67 0.67 -0.34 0.34 0 0 Z " fill="#142740" transform="translate(687,648)"/>
<path d="M0 0 C2.17944188 3.26916282 2.23305854 3.86280386 1.8125 7.5625 C1.73644531 8.34753906 1.66039062 9.13257813 1.58203125 9.94140625 C1 12 1 12 -2 14 C-1.03644647 4.58997722 -1.03644647 4.58997722 0 0 Z " fill="#2B3B50" transform="translate(225,293)"/>
<path d="M0 0 C0 0.99 0 1.98 0 3 C-2.8125 5.75 -2.8125 5.75 -6 8 C-6.99 7.67 -7.98 7.34 -9 7 C-7.06604999 4.09907498 -6.28812528 3.37695617 -3.375 1.8125 C-2.26125 1.214375 -1.1475 0.61625 0 0 Z " fill="#223351" transform="translate(777,743)"/>
<path d="M0 0 C0.66 0.66 1.32 1.32 2 2 C1.64700993 5.44165321 0.95418308 7.06872538 -1 10 C-1.66 10 -2.32 10 -3 10 C-2.01 6.7 -1.02 3.4 0 0 Z " fill="#29384F" transform="translate(781,726)"/>
<path d="M0 0 C0 1.98 0 3.96 0 6 C-4.875 3.25 -4.875 3.25 -6 1 C-3.82510133 -0.08744934 -2.41588781 0 0 0 Z " fill="#182640" transform="translate(702,599)"/>
<path d="M0 0 C-1.37154504 2.95409701 -2.98863724 5.44008376 -5 8 C-5.36625971 3.48279689 -5.36625971 3.48279689 -3.625 1.1875 C-2 0 -2 0 0 0 Z " fill="#2A3C54" transform="translate(629,494)"/>
<path d="M0 0 C0.66 0 1.32 0 2 0 C2 1.65 2 3.3 2 5 C0.35 5.33 -1.3 5.66 -3 6 C-2.01 4.02 -1.02 2.04 0 0 Z " fill="#1A2C47" transform="translate(512,487)"/>
</svg>
