<?xml version="1.0" encoding="UTF-8"?>
<svg version="1.1" xmlns="http://www.w3.org/2000/svg" width="1024" height="1024">
<path d="M0 0 C337.92 0 675.84 0 1024 0 C1024 337.92 1024 675.84 1024 1024 C686.08 1024 348.16 1024 0 1024 C0 686.08 0 348.16 0 0 Z " fill="#FDFDFD" transform="translate(0,0)"/>
<path d="M0 0 C1.57834386 -0.00274618 3.15668589 -0.00680302 4.73502344 -0.01204365 C9.03795877 -0.02255753 13.34068415 -0.01454929 17.64361012 -0.00329316 C22.29737851 0.00559338 26.95112073 -0.00290744 31.60488892 -0.00915527 C40.70783224 -0.01861923 49.81069601 -0.01206462 58.91363341 0.00010767 C69.52308709 0.01376331 80.13252205 0.01208668 90.74198227 0.00997434 C109.67626598 0.00678799 128.61051201 0.01843206 147.54478455 0.03804016 C165.90189257 0.05704546 184.25895645 0.06412655 202.61607361 0.05854797 C222.62549176 0.05248523 242.63489053 0.05267613 262.64430708 0.06403381 C264.77933498 0.06524105 266.91436289 0.06644703 269.04939079 0.06765175 C270.6249409 0.06855706 270.6249409 0.06855706 272.2323203 0.06948065 C279.62121201 0.07335391 287.01009649 0.07296849 294.39898872 0.0710659 C303.4072619 0.06894013 312.41549649 0.07419703 321.42375881 0.08867946 C326.01663224 0.09590488 330.60944958 0.10001631 335.20232773 0.0954361 C339.4121934 0.09134006 343.62194359 0.09658057 347.83179181 0.10906217 C349.34910063 0.11197404 350.86642046 0.11158084 352.38372637 0.1074191 C364.08341824 0.07825902 375.3880569 0.55886211 386.14024353 5.5617218 C386.81692078 5.86779358 387.49359802 6.17386536 388.19078064 6.48921204 C393.93973571 9.17205773 399.04555981 12.42443586 404.01524353 16.3742218 C404.62368103 16.82023743 405.23211853 17.26625305 405.85899353 17.7257843 C418.75955369 27.75303788 426.11375794 43.63426751 429.01524353 59.3742218 C429.42464062 64.64061603 429.42176835 69.8853158 429.39619446 75.16279602 C429.39965737 76.73202781 429.40442616 78.30125716 429.41037619 79.87048149 C429.42282893 84.15286715 429.41674209 88.43505067 429.40741754 92.71743679 C429.40060377 97.34736903 429.41111977 101.97726755 429.4193573 106.60719299 C429.43267206 115.66548406 429.42982696 124.72370039 429.42111938 133.78199434 C429.41433435 141.1462188 429.41342965 148.51042236 429.41669083 155.87464905 C429.41715053 156.92419577 429.41761022 157.97374248 429.41808385 159.05509365 C429.41904306 161.18746647 429.42001571 163.31983928 429.42100163 165.4522121 C429.42954891 185.43064649 429.41973177 205.40903953 429.40360053 225.38746715 C429.39019796 242.51653627 429.39252623 259.6455444 429.40635681 276.77461243 C429.42242431 296.68331214 429.428725 316.59197564 429.41952002 336.50068092 C429.41856441 338.62505213 429.4176213 340.74942334 429.41669083 342.87379456 C429.416228 343.91892806 429.41576517 344.96406156 429.41528832 346.04086578 C429.41270195 353.39318391 429.41706183 360.74547901 429.42412949 368.09779358 C429.43255768 377.06218641 429.43023661 386.02650046 429.41428725 394.9908843 C429.40642231 399.56149981 429.40328257 404.13198414 429.41323471 408.70259857 C429.42221901 412.8921967 429.41718768 417.08154291 429.40130205 421.2711184 C429.39797 422.78105493 429.39961256 424.29101304 429.40692942 425.80093551 C429.50031561 446.68561355 423.29162574 463.97260179 408.70274353 479.1867218 C403.57125589 484.10587202 398.24775523 487.97305113 392.01524353 491.3742218 C390.72360291 492.08191711 390.72360291 492.08191711 389.40586853 492.8039093 C376.91485789 499.04941462 363.56743454 499.82217802 349.8548584 499.76190186 C348.28176287 499.7660856 346.70867036 499.77156877 345.13558334 499.77822167 C340.85630239 499.79255841 336.57721595 499.78846884 332.29792488 499.78105485 C327.66591943 499.7762961 323.03395446 499.78885675 318.40196228 499.79907227 C309.34475021 499.81621227 300.28760765 499.81711035 291.23038358 499.81185936 C283.86483413 499.80780782 276.49930512 499.80927288 269.13375664 499.81460762 C268.08299592 499.81535604 267.0322352 499.81610446 265.94963325 499.81687557 C263.81461096 499.81840714 261.67958867 499.81994548 259.54456639 499.82149053 C239.55217031 499.83519796 219.55981344 499.82979003 199.56741827 499.81830532 C181.30150494 499.80837261 163.0356929 499.82131742 144.76979519 499.84523951 C125.98390637 499.86965604 107.19806469 499.87923224 88.41216034 499.87258679 C77.87744095 499.86910053 67.34279945 499.87128752 56.80809212 499.88883781 C47.84130871 499.90359166 38.87465805 499.9041536 29.90787715 499.8867669 C25.33873138 499.87828113 20.76982245 499.87604781 16.20068932 499.89141846 C12.0078548 499.90534796 7.81545819 499.90039757 3.62264847 499.88117922 C2.11609388 499.87744408 0.60950351 499.88026836 -0.89701896 499.89079087 C-22.15040084 500.02853473 -41.05739172 493.76936629 -56.53016663 478.86103821 C-68.53082623 466.59450297 -76.09744576 449.95604611 -76.11618423 432.73485374 C-76.11823687 432.08994384 -76.1202895 431.44503393 -76.12240434 430.7805813 C-76.12805213 428.62275969 -76.12661985 426.46500235 -76.12519836 424.30717468 C-76.12778328 422.74312378 -76.13079679 421.17907354 -76.13420177 419.61502421 C-76.14226024 415.3191463 -76.14406069 411.02328511 -76.14479923 406.72740054 C-76.1466518 402.09328181 -76.15420017 397.45917171 -76.16093445 392.82505798 C-76.17451019 382.69270048 -76.18054133 372.56034694 -76.18494511 362.42798185 C-76.18770886 356.09967306 -76.19194646 349.77136578 -76.19644928 343.44305801 C-76.20864104 325.91725193 -76.21894048 308.39144706 -76.22232437 290.86563683 C-76.22254394 289.74417402 -76.2227635 288.62271122 -76.22298972 287.46726469 C-76.223208 286.34313857 -76.22342628 285.21901244 -76.22365117 284.06082189 C-76.22409463 281.78296431 -76.2245412 279.50510673 -76.22499084 277.22724915 C-76.22521227 276.09735627 -76.2254337 274.96746339 -76.22566184 273.80333133 C-76.22960913 255.49859824 -76.24706145 237.19390497 -76.27035037 218.88918726 C-76.294075 200.09005148 -76.30652673 181.29093568 -76.30769229 162.49178469 C-76.30860843 151.93918159 -76.31434547 141.38663039 -76.3325119 130.8340416 C-76.34792789 121.84755482 -76.3530245 112.86113597 -76.3447738 103.87463848 C-76.3408726 99.29190595 -76.341771 94.70931016 -76.35583115 90.12659454 C-76.36860174 85.92566624 -76.36734495 81.724977 -76.35524043 77.52404888 C-76.3532889 76.00989055 -76.3563366 74.4957151 -76.3650848 72.98158078 C-76.43033689 60.91727783 -74.93671874 50.04006232 -69.29725647 39.2492218 C-68.94695374 38.57036926 -68.596651 37.89151672 -68.23573303 37.1920929 C-61.10407853 23.77475007 -50.50736694 13.8649109 -37.04725647 6.9367218 C-36.13653381 6.45984924 -36.13653381 6.45984924 -35.20741272 5.9733429 C-24.03149557 0.56291842 -12.19180966 -0.06464465 0 0 Z " fill="#FCFCFC" transform="translate(338.98475646972656,252.6257781982422)"/>
<path d="M0 0 C1.57834386 -0.00274618 3.15668589 -0.00680302 4.73502344 -0.01204365 C9.03795877 -0.02255753 13.34068415 -0.01454929 17.64361012 -0.00329316 C22.29737851 0.00559338 26.95112073 -0.00290744 31.60488892 -0.00915527 C40.70783224 -0.01861923 49.81069601 -0.01206462 58.91363341 0.00010767 C69.52308709 0.01376331 80.13252205 0.01208668 90.74198227 0.00997434 C109.67626598 0.00678799 128.61051201 0.01843206 147.54478455 0.03804016 C165.90189257 0.05704546 184.25895645 0.06412655 202.61607361 0.05854797 C222.62549176 0.05248523 242.63489053 0.05267613 262.64430708 0.06403381 C264.77933498 0.06524105 266.91436289 0.06644703 269.04939079 0.06765175 C270.6249409 0.06855706 270.6249409 0.06855706 272.2323203 0.06948065 C279.62121201 0.07335391 287.01009649 0.07296849 294.39898872 0.0710659 C303.4072619 0.06894013 312.41549649 0.07419703 321.42375881 0.08867946 C326.01663224 0.09590488 330.60944958 0.10001631 335.20232773 0.0954361 C339.4121934 0.09134006 343.62194359 0.09658057 347.83179181 0.10906217 C349.34910063 0.11197404 350.86642046 0.11158084 352.38372637 0.1074191 C364.08341824 0.07825902 375.3880569 0.55886211 386.14024353 5.5617218 C386.81692078 5.86779358 387.49359802 6.17386536 388.19078064 6.48921204 C393.93973571 9.17205773 399.04555981 12.42443586 404.01524353 16.3742218 C404.62368103 16.82023743 405.23211853 17.26625305 405.85899353 17.7257843 C418.75955369 27.75303788 426.11375794 43.63426751 429.01524353 59.3742218 C429.42464062 64.64061603 429.42176835 69.8853158 429.39619446 75.16279602 C429.39965737 76.73202781 429.40442616 78.30125716 429.41037619 79.87048149 C429.42282893 84.15286715 429.41674209 88.43505067 429.40741754 92.71743679 C429.40060377 97.34736903 429.41111977 101.97726755 429.4193573 106.60719299 C429.43267206 115.66548406 429.42982696 124.72370039 429.42111938 133.78199434 C429.41433435 141.1462188 429.41342965 148.51042236 429.41669083 155.87464905 C429.41715053 156.92419577 429.41761022 157.97374248 429.41808385 159.05509365 C429.41904306 161.18746647 429.42001571 163.31983928 429.42100163 165.4522121 C429.42954891 185.43064649 429.41973177 205.40903953 429.40360053 225.38746715 C429.39019796 242.51653627 429.39252623 259.6455444 429.40635681 276.77461243 C429.42242431 296.68331214 429.428725 316.59197564 429.41952002 336.50068092 C429.41856441 338.62505213 429.4176213 340.74942334 429.41669083 342.87379456 C429.416228 343.91892806 429.41576517 344.96406156 429.41528832 346.04086578 C429.41270195 353.39318391 429.41706183 360.74547901 429.42412949 368.09779358 C429.43255768 377.06218641 429.43023661 386.02650046 429.41428725 394.9908843 C429.40642231 399.56149981 429.40328257 404.13198414 429.41323471 408.70259857 C429.42221901 412.8921967 429.41718768 417.08154291 429.40130205 421.2711184 C429.39797 422.78105493 429.39961256 424.29101304 429.40692942 425.80093551 C429.50031561 446.68561355 423.29162574 463.97260179 408.70274353 479.1867218 C403.57125589 484.10587202 398.24775523 487.97305113 392.01524353 491.3742218 C390.72360291 492.08191711 390.72360291 492.08191711 389.40586853 492.8039093 C376.91485789 499.04941462 363.56743454 499.82217802 349.8548584 499.76190186 C348.28176287 499.7660856 346.70867036 499.77156877 345.13558334 499.77822167 C340.85630239 499.79255841 336.57721595 499.78846884 332.29792488 499.78105485 C327.66591943 499.7762961 323.03395446 499.78885675 318.40196228 499.79907227 C309.34475021 499.81621227 300.28760765 499.81711035 291.23038358 499.81185936 C283.86483413 499.80780782 276.49930512 499.80927288 269.13375664 499.81460762 C268.08299592 499.81535604 267.0322352 499.81610446 265.94963325 499.81687557 C263.81461096 499.81840714 261.67958867 499.81994548 259.54456639 499.82149053 C239.55217031 499.83519796 219.55981344 499.82979003 199.56741827 499.81830532 C181.30150494 499.80837261 163.0356929 499.82131742 144.76979519 499.84523951 C125.98390637 499.86965604 107.19806469 499.87923224 88.41216034 499.87258679 C77.87744095 499.86910053 67.34279945 499.87128752 56.80809212 499.88883781 C47.84130871 499.90359166 38.87465805 499.9041536 29.90787715 499.8867669 C25.33873138 499.87828113 20.76982245 499.87604781 16.20068932 499.89141846 C12.0078548 499.90534796 7.81545819 499.90039757 3.62264847 499.88117922 C2.11609388 499.87744408 0.60950351 499.88026836 -0.89701896 499.89079087 C-22.15040084 500.02853473 -41.05739172 493.76936629 -56.53016663 478.86103821 C-68.53082623 466.59450297 -76.09744576 449.95604611 -76.11618423 432.73485374 C-76.11823687 432.08994384 -76.1202895 431.44503393 -76.12240434 430.7805813 C-76.12805213 428.62275969 -76.12661985 426.46500235 -76.12519836 424.30717468 C-76.12778328 422.74312378 -76.13079679 421.17907354 -76.13420177 419.61502421 C-76.14226024 415.3191463 -76.14406069 411.02328511 -76.14479923 406.72740054 C-76.1466518 402.09328181 -76.15420017 397.45917171 -76.16093445 392.82505798 C-76.17451019 382.69270048 -76.18054133 372.56034694 -76.18494511 362.42798185 C-76.18770886 356.09967306 -76.19194646 349.77136578 -76.19644928 343.44305801 C-76.20864104 325.91725193 -76.21894048 308.39144706 -76.22232437 290.86563683 C-76.22254394 289.74417402 -76.2227635 288.62271122 -76.22298972 287.46726469 C-76.223208 286.34313857 -76.22342628 285.21901244 -76.22365117 284.06082189 C-76.22409463 281.78296431 -76.2245412 279.50510673 -76.22499084 277.22724915 C-76.22521227 276.09735627 -76.2254337 274.96746339 -76.22566184 273.80333133 C-76.22960913 255.49859824 -76.24706145 237.19390497 -76.27035037 218.88918726 C-76.294075 200.09005148 -76.30652673 181.29093568 -76.30769229 162.49178469 C-76.30860843 151.93918159 -76.31434547 141.38663039 -76.3325119 130.8340416 C-76.34792789 121.84755482 -76.3530245 112.86113597 -76.3447738 103.87463848 C-76.3408726 99.29190595 -76.341771 94.70931016 -76.35583115 90.12659454 C-76.36860174 85.92566624 -76.36734495 81.724977 -76.35524043 77.52404888 C-76.3532889 76.00989055 -76.3563366 74.4957151 -76.3650848 72.98158078 C-76.43033689 60.91727783 -74.93671874 50.04006232 -69.29725647 39.2492218 C-68.94695374 38.57036926 -68.596651 37.89151672 -68.23573303 37.1920929 C-61.10407853 23.77475007 -50.50736694 13.8649109 -37.04725647 6.9367218 C-36.13653381 6.45984924 -36.13653381 6.45984924 -35.20741272 5.9733429 C-24.03149557 0.56291842 -12.19180966 -0.06464465 0 0 Z M-51.76600647 33.37812805 C-61.92401756 46.20520838 -64.44273365 59.94771915 -64.37243652 75.91519165 C-64.37661584 77.4697612 -64.38209663 79.02432769 -64.38875633 80.5788886 C-64.40315141 84.82546198 -64.39898489 89.07184031 -64.39158952 93.31842411 C-64.38684535 97.90819845 -64.39937878 102.49793135 -64.40960693 107.08769226 C-64.42677625 116.06991747 -64.42763876 125.05207267 -64.42239403 134.03431002 C-64.41834735 141.3379968 -64.4198018 148.64166294 -64.42514229 155.94534874 C-64.42589071 156.98612742 -64.42663913 158.0269061 -64.42741023 159.09922352 C-64.42894176 161.21379541 -64.43048011 163.3283673 -64.4320252 165.44293918 C-64.44574367 185.25976046 -64.44031731 205.07654223 -64.42883999 224.8933626 C-64.41890994 243.00568508 -64.43184552 261.11790536 -64.45577418 279.23021207 C-64.48018251 297.84646283 -64.48976868 316.46266603 -64.48312145 335.07893246 C-64.47963288 345.52310386 -64.48183732 355.9671967 -64.49937248 366.41135597 C-64.5141162 375.30290245 -64.51470162 384.19431506 -64.49730157 393.08585898 C-64.48880678 397.61827505 -64.48660465 402.15045219 -64.50195312 406.68285561 C-64.51585588 410.83997184 -64.51096594 414.99664572 -64.49171389 419.15373673 C-64.48797059 420.64960818 -64.49082716 422.14551554 -64.50132554 423.64135484 C-64.61415556 440.96306693 -60.4312725 456.30512436 -48.29725647 469.05781555 C-47.53413147 469.82222961 -46.77100647 470.58664368 -45.98475647 471.3742218 C-45.34538147 472.02519836 -44.70600647 472.67617493 -44.04725647 473.34687805 C-31.2329002 485.49381993 -15.13558379 487.83725859 1.80381775 487.75517273 C3.37304954 487.75863564 4.94227889 487.76340443 6.51150322 487.76935446 C10.79388888 487.7818072 15.0760724 487.77572036 19.35845852 487.76639581 C23.98839075 487.75958204 28.61828928 487.77009804 33.24821472 487.77833557 C42.30650579 487.79165033 51.36472212 487.78880524 60.42301607 487.78009765 C67.78724053 487.77331262 75.15144409 487.77240793 82.51567078 487.7756691 C83.56521749 487.7761288 84.61476421 487.7765885 85.69611537 487.77706213 C87.8284882 487.77802134 89.96086101 487.77899398 92.09323382 487.7799799 C112.07166822 487.78852718 132.05006126 487.77871004 152.02848887 487.7625788 C169.157558 487.74917623 186.28656613 487.75150451 203.41563416 487.76533508 C223.32433386 487.78140258 243.23299736 487.78770327 263.14170265 487.77849829 C265.26607386 487.77754268 267.39044507 487.77659957 269.51481628 487.7756691 C270.55994979 487.77520627 271.60508329 487.77474344 272.68188751 487.77426659 C280.03420564 487.77168022 287.38650074 487.7760401 294.73881531 487.78310776 C303.70320813 487.79153595 312.66752219 487.78921489 321.63190603 487.77326553 C326.20252154 487.76540058 330.77300587 487.76226084 335.3436203 487.77221298 C339.53321843 487.78119728 343.72256463 487.77616595 347.91214013 487.76028033 C349.42207665 487.75694827 350.93203476 487.75859083 352.44195724 487.76590769 C370.55067378 487.84688112 386.54824874 483.5456051 399.83164978 470.69844055 C413.27687311 456.38733522 417.64969046 440.81352526 417.5231781 421.42106628 C417.52779792 419.8583554 417.53415804 418.29564888 417.54208708 416.73295128 C417.55865494 412.47783401 417.55059184 408.22307946 417.5381422 403.96796155 C417.52904232 399.36395747 417.54308568 394.76001309 417.55406189 390.15602112 C417.57179842 381.15279649 417.56802913 372.14970565 417.55641133 363.1464759 C417.54735919 355.8271075 417.54616069 348.50777647 417.55050659 341.18840408 C417.55142599 339.62281656 417.55142599 339.62281656 417.55236396 338.02560101 C417.55364292 335.90498525 417.55493978 333.7843695 417.55625433 331.66375376 C417.56764558 311.80452111 417.55456869 291.94536247 417.53305286 272.08614196 C417.51517795 255.06054953 417.51829207 238.03506618 417.53672791 221.00947571 C417.55815127 201.21575092 417.5665526 181.42209086 417.55427885 161.6283561 C417.55300471 159.51637341 417.55174723 157.4043907 417.55050659 155.29240799 C417.54988949 154.25339268 417.54927239 153.21437737 417.54863659 152.14387675 C417.54518848 144.83561119 417.55100028 137.52738683 417.5604248 130.21912766 C417.57166222 121.30965694 417.56856788 112.40032713 417.54730183 103.49087249 C417.53681569 98.94856204 417.53262796 94.40648622 417.54589844 89.8641777 C417.55787852 85.70049312 417.55116807 81.53725914 417.52998823 77.37361504 C417.52554589 75.87316148 417.52773472 74.3726693 417.53749138 72.87224089 C417.6419881 55.45683049 412.05120955 41.06778199 400.01524353 28.3742218 C385.00060552 15.18398813 370.74871148 12.06310017 351.31532288 12.10679626 C349.7313191 12.10305496 348.14731717 12.09845154 346.56331813 12.09306562 C342.23085328 12.08087989 337.89846589 12.08109083 333.56598783 12.08345437 C328.8855784 12.08386365 324.20519346 12.07281293 319.52479553 12.06333923 C310.36331211 12.04675348 301.20185443 12.04123082 292.04035725 12.04011448 C284.59218203 12.03916302 277.14401528 12.03504788 269.69584274 12.02871323 C248.56609698 12.01110884 227.4363715 12.00187331 206.30661835 12.00337417 C205.16841876 12.00345409 204.03021917 12.003534 202.85752869 12.00361633 C201.71793535 12.00369809 200.57834202 12.00377986 199.40421556 12.00386409 C180.93159045 12.00467717 162.45904685 11.98553199 143.98644532 11.9573396 C125.0063767 11.92860183 106.02634783 11.91479974 87.0462569 11.91652715 C76.39533155 11.91719066 65.74449169 11.91171542 55.09358597 11.89017105 C46.02666211 11.87194772 36.95986252 11.86762156 27.89292826 11.8811899 C23.26962677 11.88771318 18.64656362 11.88785976 14.02328491 11.8704834 C9.78544188 11.8547198 5.54802552 11.85764964 1.31019269 11.87505166 C-0.21730457 11.87811429 -1.74483394 11.87451711 -3.27229331 11.86333151 C-22.78540589 11.729977 -38.71823041 18.69937998 -51.76600647 33.37812805 Z " fill="#1F2D47" transform="translate(338.98475646972656,252.6257781982422)"/>
<path d="M0 0 C0.80894236 -0.04575165 1.61788473 -0.0915033 2.4513405 -0.13864136 C5.14959562 -0.28513158 7.84826675 -0.40395569 10.54792786 -0.52148438 C12.49103016 -0.61867004 14.43409379 -0.71663154 16.37712097 -0.81530762 C34.28616363 -1.68849269 52.21251458 -2.16900378 70.13798046 -2.55249023 C82.14658562 -2.81529021 94.12839338 -3.18904936 106.12165833 -3.86132812 C192.52202105 -8.61081288 192.52202105 -8.61081288 220.97496808 16.43154144 C235.01390087 29.25911699 251.10575081 45.68937638 259.70344543 62.88476562 C259.79685625 65.8141033 259.82918291 68.71951272 259.81697083 71.64892578 C259.81711685 72.5562999 259.81726288 73.46367401 259.81741333 74.39854431 C259.81671494 77.40699631 259.80892597 80.4153869 259.80110168 83.42382812 C259.79923724 85.50605231 259.79781346 87.58827693 259.79681396 89.67050171 C259.79299085 95.15813401 259.7831623 100.64573995 259.77210999 106.13336182 C259.76189146 111.73018029 259.7573154 117.32700301 259.75227356 122.92382812 C259.74153986 133.91081889 259.72446589 144.89779007 259.70344543 155.88476562 C259.28361893 155.32195389 258.86379242 154.75914215 258.4312439 154.17927551 C257.28348916 152.65506152 256.10727364 151.15185185 254.90325928 149.67167664 C248.8162999 141.42499899 248.77892711 134.05636576 249.01985168 124.27929688 C249.03293682 122.70320351 249.04288719 121.12708133 249.04986572 119.5509491 C249.07636352 115.4386584 249.14491941 111.32814846 249.22279358 107.21655273 C249.29490429 103.00659261 249.32647834 98.79633958 249.36164856 94.5859375 C249.43631562 86.35140392 249.5554979 78.11830739 249.70344543 69.88476562 C249.15522629 69.89364807 248.60700714 69.90253052 248.04217529 69.91168213 C242.31552092 70.00045311 236.5890633 70.06062263 230.8618927 70.10449219 C228.72704626 70.12455745 226.59225443 70.1518162 224.45759583 70.18652344 C221.38185619 70.23526506 218.30684575 70.25778568 215.23078918 70.27539062 C214.28259811 70.29603577 213.33440704 70.31668091 212.35748291 70.33795166 C205.48202176 70.34025867 201.22570855 69.0362642 195.99641418 64.35742188 C190.80330438 57.73299559 190.42027803 52.71059827 190.50813293 44.55273438 C190.51096283 43.56098709 190.51379272 42.56923981 190.51670837 41.54743958 C190.5278774 38.38892403 190.55297617 35.23069505 190.57844543 32.07226562 C190.58847946 29.92708744 190.59760458 27.78190479 190.60578918 25.63671875 C190.62780599 20.38597041 190.66125101 15.1353885 190.70344543 9.88476562 C165.23447542 9.89856409 139.76568988 9.94075481 114.29682636 10.01685619 C102.4714889 10.05152668 90.64626825 10.07686442 78.82087708 10.08032227 C68.515271 10.08335929 58.20987286 10.10381455 47.90434712 10.1452902 C42.4463124 10.16664556 36.9885735 10.17920771 31.5304966 10.17091942 C26.39464991 10.16339545 21.2594034 10.17913489 16.12366676 10.21282578 C14.23748035 10.22107899 12.35123449 10.22078561 10.46505356 10.21136284 C7.89120346 10.19977629 5.31933198 10.21880325 2.74563599 10.24552917 C1.6235435 10.22951929 1.6235435 10.22951929 0.47878247 10.21318597 C-2.99490524 10.28057673 -5.23734968 10.85101162 -8.26119137 12.57497025 C-11.55544629 17.93190592 -10.9695207 23.31610738 -10.90455627 29.48072815 C-10.90745297 30.89700514 -10.91254377 32.31327906 -10.91964018 33.72954124 C-10.93276911 37.6215091 -10.91468656 41.51280479 -10.89154172 45.40470302 C-10.87202033 49.60173993 -10.88134088 53.79872411 -10.88713074 57.99578857 C-10.89395349 66.21756832 -10.87427161 74.43908326 -10.84596746 82.66080875 C-10.8141496 92.23088254 -10.80971846 101.80090936 -10.80677553 111.37102842 C-10.80070847 128.44329265 -10.77157539 145.51543823 -10.72868347 162.58764648 C-10.68707701 179.16251864 -10.65874931 195.73733514 -10.64665222 212.31225586 C-10.64590401 213.33322011 -10.64515579 214.35418437 -10.64438491 215.40608693 C-10.64141073 219.5096259 -10.63847344 223.61316489 -10.63559862 227.71670393 C-10.62286826 245.40523485 -10.59911049 263.09375331 -10.57396036 280.78227028 C-10.56997785 283.64890297 -10.56625951 286.51553589 -10.56260633 289.38216901 C-10.549588 299.41631601 -10.533267 309.45044097 -10.50762193 319.48456449 C-10.49702765 323.63486635 -10.48792319 327.78515579 -10.4830513 331.93546867 C-10.47850873 335.73194961 -10.46933961 339.52838971 -10.45638986 343.32485103 C-10.45062815 345.35468486 -10.44971206 347.38453064 -10.44894636 349.4143725 C-10.44387181 350.61405789 -10.43879727 351.81374327 -10.43356895 353.04978275 C-10.43123831 354.08750609 -10.42890767 355.12522944 -10.4265064 356.19439894 C-10.30886324 358.62994158 -10.20196382 360.62061295 -9.29655457 362.88476562 C-6.52664865 363.8080676 -4.89001209 364.0107396 -2.03424168 364.01340008 C-1.15988643 364.01662452 -0.28553119 364.01984897 0.61531967 364.02317113 C2.05722478 364.02084822 2.05722478 364.02084822 3.52825928 364.01847839 C4.54888838 364.02074395 5.56951748 364.02300951 6.62107474 364.02534372 C10.05731577 364.03169793 13.49351751 364.03085344 16.92976379 364.0300293 C19.38673962 364.03301988 21.84371497 364.03642217 24.3006897 364.04020691 C30.29142293 364.04814034 36.28214059 364.05126198 42.27287763 364.05181929 C47.14119477 364.05229416 52.00950867 364.05434748 56.87782478 364.05751991 C70.67422144 364.06632763 84.4706103 364.07093906 98.26700979 364.07018944 C99.38301247 364.0701295 99.38301247 364.0701295 100.52156067 364.07006836 C101.26646862 364.07002748 102.01137656 364.0699866 102.77885748 364.06994448 C114.8554493 364.06953789 126.93200997 364.07911033 139.00859278 364.09320673 C151.4026853 364.10755983 163.79676262 364.11447751 176.19086367 364.11361295 C183.15166925 364.11328063 190.11244217 364.11604308 197.07324028 364.126791 C203.61735479 364.13683064 210.16141195 364.13657157 216.70553398 364.12927437 C219.11140544 364.12822486 221.51728114 364.13061293 223.92314529 364.13663483 C227.19939531 364.14430608 230.47540347 364.13974229 233.75164795 364.13200378 C234.7106873 364.13714735 235.66972665 364.14229091 236.65782779 364.14759034 C237.53479079 364.14299154 238.41175378 364.13839275 239.3152914 364.13365459 C240.07158697 364.13387196 240.82788253 364.13408933 241.60709614 364.13431329 C244.03512327 363.84528297 245.63128832 363.1703552 247.70344543 361.88476562 C249.28274351 358.72616948 248.88340883 355.32528488 248.9087677 351.85498047 C248.9186673 351.02563492 248.92856689 350.19628937 248.93876648 349.34181213 C248.97042208 346.59313844 248.99515493 343.84444744 249.01985168 341.09570312 C249.04041771 339.19283594 249.06141408 337.28997335 249.08282471 335.38711548 C249.1380817 330.37300338 249.18747496 325.3588498 249.235672 320.34466553 C249.28586056 315.23039041 249.34156041 310.11617569 249.39680481 305.00195312 C249.50443074 294.9629422 249.60586585 284.92387888 249.70344543 274.88476562 C254.69080102 278.58965834 259.19787628 282.055892 260.33163452 288.39974976 C260.33259628 289.69466339 260.33355804 290.98957703 260.33454895 292.32373047 C260.34170425 293.04327408 260.34885956 293.76281769 260.35623169 294.50416565 C260.37305742 296.8686694 260.35375091 299.23125995 260.33235168 301.59570312 C260.33318114 303.24948279 260.33564343 304.90326236 260.33966064 306.55703735 C260.34251468 310.0187469 260.32786007 313.47980806 260.30036926 316.94140625 C260.26634009 321.36205024 260.27229037 325.78153133 260.29103184 330.20223045 C260.3016417 333.61682693 260.29262716 337.03115658 260.27764702 340.4457283 C260.27249031 342.07468496 260.27291629 343.70366979 260.27919197 345.33262253 C260.32194657 363.10239615 260.32194657 363.10239615 254.22103882 369.41976929 C250.4096638 372.8027589 247.36008616 374.00596675 242.35860157 374.02457333 C241.46581275 374.03026457 240.57302393 374.03595581 239.6531809 374.04181951 C238.18034997 374.04358933 238.18034997 374.04358933 236.67776489 374.0453949 C235.11430266 374.05302663 235.11430266 374.05302663 233.51925534 374.06081253 C230.00944571 374.07657029 226.49965672 374.08507084 222.98982239 374.09350586 C220.48022327 374.10304157 217.97062548 374.11293261 215.46102905 374.12315369 C207.91750667 374.15185658 200.37398141 374.17162392 192.83042434 374.18854603 C190.69959791 374.19334166 188.56877198 374.1983249 186.43794608 374.20335126 C173.20423522 374.23432229 159.97051997 374.26100599 146.73678303 374.27777004 C143.67171534 374.2817195 140.60664773 374.2857225 137.5415802 374.28979492 C136.77977781 374.29080328 136.01797541 374.29181164 135.2330881 374.29285056 C122.89398482 374.30985534 110.55508217 374.35096277 98.21607683 374.40181791 C85.54624479 374.45360677 72.8765159 374.48271391 60.20657891 374.48996693 C53.09349024 374.49462752 45.98073016 374.50936091 38.86774635 374.54971123 C32.17571874 374.58762763 25.48435016 374.59500236 18.79219627 374.58170509 C16.33638136 374.58175912 13.88054188 374.59208628 11.42481995 374.61345673 C8.07054905 374.64108557 4.71833146 374.63165097 1.36404419 374.61302185 C0.39331052 374.62981678 -0.57742316 374.64661171 -1.577573 374.66391557 C-7.45983616 374.58233403 -11.20691349 373.51639123 -15.69241315 369.60508448 C-21.71771775 363.14340659 -20.7258855 355.16197083 -20.69096375 346.84069824 C-20.69585562 345.40008554 -20.70204679 343.95947677 -20.70942163 342.51887465 C-20.72580639 338.56899592 -20.72350627 334.61931699 -20.71804667 330.66941619 C-20.71537472 326.40621863 -20.72991122 322.14307412 -20.74214172 317.87989807 C-20.76318965 309.53181198 -20.76773699 301.18379534 -20.76595384 292.83568585 C-20.7646461 286.05100672 -20.76845094 279.26634925 -20.77587891 272.48167419 C-20.7779781 270.52722852 -20.7800757 268.57278284 -20.78217173 266.61833715 C-20.78321525 265.64556127 -20.78425878 264.67278539 -20.78533393 263.67053145 C-20.8042331 245.27603696 -20.80318685 226.88158236 -20.79636461 208.48708218 C-20.7907871 191.65659198 -20.81162401 174.82625389 -20.84472507 157.99579924 C-20.87844963 140.71425107 -20.8936321 123.4327758 -20.88900805 106.1511941 C-20.8867624 96.44883856 -20.89202069 86.7466237 -20.91690063 77.04429626 C-20.93789758 68.78593645 -20.94152155 60.52779446 -20.92260104 52.26942575 C-20.91343396 48.05580954 -20.91232975 43.84259968 -20.9329567 39.62901497 C-20.95163353 35.77115684 -20.94720103 31.9140388 -20.92441088 28.05620915 C-20.92021677 26.66128182 -20.92445254 25.26629812 -20.93800682 23.87143034 C-21.05481781 10.97111435 -21.05481781 10.97111435 -16.82042295 6.21179152 C-11.60890952 1.67346437 -6.93057869 0.27267282 0 0 Z " fill="#20314B" transform="translate(381.2965545654297,314.115234375)"/>
<path d="M0 0 C0.79937988 0.00749268 1.59875977 0.01498535 2.42236328 0.02270508 C7.8841937 0.12256898 12.93647439 0.42211575 18.125 2.25 C19.53458984 2.745 19.53458984 2.745 20.97265625 3.25 C36.83224907 9.34521646 47.54433572 19.5032333 54.68359375 34.875 C60.97275873 49.6008497 60.11914618 63.26756147 55.125 78.25 C48.44753942 94.38550506 35.50427624 104.67530157 19.78125 111.2265625 C7.25614867 115.46765694 -8.51475039 115.05419497 -20.66796875 109.921875 C-36.2370951 101.8054486 -46.6666723 91.02050279 -52.90625 74.5234375 C-57.18749343 60.45083177 -56.57275493 44.3769282 -49.875 31.25 C-47.75974261 27.7133282 -45.46386834 24.45317608 -42.875 21.25 C-42.10671875 20.26257813 -41.3384375 19.27515625 -40.546875 18.2578125 C-30.85063639 6.7087428 -14.85250661 -0.1831131 0 0 Z " fill="#FCFCFC" transform="translate(570.875,441.75)"/>
<path d="M0 0 C0.96679688 0.31710937 1.93359375 0.63421875 2.9296875 0.9609375 C19.42046563 7.00041728 32.57975187 20.23668101 40 36 C41.59085719 40.61348586 42.86297217 45.25627099 44 50 C44.19335938 50.6290625 44.38671875 51.258125 44.5859375 51.90625 C47.62629691 67.28014285 43.61224918 85.08162624 35 98 C35.21850915 100.33076432 35.85194813 101.75614986 37.0625 103.75 C39.70338329 105.45379567 41.9142432 104.96363111 44.9609375 104.875 C51.80315793 105.29444646 57.60074488 113.29807613 62 118 C63.0935012 119.26228633 64.18442117 120.52681113 65.2734375 121.79296875 C69.6668699 126.84763193 74.46852743 131.45901472 79.30273438 136.08789062 C83.89703572 140.586022 88.08040889 144.89564851 89.53125 151.37109375 C89.4459255 157.01317629 88.26585792 161.34351871 85 166 C79.92897634 170.82365666 75.16607687 171.71262505 68.31054688 171.55151367 C64.49960247 170.91663731 63.27957514 170.04061154 60.53515625 167.38671875 C59.67929932 166.56945312 58.82344238 165.7521875 57.94165039 164.91015625 C56.96035371 163.94085938 55.97985867 162.97075053 55 162 C53.8382971 160.86798872 52.6760786 159.73650639 51.51342773 158.60546875 C48.30945605 155.47492344 45.13258719 152.31828753 41.96533203 149.15063477 C39.98097565 147.16849692 37.98870228 145.19454105 35.99609375 143.22070312 C34.72607497 141.95361347 33.4565261 140.6860526 32.1875 139.41796875 C31.29853027 138.5397773 31.29853027 138.5397773 30.39160156 137.6438446 C24.0560173 131.27270183 24.0560173 131.27270183 23.9453125 126.78125 C24.03425781 125.65203125 24.03425781 125.65203125 24.125 124.5 C24.24170345 120.65998608 24.24170345 120.65998608 22 117.4375 C21.34 116.963125 20.68 116.48875 20 116 C16.37040799 117.37583813 13.03687252 119.03048629 9.625 120.875 C-6.05491676 128.64827587 -25.22703725 131.28851713 -42.2421875 126.1015625 C-62.68629071 117.93550428 -75.17043273 104.64330695 -84 85 C-84.38414062 84.15953125 -84.76828125 83.3190625 -85.1640625 82.453125 C-90.29383116 67.39941136 -88.13862125 48.33932835 -81.71484375 34.1640625 C-72.83697849 16.50724971 -57.6552274 4.45943079 -39.0625 -1.875 C-26.73290812 -4.8857143 -11.90203367 -4.26807621 0 0 Z M-57 18 C-57.63292969 18.43699219 -58.26585937 18.87398438 -58.91796875 19.32421875 C-68.37435303 26.53011341 -75.97656577 39.39071819 -78 51 C-79.74910817 67.91731861 -77.13117484 83.94878999 -66.87890625 97.8828125 C-57.8523162 108.52499913 -44.88285923 117.81447695 -30.68994141 119.23046875 C-12.41836555 120.4922695 3.25083465 117.01476475 17.4609375 104.90234375 C29.75270904 93.32521009 35.74308814 77.99715254 36.4375 61.3125 C36.18618312 45.91515264 28.83211636 32.36854555 18.4765625 21.3203125 C5.55467845 9.21368927 -10.15035723 5.33751375 -27.3515625 5.66015625 C-38.53072111 6.21292138 -48.11211857 11.5559223 -57 18 Z " fill="#22344E" transform="translate(594,436)"/>
<path d="M0 0 C2.74975586 -0.38818359 2.74975586 -0.38818359 6.21484375 -0.3984375 C8.07979492 -0.40423828 8.07979492 -0.40423828 9.98242188 -0.41015625 C11.94018555 -0.39275391 11.94018555 -0.39275391 13.9375 -0.375 C15.23880859 -0.38660156 16.54011719 -0.39820313 17.88085938 -0.41015625 C19.12544922 -0.40628906 20.37003906 -0.40242188 21.65234375 -0.3984375 C23.36925415 -0.39336182 23.36925415 -0.39336182 25.12084961 -0.38818359 C28 0 28 0 29.65568542 1.06991577 C31.67301173 3.96626888 31.41792497 6.86495704 31.38818359 10.26953125 C31.39344055 11.00642181 31.39869751 11.74331238 31.40411377 12.50253296 C31.41732234 14.93940398 31.40857302 17.37562228 31.3984375 19.8125 C31.400458 21.50496547 31.40336923 23.19743009 31.40713501 24.88989258 C31.41155951 28.43742154 31.40512335 31.98472393 31.39111328 35.53222656 C31.3740212 40.08217909 31.38386173 44.63160077 31.40183067 49.18153381 C31.41266518 52.67651376 31.40922373 56.1713676 31.4014473 59.66635132 C31.39944436 61.34410668 31.40190785 63.02187344 31.40888596 64.69961548 C31.41649511 67.04354225 31.40490465 69.38660632 31.38818359 71.73046875 C31.39729263 72.7732045 31.39729263 72.7732045 31.40658569 73.83700562 C31.36898431 76.67846177 31.30415274 78.56549118 29.6489563 80.93008423 C27.10525981 82.58054701 24.90867372 82.38917076 21.90625 82.3984375 C20.71128906 82.40230469 19.51632812 82.40617187 18.28515625 82.41015625 C16.41150391 82.39275391 16.41150391 82.39275391 14.5 82.375 C13.25089844 82.38660156 12.00179688 82.39820313 10.71484375 82.41015625 C8.92240234 82.40435547 8.92240234 82.40435547 7.09375 82.3984375 C5.99740234 82.39505371 4.90105469 82.39166992 3.77148438 82.38818359 C1 82 1 82 -0.64994812 80.93008423 C-2.67572443 78.0339593 -2.40978195 75.13793806 -2.37231445 71.73046875 C-2.37596512 70.99357819 -2.37961578 70.25668762 -2.38337708 69.49746704 C-2.391486 67.06057724 -2.37787011 64.62435169 -2.36328125 62.1875 C-2.36276268 60.49503581 -2.36328025 58.80257101 -2.36479187 57.11010742 C-2.36470213 53.56257132 -2.3542695 50.01526241 -2.33618164 46.46777344 C-2.31349437 41.91790734 -2.31295018 37.36837327 -2.31969929 32.81846619 C-2.32303898 29.32349694 -2.31640917 25.82860355 -2.30657005 22.33364868 C-2.30271777 20.655898 -2.30156995 18.97813888 -2.3031559 17.30038452 C-2.3035263 14.95660291 -2.29091378 12.61324873 -2.2746582 10.26953125 C-2.27713562 9.57437408 -2.27961304 8.87921692 -2.28216553 8.16299438 C-2.24207258 4.54539635 -2.06813129 3.10219694 0 0 Z " fill="#253A52" transform="translate(487,348)"/>
<path d="M0 0 C1.10878505 0.00566899 1.10878505 0.00566899 2.23996979 0.0114525 C3.4154211 0.00571418 3.4154211 0.00571418 4.6146189 -0.00014007 C7.25482276 -0.01050397 9.89481053 -0.00647155 12.53502899 -0.0025093 C14.42206007 -0.0068539 16.30908937 -0.0120362 18.19611603 -0.01799697 C23.33241863 -0.03142533 28.46864782 -0.03196138 33.60496455 -0.02943367 C37.88700878 -0.02836654 42.16903799 -0.03324068 46.45107901 -0.03803909 C56.55003722 -0.04914757 66.64895825 -0.04956416 76.74791962 -0.04352492 C87.17938999 -0.03748292 97.61072555 -0.04979886 108.04217291 -0.07109499 C116.98656853 -0.08868638 125.93092114 -0.09471625 134.87533343 -0.09145725 C140.22256247 -0.08964029 145.56969536 -0.09232146 150.9169088 -0.10617179 C155.944268 -0.11870552 160.97141642 -0.11684845 165.9987722 -0.1037609 C167.84711772 -0.1013858 169.69547786 -0.10416295 171.54380661 -0.11238402 C174.06085832 -0.12277475 176.57719268 -0.11481328 179.09421784 -0.10207289 C179.83117715 -0.10944718 180.56813645 -0.11682146 181.32742786 -0.12441921 C184.26385838 -0.09300141 186.25787219 -0.05184358 188.71957737 1.63538152 C189.73058563 3.27214891 189.73058563 3.27214891 189.54308563 5.83464891 C188.73058563 8.27214891 188.73058563 8.27214891 186.73058563 10.27214891 C184.1916748 10.47179067 181.7614769 10.54583321 179.22120148 10.53284532 C178.04575017 10.53858364 178.04575017 10.53858364 176.84655237 10.54443789 C174.20634851 10.55480178 171.56636074 10.55076937 168.92614228 10.54680711 C167.0391112 10.55115172 165.1520819 10.55633402 163.26505524 10.56229478 C158.12875264 10.57572315 152.99252345 10.57625919 147.85620672 10.57373148 C143.57416249 10.57266436 139.29213328 10.5775385 135.01009226 10.5823369 C124.91113405 10.59344538 114.81221302 10.59386198 104.71325165 10.58782274 C94.28178128 10.58178073 83.85044572 10.59409667 73.41899836 10.6153928 C64.47460274 10.63298419 55.53025013 10.63901406 46.58583784 10.63575506 C41.2386088 10.63393811 35.89147591 10.63661927 30.54426247 10.6504696 C25.51690327 10.66300333 20.48975485 10.66114627 15.46239907 10.64805871 C13.61405355 10.64568362 11.76569341 10.64846077 9.91736466 10.65668184 C7.40031294 10.66707256 4.88397859 10.6591111 2.36695343 10.64637071 C1.62999412 10.65374499 0.89303481 10.66111928 0.13374341 10.66871703 C-2.80268711 10.63729923 -4.79670092 10.5961414 -7.2584061 8.90891629 C-8.26941437 7.27214891 -8.26941437 7.27214891 -8.08191437 4.70964891 C-6.54710149 0.10521028 -4.52313335 0.03931743 0 0 Z " fill="#2B3D54" transform="translate(411.2694143652916,602.7278510928154)"/>
<path d="M0 0 C1.87171875 -0.00386719 1.87171875 -0.00386719 3.78125 -0.0078125 C5.74578125 0.00378906 5.74578125 0.00378906 7.75 0.015625 C9.0596875 0.00789063 10.369375 0.00015625 11.71875 -0.0078125 C12.9665625 -0.00523437 14.214375 -0.00265625 15.5 0 C16.64984375 0.00225586 17.7996875 0.00451172 18.984375 0.00683594 C21.75 0.265625 21.75 0.265625 23.75 2.265625 C24.00396729 4.54272461 24.00396729 4.54272461 24.00878906 7.41796875 C24.01509338 8.49248291 24.02139771 9.56699707 24.02789307 10.67407227 C24.0238446 11.83865967 24.01979614 13.00324707 24.015625 14.203125 C24.01849518 15.98964478 24.01849518 15.98964478 24.02142334 17.81225586 C24.0227863 20.33414928 24.01908216 22.85604969 24.01074219 25.37792969 C24.00004453 29.24950849 24.01063406 33.12062322 24.0234375 36.9921875 C24.02211593 39.43750103 24.01955358 41.88281427 24.015625 44.328125 C24.01967346 45.4927124 24.02372192 46.6572998 24.02789307 47.85717773 C24.02158875 48.93169189 24.01528442 50.00620605 24.00878906 51.11328125 C24.00719788 52.06211182 24.00560669 53.01094238 24.00396729 53.98852539 C23.75 56.265625 23.75 56.265625 21.75 58.265625 C17.28845192 58.72665573 12.79509362 58.58961294 8.3125 58.578125 C7.05888672 58.59423828 5.80527344 58.61035156 4.51367188 58.62695312 C3.31419922 58.62759766 2.11472656 58.62824219 0.87890625 58.62890625 C-0.22380615 58.63188721 -1.32651855 58.63486816 -2.46264648 58.63793945 C-5.25 58.265625 -5.25 58.265625 -6.90093994 57.06573486 C-8.71591862 54.6439294 -8.62435473 53.10239871 -8.62231445 50.09155273 C-8.62854324 49.03713486 -8.63477203 47.98271698 -8.64118958 46.89634705 C-8.63197983 45.75879471 -8.62277008 44.62124237 -8.61328125 43.44921875 C-8.61377975 42.28181656 -8.61427826 41.11441437 -8.61479187 39.91163635 C-8.6124502 37.44278258 -8.60271629 34.97392647 -8.58618164 32.50512695 C-8.56257266 28.71479074 -8.56562229 24.92515674 -8.57226562 21.13476562 C-8.56668967 18.73957912 -8.55958032 16.34439559 -8.55078125 13.94921875 C-8.55169266 12.80964218 -8.55260406 11.67006561 -8.55354309 10.49595642 C-8.54401108 9.4446907 -8.53447906 8.39342499 -8.5246582 7.31030273 C-8.52005081 6.38225327 -8.51544342 5.4542038 -8.51069641 4.49803162 C-7.91048317 -0.64173996 -4.27965774 0.00839619 0 0 Z " fill="#1E334C" transform="translate(452.25,371.734375)"/>
<path d="M0 0 C1.11564465 0.00669217 1.11564465 0.00669217 2.25382757 0.01351953 C3.43646256 0.00883955 3.43646256 0.00883955 4.64298916 0.00406504 C7.2993542 -0.00394719 9.95549284 0.00242115 12.6118598 0.00869775 C14.51036479 0.00598931 16.40886873 0.00242922 18.30737066 -0.00192237 C23.47460315 -0.01106622 28.64175607 -0.00749391 33.80899 -0.0011642 C39.2066204 0.00388549 44.6042438 -0.00079277 50.00187445 -0.00393653 C59.06768284 -0.00757919 68.13345869 -0.00276922 77.19926214 0.00674462 C87.69321043 0.01762974 98.18708101 0.01410437 108.68102741 0.00309181 C117.67720965 -0.00597253 126.67336843 -0.00727053 135.66955376 -0.00203085 C141.04858471 0.00109356 146.42757909 0.00148533 151.80660772 -0.00510383 C156.86265672 -0.01086428 161.91860515 -0.00690434 166.97464323 0.00468469 C168.83469427 0.00733826 170.69475372 0.00655437 172.55480146 0.00215936 C175.0852079 -0.00327016 177.61528789 0.00350618 180.14567327 0.01351953 C180.88943637 0.00905808 181.63319947 0.00459664 182.39950085 0 C187.47145028 0.03918667 187.47145028 0.03918667 189.69975042 2.26748681 C189.94975042 4.76748681 189.94975042 4.76748681 189.69975042 7.26748681 C187.21852755 9.74870969 185.78546627 9.50881313 182.39950085 9.53497362 C181.65573775 9.53051218 180.91197465 9.52605073 180.14567327 9.5214541 C178.96303829 9.52613407 178.96303829 9.52613407 177.75651169 9.53090858 C175.10014665 9.53892081 172.44400801 9.53255248 169.78764105 9.52627587 C167.88913606 9.52898431 165.99063212 9.5325444 164.09213018 9.53689599 C158.9248977 9.54603984 153.75774478 9.54246754 148.59051085 9.53613782 C143.19288045 9.53108813 137.79525705 9.53576639 132.3976264 9.53891015 C123.33181801 9.54255281 114.26604216 9.53774284 105.2002387 9.528229 C94.70629042 9.51734388 84.21241984 9.52086925 73.71847343 9.53188181 C64.7222912 9.54094615 55.72613241 9.54224415 46.72994709 9.53700447 C41.35091614 9.53388006 35.97192175 9.53348829 30.59289312 9.54007745 C25.53684413 9.5458379 20.4808957 9.54187796 15.42485762 9.53028893 C13.56480657 9.52763536 11.70474713 9.52841925 9.84469938 9.53281426 C7.31429295 9.53824378 4.78421296 9.53146744 2.25382757 9.5214541 C1.51006447 9.52591554 0.76630137 9.53037698 0 9.53497362 C-5.07194943 9.49578696 -5.07194943 9.49578696 -7.30024958 7.26748681 C-7.55024958 4.76748681 -7.55024958 4.76748681 -7.30024958 2.26748681 C-4.8190267 -0.21373607 -3.38596542 0.02616049 0 0 Z " fill="#1F314A" transform="translate(410.3002495765686,569.7325131893158)"/>
<path d="M0 0 C4.31633181 3.18586395 7.91120739 6.79612218 9.625 11.9375 C10.21225595 18.29567497 9.96965571 24.3547847 6.625 29.9375 C3.23693028 33.6672238 -0.84675653 36.52342548 -5.85546875 37.34375 C-12.22410942 37.56430898 -16.39119815 36.68344712 -21.4921875 32.76171875 C-26.11359749 28.28412857 -27.58514412 23.80633254 -27.9375 17.4375 C-27.72036585 11.84629551 -26.01842965 8.1353646 -22.375 3.9375 C-15.80376721 -2.02245532 -8.47483934 -2.66800498 0 0 Z " fill="#1F2A49" transform="translate(522.375,796.0625)"/>
<path d="M0 0 C1.26930894 0.00276538 1.26930894 0.00276538 2.56426048 0.00558662 C3.53463753 0.0028373 4.50501457 0.00008797 5.50479698 -0.00274467 C7.10701355 0.00804115 7.10701355 0.00804115 8.74159813 0.01904488 C9.8635508 0.01875282 10.98550346 0.01846077 12.1414547 0.01815987 C15.86420384 0.0195575 19.58675488 0.03513922 23.30946922 0.05078316 C25.88493808 0.05451174 28.46040835 0.05735944 31.03587914 0.0593586 C37.13093825 0.06622469 43.22591515 0.08200087 49.32094324 0.10205758 C56.25917885 0.12439451 63.19741783 0.13540444 70.13568044 0.14544845 C84.40979433 0.16636653 98.68384799 0.20155627 112.95790672 0.24609566 C109.29292826 7.77281307 109.29292826 7.77281307 105.95790672 10.24609566 C102.51197432 11.12009541 99.15489771 11.0358746 95.61562157 10.97485542 C94.05630661 10.98339798 94.05630661 10.98339798 92.46549034 10.99211311 C89.03258236 11.00321932 85.60158261 10.97115795 82.16884422 10.93750191 C79.78421312 10.93392546 77.39957774 10.93256724 75.01494408 10.93333626 C70.01975067 10.92864491 65.02520327 10.90379973 60.03017235 10.8635273 C53.61941937 10.812502 47.2093751 10.80108597 40.79844284 10.80336285 C35.87599962 10.80254817 30.95371209 10.78611255 26.03132057 10.76435852 C23.66697048 10.75479675 21.30260271 10.74889589 18.93823433 10.7466774 C15.63898287 10.74019122 12.34049161 10.71397146 9.04140282 10.68188667 C8.05951485 10.68324623 7.07762688 10.68460579 6.06598473 10.68600655 C4.72016571 10.66681412 4.72016571 10.66681412 3.34715843 10.64723396 C2.17746545 10.63969266 2.17746545 10.63969266 0.9841423 10.63199902 C-1.57927904 10.14378683 -2.47638299 9.30204118 -4.04209328 7.24609566 C-4.35459328 4.68359566 -4.35459328 4.68359566 -4.04209328 2.24609566 C-2.04209328 0.24609566 -2.04209328 0.24609566 0 0 Z " fill="#2D3E54" transform="translate(407.04209327697754,445.75390434265137)"/>
<path d="M0 0 C1.30372559 -0.02157166 1.30372559 -0.02157166 2.63378906 -0.0435791 C4.06757904 -0.05939529 4.06757904 -0.05939529 5.53033447 -0.07553101 C7.03787292 -0.097435 7.03787292 -0.097435 8.5758667 -0.11978149 C17.84498619 -0.24573165 27.11496569 -0.31450393 36.38476181 -0.36762428 C42.61556071 -0.40342334 48.84507256 -0.45681952 55.07525635 -0.55307007 C61.09476255 -0.64579177 67.11312854 -0.69452923 73.13330841 -0.71201706 C75.42835452 -0.7261281 77.72335958 -0.75580526 80.01799774 -0.80131912 C83.23180393 -0.86195677 86.44107446 -0.86605672 89.65533447 -0.85678101 C90.60309753 -0.88756744 91.5508606 -0.91835388 92.52734375 -0.95007324 C95.25481244 -0.90726935 97.29448395 -0.77887125 99.85162354 0.18081665 C102.20620812 2.62679256 105.85162354 6.55854208 105.85162354 10.18081665 C91.56125327 10.25086651 77.27090959 10.30358566 62.98040295 10.33625317 C56.34521225 10.3519295 49.71013665 10.37320383 43.07501221 10.40713501 C36.67542192 10.43965802 30.27594255 10.45765483 23.87627602 10.46544838 C21.43095465 10.47100457 18.98563955 10.48185399 16.54036522 10.49800682 C13.12339385 10.51968694 9.70688469 10.52278748 6.28985596 10.52139282 C5.27206055 10.53217865 4.25426514 10.54296448 3.20562744 10.55407715 C1.81110603 10.54789116 1.81110603 10.54789116 0.38841248 10.5415802 C-0.41999997 10.54434558 -1.22841242 10.54711096 -2.06132221 10.54996014 C-4.68837119 10.08530618 -5.60013085 9.33054859 -7.14837646 7.18081665 C-6.96087646 4.05581665 -6.96087646 4.05581665 -6.14837646 1.18081665 C-3.86261466 0.03793575 -2.5423293 0.03614801 0 0 Z " fill="#2C3D54" transform="translate(410.14837646484375,535.8191833496094)"/>
<path d="M0 0 C1.14984375 -0.00386719 2.2996875 -0.00773437 3.484375 -0.01171875 C4.68578125 -0.00011719 5.8871875 0.01148438 7.125 0.0234375 C8.32640625 0.01183594 9.5278125 0.00023437 10.765625 -0.01171875 C12.49039062 -0.00591797 12.49039062 -0.00591797 14.25 0 C15.83167969 0.00507568 15.83167969 0.00507568 17.4453125 0.01025391 C20.125 0.3984375 20.125 0.3984375 21.96948242 1.51293945 C23.69861132 4.33441895 23.49653991 6.67767306 23.48828125 9.96484375 C23.48763672 11.25455078 23.48699219 12.54425781 23.48632812 13.87304688 C23.47802979 14.54360107 23.46973145 15.21415527 23.46118164 15.9050293 C23.43754229 17.95726638 23.44062852 20.00820783 23.44726562 22.06054688 C23.39184718 32.13159032 23.39184718 32.13159032 21.125 34.3984375 C18.359375 34.65722656 18.359375 34.65722656 14.875 34.6640625 C13.00328125 34.66792969 13.00328125 34.66792969 11.09375 34.671875 C9.12921875 34.66027344 9.12921875 34.66027344 7.125 34.6484375 C5.8153125 34.65617187 4.505625 34.66390625 3.15625 34.671875 C1.9084375 34.66929687 0.660625 34.66671875 -0.625 34.6640625 C-2.34976562 34.66067871 -2.34976562 34.66067871 -4.109375 34.65722656 C-6.875 34.3984375 -6.875 34.3984375 -8.875 32.3984375 C-9.27300538 28.28076232 -9.20404717 24.15755088 -9.19067383 20.0222168 C-9.18751696 17.97195136 -9.2109576 15.92313345 -9.23632812 13.87304688 C-9.23697266 12.58333984 -9.23761719 11.29363281 -9.23828125 9.96484375 C-9.24126221 8.77834229 -9.24424316 7.59184082 -9.24731445 6.36938477 C-8.875 3.3984375 -8.875 3.3984375 -7.71948242 1.51293945 C-5.09301075 -0.07406825 -3.05691517 0.00980978 0 0 Z " fill="#20344D" transform="translate(411.875,395.6015625)"/>
<path d="M0 0 C2.91956922 0.93258262 4.19475644 1.9611217 6.32250977 4.140625 C7.3337793 5.16446289 7.3337793 5.16446289 8.36547852 6.20898438 C9.05512695 6.92763672 9.74477539 7.64628906 10.45532227 8.38671875 C11.13723633 9.07830078 11.81915039 9.76988281 12.52172852 10.48242188 C16.4966298 14.54439242 20.28341505 18.73360872 23.99975586 23.03198242 C26.05265614 25.35980772 28.23062435 27.53610417 30.45532227 29.69921875 C35.40582214 34.51546778 35.40582214 34.51546778 35.95532227 38.63671875 C35.58032227 41.82421875 35.58032227 41.82421875 33.51782227 44.69921875 C30.58032227 46.82421875 30.58032227 46.82421875 27.14282227 47.44921875 C21.1714323 46.40160647 18.27572531 42.68479702 14.53735352 38.2734375 C9.22343771 32.1630631 3.34028722 26.60859054 -2.47631836 20.98242188 C-3.77279297 19.7072168 -3.77279297 19.7072168 -5.09545898 18.40625 C-5.87832275 17.64546143 -6.66118652 16.88467285 -7.46777344 16.10083008 C-9.48374619 13.74949225 -10.45585563 11.7479307 -11.41967773 8.82421875 C-10.04322114 7.28582609 -8.64272741 5.76891294 -7.23217773 4.26171875 C-6.45487305 3.41480469 -5.67756836 2.56789063 -4.87670898 1.6953125 C-2.41967773 -0.17578125 -2.41967773 -0.17578125 0 0 Z " fill="#2ACFB8" transform="translate(638.419677734375,551.17578125)"/>
<path d="M0 0 C5.38177723 4.49341567 10.39064083 9.2440943 15.33984375 14.20703125 C16.10680069 14.97303146 16.87375763 15.73903168 17.66395569 16.52824402 C19.27109547 18.13470736 20.87698941 19.74241795 22.48168945 21.35131836 C24.95084704 23.82587623 27.42535325 26.29499643 29.90039062 28.76367188 C31.4638628 30.32780406 33.02702518 31.892246 34.58984375 33.45703125 C35.33346664 34.19862991 36.07708954 34.94022858 36.84324646 35.70429993 C37.52137894 36.38558456 38.19951141 37.0668692 38.89819336 37.76879883 C39.79918007 38.67097893 39.79918007 38.67097893 40.71836853 39.59138489 C42 41 42 41 42 42 C36.82227254 42.12385084 31.64541212 42.21445571 26.46655273 42.2746582 C24.70598324 42.29976061 22.94551753 42.33385028 21.18530273 42.37719727 C18.65061821 42.43804115 16.11731425 42.46625113 13.58203125 42.48828125 C12.40674614 42.52699089 12.40674614 42.52699089 11.2077179 42.56648254 C7.22101028 42.56851607 5.40111968 42.26610994 1.99414062 40.00585938 C-0.67277626 35.98589358 -0.6436197 33.13428654 -0.48828125 28.41796875 C-0.48120651 27.60378983 -0.47413177 26.7896109 -0.46684265 25.95075989 C-0.43895598 23.36205357 -0.37623316 20.77554727 -0.3125 18.1875 C-0.2874095 16.42776572 -0.26459764 14.66799737 -0.24414062 12.90820312 C-0.18914872 8.60462704 -0.10291992 4.3026859 0 0 Z " fill="#2DD6BC" transform="translate(582,332)"/>
<path d="M0 0 C1.3364003 0.00067978 1.3364003 0.00067978 2.69979858 0.00137329 C3.6330748 -0.00198532 4.56635101 -0.00534393 5.52790833 -0.00880432 C8.62957063 -0.01834516 11.73117914 -0.02025899 14.83285522 -0.02133179 C16.97897871 -0.02454215 19.12510197 -0.02790604 21.27122498 -0.03141785 C25.7763927 -0.03741694 30.28154121 -0.03925694 34.78671265 -0.03866577 C40.57203357 -0.03856409 46.35723192 -0.05221859 52.14252377 -0.06943798 C56.5767626 -0.08053248 61.01097156 -0.08258577 65.44522285 -0.08205605 C67.57875555 -0.08323993 69.71228892 -0.08768441 71.84580803 -0.09538841 C74.8245704 -0.10513716 77.80306354 -0.10233061 80.78182983 -0.09628296 C81.67073914 -0.10190247 82.55964844 -0.10752197 83.47549438 -0.11331177 C89.57719628 -0.08167824 89.57719628 -0.08167824 91.80551147 2.14663696 C92.05551147 4.64663696 92.05551147 4.64663696 91.80551147 7.14663696 C89.14980532 9.80234312 87.17436174 9.39671414 83.56117249 9.42880249 C82.68475601 9.42632507 81.80833954 9.42384766 80.90536499 9.42129517 C79.98330261 9.4264061 79.06124023 9.43151703 78.11123657 9.43678284 C75.05223159 9.45072414 71.99345077 9.44971865 68.93441772 9.44741821 C66.81453873 9.45130268 64.69466052 9.45563683 62.57478333 9.46040344 C58.12684611 9.46787545 53.67898824 9.4675673 49.23104858 9.46231079 C43.5231287 9.45651523 37.8155332 9.47344465 32.10766697 9.49665546 C27.7282775 9.51136738 23.34896661 9.51226797 18.96955681 9.50914574 C16.86475927 9.50966024 14.75995747 9.51492206 12.65518379 9.52495766 C9.71492391 9.53725533 6.7753017 9.53057048 3.83505249 9.51895142 C2.96066025 9.52659515 2.08626801 9.53423889 1.18537903 9.54211426 C-4.74906888 9.49011925 -4.74906888 9.49011925 -6.95723057 7.7873106 C-8.19448853 6.14663696 -8.19448853 6.14663696 -7.94448853 3.52163696 C-6.53359803 -0.94618295 -4.35521036 0.02303884 0 0 Z " fill="#1F324C" transform="translate(411.1944885253906,636.8533630371094)"/>
<path d="M0 0 C1.32169441 0.01078583 1.32169441 0.01078583 2.67008972 0.02178955 C3.59697098 0.0214975 4.52385223 0.02120544 5.4788208 0.02090454 C8.55227416 0.02230144 11.62548714 0.03787958 14.69889832 0.05352783 C16.82596199 0.05725668 18.95302738 0.06010426 21.08009338 0.06210327 C26.68612894 0.06974982 32.29206132 0.08940707 37.89805603 0.11151123 C43.61551009 0.13194769 49.33298078 0.14110027 55.05046082 0.15118408 C66.27446455 0.17265199 77.49839161 0.20680023 88.72233582 0.24884033 C88.72233582 3.21884033 88.72233582 6.18884033 88.72233582 9.24884033 C76.3704315 9.29510529 64.01854767 9.33067974 51.66657448 9.35246468 C45.93154981 9.36291838 40.19658426 9.37710645 34.46159363 9.39971924 C28.93085013 9.42139113 23.40016362 9.43339699 17.86938095 9.43859482 C15.75538103 9.44230077 13.64138436 9.44953716 11.5274086 9.46030045 C8.57489947 9.47474025 5.62262827 9.47682144 2.67008972 9.47589111 C1.78896011 9.48308167 0.90783051 9.49027222 0 9.49768066 C-6.04955986 9.47694465 -6.04955986 9.47694465 -8.27766418 7.24884033 C-8.52766418 4.74884033 -8.52766418 4.74884033 -8.27766418 2.24884033 C-5.61126512 -0.41755874 -3.6252186 0.01242612 0 0 Z " fill="#20324A" transform="translate(411.2776641845703,502.75115966796875)"/>
<path d="M0 0 C0.79535156 -0.020625 1.59070313 -0.04125 2.41015625 -0.0625 C7.83587543 -0.09813691 11.61102282 0.58601276 16.375 3.25 C19.20745722 6.04763193 19.82590204 8.18488833 19.875 12.125 C19.78625618 15.87442657 19.29463656 17.98793366 16.875 20.875 C16.05 21.65875 15.225 22.4425 14.375 23.25 C15.49688841 26.33519311 16.8366463 29.11805649 18.5 31.9375 C20.375 35.25 20.375 35.25 20.375 37.25 C15.2293112 37.94772052 15.2293112 37.94772052 12.375 37.25 C9.0629466 33.87363488 7.35444157 29.82760062 6.375 25.25 C3.735 25.25 1.095 25.25 -1.625 25.25 C-1.625 29.21 -1.625 33.17 -1.625 37.25 C-4.265 37.25 -6.905 37.25 -9.625 37.25 C-9.6496501 32.14136104 -9.66783607 27.03275641 -9.67993164 21.92407227 C-9.68497204 20.18480832 -9.6918043 18.44554864 -9.70043945 16.70629883 C-9.71251792 14.21174063 -9.71823108 11.71723827 -9.72265625 9.22265625 C-9.72781754 8.44036148 -9.73297882 7.65806671 -9.73829651 6.85206604 C-9.73849226 4.98432886 -9.68699694 3.11670796 -9.625 1.25 C-7.49523278 -0.87976722 -2.93611579 0.01849522 0 0 Z " fill="#202C4B" transform="translate(548.625,794.75)"/>
<path d="M0 0 C3.01125 -0.061875 6.0225 -0.12375 9.125 -0.1875 C10.06230957 -0.21481201 10.99961914 -0.24212402 11.96533203 -0.27026367 C18.34597799 -0.33345857 22.55140978 0.74471953 27.375 5.1875 C29.47985603 8.83052005 29.81080887 11.93800656 29 16 C27.25364203 19.14344435 25.53137274 21.46862726 23 24 C23.5053125 24.77085937 24.010625 25.54171875 24.53125 26.3359375 C25.1809375 27.33882812 25.830625 28.34171875 26.5 29.375 C27.1496875 30.37273438 27.799375 31.37046875 28.46875 32.3984375 C30 35 30 35 30 37 C27.03 37 24.06 37 21 37 C19.99491199 35.21118264 18.99607264 33.41885304 18 31.625 C17.443125 30.62726562 16.88625 29.62953125 16.3125 28.6015625 C15 26 15 26 15 24 C12.36 24 9.72 24 7 24 C7 28.29 7 32.58 7 37 C4.69 37 2.38 37 0 37 C0 24.79 0 12.58 0 0 Z " fill="#1B2746" transform="translate(392,795)"/>
<path d="M0 0 C4.29 0 8.58 0 13 0 C13 21.12 13 42.24 13 64 C8.71 64 4.42 64 0 64 C0 42.88 0 21.76 0 0 Z " fill="#2BD8B9" transform="translate(495,357)"/>
<path d="M0 0 C3.17625 -0.0825 6.3525 -0.165 9.625 -0.25 C10.6145166 -0.28641602 11.6040332 -0.32283203 12.62353516 -0.36035156 C18.27093612 -0.43112958 21.55397752 0.16600909 26 4 C28.35125704 6.89988368 28.9558484 8.65940197 29.4375 12.375 C28.87503097 17.03545767 27.75916327 19.19682901 25 23 C21.03558303 25.12878024 17.63550045 25.21485859 13.1875 25.125 C12.02605469 25.10695313 10.86460937 25.08890625 9.66796875 25.0703125 C8.78753906 25.04710937 7.90710938 25.02390625 7 25 C7 28.96 7 32.92 7 37 C4.69 37 2.38 37 0 37 C0 24.79 0 12.58 0 0 Z " fill="#1D2A49" transform="translate(462,795)"/>
<path d="M0 0 C1.5631897 0.00785522 1.5631897 0.00785522 3.15795898 0.01586914 C4.28266602 0.0190918 5.40737305 0.02231445 6.56616211 0.02563477 C7.75016602 0.03401367 8.93416992 0.04239258 10.15405273 0.05102539 C11.34192383 0.05553711 12.52979492 0.06004883 13.75366211 0.06469727 C16.69967499 0.07652864 19.64558954 0.09301252 22.59155273 0.11352539 C22.59155273 2.42352539 22.59155273 4.73352539 22.59155273 7.11352539 C16.65155273 7.11352539 10.71155273 7.11352539 4.59155273 7.11352539 C4.59155273 9.75352539 4.59155273 12.39352539 4.59155273 15.11352539 C10.20155273 15.11352539 15.81155273 15.11352539 21.59155273 15.11352539 C21.59155273 17.42352539 21.59155273 19.73352539 21.59155273 22.11352539 C15.98155273 22.11352539 10.37155273 22.11352539 4.59155273 22.11352539 C4.59155273 24.75352539 4.59155273 27.39352539 4.59155273 30.11352539 C5.87932617 30.10192383 7.16709961 30.09032227 8.49389648 30.07836914 C10.17228046 30.06899269 11.85066599 30.05989234 13.52905273 30.05102539 C14.80425781 30.03845703 14.80425781 30.03845703 16.10522461 30.02563477 C16.91411133 30.02241211 17.72299805 30.01918945 18.55639648 30.01586914 C19.30526123 30.01063232 20.05412598 30.00539551 20.82568359 30 C22.59155273 30.11352539 22.59155273 30.11352539 23.59155273 31.11352539 C23.59155273 33.09352539 23.59155273 35.07352539 23.59155273 37.11352539 C14.68155273 37.11352539 5.77155273 37.11352539 -3.40844727 37.11352539 C-3.43135623 32.00482728 -3.45128328 26.89630614 -3.46337891 21.78759766 C-3.46841931 20.04833371 -3.47525157 18.30907403 -3.48388672 16.56982422 C-3.49596518 14.07526602 -3.50167835 11.58076366 -3.50610352 9.08618164 C-3.5112648 8.30388687 -3.51642609 7.5215921 -3.52174377 6.71559143 C-3.52193953 4.84785425 -3.47044421 2.98023335 -3.40844727 1.11352539 C-2.40844727 0.11352539 -2.40844727 0.11352539 0 0 Z " fill="#1F2D4B" transform="translate(431.408447265625,794.886474609375)"/>
<path d="M0 0 C4.27449168 2.88528189 4.27449168 2.88528189 5.5 4.6875 C5.1875 6.875 5.1875 6.875 4.5 8.6875 C2.3125 9.4375 2.3125 9.4375 -0.5 9.6875 C-1.28375 9.048125 -2.0675 8.40875 -2.875 7.75 C-6.2423476 5.10422688 -8.32593893 5.36012266 -12.5 5.6875 C-12.83 7.3375 -13.16 8.9875 -13.5 10.6875 C-9.77488919 12.39484246 -6.39723296 13.7672296 -2.375 14.5625 C1.80598696 15.57927698 4.01930091 17.04397321 6.5 20.6875 C7.19806892 23.8402539 7.22032829 26.53749294 6.5 29.6875 C3.92422676 33.05031506 1.38877835 35.08706415 -2.5 36.6875 C-8.66171954 37.40419548 -14.29706477 37.36762492 -19.5 33.6875 C-21.9375 31.1875 -21.9375 31.1875 -23.5 28.6875 C-23.005 27.2025 -23.005 27.2025 -22.5 25.6875 C-20.3125 24.9375 -20.3125 24.9375 -17.5 24.6875 C-16.79875 25.326875 -16.0975 25.96625 -15.375 26.625 C-11.01560011 29.75239557 -6.7014526 29.01543747 -1.5 28.6875 C-1.97999907 25.70065472 -1.97999907 25.70065472 -3.5 22.6875 C-6.65526049 21.23552235 -6.65526049 21.23552235 -10.375 20.5625 C-15.28985493 19.48513097 -18.39236247 18.78837761 -21.5 14.6875 C-22.8872169 10.87454863 -22.87463053 7.62407633 -21.375 3.875 C-15.74376995 -2.69476839 -7.83246462 -2.93717423 0 0 Z " fill="#222D4B" transform="translate(628.5,796.3125)"/>
<path d="M0 0 C0.1875 2.875 0.1875 2.875 0 6 C-2.81183482 7.87455655 -4.43449096 8.45996919 -7.625 9.25 C-17.22416524 12.04859045 -24.20474967 17.84326057 -29.40625 26.28125 C-32.34169043 31.67426847 -33.75694027 36.66907636 -34.54296875 42.75 C-35 45 -35 45 -37 47 C-39.5 47.25 -39.5 47.25 -42 47 C-44 45 -44 45 -44.375 42.1875 C-44.04867578 32.4181687 -39.84224616 23.6077601 -34 16 C-33.13375 14.700625 -33.13375 14.700625 -32.25 13.375 C-23.69941108 4.34937836 -12.45844918 -2.19854986 0 0 Z " fill="#23354F" transform="translate(569,453)"/>
<path d="M0 0 C4.29 0 8.58 0 13 0 C13 13.2 13 26.4 13 40 C8.71 40 4.42 40 0 40 C0 26.8 0 13.6 0 0 Z " fill="#28D6B8" transform="translate(454,381)"/>
<path d="M0 0 C9.9 0 19.8 0 30 0 C30 2.31 30 4.62 30 7 C26.37 7 22.74 7 19 7 C19 16.9 19 26.8 19 37 C16.36 37 13.72 37 11 37 C11 27.43 11 17.86 11 8 C7.7 8 4.4 8 1 8 C0.67 7.67 0.34 7.34 0 7 C0 4.69 0 2.38 0 0 Z " fill="#333F5B" transform="translate(572,795)"/>
<path d="M0 0 C3 2.4375 3 2.4375 5 5 C5.33 5.33 5.66 5.66 6 6 C6.42724164 10.89684646 6.62158393 15.47711937 4.75 20.0625 C1.80732807 23.32045821 -0.05738855 23.89716966 -4.4375 24.375 C-8.62750939 23.93394638 -10.093893 22.98913863 -13 20 C-15.54333673 15.75814119 -15.56907242 11.82849329 -15 7 C-11.92795564 0.12447214 -7.05987581 -1.2633462 0 0 Z " fill="#F7F8F7" transform="translate(518,802)"/>
<path d="M0 0 C0.33 0 0.66 0 1 0 C1.35652399 6.44384101 1.4010161 12.32321105 -2 18 C-5.38806972 21.7297238 -9.47175653 24.58592548 -14.48046875 25.40625 C-21.9996399 25.6666542 -26.24270331 23.77642392 -32 19 C-31.67 17.68 -31.34 16.36 -31 15 C-24.375 14.75 -24.375 14.75 -21 17 C-16.86069947 17.30104004 -13.42900613 17.54000454 -10 15 C-8.25352204 12.08280605 -7.67222907 9.61859614 -7.375 6.25 C-7.30023437 5.45078125 -7.22546875 4.6515625 -7.1484375 3.828125 C-7.09945312 3.22484375 -7.05046875 2.6215625 -7 2 C-6.67 2 -6.34 2 -6 2 C-5.67 3.65 -5.34 5.3 -5 7 C-4.34 7 -3.68 7 -3 7 C-3 5.35 -3 3.7 -3 2 C-1 4 -1 4 -0.875 6.625 C-0.91625 7.40875 -0.9575 8.1925 -1 9 C-0.67 6.03 -0.34 3.06 0 0 Z " fill="#213050" transform="translate(531,808)"/>
<path d="M0 0 C4.62 0 9.24 0 14 0 C14 4.95 14 9.9 14 15 C9.38 15 4.76 15 0 15 C0 10.05 0 5.1 0 0 Z " fill="#23D5BB" transform="translate(412,406)"/>
<path d="M0 0 C0.99 1.485 0.99 1.485 2 3 C2.99 2.34 3.98 1.68 5 1 C6.09857724 7.1676029 6.11539104 13.18415123 6.0625 19.4375 C6.05798828 20.45521484 6.05347656 21.47292969 6.04882812 22.52148438 C6.03712437 25.01438509 6.02072848 27.50716074 6 30 C4.02 30 2.04 30 0 30 C0 20.1 0 10.2 0 0 Z " fill="#142240" transform="translate(584,802)"/>
<path d="M0 0 C10.48893081 -0.37019756 10.48893081 -0.37019756 12.828125 1.32421875 C14.66769486 3.95480366 14.45354771 5.88995859 14 9 C11.80816743 11.16160039 10.50039296 11.94313716 7.421875 12.29296875 C6.54015625 12.25816406 5.6584375 12.22335937 4.75 12.1875 C3.1825 12.125625 1.615 12.06375 0 12 C0 8.04 0 4.08 0 0 Z " fill="#ECEDEF" transform="translate(469,802)"/>
<path d="M0 0 C10.625 -0.25 10.625 -0.25 14 2 C14.39095659 5.06249332 14.63657259 7.08452771 12.83203125 9.6796875 C9.18837363 12.30560706 4.28989285 11.15140798 0 11 C0 7.37 0 3.74 0 0 Z " fill="#EEEFF1" transform="translate(399,802)"/>
<path d="M0 0 C10.49915863 -0.37055854 10.49915863 -0.37055854 12.83203125 1.35546875 C14.49776873 3.7008717 14.42147552 5.19016323 14 8 C12.83203125 9.64453125 12.83203125 9.64453125 11 11 C7.29631297 11.40199208 3.73655831 11.13187853 0 11 C0 7.37 0 3.74 0 0 Z " fill="#F0F2F4" transform="translate(547,802)"/>
<path d="M0 0 C7.57040272 -0.36370262 12.67121367 -0.21168018 18.9375 4.4375 C20 6 20 6 19.6875 8.1875 C19.460625 8.785625 19.23375 9.38375 19 10 C16.8125 10.75 16.8125 10.75 14 11 C13.21625 10.360625 12.4325 9.72125 11.625 9.0625 C8.21328283 6.38186508 6.24029933 6.52885563 2 7 C1.01 7.66 0.02 8.32 -1 9 C-0.67 6.03 -0.34 3.06 0 0 Z " fill="#1D2847" transform="translate(614,795)"/>
<path d="M0 0 C1.5631897 0.00785522 1.5631897 0.00785522 3.15795898 0.01586914 C4.28266602 0.0190918 5.40737305 0.02231445 6.56616211 0.02563477 C7.75016602 0.03401367 8.93416992 0.04239258 10.15405273 0.05102539 C11.34192383 0.05553711 12.52979492 0.06004883 13.75366211 0.06469727 C16.69967499 0.07652864 19.64558954 0.09301252 22.59155273 0.11352539 C22.59155273 2.09352539 22.59155273 4.07352539 22.59155273 6.11352539 C22.26155273 5.12352539 21.93155273 4.13352539 21.59155273 3.11352539 C17.94573586 3.08465027 14.2999481 3.06676954 10.65405273 3.05102539 C9.61313477 3.04264648 8.5722168 3.03426758 7.49975586 3.02563477 C6.51040039 3.02241211 5.52104492 3.01918945 4.50170898 3.01586914 C3.58526611 3.01063232 2.66882324 3.00539551 1.72460938 3 C-0.3920775 2.87431328 -0.3920775 2.87431328 -1.40844727 4.11352539 C-1.56825164 6.55961537 -1.66774173 8.98083597 -1.72485352 11.42993164 C-1.74563461 12.16098618 -1.76641571 12.89204071 -1.78782654 13.64524841 C-1.85339751 15.98874195 -1.91224158 18.33235078 -1.97094727 20.67602539 C-2.01412535 22.26132394 -2.0577394 23.84661068 -2.10180664 25.43188477 C-2.20908646 29.32564577 -2.31033216 33.21952311 -2.40844727 37.11352539 C-2.73844727 37.11352539 -3.06844727 37.11352539 -3.40844727 37.11352539 C-3.43309737 32.00488643 -3.45128334 26.8962818 -3.46337891 21.78759766 C-3.46841931 20.04833371 -3.47525157 18.30907403 -3.48388672 16.56982422 C-3.49596518 14.07526602 -3.50167835 11.58076366 -3.50610352 9.08618164 C-3.5112648 8.30388687 -3.51642609 7.5215921 -3.52174377 6.71559143 C-3.52193953 4.84785425 -3.47044421 2.98023335 -3.40844727 1.11352539 C-2.40844727 0.11352539 -2.40844727 0.11352539 0 0 Z " fill="#37425E" transform="translate(431.408447265625,794.886474609375)"/>
<path d="M0 0 C4.875 1.75 4.875 1.75 6 4 C6.13415472 6.6723621 6.04318541 9.32250488 6 12 C5.67 11.01 5.34 10.02 5 9 C4.01 9 3.02 9 2 9 C0.3125 7.5 0.3125 7.5 -1 6 C-1.33 7.32 -1.66 8.64 -2 10 C-2.12375 9.195625 -2.2475 8.39125 -2.375 7.5625 C-2.58125 6.716875 -2.7875 5.87125 -3 5 C-5.43387753 3.78306124 -7.41838846 3.68040104 -10.125 3.4375 C-11.03507812 3.35371094 -11.94515625 3.26992188 -12.8828125 3.18359375 C-13.58148438 3.12300781 -14.28015625 3.06242188 -15 3 C-15 2.67 -15 2.34 -15 2 C-14.00097656 1.93941406 -13.00195312 1.87882813 -11.97265625 1.81640625 C-10.68230469 1.73261719 -9.39195312 1.64882813 -8.0625 1.5625 C-6.77472656 1.48128906 -5.48695313 1.40007813 -4.16015625 1.31640625 C-1.13976043 1.35080812 -1.13976043 1.35080812 0 0 Z " fill="#202A4D" transform="translate(415,799)"/>
<path d="M0 0 C0.33 0 0.66 0 1 0 C1.05437607 1.58294782 1.09296271 3.16644256 1.125 4.75 C1.14820313 5.63171875 1.17140625 6.5134375 1.1953125 7.421875 C0.99139502 10.1135858 0.36551721 11.69904974 -1 14 C-1.99 13.34 -2.98 12.68 -4 12 C-4.33 12.66 -4.66 13.32 -5 14 C-6.32 13.67 -7.64 13.34 -9 13 C-8.67 12.34 -8.34 11.68 -8 11 C-7.77532169 9.46331135 -7.59203195 7.92031946 -7.4375 6.375 C-7.35371094 5.55773437 -7.26992188 4.74046875 -7.18359375 3.8984375 C-7.12300781 3.27195312 -7.06242188 2.64546875 -7 2 C-6.67 2 -6.34 2 -6 2 C-5.67 3.65 -5.34 5.3 -5 7 C-4.34 7 -3.68 7 -3 7 C-3 5.35 -3 3.7 -3 2 C-1 4 -1 4 -0.875 6.625 C-0.91625 7.40875 -0.9575 8.1925 -1 9 C-0.67 6.03 -0.34 3.06 0 0 Z " fill="#2A3653" transform="translate(531,808)"/>
<path d="M0 0 C2.74277578 3.19990508 4.6302836 6.00499382 6 10 C3.03 10 0.06 10 -3 10 C-3.66 8.35 -4.32 6.7 -5 5 C-4.34 5 -3.68 5 -3 5 C-1.3553326 2.53673288 -1.3553326 2.53673288 0 0 Z " fill="#19294D" transform="translate(416,822)"/>
<path d="M0 0 C0.99 0.33 1.98 0.66 3 1 C3 1.66 3 2.32 3 3 C3.99 3 4.98 3 6 3 C5.67 5.31 5.34 7.62 5 10 C3.68 10 2.36 10 1 10 C-1.42857143 3.71428571 -1.42857143 3.71428571 0 0 Z " fill="#111C38" transform="translate(414,805)"/>
<path d="M0 0 C0.99 0.33 1.98 0.66 3 1 C3 1.66 3 2.32 3 3 C2.34 3 1.68 3 1 3 C0.773125 3.78375 0.54625 4.5675 0.3125 5.375 C-1 8 -1 8 -3.625 9.3125 C-4.40875 9.539375 -5.1925 9.76625 -6 10 C-6 8.02 -6 6.04 -6 4 C-4.35 3.67 -2.7 3.34 -1 3 C-0.67 2.01 -0.34 1.02 0 0 Z " fill="#112143" transform="translate(527,819)"/>
<path d="M0 0 C-0.165 0.7425 -0.33 1.485 -0.5 2.25 C-1.11925696 5.19006578 -1.11925696 5.19006578 -1 9 C-2.65 7.35 -4.3 5.7 -6 4 C-5.67 3.01 -5.34 2.02 -5 1 C-3 0 -3 0 0 0 Z " fill="#263451" transform="translate(611,821)"/>
<path d="M0 0 C0.6875 1.6875 0.6875 1.6875 1 4 C-0.25 6.6875 -0.25 6.6875 -2 9 C-2.99 9.33 -3.98 9.66 -5 10 C-5.8125 8.3125 -5.8125 8.3125 -6 6 C-3.625 3.3125 -3.625 3.3125 -1 1 C-0.67 0.67 -0.34 0.34 0 0 Z " fill="#15203D" transform="translate(505,801)"/>
<path d="M0 0 C2.74277578 3.19990508 4.6302836 6.00499382 6 10 C5.01 10 4.02 10 3 10 C2.67 9.01 2.34 8.02 2 7 C1.46375 6.525625 0.9275 6.05125 0.375 5.5625 C-0.07875 5.046875 -0.5325 4.53125 -1 4 C-0.6875 1.8125 -0.6875 1.8125 0 0 Z " fill="#263551" transform="translate(416,822)"/>
<path d="M0 0 C1.14926266 0.95421808 2.29430541 1.91352045 3.4375 2.875 C4.07558594 3.40867187 4.71367188 3.94234375 5.37109375 4.4921875 C7 6 7 6 8 8 C7.01 8.33 6.02 8.66 5 9 C2.5 6.75 2.5 6.75 0 4 C0 2.68 0 1.36 0 0 Z " fill="#E6E8ED" transform="translate(640,589)"/>
<path d="M0 0 C0.33 0.66 0.66 1.32 1 2 C1.99 1.67 2.98 1.34 4 1 C3.67 2.65 3.34 4.3 3 6 C1.02 6.66 -0.96 7.32 -3 8 C-1.125 2.25 -1.125 2.25 0 0 Z " fill="#25344E" transform="translate(270,291)"/>
<path d="M0 0 C0.66 0 1.32 0 2 0 C0.64844718 4.42326378 -1.19890438 6.40412982 -5 9 C-5.99 9.33 -6.98 9.66 -8 10 C-8 9.01 -8 8.02 -8 7 C-7.05125 6.773125 -6.1025 6.54625 -5.125 6.3125 C-1.80676612 5.30916286 -1.80676612 5.30916286 -0.625 2.375 C-0.41875 1.59125 -0.2125 0.8075 0 0 Z " fill="#293A5B" transform="translate(528,822)"/>
<path d="M0 0 C0.33 0 0.66 0 1 0 C1.144375 0.7425 1.28875 1.485 1.4375 2.25 C1.94197586 4.91286562 1.94197586 4.91286562 2.625 7.125 C3 9 3 9 2 12 C0.68 11.67 -0.64 11.34 -2 11 C-1.67 10.34 -1.34 9.68 -1 9 C-0.77532169 7.46331135 -0.59203195 5.92031946 -0.4375 4.375 C-0.35371094 3.55773437 -0.26992188 2.74046875 -0.18359375 1.8984375 C-0.12300781 1.27195312 -0.06242188 0.64546875 0 0 Z " fill="#32405A" transform="translate(524,810)"/>
<path d="M0 0 C1.32 0 2.64 0 4 0 C3.67 1.65 3.34 3.3 3 5 C1.68 5 0.36 5 -1 5 C-1 1 -1 1 0 0 Z " fill="#17213E" transform="translate(416,810)"/>
<path d="M0 0 C0.66 0.66 1.32 1.32 2 2 C1.01 2.33 0.02 2.66 -1 3 C-1 3.66 -1 4.32 -1 5 C-4.63 5 -8.26 5 -12 5 C-12 4.34 -12 3.68 -12 3 C-10.95199219 2.92652344 -10.95199219 2.92652344 -9.8828125 2.8515625 C-8.97273438 2.77679687 -8.06265625 2.70203125 -7.125 2.625 C-6.22007812 2.55539062 -5.31515625 2.48578125 -4.3828125 2.4140625 C-1.82058097 2.20431868 -1.82058097 2.20431868 0 0 Z " fill="#29334E" transform="translate(412,810)"/>
<path d="M0 0 C6 6 6 6 7 9 C3.63408134 7.55746343 1.48952921 5.66735273 -1 3 C-0.67 2.01 -0.34 1.02 0 0 Z " fill="#1D2E4A" transform="translate(642,587)"/>
<path d="M0 0 C2 2 2 2 2.1953125 3.9453125 C2.13020833 5.96354167 2.06510417 7.98177083 2 10 C1.67 9.01 1.34 8.02 1 7 C0.34 7 -0.32 7 -1 7 C-0.67 4.69 -0.34 2.38 0 0 Z " fill="#364159" transform="translate(419,801)"/>
<path d="M0 0 C1.65 0 3.3 0 5 0 C4.01 1.98 3.02 3.96 2 6 C1.34 6 0.68 6 0 6 C0 4.02 0 2.04 0 0 Z " fill="#1B2846" transform="translate(572,796)"/>
<path d="M0 0 C0.66 0 1.32 0 2 0 C3.625 2.5 3.625 2.5 5 5 C3.68 5 2.36 5 1 5 C0.34 3.68 -0.32 2.36 -1 1 C-0.67 0.67 -0.34 0.34 0 0 Z " fill="#D6DBE0" transform="translate(621,543)"/>
<path d="M0 0 C1 3 1 3 -0.4375 6.1875 C-1.2109375 7.5796875 -1.2109375 7.5796875 -2 9 C-2.99 7.68 -3.98 6.36 -5 5 C-3.35 3.35 -1.7 1.7 0 0 Z " fill="#E2E1E1" transform="translate(419,813)"/>
<path d="M0 0 C4.29 0 8.58 0 13 0 C13 0.99 13 1.98 13 3 C12.34 2.67 11.68 2.34 11 2 C9.12943209 1.7724985 7.25314042 1.59037189 5.375 1.4375 C4.37210937 1.35371094 3.36921875 1.26992188 2.3359375 1.18359375 C1.56507813 1.12300781 0.79421875 1.06242188 0 1 C0 0.67 0 0.34 0 0 Z " fill="#2D395C" transform="translate(469,801)"/>
<path d="M0 0 C3.63 0 7.26 0 11 0 C11 0.33 11 0.66 11 1 C8.02148438 1.29296875 8.02148438 1.29296875 5.04296875 1.5859375 C2.70011858 1.92665391 2.70011858 1.92665391 0 4 C0 2.68 0 1.36 0 0 Z " fill="#11203F" transform="translate(462,796)"/>
<path d="M0 0 C-1 3 -1 3 -4 5 C-6.1875 4.625 -6.1875 4.625 -8 4 C-2.25 0 -2.25 0 0 0 Z " fill="#21324A" transform="translate(298,263)"/>
</svg>
