<?xml version="1.0" encoding="UTF-8"?>
<svg version="1.1" xmlns="http://www.w3.org/2000/svg" width="1024" height="1024">
<path d="M0 0 C337.92 0 675.84 0 1024 0 C1024 337.92 1024 675.84 1024 1024 C686.08 1024 348.16 1024 0 1024 C0 686.08 0 348.16 0 0 Z " fill="#FCFCFC" transform="translate(0,0)"/>
<path d="M0 0 C1.31821045 -0.00382555 2.63642089 -0.00765109 3.99457711 -0.01159257 C7.6338142 -0.02183807 11.2729524 -0.01969959 14.91219747 -0.01541197 C18.84483159 -0.01293844 22.77744229 -0.02196672 26.71006775 -0.02944946 C34.40716357 -0.04218137 42.10422448 -0.04399201 49.80132905 -0.0416492 C56.06007361 -0.03986409 62.31880759 -0.04161983 68.57755089 -0.04587364 C69.46930848 -0.04646883 70.36106608 -0.04706402 71.27984663 -0.04767724 C73.09163505 -0.04888904 74.90342347 -0.05010317 76.71521189 -0.05131962 C93.69635071 -0.06218948 110.67746966 -0.06003537 127.65860959 -0.05393478 C143.17931899 -0.04876689 158.69996559 -0.06001866 174.22066257 -0.07903299 C190.17226643 -0.09842481 206.1238406 -0.10666499 222.07545632 -0.10290974 C231.02504969 -0.10099964 239.97458963 -0.1034666 248.92417336 -0.11762428 C256.54366879 -0.12955623 264.16307791 -0.13092271 271.78257457 -0.11883412 C275.66661592 -0.11295796 279.55049955 -0.11181079 283.43453026 -0.12383652 C286.99696383 -0.13473789 290.55910881 -0.13154199 294.12152912 -0.11757483 C296.00609092 -0.11370058 297.89066574 -0.12444022 299.77519685 -0.13587171 C316.5184543 -0.03035075 331.51964934 5.28158929 343.63456726 17.10054016 C344.32808289 17.81339172 345.02159851 18.52624329 345.73612976 19.26069641 C346.28527039 19.77761047 346.83441101 20.29452454 347.40019226 20.82710266 C351.16677227 24.68432229 353.53490254 29.3222223 355.98612976 34.07319641 C356.32789246 34.72489807 356.66965515 35.37659973 357.02177429 36.04804993 C361.66966877 45.44920968 362.02972854 54.99401947 361.99682617 65.32765198 C362.00065172 66.6126373 362.00447727 67.89762262 362.00841874 69.22154689 C362.01864841 72.76345172 362.01652984 76.30525475 362.01223814 79.84716773 C362.00976168 83.67689066 362.01879654 87.50658966 362.02627563 91.33630371 C362.03899977 98.8300628 362.04081913 106.32378601 362.03847537 113.81755409 C362.03668927 119.91226067 362.03844811 126.0069564 362.04269981 132.10166168 C362.043295 132.97050345 362.04389019 133.83934522 362.04450342 134.73451553 C362.04571523 136.49983496 362.04692936 138.26515438 362.04814579 140.0304738 C362.05901281 156.57198246 362.05686298 173.11347071 362.05076095 189.65498051 C362.04559417 204.76688472 362.05684242 219.87872442 362.07585917 234.99061587 C362.09526141 250.52867667 362.10348928 266.06670698 362.09973592 281.60477996 C362.09782728 290.31967908 362.1002783 299.03452333 362.11445045 307.74941254 C362.12639578 315.16973525 362.12773405 322.58996933 362.11566029 330.01029333 C362.10979326 333.79130236 362.10861133 337.5721495 362.12066269 341.35314751 C362.13361285 345.4641605 362.12300531 349.57479233 362.11035156 353.68580627 C362.11772585 354.86385401 362.12510013 356.04190175 362.13269788 357.2556479 C362.01371583 375.73027747 356.66440994 391.53218192 343.55644226 404.63569641 C329.88717198 417.35834133 314.70301565 421.57427228 296.44102478 421.52812195 C295.10608437 421.53186396 293.77114614 421.53646767 292.43621135 421.54185259 C288.78750814 421.55402995 285.13889698 421.55382838 281.49017811 421.55146384 C277.5472963 421.55105434 273.60444348 421.56210751 269.66157532 421.57157898 C261.94409501 421.5881609 254.22664526 421.59368725 246.50914863 421.59480374 C240.23324973 421.59575552 233.95736087 421.59987231 227.68146515 421.60620499 C209.8711278 421.62380954 192.06081451 421.63304506 174.2504684 421.63154404 C173.29118587 421.63146413 172.33190334 421.63138421 171.34355164 421.63130188 C169.90286218 421.63117924 169.90286218 421.63117924 168.43306789 421.63105412 C152.8709851 421.63024139 137.30899913 421.6493779 121.74694434 421.67757861 C105.75126421 421.7063354 89.75563127 421.72011738 73.75992465 421.71839106 C64.78624553 421.71772814 55.81266792 421.72317759 46.83901215 421.74474716 C39.1983019 421.76299575 31.55773919 421.76727616 23.91701654 421.75372832 C20.02267774 421.74721723 16.12862171 421.74701364 12.23431015 421.76443481 C8.66126695 421.78025366 5.08872864 421.77721339 1.51569709 421.75986655 C-0.37211155 421.75538342 -2.25993642 421.77038455 -4.14768291 421.78634584 C-20.1681168 421.65809922 -35.63043648 415.39732873 -47.26387024 404.26069641 C-59.78051754 389.93836884 -64.74608613 374.62917255 -64.65155029 355.79464722 C-64.65693583 354.49091327 -64.66232137 353.18717933 -64.6678701 351.84393829 C-64.68221696 348.25897318 -64.67811411 344.67424007 -64.67070329 341.08926284 C-64.66594705 337.20982181 -64.67850299 333.33042921 -64.6887207 329.45100403 C-64.70586571 321.86426058 -64.70675774 314.27760012 -64.7015078 306.69084234 C-64.69745712 300.52132307 -64.69892029 294.35182822 -64.70425606 288.1823101 C-64.70500448 287.30234915 -64.7057529 286.42238819 -64.706524 285.51576174 C-64.70805557 283.72781165 -64.70959391 281.93986157 -64.71113897 280.15191149 C-64.72484826 263.40725834 -64.7194372 246.66265199 -64.70795376 229.91799992 C-64.69802127 214.61799725 -64.71096512 199.31811552 -64.73488795 184.0181315 C-64.75930233 168.2845136 -64.76888118 152.55095197 -64.76223522 136.81731552 C-64.75874843 127.99347569 -64.76093946 119.16972885 -64.77848625 110.3459034 C-64.79323743 102.83517928 -64.79380559 95.32461366 -64.77641534 87.81389255 C-64.76792722 83.98637075 -64.76570179 80.15913173 -64.78106689 76.33162498 C-64.7975574 72.17209927 -64.78271189 68.01325028 -64.76507568 63.85372925 C-64.77468069 62.65856912 -64.7842857 61.46340899 -64.79418176 60.23203188 C-64.64145374 42.6520772 -57.49495789 28.55504831 -45.26387024 16.26069641 C-44.66058899 15.62261047 -44.05730774 14.98452454 -43.43574524 14.32710266 C-39.37198547 10.36051975 -34.90937235 7.86492256 -29.82637024 5.44819641 C-28.91347229 5.01277527 -28.91347229 5.01277527 -27.98213196 4.56855774 C-18.81119469 0.44321842 -9.96399645 -0.03080655 0 0 Z " fill="#FCFDFD" transform="translate(363.2638702392578,276.7393035888672)"/>
<path d="M0 0 C1.53211129 -0.00461759 3.06421815 -0.01097623 4.59631586 -0.01890898 C8.77614264 -0.03550779 12.95560109 -0.02739935 17.13542867 -0.0149641 C21.65494148 -0.00587696 26.17439298 -0.01990144 30.69389343 -0.03088379 C39.53563296 -0.04863462 48.37723637 -0.04484437 57.21898115 -0.03323323 C64.40729535 -0.02418563 71.5955715 -0.02298064 78.78388977 -0.02732849 C79.80845824 -0.02794142 80.8330267 -0.02855436 81.8886427 -0.02918586 C83.97028253 -0.03046481 86.05192234 -0.03176167 88.13356215 -0.03307623 C107.63559361 -0.04447196 127.13754976 -0.03138412 146.63956887 -0.00987476 C163.35931896 0.00799529 180.07895796 0.0048909 196.79870605 -0.0135498 C216.23277473 -0.0349743 235.66677747 -0.04337342 255.1008563 -0.03110075 C257.17467466 -0.0298266 259.24849303 -0.02856912 261.3223114 -0.02732849 C262.34256791 -0.02671139 263.36282442 -0.02609429 264.4139978 -0.02545848 C271.59049324 -0.02201033 278.76694672 -0.02782241 285.94343567 -0.0372467 C294.69375537 -0.04848561 303.44393162 -0.0453869 312.19423497 -0.02412373 C316.65552228 -0.01363876 321.11657072 -0.00944774 325.57785606 -0.02272034 C329.66760645 -0.03470324 333.75689818 -0.02798542 337.84660739 -0.00681013 C339.32020293 -0.0023689 340.7938378 -0.00455409 342.26740772 -0.01431328 C358.27398292 -0.11212946 371.61974761 4.30433137 383.41638184 15.27746582 C392.40191439 24.65724478 397.67338345 35.74987297 397.68173504 48.78555012 C397.68495948 50.05852776 397.68818393 51.3315054 397.69150609 52.64305812 C397.69003499 54.05344611 397.68846727 55.46383401 397.68681335 56.8742218 C397.68868161 58.37426345 397.69098237 59.87430461 397.69367868 61.374345 C397.69980135 65.49778177 397.69966253 69.62119828 397.6984843 73.74463856 C397.69828041 78.19123786 397.70379793 82.63783062 397.70854187 87.08442688 C397.71685157 95.79673412 397.71959686 104.50903459 397.72015425 113.22134546 C397.72062926 120.30258565 397.72268328 127.38382361 397.72585487 134.4650631 C397.73466236 154.53785852 397.73927411 174.6106486 397.7385244 194.68344597 C397.73846447 196.30695235 397.73846447 196.30695235 397.73840332 197.96325684 C397.73836244 199.04691462 397.73832156 200.13057241 397.73827944 201.24706831 C397.73787295 218.8109075 397.74744288 236.37472526 397.76154169 253.93855826 C397.77590113 271.96923457 397.78281211 289.99990043 397.78194791 308.03058261 C397.78161579 318.15493245 397.78436952 328.27925981 397.79512596 338.40360451 C397.80422528 347.02351083 397.80641089 355.6433845 397.79961654 364.26329354 C397.79634845 368.66119592 397.79630508 373.05903562 397.80496979 377.45693207 C397.81282292 381.48432667 397.8114155 385.51160877 397.80268566 389.53900059 C397.80114805 390.99456981 397.80297664 392.45014737 397.80854573 393.90570674 C397.86655296 410.14454498 393.73104813 424.34390113 382.19372559 436.25402832 C369.12445891 447.40930475 355.04145407 449.97163396 338.2268219 449.89561462 C336.70779972 449.89979542 335.18878067 449.905277 333.66976732 449.91193444 C329.52613517 449.92630988 325.38270326 449.92216925 321.23906052 449.91476762 C316.75838965 449.91001861 312.27776102 449.92256102 307.79710388 449.93278503 C299.03125361 449.94994406 290.2654751 449.95081913 281.4996124 449.94557213 C274.37233286 449.94152407 267.24507448 449.94298154 260.11779594 449.94832039 C258.59386545 449.94944302 258.59386545 449.94944302 257.03914849 449.95058833 C254.9749854 449.95211987 252.91082232 449.95365822 250.84665924 449.9552033 C231.50818718 449.96891767 212.16975564 449.96349796 192.83128452 449.95201809 C175.15483964 449.94208516 157.47849942 449.95502932 139.80207068 449.97895228 C121.63214773 450.00335705 103.46227351 450.01294786 85.2923345 450.00629956 C75.09916129 450.00281062 64.90606857 450.00501802 54.71290779 450.02255058 C46.0365509 450.0372897 37.3603312 450.03788555 28.68397696 450.02047967 C24.26104014 450.01198172 19.83834823 450.0097906 15.41542435 450.02513123 C11.35955279 450.03902416 7.3041349 450.03415658 3.24828928 450.01489199 C1.78813153 450.01114575 0.32793704 450.01401391 -1.13218784 450.02450364 C-17.42725465 450.13316244 -30.73928432 445.96429247 -42.75939941 434.69543457 C-54.14662675 422.53974404 -57.06254765 408.3286291 -56.96156311 392.09936523 C-56.96689989 390.58360195 -56.97397204 389.06784396 -56.98261017 387.55209589 C-57.00111433 383.42207212 -56.99497518 379.29240991 -56.98445714 375.16237187 C-56.9774302 370.69465789 -56.99348934 366.22701561 -57.00645447 361.75932312 C-57.02804076 353.02099777 -57.02798151 344.28280292 -57.01982892 335.5444597 C-57.01351682 328.43960526 -57.01467704 321.33478874 -57.021101 314.22993469 C-57.02200265 313.21689188 -57.02290431 312.20384908 -57.02383329 311.160108 C-57.02568457 309.10182344 -57.02754713 307.04353889 -57.02942085 304.98525435 C-57.04598032 285.70637741 -57.03729557 266.42757377 -57.02043527 247.14870125 C-57.005737 229.52726154 -57.02037181 211.90599233 -57.04920543 194.28457457 C-57.07862605 176.16885285 -57.08956412 158.05320975 -57.08002323 139.93746519 C-57.07900073 137.88695496 -57.07800611 135.83644471 -57.07703972 133.78593445 C-57.07656333 132.77717008 -57.07608694 131.76840571 -57.07559611 130.72907272 C-57.07343567 123.63667823 -57.08321624 116.54435851 -57.09781075 109.45198059 C-57.11536083 100.80306764 -57.11517818 92.15437205 -57.09245909 83.50546753 C-57.08134175 79.09665344 -57.07809729 74.68822192 -57.0967598 70.27942467 C-57.11365301 66.23645279 -57.10709534 62.19419457 -57.08254301 58.15126818 C-57.07768818 56.6958527 -57.08109703 55.24037866 -57.09403045 53.78501254 C-57.22579126 37.79287751 -51.96961139 25.43446888 -41.13439941 13.75793457 C-29.4420868 2.71519488 -15.5993537 -0.1033117 0 0 Z M-26.44689941 33.50793457 C-27.08240723 34.10992676 -27.71791504 34.71191895 -28.37268066 35.33215332 C-39.48776741 46.69369432 -42.7535602 62.17878204 -42.71432495 77.48623657 C-42.71885606 78.78584725 -42.72338718 80.08545793 -42.7280556 81.42445076 C-42.74024607 85.01647519 -42.74002981 88.60840622 -42.73766685 92.20044661 C-42.73725767 96.08065177 -42.74830756 99.96082739 -42.75778198 103.84101868 C-42.77437202 111.43798593 -42.77989065 119.03492214 -42.78100674 126.63190599 C-42.78195831 132.81056627 -42.78607403 138.98921634 -42.79240799 145.16787338 C-42.81001614 162.70236566 -42.81924771 180.23683348 -42.81774704 197.77133466 C-42.81766713 198.7159849 -42.81758722 199.66063513 -42.81750488 200.63391113 C-42.81742312 201.57972089 -42.81734136 202.52553064 -42.81725712 203.5000013 C-42.81644468 218.81897804 -42.8355728 234.13785636 -42.86378162 249.45680465 C-42.89254679 265.20272531 -42.90631986 280.94859803 -42.90459406 296.69454563 C-42.90393134 305.52798487 -42.90937164 314.36132097 -42.93095016 323.19473648 C-42.94920999 330.71759816 -42.95347016 338.24030995 -42.93993132 345.76318426 C-42.93342535 349.59688365 -42.93319777 353.43029589 -42.95063782 357.26396751 C-42.96940323 361.43210316 -42.95675216 365.59958116 -42.94137573 369.76773071 C-42.95166286 370.96270648 -42.96194999 372.15768225 -42.97254884 373.3888694 C-42.83549347 390.28900789 -36.54282626 407.4515369 -24.44689941 419.50793457 C-10.6249267 430.71590726 2.98063734 435.82011922 20.7144928 435.77536011 C22.69347711 435.78215678 22.69347711 435.78215678 24.71244091 435.78909075 C28.35954221 435.80128311 32.00655151 435.80106474 35.65366852 435.798702 C39.59319786 435.79829287 43.53269808 435.80934234 47.47221375 435.81881714 C55.18582326 435.83540857 62.89940219 435.84092589 70.61302806 435.84204189 C76.88702675 435.84299346 83.1610154 435.8471092 89.43501091 435.85344315 C107.24112509 435.87105223 125.04721518 435.8802828 142.85333813 435.8787822 C144.29232186 435.87866233 144.29232186 435.87866233 145.76037598 435.87854004 C146.72087649 435.87845828 147.68137701 435.87837652 148.67098361 435.87829228 C164.22531238 435.87747997 179.77954417 435.89660455 195.33384491 435.92481677 C211.32272296 435.9535872 227.31155379 435.96735471 243.30045837 435.96562922 C252.26974485 435.96496665 261.23892973 435.97040036 270.20819283 435.99198532 C277.84740623 436.01025215 285.486472 436.01449967 293.12569786 436.00096647 C297.01825229 435.99446381 300.91052396 435.99422075 304.80305099 436.01167297 C308.37685516 436.02753029 311.95015537 436.02441323 315.52394819 436.00710471 C317.40734369 436.00263736 319.29075563 436.01759242 321.17408854 436.033584 C338.61786908 435.89449991 353.51046911 430.03841264 366.23669434 417.94543457 C379.71905925 403.758258 383.87450766 387.51680686 383.813797 368.42752075 C383.81762254 367.1411243 383.82144809 365.85472785 383.82538956 364.52934968 C383.83561924 360.98358366 383.83350068 357.43791932 383.82920897 353.89214516 C383.82673256 350.05837047 383.83576721 346.22461969 383.84324646 342.39085388 C383.85597001 334.88974479 383.85779009 327.38867154 383.8554462 319.88755347 C383.8536603 313.78806235 383.8554185 307.68858208 383.85967064 301.58909225 C383.86056342 300.28496343 383.86056342 300.28496343 383.86147424 298.95448857 C383.86268604 297.18803768 383.86390018 295.4215868 383.86511662 293.65513591 C383.87598307 277.10415 383.87383387 260.55318448 383.86773177 244.00219743 C383.86256309 228.87600908 383.87381838 213.74988513 383.89282999 198.62370951 C383.91222296 183.07435826 383.92046185 167.52503746 383.91670674 151.97567403 C383.91479695 143.2530139 383.91726059 134.53040858 383.93142128 125.80775833 C383.94335463 118.38225475 383.94471807 110.95683974 383.93263111 103.53133489 C383.9267562 99.74652318 383.92560434 95.96187331 383.93763351 92.17707253 C383.95054931 88.06535963 383.93999506 83.95402932 383.92732239 79.84231567 C383.93469667 78.65844226 383.94207096 77.47456884 383.94966871 76.25482047 C383.84207786 59.60838151 378.45165504 44.64184514 366.71325684 32.60949707 C366.00040527 31.91598145 365.28755371 31.22246582 364.55310059 30.50793457 C364.03618652 29.95879395 363.51927246 29.40965332 362.98669434 28.84387207 C359.12947471 25.07729207 354.49157469 22.70916179 349.74060059 20.25793457 C349.08889893 19.91617187 348.43719727 19.57440918 347.76574707 19.22229004 C338.26216546 14.52375862 328.61274862 14.21487111 318.16897583 14.24723816 C316.84991096 14.24341261 315.53084609 14.23958706 314.17180955 14.23564559 C310.53483174 14.22541271 306.89795302 14.22753531 303.26096725 14.23182619 C299.32903241 14.23430201 295.3971209 14.22526867 291.4651947 14.2177887 C283.77157809 14.20506352 276.07799642 14.20324527 268.38437106 14.20558896 C262.12851083 14.20737468 255.87266118 14.20561705 249.61680222 14.20136452 C248.72518011 14.20076933 247.833558 14.20017414 246.91491704 14.19956091 C245.10337016 14.19834912 243.29182327 14.19713498 241.48027639 14.19591854 C224.50580965 14.18505146 207.5313628 14.18720158 190.55689494 14.19330338 C175.04271565 14.19847213 159.52859914 14.18721672 144.01443227 14.16820516 C128.0673168 14.14881353 112.12023102 14.14057307 96.17310369 14.14432842 C87.22687867 14.1462384 78.2807071 14.1437726 69.33449173 14.12961388 C61.7186803 14.11768223 54.10295523 14.11631519 46.48714258 14.12840404 C42.60511951 14.13428014 38.72325426 14.13542749 34.84124184 14.12340164 C31.28069853 14.11250025 27.72044398 14.11569618 24.15991394 14.12966333 C22.27639387 14.13353752 20.39286076 14.12279804 18.5093714 14.11136645 C0.42875218 14.22537735 -13.75219059 20.67841468 -26.44689941 33.50793457 Z " fill="#FCFCFC" transform="translate(341.4468994140625,262.4920654296875)"/>
<path d="M0 0 C1.5190216 -0.00346329 3.03804068 -0.00823234 4.55705458 -0.01418173 C8.70069304 -0.02662937 12.84412247 -0.02054998 16.98776138 -0.01122308 C21.46842752 -0.00440713 25.94905889 -0.01492643 30.42971802 -0.02316284 C39.19557326 -0.03647562 47.96135128 -0.0336333 56.7272095 -0.02492492 C63.85448808 -0.01813867 70.98174507 -0.01723572 78.10902596 -0.02049637 C79.12497961 -0.02095607 80.14093327 -0.02141577 81.18767341 -0.0218894 C83.2518365 -0.02284861 85.31599959 -0.02382125 87.38016266 -0.02480717 C106.71863748 -0.03335399 126.05706958 -0.02353828 145.39553738 -0.00740607 C161.97225485 0.00599443 178.54890928 0.00366984 195.12562561 -0.01016235 C214.39525676 -0.02623418 233.66485049 -0.03252795 252.9344874 -0.02332556 C254.9911919 -0.02236996 257.0478964 -0.02142685 259.10460091 -0.02049637 C260.62233611 -0.01980213 260.62233611 -0.01980213 262.17073263 -0.01909386 C269.28513563 -0.01650863 276.3995148 -0.02086494 283.51391411 -0.02793503 C292.1902546 -0.03636813 300.86651372 -0.03403199 309.54284494 -0.0180928 C313.96574134 -0.01023409 318.3885023 -0.00707729 322.81139755 -0.01704025 C326.86720362 -0.0260378 330.92274983 -0.02097183 334.97853262 -0.0051076 C336.43868907 -0.00178104 337.89886789 -0.00340543 339.35900974 -0.01073496 C360.26591312 -0.10755818 377.57398739 5.78831601 392.92372131 20.19345093 C406.64603381 34.58925115 410.98969441 51.89506317 410.93441772 71.1946106 C410.93744162 72.69454235 410.94133229 74.19447256 410.94601029 75.69440007 C410.95626857 79.79916759 410.954114 83.90384755 410.9498297 88.00862217 C410.94735849 92.44230141 410.9563816 96.87595979 410.96386719 101.30963135 C410.97660578 109.98965335 410.97840888 118.66964441 410.97606692 127.3496742 C410.97428247 134.40741823 410.97603615 141.46515289 410.98029137 148.52289581 C410.98088656 149.5281545 410.98148174 150.53341318 410.98209497 151.56913425 C410.98330675 153.61147394 410.98452088 155.65381363 410.98573735 157.69615331 C410.9966099 176.84289285 410.99445189 195.98961478 410.9883525 215.13635531 C410.98318506 232.63837666 410.99443474 250.14034233 411.01345072 267.64235267 C411.03284062 285.62685299 411.041083 303.61132699 411.03732747 321.59583783 C411.03541699 331.68732107 411.03788797 341.77875693 411.05204201 351.87023163 C411.06397154 360.46246484 411.06534316 369.05462151 411.05325184 377.6468558 C411.04737386 382.02720499 411.04623367 386.40741429 411.05825424 390.78775406 C411.06914937 394.80481585 411.06596687 398.82162159 411.05199256 402.83867159 C411.04935555 404.28478839 411.05168055 405.7309255 411.05972842 407.17702231 C411.12235613 419.27924193 409.71799948 430.73121102 404.04872131 441.56845093 C403.70389709 442.24061646 403.35907288 442.91278198 403.00379944 443.60531616 C399.74308715 449.700126 395.67085555 454.6057143 390.67372131 459.38095093 C389.75526428 460.32841187 389.75526428 460.32841187 388.81825256 461.29501343 C378.93649187 470.86072633 364.68773769 476.49379038 351.065588 476.515172 C350.42405484 476.51752423 349.78252168 476.51987647 349.12154812 476.52229998 C346.97521548 476.52894865 344.82894396 476.52853301 342.68260193 476.52812195 C341.12680044 476.53142314 339.57099981 476.53514924 338.01520026 476.53926343 C333.74212751 476.5492623 329.46906881 476.5529968 325.19598603 476.55565274 C320.58640591 476.55956199 315.97683684 476.56913979 311.36726379 476.5778656 C300.23724385 476.59761095 289.10722303 476.6076931 277.97718996 476.61659339 C272.73376655 476.62097886 267.49034415 476.62634494 262.24692154 476.63158226 C244.81376289 476.64859149 227.38060486 476.66308578 209.94743919 476.670331 C205.42537307 476.67224084 200.90330695 476.67416118 196.38124084 476.67611694 C195.2573292 476.67660068 194.13341755 476.67708442 192.97544797 476.67758282 C174.76769972 476.68588366 156.56001715 476.71122286 138.35229759 476.74369762 C119.65260317 476.77677762 100.95294213 476.79478056 82.25321829 476.79797524 C71.75648716 476.8001393 61.25985186 476.80887297 50.76314926 476.83443642 C41.82422679 476.85615611 32.88542344 476.8641875 23.94647758 476.85446963 C19.38800629 476.84992884 14.82978073 476.85179843 10.27134323 476.87123108 C6.09255982 476.88889101 1.91420089 476.88784226 -2.26458721 476.87233379 C-3.77067311 476.86996202 -5.27678863 476.87425879 -6.78282936 476.88616244 C-24.86453016 477.02014671 -40.05098864 470.75060555 -53.32627869 458.38095093 C-67.80307682 443.10418712 -71.64538163 425.6533837 -71.5869751 405.28208923 C-71.59000067 403.77559389 -71.59389218 402.26910008 -71.59856766 400.76260895 C-71.60880388 396.64902792 -71.60667708 392.53553447 -71.60238707 388.42194641 C-71.59991189 383.97536979 -71.60894375 379.52881383 -71.61642456 375.08224487 C-71.62915113 366.38144284 -71.63096784 357.6806717 -71.6286243 348.97986192 C-71.62683888 341.90594813 -71.62859557 334.8320437 -71.63284874 327.75813103 C-71.63374152 326.24605334 -71.63374152 326.24605334 -71.63465234 324.70342864 C-71.63586413 322.65536929 -71.63707827 320.60730993 -71.63829472 318.55925059 C-71.64916215 299.36818147 -71.6470114 280.17712994 -71.64090987 260.98605984 C-71.63574008 243.44145772 -71.64699925 225.89691111 -71.66600809 208.35231996 C-71.68539355 190.32143066 -71.69364133 172.29056761 -71.68988484 154.25966781 C-71.68797405 144.14309514 -71.69044862 134.02656973 -71.70459938 123.91000557 C-71.71652307 115.29876145 -71.71790688 106.68759368 -71.70580921 98.07634849 C-71.69992781 93.68598308 -71.69880068 89.29575727 -71.71081161 84.90540123 C-71.72169465 80.88045315 -71.71853849 76.85576084 -71.70454993 72.83082461 C-71.70190968 71.38074772 -71.70424829 69.93065064 -71.71228579 68.48059363 C-71.8061604 50.26956958 -67.15156216 34.61280243 -54.36412048 21.36630249 C-53.02973898 20.02623502 -51.67862604 18.70288567 -50.32627869 17.38095093 C-49.48516541 16.4914978 -49.48516541 16.4914978 -48.62705994 15.58407593 C-44.85610512 11.90219879 -40.28143004 9.5945033 -35.63877869 7.19345093 C-35.00367371 6.85990601 -34.36856873 6.52636108 -33.71421814 6.18270874 C-22.8570961 0.81696422 -11.94958824 -0.05988358 0 0 Z M-47.32627869 33.38095093 C-55.5039164 45.29013206 -57.77844355 54.99273091 -57.71395874 69.3085022 C-57.71813604 70.82081044 -57.72361573 72.33311554 -57.73027855 73.84541488 C-57.74470033 77.98442327 -57.74049867 82.12323197 -57.73311174 86.26225114 C-57.72837417 90.7327499 -57.74089524 95.20320584 -57.75112915 99.6736908 C-57.7683119 108.42591526 -57.76915811 117.17806791 -57.76391625 125.93030486 C-57.75987174 133.04669125 -57.76132144 140.16305645 -57.76666451 147.27944183 C-57.76741293 148.2930266 -57.76816135 149.30661137 -57.76893245 150.35091083 C-57.77046396 152.41016152 -57.77200231 154.46941221 -57.77354742 156.52866289 C-57.78727098 175.83421608 -57.78183615 195.13972873 -57.77036221 214.445281 C-57.76043365 232.09281733 -57.77336423 249.74024875 -57.7972964 267.38776889 C-57.82170193 285.5214365 -57.83129146 303.65505527 -57.82464367 321.78873897 C-57.82115421 331.96407162 -57.82336529 342.13932365 -57.8408947 352.31464386 C-57.85563499 360.97826431 -57.85622841 369.64174737 -57.83882379 378.30536518 C-57.83032579 382.72220545 -57.82813469 387.13880049 -57.84347534 391.55562782 C-57.85736874 395.60606802 -57.85250006 399.65605396 -57.83323611 403.70646819 C-57.82948992 405.16469678 -57.83235787 406.62296216 -57.84284776 408.08115783 C-57.95137515 424.3349464 -53.77669236 437.56680743 -42.63877869 449.63095093 C-30.2450682 461.28295287 -16.55805016 463.84409324 -0.11352539 463.76190186 C1.40534585 463.76536417 2.92421457 463.77013256 4.4430781 463.77608359 C8.59090634 463.7885447 12.73852606 463.78244562 16.8863548 463.77312493 C21.36974612 463.76631458 25.85310252 463.77682553 30.33648682 463.7850647 C39.10949625 463.7983834 47.88242856 463.79553251 56.65544098 463.78682677 C63.78799615 463.78004287 70.92052976 463.77913657 78.05308723 463.78239822 C79.57765404 463.78308777 79.57765404 463.78308777 81.13302018 463.78379125 C83.19799054 463.78475046 85.26296089 463.7857231 87.32793123 463.78670903 C106.67781675 463.79525758 126.02765958 463.78543741 145.37753809 463.76930793 C161.96709125 463.75590726 178.55658141 463.75823181 195.14613342 463.77206421 C214.42673468 463.78813296 233.70729854 463.79443152 252.98790556 463.78522742 C255.04545024 463.78427181 257.10299493 463.78332869 259.16053963 463.78239822 C260.1727988 463.7819354 261.18505796 463.78147257 262.22799165 463.78099572 C269.34836323 463.77840957 276.46871101 463.78276879 283.5890789 463.78983688 C292.27169384 463.79826656 300.95422745 463.795941 309.63683312 463.77999465 C314.06364918 463.77213137 318.49032984 463.76898705 322.91714478 463.77894211 C326.9754057 463.78793005 331.03340665 463.78288921 335.09164423 463.76700945 C336.55383161 463.76367889 338.01604129 463.76531653 339.47821414 463.77263682 C356.21240782 463.84993994 370.16448968 460.31033353 382.60731506 448.64657593 C391.55572025 438.83547005 396.78633143 427.24209411 396.80794239 413.99425411 C396.81462916 412.08642632 396.81462916 412.08642632 396.82145101 410.14005655 C396.82136172 408.73605596 396.8211719 407.33205537 396.82089233 405.92805481 C396.82419374 404.43071318 396.8279199 402.93337245 396.83203381 401.43603283 C396.84203029 397.32451268 396.84576681 393.21300713 396.84842312 389.10147655 C396.85233312 384.66570282 396.86191091 380.22994057 396.87063599 375.79417419 C396.89037987 365.08387839 396.90046358 354.37358168 396.90936378 343.66327223 C396.91374973 338.61672679 396.91911571 333.57018239 396.92435265 328.52363777 C396.9413622 311.74329439 396.95585605 294.96295165 396.96310139 278.18260098 C396.9650112 273.83001645 396.96693155 269.47743192 396.96888733 265.12484741 C396.96937107 264.04306668 396.96985481 262.96128595 396.97035321 261.84672398 C396.97865241 244.32510186 397.00398871 226.80354802 397.03646801 209.28195571 C397.0695578 191.28399411 397.08755185 173.2860672 397.09074563 155.28807503 C397.09290885 145.18646226 397.10163013 135.0849491 397.1272068 124.98336601 C397.14893994 116.38007273 397.15695132 107.77690327 397.14724002 99.17358565 C397.14270302 94.78713442 397.14454652 90.40093856 397.16400146 86.01452255 C397.18168891 81.99173388 397.18059062 77.96938581 397.16510417 73.9465921 C397.16273654 72.4983613 397.16700745 71.05009953 397.17893282 69.60191589 C397.28107642 56.36850783 395.03508592 44.89072172 386.67372131 34.38095093 C386.07559631 33.60880249 385.47747131 32.83665405 384.86122131 32.04110718 C377.46389593 23.07781574 368.55853713 18.91262994 357.67372131 15.38095093 C356.68372131 15.05095093 355.69372131 14.72095093 354.67372131 14.38095093 C352.63226694 14.28490444 350.58776299 14.24999538 348.54405308 14.24672985 C346.6076843 14.24004308 346.6076843 14.24004308 344.63219696 14.23322123 C343.19116882 14.23331053 341.75014067 14.2335004 340.30911255 14.23377991 C338.78477381 14.23048139 337.26043594 14.22675584 335.73609918 14.22263843 C331.53605939 14.21260854 327.3360339 14.20890003 323.13598382 14.20624912 C318.6101962 14.20234887 314.08441992 14.19277018 309.55863953 14.18403625 C298.62165831 14.16426154 287.68467616 14.1542033 276.74768153 14.14530846 C271.59739618 14.14092627 266.44711185 14.1355592 261.29682732 14.1303196 C244.17518483 14.11330454 227.05354299 14.09881121 209.93189335 14.09157085 C205.48735618 14.08966094 201.04281901 14.08774062 196.59828186 14.08578491 C195.49360801 14.08530117 194.38893416 14.08481743 193.25078534 14.08431903 C175.36293883 14.07602195 157.47515926 14.05069169 139.58734197 14.01820423 C121.22222617 13.98512198 102.85714437 13.96712094 84.49199861 13.96392661 C74.1807814 13.96176235 63.86966175 13.95302614 53.55847359 13.92746544 C44.77501849 13.90574234 35.99168462 13.89771587 27.20820571 13.90743222 C22.72873902 13.91197255 18.24952239 13.91010633 13.7700901 13.89067078 C9.66335105 13.87300672 5.55704388 13.87406291 1.45030003 13.88956807 C-0.02963086 13.89193927 -1.5095919 13.88764602 -2.98947679 13.87573942 C-20.84225041 13.74108463 -35.7877867 19.38062855 -47.32627869 33.38095093 Z " fill="#20324C" transform="translate(342.32627868652344,248.61904907226563)"/>
<path d="M0 0 C1.31821045 -0.00382555 2.63642089 -0.00765109 3.99457711 -0.01159257 C7.6338142 -0.02183807 11.2729524 -0.01969959 14.91219747 -0.01541197 C18.84483159 -0.01293844 22.77744229 -0.02196672 26.71006775 -0.02944946 C34.40716357 -0.04218137 42.10422448 -0.04399201 49.80132905 -0.0416492 C56.06007361 -0.03986409 62.31880759 -0.04161983 68.57755089 -0.04587364 C69.46930848 -0.04646883 70.36106608 -0.04706402 71.27984663 -0.04767724 C73.09163505 -0.04888904 74.90342347 -0.05010317 76.71521189 -0.05131962 C93.69635071 -0.06218948 110.67746966 -0.06003537 127.65860959 -0.05393478 C143.17931899 -0.04876689 158.69996559 -0.06001866 174.22066257 -0.07903299 C190.17226643 -0.09842481 206.1238406 -0.10666499 222.07545632 -0.10290974 C231.02504969 -0.10099964 239.97458963 -0.1034666 248.92417336 -0.11762428 C256.54366879 -0.12955623 264.16307791 -0.13092271 271.78257457 -0.11883412 C275.66661592 -0.11295796 279.55049955 -0.11181079 283.43453026 -0.12383652 C286.99696383 -0.13473789 290.55910881 -0.13154199 294.12152912 -0.11757483 C296.00609092 -0.11370058 297.89066574 -0.12444022 299.77519685 -0.13587171 C316.5184543 -0.03035075 331.51964934 5.28158929 343.63456726 17.10054016 C344.32808289 17.81339172 345.02159851 18.52624329 345.73612976 19.26069641 C346.28527039 19.77761047 346.83441101 20.29452454 347.40019226 20.82710266 C351.16677227 24.68432229 353.53490254 29.3222223 355.98612976 34.07319641 C356.32789246 34.72489807 356.66965515 35.37659973 357.02177429 36.04804993 C361.66966877 45.44920968 362.02972854 54.99401947 361.99682617 65.32765198 C362.00065172 66.6126373 362.00447727 67.89762262 362.00841874 69.22154689 C362.01864841 72.76345172 362.01652984 76.30525475 362.01223814 79.84716773 C362.00976168 83.67689066 362.01879654 87.50658966 362.02627563 91.33630371 C362.03899977 98.8300628 362.04081913 106.32378601 362.03847537 113.81755409 C362.03668927 119.91226067 362.03844811 126.0069564 362.04269981 132.10166168 C362.043295 132.97050345 362.04389019 133.83934522 362.04450342 134.73451553 C362.04571523 136.49983496 362.04692936 138.26515438 362.04814579 140.0304738 C362.05901281 156.57198246 362.05686298 173.11347071 362.05076095 189.65498051 C362.04559417 204.76688472 362.05684242 219.87872442 362.07585917 234.99061587 C362.09526141 250.52867667 362.10348928 266.06670698 362.09973592 281.60477996 C362.09782728 290.31967908 362.1002783 299.03452333 362.11445045 307.74941254 C362.12639578 315.16973525 362.12773405 322.58996933 362.11566029 330.01029333 C362.10979326 333.79130236 362.10861133 337.5721495 362.12066269 341.35314751 C362.13361285 345.4641605 362.12300531 349.57479233 362.11035156 353.68580627 C362.11772585 354.86385401 362.12510013 356.04190175 362.13269788 357.2556479 C362.01371583 375.73027747 356.66440994 391.53218192 343.55644226 404.63569641 C329.88717198 417.35834133 314.70301565 421.57427228 296.44102478 421.52812195 C295.10608437 421.53186396 293.77114614 421.53646767 292.43621135 421.54185259 C288.78750814 421.55402995 285.13889698 421.55382838 281.49017811 421.55146384 C277.5472963 421.55105434 273.60444348 421.56210751 269.66157532 421.57157898 C261.94409501 421.5881609 254.22664526 421.59368725 246.50914863 421.59480374 C240.23324973 421.59575552 233.95736087 421.59987231 227.68146515 421.60620499 C209.8711278 421.62380954 192.06081451 421.63304506 174.2504684 421.63154404 C173.29118587 421.63146413 172.33190334 421.63138421 171.34355164 421.63130188 C169.90286218 421.63117924 169.90286218 421.63117924 168.43306789 421.63105412 C152.8709851 421.63024139 137.30899913 421.6493779 121.74694434 421.67757861 C105.75126421 421.7063354 89.75563127 421.72011738 73.75992465 421.71839106 C64.78624553 421.71772814 55.81266792 421.72317759 46.83901215 421.74474716 C39.1983019 421.76299575 31.55773919 421.76727616 23.91701654 421.75372832 C20.02267774 421.74721723 16.12862171 421.74701364 12.23431015 421.76443481 C8.66126695 421.78025366 5.08872864 421.77721339 1.51569709 421.75986655 C-0.37211155 421.75538342 -2.25993642 421.77038455 -4.14768291 421.78634584 C-20.1681168 421.65809922 -35.63043648 415.39732873 -47.26387024 404.26069641 C-59.78051754 389.93836884 -64.74608613 374.62917255 -64.65155029 355.79464722 C-64.65693583 354.49091327 -64.66232137 353.18717933 -64.6678701 351.84393829 C-64.68221696 348.25897318 -64.67811411 344.67424007 -64.67070329 341.08926284 C-64.66594705 337.20982181 -64.67850299 333.33042921 -64.6887207 329.45100403 C-64.70586571 321.86426058 -64.70675774 314.27760012 -64.7015078 306.69084234 C-64.69745712 300.52132307 -64.69892029 294.35182822 -64.70425606 288.1823101 C-64.70500448 287.30234915 -64.7057529 286.42238819 -64.706524 285.51576174 C-64.70805557 283.72781165 -64.70959391 281.93986157 -64.71113897 280.15191149 C-64.72484826 263.40725834 -64.7194372 246.66265199 -64.70795376 229.91799992 C-64.69802127 214.61799725 -64.71096512 199.31811552 -64.73488795 184.0181315 C-64.75930233 168.2845136 -64.76888118 152.55095197 -64.76223522 136.81731552 C-64.75874843 127.99347569 -64.76093946 119.16972885 -64.77848625 110.3459034 C-64.79323743 102.83517928 -64.79380559 95.32461366 -64.77641534 87.81389255 C-64.76792722 83.98637075 -64.76570179 80.15913173 -64.78106689 76.33162498 C-64.7975574 72.17209927 -64.78271189 68.01325028 -64.76507568 63.85372925 C-64.77468069 62.65856912 -64.7842857 61.46340899 -64.79418176 60.23203188 C-64.64145374 42.6520772 -57.49495789 28.55504831 -45.26387024 16.26069641 C-44.66058899 15.62261047 -44.05730774 14.98452454 -43.43574524 14.32710266 C-39.37198547 10.36051975 -34.90937235 7.86492256 -29.82637024 5.44819641 C-28.91347229 5.01277527 -28.91347229 5.01277527 -27.98213196 4.56855774 C-18.81119469 0.44321842 -9.96399645 -0.03080655 0 0 Z M-39.63887024 27.63569641 C-49.11640223 39.10544431 -52.88449826 51.68606449 -52.77180481 66.44754028 C-52.77804477 67.72127823 -52.78428473 68.99501618 -52.79071379 70.30735224 C-52.80727231 73.80871863 -52.79922305 77.30964386 -52.78676891 80.81101096 C-52.77766458 84.60051743 -52.79171483 88.38995157 -52.8026886 92.17944336 C-52.82042289 99.59042175 -52.81665619 107.00123757 -52.80503803 114.41222218 C-52.79598182 120.44013883 -52.79478916 126.46801012 -52.7991333 132.49593163 C-52.79974623 133.35588761 -52.80035917 134.21584359 -52.80099067 135.10185885 C-52.80226966 136.84921849 -52.80356652 138.59657811 -52.80488104 140.34393772 C-52.81627246 156.70858663 -52.8031968 173.07314575 -52.78167957 189.43777993 C-52.76381947 203.4543993 -52.76690651 217.47088609 -52.78535461 231.48750305 C-52.80680332 247.79140121 -52.81516391 264.0952207 -52.80290556 280.399131 C-52.80163146 282.14075862 -52.80037398 283.88238626 -52.7991333 285.6240139 C-52.7985162 286.48076577 -52.7978991 287.33751764 -52.79726329 288.22023169 C-52.79382166 294.23364072 -52.79961324 300.24699952 -52.80905151 306.26040077 C-52.82031787 313.5994336 -52.8171351 320.93829551 -52.79592854 328.27730898 C-52.78547855 332.01596315 -52.78119143 335.75433326 -52.79452515 339.49298477 C-52.86657484 361.52998097 -52.53302826 380.10036899 -36.71699524 396.96382141 C-26.32857643 406.69055749 -14.57449049 408.71672876 -0.7903595 408.64164734 C0.55170811 408.64510996 1.89377286 408.64987856 3.23583174 408.65582907 C6.89952209 408.66828589 10.56297626 408.66219317 14.22666717 408.65287042 C18.18719902 408.64605831 22.14769142 408.65657183 26.10821533 408.66481018 C33.85732815 408.67812672 41.60635363 408.67527906 49.35546982 408.66657226 C55.65521022 408.65978792 61.95492619 408.65888223 68.25466919 408.66214371 C69.6012946 408.66283326 69.6012946 408.66283326 70.97512457 408.66353673 C72.79907692 408.66449594 74.62302927 408.66546858 76.44698161 408.66645451 C93.53680835 408.67500231 110.62658676 408.66518384 127.71640557 408.64905341 C142.36965163 408.63565078 157.02282639 408.63797905 171.67607117 408.65180969 C188.70613863 408.66787628 205.73616376 408.67417839 222.76623774 408.6649729 C224.58335526 408.66401729 226.40047279 408.66307417 228.21759033 408.66214371 C229.11156917 408.66168088 230.00554801 408.66121805 230.92661712 408.6607412 C237.2163574 408.65815455 243.50607077 408.6625153 249.79580688 408.66958237 C257.46438216 408.67800955 265.13286534 408.67569164 272.80143011 408.65974014 C276.71155448 408.65187379 280.62152551 408.64873776 284.53164864 408.65868759 C288.11553231 408.66766911 291.6991214 408.66264529 295.28297859 408.64675494 C297.18387791 408.6418505 299.08479789 408.65157265 300.98567533 408.66192663 C314.47344034 408.56983925 325.8139525 404.54166433 335.82206726 395.33100891 C345.82186217 384.51490422 349.35213925 372.27437206 349.23733521 357.85675049 C349.2428696 356.54767072 349.248404 355.23859095 349.2541061 353.88984209 C349.26876522 350.28534557 349.25873713 346.68129017 349.24436939 343.07680833 C349.23320876 339.17832071 349.2452189 335.27989241 349.25421143 331.38140869 C349.26811101 323.75606238 349.26061223 316.13088221 349.24553584 308.50554388 C349.22863618 299.61822547 349.23189096 290.73094798 349.23562992 281.84361846 C349.24150241 265.9828551 349.22736052 250.12217124 349.2026825 234.26142883 C349.17875948 218.88411988 349.17168061 203.50691712 349.18217468 188.1295929 C349.19359303 171.36796316 349.19550293 154.60638248 349.18107659 137.84475332 C349.17955081 136.05629798 349.17803045 134.26784264 349.17651558 132.47938728 C349.17575776 131.59952398 349.17499995 130.71966068 349.17421917 129.81313486 C349.16948375 123.62357394 349.17132248 117.43403499 349.17558098 111.24447441 C349.18051589 103.69851917 349.17448643 96.15266416 349.15468668 88.60673182 C349.14483913 84.75938718 349.13968204 80.91219491 349.14757919 77.06484222 C349.1559751 72.88897084 349.14100968 68.71350308 349.12380981 64.53765869 C349.12981986 63.32918697 349.13582991 62.12071525 349.14202207 60.87562317 C349.03971369 47.20434675 344.6457936 36.03516298 335.41972351 25.85054016 C327.34147371 18.2221233 316.34403733 13.14344313 305.19622612 13.12926865 C303.49537497 13.12350693 303.49537497 13.12350693 301.76016319 13.11762881 C300.51407755 13.1184953 299.26799192 13.11936178 297.98414612 13.12025452 C296.64725983 13.11767054 295.31037432 13.11465729 293.97348988 13.11125112 C290.29631804 13.10318149 286.61916573 13.10139156 282.94198608 13.10065365 C278.97726925 13.098803 275.01256254 13.09125553 271.04785156 13.08451843 C262.37620734 13.07093419 253.70456773 13.06491007 245.03291464 13.06050777 C239.61756003 13.05774514 234.2022072 13.05350771 228.78685379 13.0490036 C213.79174092 13.03681012 198.79662948 13.02651141 183.80151176 13.02312851 C182.84169421 13.02290894 181.88187666 13.02268938 180.89297373 13.02246316 C179.93086263 13.02224488 178.96875152 13.0220266 177.97748554 13.02180171 C176.02789299 13.02135824 174.07830044 13.02091168 172.12870789 13.02046204 C171.1616432 13.02024061 170.1945785 13.02001918 169.19820882 13.01979104 C153.5335704 13.0158443 137.86897853 12.99839444 122.20435809 12.97510251 C106.1195848 12.95137907 90.03483486 12.93892618 73.9500438 12.93776059 C64.91995148 12.93684432 55.88991981 12.93110407 46.85984421 12.91294098 C39.16917672 12.8975265 31.4785886 12.89242742 23.7879086 12.90067908 C19.86566603 12.90458101 15.94358322 12.9036785 12.0213604 12.88962173 C8.4261486 12.8768551 4.83121617 12.87810433 1.23600461 12.89021245 C-0.67115588 12.893085 -2.57832132 12.88125452 -4.48544323 12.86879039 C-18.53170975 12.9493114 -29.91571957 17.18148178 -39.63887024 27.63569641 Z " fill="#38D1BB" transform="translate(363.2638702392578,276.7393035888672)"/>
<path d="M0 0 C1.02794174 -0.01591187 2.05588348 -0.03182373 3.11497498 -0.04821777 C4.22437943 -0.04841919 5.33378387 -0.04862061 6.47680664 -0.04882812 C8.18750084 -0.06024841 8.18750084 -0.06024841 9.93275452 -0.07189941 C12.34609791 -0.08271127 14.75948814 -0.08554915 17.17285156 -0.08105469 C20.86936339 -0.08008275 24.56379801 -0.12168768 28.26000977 -0.16601562 C30.60310439 -0.17122266 32.94620624 -0.17391082 35.28930664 -0.17382812 C36.39668686 -0.19022339 37.50406708 -0.20661865 38.64500427 -0.22351074 C46.25446715 -0.15483683 46.25446715 -0.15483683 49.58837891 2.60229492 C50.9786625 5.480369 51.78291177 7.960105 52.38696289 11.09570312 C54.64291013 22.83823798 54.64291013 22.83823798 61.20922852 32.35107422 C66.76606025 35.50029768 72.73196987 37.12309037 78.94946289 38.41992188 C79.59898926 38.65630371 80.24851562 38.89268555 80.91772461 39.13623047 C83.89250835 39.55159922 85.37328159 38.42135143 87.94165039 36.92773438 C88.89426758 36.38761719 89.84688477 35.8475 90.82836914 35.29101562 C91.81708008 34.71480469 92.80579102 34.13859375 93.82446289 33.54492188 C95.77545877 32.41431848 97.73107252 31.29163894 99.69165039 30.17773438 C100.5564502 29.67387207 101.42125 29.17000977 102.31225586 28.65087891 C105.33416508 27.2403562 107.60675699 26.53618753 110.94946289 26.41992188 C113.44287109 27.80981445 113.44287109 27.80981445 115.93774414 30.00195312 C116.88858887 30.8342041 117.83943359 31.66645508 118.8190918 32.52392578 C119.86605538 33.4854536 120.90935678 34.45098029 121.94946289 35.41992188 C122.78136139 36.19187897 122.78136139 36.19187897 123.63006592 36.97943115 C127.25025439 40.36324074 130.79962416 43.81248755 134.31494141 47.30493164 C136.15916101 49.12938204 138.02367751 50.93144904 139.88891602 52.734375 C141.07055611 53.90298227 142.25094341 55.07285799 143.42993164 56.24414062 C143.98601608 56.77553146 144.54210052 57.3069223 145.11503601 57.85441589 C147.57832614 60.34698033 148.87468043 61.97404842 149.46069336 65.46801758 C148.89425009 68.73872702 147.92999961 70.9451576 146.28930664 73.82617188 C145.74338867 74.81746094 145.1974707 75.80875 144.63500977 76.83007812 C143.46869687 78.89165019 142.29941882 80.95154753 141.12719727 83.00976562 C140.31025391 84.49669922 140.31025391 84.49669922 139.47680664 86.01367188 C138.96883545 86.90763672 138.46086426 87.80160156 137.9375 88.72265625 C136.24747828 93.33628609 137.69864259 97.29438287 139.57836914 101.65429688 C139.8909668 102.39292969 140.20356445 103.1315625 140.52563477 103.89257812 C141.01386719 105.01986328 141.01386719 105.01986328 141.51196289 106.16992188 C144.94946289 114.17505886 144.94946289 114.17505886 144.94946289 116.41992188 C146.24883789 116.64679688 147.54821289 116.87367188 148.88696289 117.10742188 C153.92771902 118.12714442 158.87492462 119.40681074 163.82446289 120.79492188 C164.56172607 120.99174561 165.29898926 121.18856934 166.05859375 121.39135742 C166.76250244 121.59414307 167.46641113 121.79692871 168.19165039 122.00585938 C169.13306885 122.26955322 169.13306885 122.26955322 170.09350586 122.53857422 C172.66063513 123.75763982 174.11279608 125.25411525 175.94946289 127.41992188 C176.46412659 129.80345154 176.46412659 129.80345154 176.48291016 132.47631836 C176.49874649 133.48093613 176.51458282 134.48555389 176.53089905 135.52061462 C176.52345924 137.13946312 176.52345924 137.13946312 176.51586914 138.79101562 C176.52206772 139.90549576 176.5282663 141.01997589 176.53465271 142.16822815 C176.54175429 144.52433397 176.53857106 146.88048993 176.52587891 149.23657227 C176.51202621 152.84094708 176.54606716 156.44272001 176.58422852 160.046875 C176.58517982 162.33658918 176.58332028 164.6263066 176.57836914 166.91601562 C176.59162735 167.99322372 176.60488556 169.07043182 176.61854553 170.18028259 C176.52599309 177.62229453 176.52599309 177.62229453 173.70092773 181.53076172 C171.16163233 183.274246 169.24564879 184.34055075 166.29711914 185.15039062 C165.43795898 185.39595703 164.57879883 185.64152344 163.69360352 185.89453125 C162.36619141 186.24741211 162.36619141 186.24741211 161.01196289 186.60742188 C158.41323752 187.33552123 155.81523001 188.06469337 153.22167969 188.81103516 C150.94946289 189.41992188 150.94946289 189.41992188 147.59790039 189.98632812 C143.17603048 192.37987718 142.19230381 196.61590772 140.51196289 201.16992188 C140.1490918 202.06453125 139.7862207 202.95914063 139.41235352 203.88085938 C137.5429281 208.72778263 136.15461873 212.33902845 137.94946289 217.41992188 C139.93561405 221.43724675 142.17337745 225.30579698 144.44360352 229.16796875 C144.89026367 229.96912109 145.33692383 230.77027344 145.79711914 231.59570312 C146.20969971 232.30637939 146.62228027 233.01705566 147.04736328 233.74926758 C148.40601 237.77152371 148.86950627 241.23797324 147.94946289 245.41992188 C145.98828567 248.63489484 143.46241612 251.10033785 140.75805664 253.70117188 C139.65096092 254.81051086 139.65096092 254.81051086 138.52149963 255.94226074 C136.96094821 257.49581095 135.38935637 259.03833988 133.80761719 260.5703125 C131.39270242 262.9143508 129.02035198 265.29591607 126.65063477 267.68554688 C125.12630449 269.19314761 123.59968498 270.69843794 122.07055664 272.20117188 C121.36297714 272.9114856 120.65539764 273.62179932 119.92637634 274.3536377 C116.70494441 277.43963398 114.60078848 279.22715538 110.26293945 280.51098633 C106.729022 280.41386349 104.88165443 279.88316375 101.81274414 278.18164062 C100.45246094 277.4459082 100.45246094 277.4459082 99.06469727 276.6953125 C98.13979492 276.17130859 97.21489258 275.64730469 96.26196289 275.10742188 C94.85720703 274.33881836 94.85720703 274.33881836 93.42407227 273.5546875 C91.68477865 272.60248321 89.9496317 271.64263455 88.22021484 270.67260742 C87.4708667 270.25922119 86.72151855 269.84583496 85.94946289 269.41992188 C85.2976001 268.9989624 84.6457373 268.57800293 83.97412109 268.14428711 C81.04721573 267.09712345 79.62686495 267.96698194 76.81665039 269.19335938 C75.84598633 269.60585938 74.87532227 270.01835938 73.87524414 270.44335938 C72.86848633 270.889375 71.86172852 271.33539062 70.82446289 271.79492188 C68.82301705 272.65958717 66.82046597 273.5217001 64.81665039 274.38085938 C63.93090332 274.77063965 63.04515625 275.16041992 62.13256836 275.56201172 C59.94946289 276.41992188 59.94946289 276.41992188 57.94946289 276.41992188 C57.68907227 277.52722656 57.42868164 278.63453125 57.16040039 279.77539062 C55.88789721 284.85086686 54.26890655 289.78420817 52.57446289 294.73242188 C52.28313477 295.62509766 51.99180664 296.51777344 51.69165039 297.4375 C51.39774414 298.29408203 51.10383789 299.15066406 50.80102539 300.03320312 C50.54144043 300.80446533 50.28185547 301.57572754 50.0144043 302.37036133 C48.68388776 304.93104136 47.39304902 305.89617355 44.94946289 307.41992188 C42.63513184 307.8008728 42.63513184 307.8008728 40.06079102 307.80810547 C39.09298706 307.81756195 38.12518311 307.82701843 37.12805176 307.83676147 C36.08942993 307.83068878 35.05080811 307.82461609 33.98071289 307.81835938 C32.90825317 307.82122955 31.83579346 307.82409973 30.73083496 307.82705688 C28.46467562 307.82909724 26.19849865 307.82356939 23.93237305 307.81103516 C20.46240888 307.79498177 16.99360955 307.8108855 13.52368164 307.83007812 C11.32185615 307.82809569 9.12003139 307.82425201 6.91821289 307.81835938 C5.87959106 307.82443207 4.84096924 307.83050476 3.77087402 307.83676147 C2.80307007 307.82730499 1.83526611 307.81784851 0.83813477 307.80810547 C-0.01139771 307.80571869 -0.86093018 307.80333191 -1.73620605 307.8008728 C-4.57511678 307.33357333 -5.94321212 306.34612367 -8.05053711 304.41992188 C-9.13134766 302.26269531 -9.13134766 302.26269531 -9.93725586 299.77929688 C-10.23567383 298.87308594 -10.5340918 297.966875 -10.84155273 297.03320312 C-11.13739258 296.08832031 -11.43323242 295.1434375 -11.73803711 294.16992188 C-12.04547852 293.24050781 -12.35291992 292.31109375 -12.66967773 291.35351562 C-14.27964989 286.37211382 -15.51092837 281.62894489 -16.05053711 276.41992188 C-16.86780273 276.32839844 -17.68506836 276.236875 -18.52709961 276.14257812 C-22.8129239 275.26355651 -26.46189242 273.66722347 -30.42553711 271.85742188 C-31.52961914 271.36338867 -31.52961914 271.36338867 -32.65600586 270.859375 C-34.45698268 270.05244383 -36.25415892 269.23703927 -38.05053711 268.41992188 C-38.05053711 264.28348635 -37.8982107 263.72189755 -35.55053711 260.66992188 C-35.08647461 260.05632812 -34.62241211 259.44273437 -34.14428711 258.81054688 C-33.78334961 258.35164063 -33.42241211 257.89273437 -33.05053711 257.41992188 C-28.04184995 258.58209889 -23.29965047 260.44228078 -18.48803711 262.23242188 C-17.52961914 262.57595703 -16.57120117 262.91949219 -15.58374023 263.2734375 C-14.66399414 263.61697266 -13.74424805 263.96050781 -12.79663086 264.31445312 C-11.95801514 264.62229736 -11.11939941 264.9301416 -10.25537109 265.24731445 C-6.93719892 267.01203386 -5.54640319 269.19010337 -4.15917969 272.63061523 C-3.92352295 273.41573486 -3.68786621 274.20085449 -3.44506836 275.00976562 C-3.1840332 275.87666016 -2.92299805 276.74355469 -2.65405273 277.63671875 C-2.39301758 278.53455078 -2.13198242 279.43238281 -1.86303711 280.35742188 C-1.45408203 281.69836914 -1.45408203 281.69836914 -1.03686523 283.06640625 C0.27954488 287.51052762 0.94946289 290.68362778 0.94946289 295.41992188 C13.81946289 295.41992188 26.68946289 295.41992188 39.94946289 295.41992188 C40.27946289 293.10992188 40.60946289 290.79992187 40.94946289 288.41992188 C41.74422562 285.14560275 42.75528132 281.94730817 43.76196289 278.73242188 C44.13417969 277.47075195 44.13417969 277.47075195 44.51391602 276.18359375 C47.02657363 268.12135138 47.02657363 268.12135138 50.94946289 265.41992188 C53.93046318 264.0824717 56.97957426 263.02412924 60.07446289 261.98242188 C66.30346544 259.81253792 72.16310301 257.58058822 77.84399414 254.16992188 C81.0330025 253.03394858 82.66518946 253.47347798 85.94946289 254.41992188 C90.55394772 256.64928314 94.98418461 259.20009187 99.42602539 261.734375 C100.33352539 262.23259766 101.24102539 262.73082031 102.17602539 263.24414062 C102.9966748 263.70908936 103.81732422 264.17403809 104.6628418 264.65307617 C106.90479083 265.65171241 106.90479083 265.65171241 109.00415039 264.78955078 C111.19060186 263.25014406 112.98043003 261.59726067 114.84790039 259.68164062 C115.93844727 258.5746582 115.93844727 258.5746582 117.05102539 257.4453125 C117.80125977 256.67380859 118.55149414 255.90230469 119.32446289 255.10742188 C124.02865636 250.29297387 128.67673648 245.61299478 133.94946289 241.41992188 C133.3664259 237.81011391 132.39697154 235.0156721 130.66430664 231.80273438 C130.21635742 230.94808594 129.7684082 230.0934375 129.30688477 229.21289062 C128.36264218 227.43870166 127.41214087 225.66782908 126.45532227 223.90039062 C123.8515434 218.90323926 122.09813582 215.19628161 122.94946289 209.41992188 C124.05102539 206.67382813 124.05102539 206.67382813 125.57446289 203.98242188 C128.57586986 198.40333598 130.75822325 192.78394394 132.68041992 186.76391602 C134.26412908 182.1636451 135.66960594 180.58610947 139.94946289 178.41992188 C142.62841797 177.52856445 142.62841797 177.52856445 145.46899414 176.81445312 C146.85115112 176.46024292 146.85115112 176.46024292 148.26123047 176.09887695 C149.41647217 175.81294678 150.57171387 175.5270166 151.76196289 175.23242188 C157.29977539 173.84023438 157.29977539 173.84023438 162.94946289 172.41992188 C162.94946289 159.87992188 162.94946289 147.33992187 162.94946289 134.41992188 C154.86002919 132.24019856 154.86002919 132.24019856 146.76464844 130.08276367 C145.75700439 129.80601807 144.74936035 129.52927246 143.71118164 129.24414062 C142.67952881 128.96658936 141.64787598 128.68903809 140.58496094 128.40307617 C137.05080104 127.08468229 135.60498881 125.7379356 133.93798828 122.38623047 C133.64400146 121.62133301 133.35001465 120.85643555 133.04711914 120.06835938 C132.71389648 119.21628906 132.38067383 118.36421875 132.03735352 117.48632812 C131.69897461 116.59816406 131.3605957 115.71 131.01196289 114.79492188 C130.33793349 113.05205586 129.66216068 111.30986305 128.98461914 109.56835938 C128.48986084 108.27816895 128.48986084 108.27816895 127.98510742 106.96191406 C126.97361338 104.47919931 125.81923021 102.11191613 124.63305664 99.70898438 C122.77079684 95.47762963 122.57299682 92.96079037 123.94946289 88.41992188 C125.63321006 84.67607764 127.54119797 81.08195881 129.51196289 77.48242188 C130.03209961 76.51240234 130.55223633 75.54238281 131.08813477 74.54296875 C132.36586252 72.16334734 133.65309802 69.78942592 134.94946289 67.41992188 C130.16939319 61.68691224 125.08419644 56.33897669 119.82446289 51.04492188 C119.0265332 50.22636719 118.22860352 49.4078125 117.40649414 48.56445312 C116.24827148 47.39849609 116.24827148 47.39849609 115.06665039 46.20898438 C114.37168457 45.50467285 113.67671875 44.80036133 112.96069336 44.07470703 C110.79892434 42.29606289 109.73927007 41.55888536 106.94946289 41.41992188 C104.37873815 42.40198773 104.37873815 42.40198773 101.73852539 43.98242188 C100.74079102 44.5315625 99.74305664 45.08070313 98.71508789 45.64648438 C96.62725889 46.82543259 94.54130524 48.00770831 92.45727539 49.19335938 C90.95680664 50.01707031 90.95680664 50.01707031 89.42602539 50.85742188 C88.51933105 51.37175781 87.61263672 51.88609375 86.6784668 52.41601562 C82.659427 53.89448151 79.72623209 53.06549006 75.79052734 51.63549805 C75.13785889 51.3310376 74.48519043 51.02657715 73.81274414 50.71289062 C73.07548096 50.37572021 72.33821777 50.0385498 71.57861328 49.69116211 C70.81411865 49.33352783 70.04962402 48.97589355 69.26196289 48.60742188 C63.269945 45.83901577 57.41847459 43.39059946 51.01586914 41.69726562 C47.85015668 39.74038854 47.0833057 36.79757992 45.94946289 33.41992188 C45.72427979 32.75806885 45.49909668 32.09621582 45.26708984 31.41430664 C44.59268916 29.3610875 43.95346316 27.29996905 43.32446289 25.23242188 C43.10790039 24.53439453 42.89133789 23.83636719 42.66821289 23.1171875 C41.67592093 19.8983639 40.76669125 16.6888353 39.94946289 13.41992188 C27.40946289 13.41992188 14.86946289 13.41992188 1.94946289 13.41992188 C-1.55503483 24.34151563 -1.55503483 24.34151563 -4.17553711 35.48242188 C-5.22725364 38.37356032 -6.1775921 39.92136341 -8.87329102 41.4609375 C-13.66774663 43.58801761 -18.64732273 45.09118915 -23.65649414 46.62158203 C-28.1189089 48.10966038 -32.21343743 50.29308405 -36.38647461 52.45117188 C-40.14626527 53.81836848 -42.69167152 53.03812844 -46.28295898 51.40429688 C-47.02094727 50.99695313 -47.75893555 50.58960938 -48.51928711 50.16992188 C-49.74711914 49.50476563 -49.74711914 49.50476563 -50.99975586 48.82617188 C-52.70027669 47.88867188 -54.40079753 46.95117188 -56.10131836 46.01367188 C-57.32915039 45.34851563 -57.32915039 45.34851563 -58.58178711 44.66992188 C-59.31977539 44.26257813 -60.05776367 43.85523438 -60.81811523 43.43554688 C-63.42161689 42.25110168 -65.16593381 41.47639179 -68.05053711 41.41992188 C-70.25839218 43.00008379 -71.9446152 44.44826406 -73.82397461 46.36132812 C-74.35197662 46.88121811 -74.87997864 47.40110809 -75.42398071 47.93675232 C-76.5356472 49.03995852 -77.63970305 50.15087923 -78.73657227 51.26879883 C-80.41838932 52.97516973 -82.13193302 54.64409042 -83.85131836 56.3125 C-84.92763289 57.38918505 -86.00192336 58.46789807 -87.07397461 59.54882812 C-87.58842133 60.04596817 -88.10286804 60.54310822 -88.63290405 61.05531311 C-91.09975926 63.62222367 -92.05812474 64.88710144 -92.0065918 68.50585938 C-91.11997654 71.20826991 -90.16024602 73.46490298 -88.73022461 75.91601562 C-88.0515332 77.12547852 -88.0515332 77.12547852 -87.35913086 78.359375 C-86.40314264 80.02519098 -85.43957688 81.68668108 -84.46850586 83.34375 C-82.33333957 87.1766488 -81.05311713 89.61667553 -81.03881836 94.06835938 C-82.15765122 97.7747632 -83.61385182 101.16770606 -85.36303711 104.60742188 C-88.15721799 110.26862612 -90.2643456 115.79064372 -91.83569336 121.93164062 C-93.59127336 125.5274749 -95.5103988 126.56724949 -99.05053711 128.41992188 C-102.40266705 129.54696461 -105.79347651 130.37675006 -109.23803711 131.16992188 C-110.13973633 131.39035156 -111.04143555 131.61078125 -111.97045898 131.83789062 C-118.56880671 133.41992188 -118.56880671 133.41992188 -122.05053711 133.41992188 C-122.05053711 146.61992187 -122.05053711 159.81992187 -122.05053711 173.41992188 C-119.74053711 173.74992188 -117.43053711 174.07992187 -115.05053711 174.41992188 C-112.52002317 175.00449429 -109.99877878 175.630541 -107.48803711 176.29492188 C-106.22862305 176.62234375 -104.96920898 176.94976562 -103.67163086 177.28710938 C-94.88189752 180.03686414 -94.88189752 180.03686414 -92.9597168 183.23461914 C-91.90053979 185.60093837 -90.97451362 187.99775395 -90.05053711 190.41992188 C-89.26190597 192.20152182 -88.46344486 193.97879782 -87.65600586 195.75195312 C-86.84930805 197.57846341 -86.04332414 199.40528915 -85.23803711 201.23242188 C-84.81844727 202.15990234 -84.39885742 203.08738281 -83.96655273 204.04296875 C-83.57532227 204.93693359 -83.1840918 205.83089844 -82.78100586 206.75195312 C-82.42417725 207.5535083 -82.06734863 208.35506348 -81.69970703 209.1809082 C-80.95335696 211.7551002 -81.08394489 212.94481091 -82.05053711 215.41992188 C-83.42716739 217.21819753 -84.87378769 218.96374415 -86.36303711 220.66992188 C-94.49001744 230.3473595 -96.48209646 237.97109439 -96.05053711 250.41992188 C-95.63654812 253.9351835 -95.63654812 253.9351835 -95.05053711 256.41992188 C-107.05053711 244.41992188 -107.05053711 244.41992188 -107.51538086 241.46289062 C-107.35417117 235.95465528 -104.24757212 231.41712787 -101.61303711 226.73242188 C-100.58984209 224.87636399 -99.57016225 223.01836282 -98.55444336 221.15820312 C-98.09884033 220.34391846 -97.6432373 219.52963379 -97.17382812 218.69067383 C-95.61478442 215.53904039 -94.71831563 213.62835629 -95.67138672 210.16162109 C-96.01177979 209.35740723 -96.35217285 208.55319336 -96.70288086 207.72460938 C-97.06704102 206.84417969 -97.43120117 205.96375 -97.80639648 205.05664062 C-98.19633789 204.14527344 -98.5862793 203.23390625 -98.98803711 202.29492188 C-99.74998402 200.48100485 -100.50923765 198.66595338 -101.26538086 196.84960938 C-101.60690186 196.04765137 -101.94842285 195.24569336 -102.30029297 194.41943359 C-103.05053711 192.41992188 -103.05053711 192.41992188 -103.05053711 190.41992188 C-103.88713867 190.26136719 -104.72374023 190.1028125 -105.58569336 189.93945312 C-112.28579338 188.59646519 -118.80171613 187.02479352 -125.30053711 184.91992188 C-126.54319336 184.51773438 -127.78584961 184.11554688 -129.06616211 183.70117188 C-132.05053711 182.41992188 -132.05053711 182.41992188 -134.05053711 179.41992188 C-134.31796265 177.11195374 -134.31796265 177.11195374 -134.34106445 174.36938477 C-134.35382416 173.34144302 -134.36658386 172.31350128 -134.37973022 171.25440979 C-134.38195587 170.14500534 -134.38418152 169.03560089 -134.38647461 167.89257812 C-134.39313141 166.75211533 -134.39978821 165.61165253 -134.40664673 164.43663025 C-134.41677771 162.02328099 -134.42146361 159.6099037 -134.42114258 157.1965332 C-134.4255159 153.50034551 -134.46183326 149.80535135 -134.49975586 146.109375 C-134.50562379 143.76628013 -134.50959334 141.42317958 -134.51147461 139.08007812 C-134.52584564 137.97269791 -134.54021667 136.86531769 -134.55502319 135.72438049 C-134.54886993 134.69328659 -134.54271667 133.66219269 -134.53637695 132.59985352 C-134.54065201 131.24108849 -134.54065201 131.24108849 -134.54501343 129.85487366 C-133.89597708 126.65882127 -132.52310479 125.47246564 -130.05053711 123.41992188 C-128.19458008 122.53857422 -128.19458008 122.53857422 -126.29272461 122.00585938 C-125.23686157 121.70168091 -125.23686157 121.70168091 -124.15966797 121.39135742 C-123.42240479 121.19453369 -122.6851416 120.99770996 -121.92553711 120.79492188 C-121.17087158 120.58327393 -120.41620605 120.37162598 -119.63867188 120.15356445 C-114.15301665 118.64188073 -108.65756057 117.39892597 -103.05053711 116.41992188 C-102.9615918 115.59492188 -102.87264648 114.76992188 -102.78100586 113.91992188 C-101.75485743 109.0031893 -99.56775931 104.80693197 -97.31420898 100.34179688 C-95.77355804 97.06674172 -94.92556657 95.18007328 -95.52319336 91.54492188 C-98.11919577 86.23340798 -100.80936961 80.97913372 -103.59350586 75.76367188 C-104.0356543 74.90773438 -104.47780273 74.05179687 -104.93334961 73.16992188 C-105.33956543 72.40164063 -105.74578125 71.63335937 -106.16430664 70.84179688 C-107.35906786 67.57677448 -107.6953499 65.8897417 -107.05053711 62.41992188 C-104.88637911 59.36800126 -102.27254539 56.82562469 -99.60522461 54.21289062 C-98.84259308 53.44689041 -98.07996155 52.6808902 -97.29421997 51.89167786 C-95.67892334 50.27668003 -94.05613991 48.66914077 -92.42651367 47.06860352 C-89.93633092 44.61804394 -87.47675752 42.1395652 -85.01928711 39.65625 C-83.44551485 38.09003789 -81.87004841 36.52552593 -80.29272461 34.96289062 C-79.19080276 33.85049263 -79.19080276 33.85049263 -78.06661987 32.71562195 C-75.00955365 29.74145065 -72.87274753 27.68751567 -68.77539062 26.35400391 C-66.07016132 26.41944714 -64.57772081 26.67737598 -62.21069336 27.93164062 C-61.53973633 28.27775391 -60.8687793 28.62386719 -60.17749023 28.98046875 C-59.4962207 29.35236328 -58.81495117 29.72425781 -58.11303711 30.10742188 C-57.43563477 30.45998047 -56.75823242 30.81253906 -56.06030273 31.17578125 C-50.73554218 33.96834503 -50.73554218 33.96834503 -48.23364258 35.61767578 C-45.19158627 37.58996069 -43.31724032 38.42207271 -39.65991211 38.39257812 C-35.34864706 37.23077618 -31.38030664 35.65522608 -27.30053711 33.85742188 C-25.80783502 33.20548105 -24.31311473 32.55813651 -22.81616211 31.91601562 C-22.16421875 31.62911865 -21.51227539 31.34222168 -20.84057617 31.04663086 C-19.05053711 30.41992188 -19.05053711 30.41992188 -16.05053711 30.41992188 C-15.84428711 29.12054688 -15.63803711 27.82117188 -15.42553711 26.48242188 C-14.39643974 21.32953146 -12.83067868 16.4381281 -11.11303711 11.48242188 C-10.86021973 10.73677979 -10.60740234 9.9911377 -10.34692383 9.22290039 C-8.14131598 3.01423456 -6.83159038 0.06355074 0 0 Z " fill="#20324C" transform="translate(491.050537109375,333.580078125)"/>
<path d="M0 0 C-0.23620433 7.97726428 -4.85352456 12.90060218 -9.515625 19.06054688 C-13.07284966 23.73681899 -13.07284966 23.73681899 -13.9921875 29.35546875 C-13.50105469 30.66451172 -13.50105469 30.66451172 -13 32 C-12.7834375 32.67546875 -12.566875 33.3509375 -12.34375 34.046875 C-10.94992378 36.86033903 -9.92059077 38.59579477 -6.98046875 39.88671875 C-4.61811244 40.4541672 -2.42428305 40.81525681 0 41 C1.13566406 41.16886719 2.27132812 41.33773437 3.44140625 41.51171875 C6.90171648 41.35931359 6.90171648 41.35931359 8.51000977 39.59448242 C10.01009643 37.58210743 11.3298146 35.52485716 12.625 33.375 C14.39917524 30.57180311 16.18395627 27.77628193 18 25 C18.40831055 24.37383789 18.81662109 23.74767578 19.23730469 23.10253906 C20.4609375 21.4140625 20.4609375 21.4140625 23 19 C26.1328125 18.80078125 26.1328125 18.80078125 29 20 C34.61717909 27.4590913 35.04236331 37.06545739 34 46 C31.85058846 57.58813179 26.53799793 67.01516284 16.9375 74 C10.3503051 78.38415634 5.19596047 80.21095232 -2.625 80.41235352 C-11.22443752 80.6150255 -11.22443752 80.6150255 -18.9140625 83.97265625 C-20.78396381 86.29427529 -22.38180784 88.63825171 -23.88769531 91.20898438 C-26.10243767 94.7751279 -28.79455481 98.00713976 -31.375 101.3125 C-32.49915992 102.78641661 -33.6215641 104.26167402 -34.7421875 105.73828125 C-37.62534786 109.52126529 -40.55087125 113.26832802 -43.5 117 C-47.48571324 122.04721664 -51.41339109 127.13559961 -55.3125 132.25 C-61.10905458 139.85108498 -66.94709672 147.41850515 -72.83984375 154.9453125 C-74.71366265 157.33923662 -76.55739998 159.74503052 -78.37890625 162.1796875 C-83.03268223 168.31793605 -87.60939981 172.5364666 -95 175 C-103.42378143 175.89751096 -110.03722403 174.99059072 -117 170 C-122.58001755 164.95831438 -125.57602853 160.24957454 -126.3359375 152.6328125 C-126.34882813 151.47523438 -126.36171875 150.31765625 -126.375 149.125 C-126.40335937 147.97257813 -126.43171875 146.82015625 -126.4609375 145.6328125 C-125.42838204 137.49487544 -120.83925489 132.2447034 -115.25 126.5625 C-113.89956827 125.15641451 -112.54931368 123.75015888 -111.19921875 122.34375 C-110.15773682 121.26867187 -110.15773682 121.26867187 -109.09521484 120.171875 C-105.7156229 116.66862985 -102.39205885 113.11320885 -99.0625 109.5625 C-97.7217047 108.13769088 -96.38055719 106.71321314 -95.0390625 105.2890625 C-94.37293945 104.58168945 -93.70681641 103.87431641 -93.02050781 103.14550781 C-91.6735026 101.71516927 -90.3264974 100.28483073 -88.97949219 98.85449219 C-83.01089301 92.51628455 -77.04431155 86.17618389 -71.08203125 79.83203125 C-70.44458984 79.15398437 -69.80714844 78.4759375 -69.15039062 77.77734375 C-67.89722417 76.44046114 -66.64714665 75.10067537 -65.40039062 73.7578125 C-62.43074227 70.56169258 -59.43260598 67.41730084 -56.32421875 64.35546875 C-55.75219727 63.77764648 -55.18017578 63.19982422 -54.59082031 62.60449219 C-53.52094724 61.52577197 -52.43383595 60.46376868 -51.32714844 59.42285156 C-49.67548479 57.83090155 -49.67548479 57.83090155 -48 55 C-48.60340613 51.58717433 -48.60340613 51.58717433 -50 48 C-51.51728545 35.72886651 -50.46625603 24.41169338 -42.98046875 14.26171875 C-33.80837268 3.41904827 -14.29476381 -9.52984254 0 0 Z " fill="#21334C" transform="translate(528,429)"/>
<path d="M0 0 C18.2031656 14.59366704 31.54805112 35.12433948 34.75 58.49609375 C35.79518688 73.12289052 35.69297952 87.58790629 30.75 101.49609375 C30.37617187 102.55441406 30.00234375 103.61273437 29.6171875 104.703125 C20.39894047 128.48131851 3.03153879 146.71792122 -20.05078125 157.28515625 C-42.40775518 166.99271332 -66.28048093 167.26634023 -89.25 159.49609375 C-90.41144531 159.11195313 -91.57289063 158.7278125 -92.76953125 158.33203125 C-93.58808594 158.05617188 -94.40664063 157.7803125 -95.25 157.49609375 C-93.47054913 153.45188724 -90.85470327 150.03530888 -88.25 146.49609375 C-84.82461055 147.12917912 -81.5744824 147.99604471 -78.25 149.02734375 C-71.88910486 150.77297093 -65.82050139 151.03339931 -59.25 150.99609375 C-58.07099121 150.99037354 -56.89198242 150.98465332 -55.67724609 150.97875977 C-36.07779618 150.58304008 -19.11156115 144.51061575 -4.25 131.49609375 C-3.58613281 130.92632813 -2.92226563 130.3565625 -2.23828125 129.76953125 C13.40324158 115.32647481 21.31117037 94.06260683 22.15209961 73.1328125 C22.50788116 51.65832888 13.66752688 31.76393481 -0.9375 16.24609375 C-18.8126808 -0.74636208 -40.12525631 -6.24801624 -64.296875 -5.8046875 C-84.45286158 -5.03117127 -101.4481365 4.13527628 -115.25 18.49609375 C-115.91257812 19.1509375 -116.57515625 19.80578125 -117.2578125 20.48046875 C-131.4640383 35.38745008 -136.70272317 55.38195879 -136.4765625 75.43359375 C-136.23801738 83.34483687 -135.23799705 91.89301333 -132.0859375 99.19140625 C-131.10428226 101.89783893 -131.11245535 102.87502313 -132.25 105.49609375 C-133.87890625 107.63671875 -133.87890625 107.63671875 -135.8125 109.74609375 C-136.45316406 110.4525 -137.09382813 111.15890625 -137.75390625 111.88671875 C-138.49447266 112.68335938 -138.49447266 112.68335938 -139.25 113.49609375 C-147.83876236 106.13073068 -149.19740328 90.1420343 -150.25 79.49609375 C-152.03875782 55.90004489 -144.84270173 32.14206495 -129.4609375 13.9609375 C-128.36652344 12.74083984 -128.36652344 12.74083984 -127.25 11.49609375 C-126.43789063 10.58988281 -125.62578125 9.68367188 -124.7890625 8.75 C-92.05920776 -25.85150332 -37.19623103 -28.97769759 0 0 Z " fill="#21334C" transform="translate(569.25,414.50390625)"/>
<path d="M0 0 C-0.71027344 1.00160156 -1.42054688 2.00320313 -2.15234375 3.03515625 C-3.08140637 4.37713559 -4.00975414 5.71961002 -4.9375 7.0625 C-5.40607422 7.71927734 -5.87464844 8.37605469 -6.35742188 9.05273438 C-9.28634016 13.33021935 -11.07651596 16.65565475 -11 22 C-9.28203566 28.27215578 -5.7626024 34.55805298 -1 39 C4.86190524 42.04564207 11.49038472 42.63814442 18 43 C19.09699219 43.10183594 20.19398438 43.20367187 21.32421875 43.30859375 C24.87792819 42.89874989 25.81639043 41.73038371 28.0625 39 C28.73667969 38.18660156 29.41085937 37.37320313 30.10546875 36.53515625 C32.29015318 33.61173317 34.21578109 30.61994511 35.9921875 27.43359375 C36.49105469 26.72396484 36.49105469 26.72396484 37 26 C37.66 26 38.32 26 39 26 C39.69786034 36.19651504 37.96427962 43.69658498 31.5 51.75 C26.2945592 57.08818428 20.34586902 61.88735375 12.56689453 62.05126953 C9.83401251 61.9382575 7.10551529 61.78487462 4.375 61.625 C-2.75290879 61.24837033 -2.75290879 61.24837033 -9.1171875 64.05078125 C-11.24539854 66.6290566 -13.07925585 69.23316602 -14.80273438 72.09619141 C-17.02439076 75.628915 -19.68138047 78.8411263 -22.25 82.125 C-23.35771058 83.57902401 -24.46314479 85.03478477 -25.56640625 86.4921875 C-29.07143971 91.10582246 -32.62484269 95.68078906 -36.1875 100.25 C-43.44416062 109.56358884 -50.64624556 118.91776664 -57.81640625 128.2980957 C-58.93168818 129.75672791 -60.04756604 131.21490466 -61.1640625 132.67260742 C-63.75888974 136.06136859 -66.34617855 139.45500968 -68.91015625 142.8671875 C-69.58498047 143.75954102 -69.58498047 143.75954102 -70.2734375 144.66992188 C-71.47878533 146.26426832 -72.67903852 147.86246279 -73.87890625 149.4609375 C-77.09083844 153.30579187 -79.94363668 155.64487969 -85.05078125 156.23828125 C-90.59970435 156.42037026 -93.58822447 155.67647961 -98 152 C-98.5775 151.54625 -99.155 151.0925 -99.75 150.625 C-103.06724142 146.31258615 -103.56398858 141.26389343 -103 136 C-100.43509373 130.87018746 -96.37328371 127.26946548 -92.296875 123.29296875 C-90.2412347 121.24082444 -88.32609221 119.14230145 -86.4375 116.9375 C-83.44162294 113.44346325 -80.24298539 110.22389924 -76.96484375 106.99609375 C-75.07769256 105.07892823 -73.31314625 103.10424678 -71.5625 101.0625 C-68.28989507 97.25315804 -64.76899563 93.75178891 -61.1953125 90.2265625 C-58.55993257 87.55366826 -56.12233511 84.74631697 -53.6796875 81.8984375 C-51.47590954 79.40765589 -49.11383259 77.10292001 -46.7421875 74.7734375 C-44.95284173 72.95199585 -43.28711468 71.06285721 -41.625 69.125 C-39.01492043 66.09261542 -36.28568814 63.24752146 -33.4375 60.4375 C-31.95706421 58.95960355 -30.47782987 57.48050226 -29 56 C-28.35933594 55.36835938 -27.71867187 54.73671875 -27.05859375 54.0859375 C-23.72030792 50.64577273 -23.72030792 50.64577273 -22.9375 46.0625 C-23.72243241 43.80004776 -24.6145892 41.57415305 -25.5625 39.375 C-28.18755 32.57845966 -28.15639213 24.98818427 -25.375 18.25 C-24.62538691 16.81063876 -23.83304058 15.39273973 -23 14 C-22.5875 13.30003906 -22.175 12.60007812 -21.75 11.87890625 C-17.34960955 5.26581946 -8.34843768 -2.59089445 0 0 Z " fill="#2BD2B8" transform="translate(514,438)"/>
<path d="M0 0 C7 0 7 0 9.15234375 1.80078125 C10.03599609 3.04408203 10.03599609 3.04408203 10.9375 4.3125 C11.59621094 5.21613281 12.25492188 6.11976563 12.93359375 7.05078125 C13.61550781 8.02402344 14.29742188 8.99726562 15 10 C16.13115234 11.50626953 16.13115234 11.50626953 17.28515625 13.04296875 C23 20.67283951 23 20.67283951 23 23 C23.66 23 24.32 23 25 23 C25 15.41 25 7.82 25 0 C27.31 0 29.62 0 32 0 C32 12.21 32 24.42 32 37 C25 37 25 37 22.375 34.5078125 C21.55990165 33.39702812 20.7690722 32.26813394 20 31.125 C19.57992676 30.54016846 19.15985352 29.95533691 18.72705078 29.3527832 C17.46266694 27.58288666 16.23043928 25.79359803 15 24 C14.27554688 22.98035156 13.55109375 21.96070313 12.8046875 20.91015625 C11.1824472 18.62128683 9.58790669 16.31282061 8 14 C7.67 21.59 7.34 29.18 7 37 C4.69 37 2.38 37 0 37 C0 24.79 0 12.58 0 0 Z " fill="#161E3E" transform="translate(535,770)"/>
<path d="M0 0 C2.99073977 1.64197478 4.97277449 3.18091841 7.1875 5.75 C6.2468406 8.18003677 5.69365495 9.47074209 3.375 10.75 C1.1875 10.75 1.1875 10.75 -1.125 8.8125 C-4.60994654 6.13800614 -6.50688597 6.28868421 -10.8125 6.75 C-13.63882926 7.21287521 -13.63882926 7.21287521 -15.8125 8.75 C-18.83372156 14.38045836 -17.51565313 19.95026867 -16.40625 25.9453125 C-15.95619029 27.9917775 -15.95619029 27.9917775 -13.625 29 C-9.25311689 30.16583549 -6.18173154 30.35854735 -2 28.5 C0.61086222 26.77367356 0.61086222 26.77367356 1.1875 22.75 C-1.7825 22.75 -4.7525 22.75 -7.8125 22.75 C-7.85504356 20.75045254 -7.85330783 18.74958364 -7.8125 16.75 C-6.8125 15.75 -6.8125 15.75 -3.43359375 15.65234375 C-2.03902508 15.65808576 -0.64448403 15.67109772 0.75 15.6875 C3.204375 15.708125 5.65875 15.72875 8.1875 15.75 C8.1875 22.68 8.1875 29.61 8.1875 36.75 C6.2075 36.75 4.2275 36.75 2.1875 36.75 C2.1875 35.76 2.1875 34.77 2.1875 33.75 C1.48496094 34.23597656 0.78242187 34.72195313 0.05859375 35.22265625 C-4.72700959 37.76846701 -9.5244124 37.39576375 -14.8125 36.75 C-20.06726991 34.21645022 -23.25111266 30.56049721 -26.0625 25.5 C-27.8310437 19.01533976 -27.39114312 13.42279733 -24.0859375 7.5390625 C-18.29097285 -0.60232956 -9.3617212 -3.69223056 0 0 Z " fill="#1C2342" transform="translate(600.8125,770.25)"/>
<path d="M0 0 C4.06671329 1.4611377 6.57268485 3.35902727 9 7 C9 7.99 9 8.98 9 10 C5.6875 10.6875 5.6875 10.6875 2 11 C1 10 0 9 -1 8 C-3.71619436 7.71751579 -6.25898706 7.86519608 -9 8 C-9.33 9.65 -9.66 11.3 -10 13 C-8.97519531 13.30292969 -7.95039063 13.60585938 -6.89453125 13.91796875 C-5.53359972 14.34032681 -4.17293647 14.76355003 -2.8125 15.1875 C-2.13896484 15.38408203 -1.46542969 15.58066406 -0.77148438 15.78320312 C3.92402818 17.27202418 6.82487769 19.06139408 10 23 C10.69713303 27.26025738 10.3055949 29.38881021 8.375 33.25 C5.15944196 36.97327774 2.5533889 38.7005798 -2.3984375 39.28125 C-8.9900554 39.51878578 -13.19640411 38.28714402 -18.375 34.0625 C-20 32 -20 32 -20 28 C-17 26 -17 26 -14 26 C-13.278125 26.825 -12.55625 27.65 -11.8125 28.5 C-8.87020437 31.1153739 -8.47487104 31.36173054 -4.8125 31.375 C-1.20018841 31.24905749 -1.20018841 31.24905749 1 30 C0.505 27.525 0.505 27.525 0 25 C-0.95261719 24.78085937 -1.90523438 24.56171875 -2.88671875 24.3359375 C-14.42197648 21.41952085 -14.42197648 21.41952085 -17.375 18.25 C-19.55857448 13.88285105 -19.7692132 11.84604318 -19 7 C-13.46538348 0.1191254 -8.46115967 -0.97946479 0 0 Z " fill="#1F2643" transform="translate(398,769)"/>
<path d="M0 0 C3.65866897 1.73936721 5.40416413 2.75273058 7.70703125 6.20703125 C7.70703125 7.19703125 7.70703125 8.18703125 7.70703125 9.20703125 C4.95703125 9.89453125 4.95703125 9.89453125 1.70703125 10.20703125 C1.08828125 9.73265625 0.46953125 9.25828125 -0.16796875 8.76953125 C-3.44974595 6.35645978 -6.28858246 7.00681194 -10.29296875 7.20703125 C-10.62296875 8.85703125 -10.95296875 10.50703125 -11.29296875 12.20703125 C-8.33859322 13.49957054 -5.49596448 14.40691509 -2.35546875 15.08203125 C1.6036323 16.02681673 4.47817102 17.68694522 7.70703125 20.20703125 C9.23918013 23.27132901 8.93641673 25.82359545 8.70703125 29.20703125 C6.89752987 33.39745549 4.75376882 35.18366246 0.70703125 37.20703125 C-4.10694013 38.81168838 -8.81181392 39.22396716 -13.58984375 37.265625 C-16.97338345 35.29600974 -18.92799732 33.89135267 -20.79296875 30.39453125 C-20.95796875 29.67265625 -21.12296875 28.95078125 -21.29296875 28.20703125 C-18.29296875 26.20703125 -18.29296875 26.20703125 -14.29296875 26.20703125 C-12.66796875 27.64453125 -12.66796875 27.64453125 -11.29296875 29.20703125 C-8.30702451 30.70000337 -5.58443251 30.32458353 -2.29296875 30.20703125 C-1.63296875 29.87703125 -0.97296875 29.54703125 -0.29296875 29.20703125 C0.36258244 26.6796989 0.36258244 26.6796989 0.70703125 24.20703125 C-0.70449219 23.96919922 -0.70449219 23.96919922 -2.14453125 23.7265625 C-15.47154674 21.22947161 -15.47154674 21.22947161 -19.29296875 16.20703125 C-20.3836058 13.10158576 -20.74168112 10.47457771 -20.29296875 7.20703125 C-16.27722795 -0.75695891 -8.02127994 -2.77396904 0 0 Z " fill="#202543" transform="translate(636.29296875,769.79296875)"/>
<path d="M0 0 C8.91 0 17.82 0 27 0 C27 1.98 27 3.96 27 6 C20.4 6 13.8 6 7 6 C7 8.97 7 11.94 7 15 C12.94 15 18.88 15 25 15 C25 16.98 25 18.96 25 21 C19.06 21 13.12 21 7 21 C7 23.97 7 26.94 7 30 C13.6 30 20.2 30 27 30 C27 32.31 27 34.62 27 37 C18.09 37 9.18 37 0 37 C0 24.79 0 12.58 0 0 Z " fill="#192241" transform="translate(415,770)"/>
<path d="M0 0 C3.80285865 2.0090574 7.09334467 4.08076405 9 8 C9.58052227 12.28941457 9.47224019 15.85668166 7.8125 19.875 C4.95640004 23.22353099 2.86946954 24.76913177 -1.59375 25.3203125 C-6.09903792 25.50197734 -9.09553175 25.516839 -13.0625 23.25 C-16.5270473 19.22665475 -17.46923801 16.49872063 -17.31640625 11.02734375 C-16.62899904 6.62284569 -14.06488762 3.88740635 -10.75 1.125 C-7.10441212 -0.36637686 -3.84486501 -0.68604454 0 0 Z " fill="#25344E" transform="translate(432,564)"/>
<path d="M0 0 C10.23 0 20.46 0 31 0 C31 2.31 31 4.62 31 7 C27.04 7 23.08 7 19 7 C19 16.9 19 26.8 19 37 C16.36 37 13.72 37 11 37 C11 27.1 11 17.2 11 7 C7.37 7 3.74 7 0 7 C0 4.69 0 2.38 0 0 Z " fill="#212B4A" transform="translate(447,770)"/>
<path d="M0 0 C9.9 0 19.8 0 30 0 C30 2.31 30 4.62 30 7 C26.37 7 22.74 7 19 7 C19 16.9 19 26.8 19 37 C16.36 37 13.72 37 11 37 C11 27.1 11 17.2 11 7 C7.37 7 3.74 7 0 7 C0 4.69 0 2.38 0 0 Z " fill="#1F2848" transform="translate(481,770)"/>
<path d="M0 0 C2.31 0 4.62 0 7 0 C7 12.21 7 24.42 7 37 C4.69 37 2.38 37 0 37 C0 24.79 0 12.58 0 0 Z " fill="#151E3D" transform="translate(518,770)"/>
<path d="M0 0 C1.39456867 0.00574201 2.78910972 0.01875397 4.18359375 0.03515625 C6.63796875 0.05578125 9.09234375 0.07640625 11.62109375 0.09765625 C11.62109375 7.02765625 11.62109375 13.95765625 11.62109375 21.09765625 C9.64109375 21.09765625 7.66109375 21.09765625 5.62109375 21.09765625 C5.62109375 20.10765625 5.62109375 19.11765625 5.62109375 18.09765625 C4.63109375 18.42765625 3.64109375 18.75765625 2.62109375 19.09765625 C3.12276838 17.09095771 3.62352039 15.0890282 4.18359375 13.09765625 C4.76355834 10.78760497 4.76355834 10.78760497 4.62109375 7.09765625 C1.65109375 7.09765625 -1.31890625 7.09765625 -4.37890625 7.09765625 C-4.42144981 5.09810879 -4.41971408 3.09723989 -4.37890625 1.09765625 C-3.37890625 0.09765625 -3.37890625 0.09765625 0 0 Z " fill="#181E3D" transform="translate(597.37890625,785.90234375)"/>
<path d="M0 0 C2.5545043 3.22674227 4.63502861 6.65565757 6.71875 10.1953125 C8.0409514 12.28537869 8.0409514 12.28537869 11 14 C15.88192638 14.58190144 20.48830299 14.61701919 25.0625 12.75 C29.11717965 9.0877087 29.38625184 5.3191507 30 0 C30.268125 0.639375 30.53625 1.27875 30.8125 1.9375 C31.88667752 4.33131686 31.88667752 4.33131686 35 5 C27.2739726 17.57534247 27.2739726 17.57534247 20 20 C15.2433123 20.55268181 11.90034514 20.48351869 7.625 18.1875 C6.75875 17.465625 5.8925 16.74375 5 16 C4.4225 15.54625 3.845 15.0925 3.25 14.625 C-0.14624377 10.20988309 -0.21473087 5.36827178 0 0 Z " fill="#26C3B1" transform="translate(411,574)"/>
<path d="M0 0 C2.0078125 0.23046875 2.0078125 0.23046875 5.0078125 2.23046875 C5.0078125 2.89046875 5.0078125 3.55046875 5.0078125 4.23046875 C6.9878125 3.90046875 8.9678125 3.57046875 11.0078125 3.23046875 C10.6984375 3.80796875 10.3890625 4.38546875 10.0703125 4.98046875 C9.07909866 7.07950982 8.53232449 8.98121013 8.0078125 11.23046875 C5.90197763 10.77986214 3.79818378 10.31970919 1.6953125 9.85546875 C0.52355469 9.60023438 -0.64820313 9.345 -1.85546875 9.08203125 C-4.9921875 8.23046875 -4.9921875 8.23046875 -7.9921875 6.23046875 C-6.89032946 0.09154541 -6.35496092 0.12897522 0 0 Z " fill="#F0F0F1" transform="translate(394.9921875,775.76953125)"/>
<path d="M0 0 C3.5 0.25 3.5 0.25 5.5 2.25 C5.85877543 5.04844834 5.83812547 6.653308 4.4375 9.125 C1.38430685 10.89782183 -1.16411708 9.94235306 -4.5 9.25 C-5.125 5.875 -5.125 5.875 -5.5 2.25 C-3.5 0.25 -3.5 0.25 0 0 Z " fill="#EEF1F1" transform="translate(428.5,571.75)"/>
<path d="M0 0 C0.928125 0.2784375 0.928125 0.2784375 1.875 0.5625 C4.04160178 1.23686176 4.04160178 1.23686176 6 0 C10 5.75 10 5.75 10 8 C10.66 8.33 11.32 8.66 12 9 C11.01 9 10.02 9 9 9 C8.34 9.66 7.68 10.32 7 11 C6.01 11.33 5.02 11.66 4 12 C1.24331998 8.04476345 0.4682121 4.77576339 0 0 Z " fill="#1B254A" transform="translate(548,785)"/>
<path d="M0 0 C0.33 0 0.66 0 1 0 C1.33 11.22 1.66 22.44 2 34 C3.65 34.33 5.3 34.66 7 35 C7 35.66 7 36.32 7 37 C4.69 37 2.38 37 0 37 C0 24.79 0 12.58 0 0 Z " fill="#1C2647" transform="translate(535,770)"/>
<path d="M0 0 C1.39456452 0.00667256 2.78911118 0.01863093 4.18359375 0.03515625 C4.89451172 0.03966797 5.60542969 0.04417969 6.33789062 0.04882812 C8.09899388 0.06064761 9.86005411 0.07858362 11.62109375 0.09765625 C11.62109375 0.42765625 11.62109375 0.75765625 11.62109375 1.09765625 C5.68109375 1.59265625 5.68109375 1.59265625 -0.37890625 2.09765625 C-0.04890625 3.08765625 0.28109375 4.07765625 0.62109375 5.09765625 C3.59109375 5.59265625 3.59109375 5.59265625 6.62109375 6.09765625 C5.96109375 7.41765625 5.30109375 8.73765625 4.62109375 10.09765625 C4.62109375 9.10765625 4.62109375 8.11765625 4.62109375 7.09765625 C1.65109375 7.09765625 -1.31890625 7.09765625 -4.37890625 7.09765625 C-4.42144981 5.09810879 -4.41971408 3.09723989 -4.37890625 1.09765625 C-3.37890625 0.09765625 -3.37890625 0.09765625 0 0 Z " fill="#4D526B" transform="translate(597.37890625,785.90234375)"/>
<path d="M0 0 C0.66 0.66 1.32 1.32 2 2 C-1.06246747 3.78409802 -3.22079273 4.22880021 -6.75 4.125 C-7.54921875 4.10695313 -8.3484375 4.08890625 -9.171875 4.0703125 C-9.77515625 4.04710937 -10.3784375 4.02390625 -11 4 C-11 3.34 -11 2.68 -11 2 C-6.93150591 -0.71232939 -4.83523216 -0.30699887 0 0 Z " fill="#28CBBA" transform="translate(433,590)"/>
<path d="M0 0 C0.33 0 0.66 0 1 0 C0.58525633 5.28798182 -0.35224614 8.11690718 -4 12 C-4.99 11.67 -5.98 11.34 -7 11 C-5.85845641 9.16399255 -4.71165684 7.33125195 -3.5625 5.5 C-2.92441406 4.4790625 -2.28632812 3.458125 -1.62890625 2.40625 C-0.82259766 1.21515625 -0.82259766 1.21515625 0 0 Z " fill="#20374D" transform="translate(733,684)"/>
<path d="M0 0 C2.52349243 3.12432397 4.27256146 6.38060496 6 10 C5.01 10.33 4.02 10.66 3 11 C2.67 11.66 2.34 12.32 2 13 C0.24252386 8.49646738 -0.19294408 4.82360189 0 0 Z " fill="#2CBEAB" transform="translate(411,574)"/>
<path d="M0 0 C0.99 0.33 1.98 0.66 3 1 C-0.3 4.3 -3.6 7.6 -7 11 C-7.33 10.01 -7.66 9.02 -8 8 C-5.36 5.36 -2.72 2.72 0 0 Z " fill="#142742" transform="translate(294,264)"/>
<path d="M0 0 C-1.40844718 3.21524305 -3.10344786 5.32183868 -5.625 7.75 C-6.57246094 8.67039062 -6.57246094 8.67039062 -7.5390625 9.609375 C-8.02117187 10.06828125 -8.50328125 10.5271875 -9 11 C-9.33 10.01 -9.66 9.02 -10 8 C-8.71451591 6.66070495 -7.42141845 5.32871357 -6.125 4 C-5.04605469 2.88625 -5.04605469 2.88625 -3.9453125 1.75 C-2 0 -2 0 0 0 Z " fill="#273D54" transform="translate(422,548)"/>
<path d="M0 0 C0.33 0.99 0.66 1.98 1 3 C0.34 3 -0.32 3 -1 3 C-1 3.66 -1 4.32 -1 5 C-2.65 5.33 -4.3 5.66 -6 6 C-6 4.68 -6 3.36 -6 2 C-3 0 -3 0 0 0 Z " fill="#2B3554" transform="translate(384,795)"/>
<path d="M0 0 C0.99 0.33 1.98 0.66 3 1 C2.25 2.9375 2.25 2.9375 1 5 C-1.125 5.75 -1.125 5.75 -3 6 C-3 4.68 -3 3.36 -3 2 C-2.01 1.34 -1.02 0.68 0 0 Z " fill="#252949" transform="translate(605,775)"/>
<path d="M0 0 C-1.65 1.65 -3.3 3.3 -5 5 C-5 4.01 -5 3.02 -5 2 C-6.98 2.33 -8.96 2.66 -11 3 C-7.18178484 -0.02823961 -4.81391924 -1.49397494 0 0 Z " fill="#29C6B4" transform="translate(514,438)"/>
<path d="M0 0 C0 0.66 0 1.32 0 2 C-0.763125 2.28875 -1.52625 2.5775 -2.3125 2.875 C-5.15029308 3.96269013 -5.15029308 3.96269013 -8 6 C-8 3 -8 3 -6.8125 1.3125 C-4.44258278 -0.40364695 -2.85974334 -0.23187108 0 0 Z " fill="#224054" transform="translate(513,499)"/>
<path d="M0 0 C2.0625 1.75 2.0625 1.75 4 4 C3.75 6.25 3.75 6.25 3 8 C0.9375 5.6875 0.9375 5.6875 -1 3 C-0.67 2.01 -0.34 1.02 0 0 Z " fill="#1E284A" transform="translate(550,789)"/>
<path d="M0 0 C0.99 0.33 1.98 0.66 3 1 C2.01 2.485 2.01 2.485 1 4 C0.01 4 -0.98 4 -2 4 C-2.33 4.99 -2.66 5.98 -3 7 C-3.66 6.34 -4.32 5.68 -5 5 C-3.35 3.35 -1.7 1.7 0 0 Z " fill="#102741" transform="translate(725,696)"/>
<path d="M0 0 C0 0.33 0 0.66 0 1 C-2.33163378 1.67258667 -4.6652039 2.33847444 -7 3 C-7.763125 3.2475 -8.52625 3.495 -9.3125 3.75 C-9.869375 3.8325 -10.42625 3.915 -11 4 C-11.66 3.34 -12.32 2.68 -13 2 C-8.50343896 -0.24828052 -4.92127034 -0.16682272 0 0 Z " fill="#27ADA3" transform="translate(431,589)"/>
<path d="M0 0 C0.33 0.66 0.66 1.32 1 2 C0.00390625 3.9453125 0.00390625 3.9453125 -1.4375 6.125 C-1.91058594 6.84945313 -2.38367188 7.57390625 -2.87109375 8.3203125 C-3.24363281 8.87460937 -3.61617188 9.42890625 -4 10 C-4.66 9.67 -5.32 9.34 -6 9 C-4.02 6.03 -2.04 3.06 0 0 Z " fill="#2A3E59" transform="translate(285,273)"/>
</svg>
