<?xml version="1.0" encoding="UTF-8"?>
<svg version="1.1" xmlns="http://www.w3.org/2000/svg" width="1024" height="1024">
<path d="M0 0 C337.92 0 675.84 0 1024 0 C1024 337.92 1024 675.84 1024 1024 C686.08 1024 348.16 1024 0 1024 C0 686.08 0 348.16 0 0 Z " fill="#FDFEFE" transform="translate(0,0)"/>
<path d="M0 0 C1.82563864 -0.00401932 3.6512764 -0.00845831 5.47691309 -0.01327956 C10.48219542 -0.02519831 15.48746813 -0.03088254 20.49276185 -0.03546071 C25.89588691 -0.04143457 31.29900057 -0.05303979 36.70211792 -0.06375122 C49.74417395 -0.08823253 62.78623374 -0.10289511 75.82830566 -0.11581129 C79.51430008 -0.11952602 83.20029412 -0.12349901 86.88628817 -0.12756395 C109.79605197 -0.15280081 132.70581642 -0.17484483 155.61559105 -0.1872921 C160.91776914 -0.19022158 166.2199472 -0.19318328 171.52212524 -0.19619751 C172.83988479 -0.19694356 174.15764434 -0.19768961 175.51533599 -0.19845827 C196.85444268 -0.21110756 218.19345302 -0.24432786 239.53252332 -0.28599934 C261.46079117 -0.32846909 283.38901637 -0.35199285 305.31732523 -0.35721266 C317.6212179 -0.36062079 329.92498017 -0.37230567 342.22883224 -0.4053154 C352.70862421 -0.43338617 363.18825899 -0.44428433 373.66808562 -0.43311994 C379.00923045 -0.42795156 384.35004649 -0.43070141 389.69114304 -0.45558548 C394.59311542 -0.47823182 399.49452575 -0.47721986 404.39650901 -0.45838161 C406.15767782 -0.45560304 407.91888604 -0.46105885 409.67999201 -0.47619455 C435.92165058 -0.68770169 459.11290242 7.93088754 478.18960571 26.15390015 C479.11192993 26.96407593 479.11192993 26.96407593 480.05288696 27.7906189 C494.03089689 40.54756129 502.51806319 61.59755804 503.46835589 80.24880588 C503.6102618 84.85263089 503.59030599 89.45555388 503.57055664 94.06098938 C503.57401991 95.83604884 503.57878894 97.61110614 503.58473837 99.386159 C503.59718621 104.22830507 503.59110647 109.07027227 503.58177972 113.91241872 C503.57496389 119.14837591 503.58548301 124.38430333 503.59371948 129.62025452 C503.60703233 139.86373275 503.60418991 150.1071449 503.59548156 160.35062569 C503.5886954 168.67921151 503.58779232 177.00777886 503.59105301 185.33636665 C503.59151271 186.52354428 503.59197241 187.71072192 503.59244604 188.93387463 C503.59340525 191.34591719 503.59437789 193.75795974 503.59536381 196.17000229 C503.60391063 218.76763094 503.59409487 241.36522303 503.57796271 263.96284569 C503.56456192 283.3337591 503.56688705 302.70461857 503.58071899 322.07553101 C503.5967903 344.5929586 503.6030849 367.11035417 503.5938822 389.6277867 C503.5929266 392.03106375 503.59198349 394.43434081 503.59105301 396.83761787 C503.59059018 398.01994478 503.59012736 399.20227168 503.5896505 400.42042668 C503.58706514 408.73416434 503.59142186 417.04788163 503.59849167 425.36161613 C503.60692418 435.50029477 503.60458983 445.63890377 503.58864944 455.77757447 C503.58079002 460.94602408 503.57763524 466.11435777 503.58759689 471.2828064 C503.59659282 476.02204659 503.59153092 480.76106436 503.57566424 485.50028462 C503.57233703 487.20671441 503.57396355 488.91316332 503.5812916 490.61958062 C503.68549515 516.91991717 496.58197349 538.89990793 478.18960571 558.15390015 C477.64948853 558.76878296 477.10937134 559.38366577 476.55288696 560.0171814 C463.42173241 574.40522227 441.9154904 583.31145177 422.70977795 584.52178288 C417.89279932 584.71102392 413.07832043 584.68842453 408.2585907 584.66183472 C406.40883169 584.66645501 404.55907638 584.67281544 402.70932859 584.68074369 C397.67448152 584.69730534 392.63994117 584.68925112 387.6050936 584.67679882 C382.15644256 584.66769619 376.70784187 584.6817438 371.25920105 584.69271851 C360.604028 584.71045331 349.94896802 584.70668614 339.29379065 584.69506794 C330.62920001 584.68601354 321.96464093 584.68481829 313.30004692 584.68916321 C311.44625468 584.69008261 311.44625468 584.69008261 309.55501209 584.69102058 C307.04392532 584.69229955 304.53283856 584.69359641 302.02175181 584.69491094 C279.17514557 584.70597774 256.32859358 584.6945244 233.48199758 584.67354055 C212.6612748 584.65456273 191.84064991 584.65625698 171.01992798 584.67538452 C147.58612685 584.69684107 124.1523768 584.70520128 100.71856683 584.69293547 C98.21670466 584.69166135 95.71484247 584.69040387 93.21298027 584.68916321 C91.98220648 584.68854611 90.75143269 584.687929 89.48336272 584.6872932 C80.8358653 584.68384845 72.18840275 584.68964979 63.54091072 584.69908142 C52.99284288 584.7103337 42.44489401 584.70719374 31.89683969 584.68595845 C26.52139275 584.67549108 21.14614374 584.67125215 15.77069855 584.68455505 C10.83892017 584.69657481 5.90752102 584.68976031 0.97577649 584.66864485 C-0.79723682 584.66421901 -2.57028293 584.66635313 -4.34327471 584.676148 C-21.28171558 584.76246116 -36.77188923 582.28447402 -51.81039429 574.15390015 C-53.11363647 573.45973999 -53.11363647 573.45973999 -54.44320679 572.7515564 C-73.7913548 561.80377986 -87.48047924 544.73625816 -94.13605535 523.59764522 C-97.43167841 511.65459673 -98.24424123 500.43724574 -98.19134521 488.11982727 C-98.19480931 486.34319207 -98.19957888 484.56655902 -98.20552695 482.7899304 C-98.21796328 477.94811298 -98.2119004 473.10647467 -98.20256829 468.2646569 C-98.19574778 463.02737312 -98.20627381 457.79011897 -98.21450806 452.55284119 C-98.22781539 442.30916715 -98.22498112 432.06555923 -98.21627013 421.82188266 C-98.20948254 413.4937889 -98.20858152 405.16571361 -98.21184158 396.83761787 C-98.21230128 395.65028701 -98.21276098 394.46295615 -98.21323461 393.23964556 C-98.21419383 390.8272788 -98.21516647 388.41491205 -98.21615238 386.0025453 C-98.2246974 363.4068501 -98.21488591 340.81119147 -98.19875129 318.21550227 C-98.18534719 298.84428261 -98.18767869 279.47311688 -98.20150757 260.10189819 C-98.2175761 237.58300803 -98.22387533 215.06414987 -98.21467078 192.54525477 C-98.21371517 190.14229207 -98.21277206 187.73932936 -98.21184158 185.33636665 C-98.21114734 183.56310771 -98.21114734 183.56310771 -98.21043908 181.75402535 C-98.20785314 173.43930534 -98.2122116 165.1246057 -98.21928024 156.80988884 C-98.2277095 146.67230378 -98.22538504 136.53478837 -98.20943801 126.39721125 C-98.20157479 121.22887858 -98.19843043 116.06066188 -98.20838547 110.89233017 C-98.21737319 106.15441572 -98.21233278 101.41672396 -98.19645281 96.6788295 C-98.19312222 94.97177445 -98.19475992 93.26470031 -98.20208018 91.55765771 C-98.30357007 65.9083994 -90.70178487 44.88344597 -72.81039429 26.15390015 C-72.2702771 25.53901733 -71.73015991 24.92413452 -71.17367554 24.2906189 C-52.85809829 4.22191335 -25.68023026 0.00613888 0 0 Z " fill="#FDFDFD" transform="translate(300.8103942871094,221.84609985351563)"/>
<path d="M0 0 C1.28970703 -0.01836914 1.28970703 -0.01836914 2.60546875 -0.03710938 C8.15668216 -0.04974491 12.79341145 0.64314016 18.125 2.1875 C19.94064453 2.64769531 19.94064453 2.64769531 21.79296875 3.1171875 C22.95441406 3.42914063 24.11585938 3.74109375 25.3125 4.0625 C26.48167969 4.36929687 27.65085937 4.67609375 28.85546875 4.9921875 C33.51473418 6.69557486 36.30157997 8.78463624 38.8125 13.0625 C40.125 16.1875 40.125 16.1875 40.875 19.0625 C42.38082592 22.8270648 44.52596268 25.02820142 47.37109375 27.8671875 C52.79770766 35.04627138 52.55993874 42.54822251 52.4375 51.1875 C52.44072266 52.32445312 52.44394531 53.46140625 52.44726562 54.6328125 C52.38749673 64.00022843 51.42520974 70.3174916 46.125 78.1875 C45.60543325 79.61089641 45.12888456 81.05045296 44.6875 82.5 C42.55394031 89.37609182 39.0652954 95.90649457 34.125 101.1875 C33.465 101.1875 32.805 101.1875 32.125 101.1875 C32.125 101.8475 32.125 102.5075 32.125 103.1875 C32.68896484 103.16131592 33.25292969 103.13513184 33.83398438 103.1081543 C36.43069725 103.00314799 39.0269622 102.93885627 41.625 102.875 C42.511875 102.83310547 43.39875 102.79121094 44.3125 102.74804688 C50.86448088 102.62760605 55.07210459 103.96380907 60.125 108.1875 C65.26356963 113.38745584 65.35459742 118.26791666 65.4375 125.25 C65.42500772 131.22469315 65.42500772 131.22469315 67.671875 136.59375 C69.739954 138.29310173 71.88469143 139.72507635 74.125 141.1875 C85.08535197 151.31752228 91.75464479 165.91941302 92.40086365 180.82060242 C92.54216234 186.38936819 92.51619817 191.9573246 92.48828125 197.52734375 C92.48776171 199.58329773 92.48828302 201.6392522 92.48979187 203.69520569 C92.48970263 207.98088093 92.47936671 212.26636616 92.46118164 216.55200195 C92.43839555 222.04191681 92.43797373 227.53155706 92.44469929 233.02150631 C92.4480397 237.25684549 92.44140944 241.49212211 92.43157005 245.72744942 C92.42772656 247.75243363 92.4265663 249.7774248 92.4281559 251.80241203 C92.42852688 254.62614116 92.41590021 257.4495173 92.3996582 260.27319336 C92.40213562 261.10598312 92.40461304 261.93877289 92.40716553 262.79679871 C92.36757512 267.11105597 91.93424579 270.20402694 90.125 274.1875 C90.04853835 276.5195802 90.03356701 278.85595878 90.125 281.1875 C90.93324219 281.14109375 91.74148438 281.0946875 92.57421875 281.046875 C93.64285156 281.01078125 94.71148438 280.9746875 95.8125 280.9375 C96.86824219 280.89109375 97.92398438 280.8446875 99.01171875 280.796875 C103.13297013 281.31397053 104.38061418 282.03030008 107.125 285.1875 C107.89753865 289.04152379 107.82509098 292.85771358 107.7890625 296.77734375 C107.79384613 297.91401993 107.79862976 299.05069611 107.80355835 300.22181702 C107.80695995 302.62502425 107.79773958 305.02827759 107.77685547 307.43139648 C107.75012134 311.10831099 107.77658501 314.7821656 107.80859375 318.45898438 C107.80528922 320.79427757 107.79888209 323.12956886 107.7890625 325.46484375 C107.79918365 326.56392563 107.80930481 327.66300751 107.81973267 328.7953949 C107.74843359 333.44493719 107.62513032 336.36061115 105.18823242 340.38964844 C100.86722402 342.92570533 97.37290283 342.81808586 92.44921875 342.67578125 C91.5240596 342.66870651 90.59890045 342.66163177 89.64570618 342.65434265 C86.70046997 342.62642815 83.75715827 342.56369557 80.8125 342.5 C78.81187648 342.4749133 76.81122306 342.45210078 74.81054688 342.43164062 C69.91462684 342.37661108 65.02013932 342.29035901 60.125 342.1875 C60.13388245 343.01720306 60.14276489 343.84690613 60.1519165 344.70175171 C60.23237845 352.55700008 60.29312399 360.41210816 60.33224869 368.2676754 C60.35304004 372.30542085 60.38120073 376.3428231 60.42675781 380.38037109 C60.47052046 384.28373162 60.49420052 388.186764 60.50450897 392.0903511 C60.51184625 393.57257877 60.52617301 395.0547904 60.54792023 396.53687668 C60.68878582 406.54350055 59.81112264 414.53544529 54.25 423.0625 C47.72757971 429.58492029 41.29691492 431.60198639 32.375 431.625 C23.98263475 431.61238622 18.66205319 430.34142425 12.3671875 424.578125 C5.51899751 417.36602154 4.6805713 409.45569861 4.70849609 399.92211914 C4.69991074 398.82040375 4.69132538 397.71868835 4.68247986 396.58358765 C4.65750175 392.96321137 4.65304927 389.34311067 4.6484375 385.72265625 C4.63412413 383.20298935 4.61836651 380.68333028 4.60122681 378.16368103 C4.56370304 372.22235481 4.53852535 366.28106474 4.52010214 360.33965629 C4.48460119 349.04881941 4.42103191 337.75813143 4.35524368 326.46743584 C4.33609412 322.75303557 4.32440942 319.0386674 4.31381226 315.32423401 C4.30360732 313.06519499 4.29325002 310.80615665 4.28271484 308.54711914 C4.28167252 307.50664932 4.28063019 306.4661795 4.27955627 305.3941803 C4.27410294 304.4535675 4.2686496 303.51295471 4.26303101 302.5438385 C4.26047491 301.72184999 4.25791882 300.89986147 4.25528526 300.05296421 C4.32896099 298.17275308 4.32896099 298.17275308 3.125 297.1875 C-0.375 297.02083333 -0.375 297.02083333 -3.875 297.1875 C-5.44606461 298.75856461 -5.00292201 300.30951668 -5.00630188 302.49241638 C-5.01031006 303.4217247 -5.01431824 304.35103302 -5.01844788 305.3085022 C-5.01791916 306.33647919 -5.01739044 307.36445618 -5.0168457 308.42358398 C-5.02205734 310.03830849 -5.02205734 310.03830849 -5.02737427 311.68565369 C-5.03474864 314.03360409 -5.04008501 316.38156154 -5.04366493 318.7295208 C-5.05081268 322.44995181 -5.06646896 326.17024955 -5.08500671 329.89064026 C-5.137539 340.4725807 -5.18541223 351.0544132 -5.20092773 361.63647461 C-5.21103102 368.10223047 -5.24042309 374.56765612 -5.28224754 381.03328133 C-5.29453652 383.49510254 -5.29968266 385.95697046 -5.29744911 388.41882133 C-5.29508624 391.87519146 -5.31734179 395.33062238 -5.3449707 398.78686523 C-5.33506859 400.3015036 -5.33506859 400.3015036 -5.32496643 401.84674072 C-5.42902752 409.81502126 -7.46740209 416.17483682 -11.5625 423 C-19.08161052 430.11267211 -27.10023745 431.57041991 -37.1328125 431.40234375 C-43.42292672 431.04122028 -48.67684408 429.30522273 -53.43674278 424.92909622 C-60.44752174 416.43969252 -61.73783269 407.63577559 -61.55615234 396.97363281 C-61.55445532 395.59257075 -61.55541882 394.21150329 -61.55880737 392.83044434 C-61.56051284 389.12004185 -61.52550321 385.41082847 -61.48336363 381.70069981 C-61.44558366 377.8090542 -61.44230999 373.91737443 -61.43521118 370.02557373 C-61.41664167 362.67335866 -61.3675133 355.3216857 -61.30711424 347.9697082 C-61.23980138 339.59239901 -61.20699818 331.21506246 -61.17694163 322.83754969 C-61.11440583 305.62055409 -61.00902672 288.40408456 -60.875 271.1875 C-61.98270752 271.04578369 -63.09041504 270.90406738 -64.23168945 270.75805664 C-67.7198014 270.21180471 -69.31149571 269.70668778 -72.0625 267.625 C-72.69542969 267.16996094 -73.32835937 266.71492188 -73.98046875 266.24609375 C-80.10578451 259.59033828 -80.40943276 252.92833745 -80.125 244.1875 C-80.09792969 242.59615234 -80.09792969 242.59615234 -80.0703125 240.97265625 C-80.02353748 238.3766428 -79.95801142 235.78256472 -79.875 233.1875 C-80.76795776 233.12272461 -80.76795776 233.12272461 -81.67895508 233.05664062 C-88.50168618 232.45220889 -92.73548512 230.84488403 -97.875 226.1875 C-104.14803085 218.46785826 -106.02715297 211.3582038 -105.23370361 201.47717285 C-104.00265164 193.6191358 -100.06165559 186.24695993 -96.8125 179.0625 C-96.05035336 177.3148385 -95.2905737 175.56614281 -94.53320312 173.81640625 C-82.970156 147.32535204 -82.970156 147.32535204 -75.0625 139.9375 C-74.12792969 139.04546875 -73.19335938 138.1534375 -72.23046875 137.234375 C-69.875 135.1875 -69.875 135.1875 -67.875 134.1875 C-67.83632813 132.23457031 -67.83632813 132.23457031 -67.796875 130.2421875 C-67.74057299 128.51559244 -67.68322613 126.78903124 -67.625 125.0625 C-67.61082031 124.2065625 -67.59664063 123.350625 -67.58203125 122.46875 C-67.33529034 116.05348626 -65.86015921 112.33298746 -61.34765625 107.578125 C-55.36378678 102.73798682 -50.51624643 101.86239927 -43.0625 101.5625 C-42.27423828 101.52382813 -41.48597656 101.48515625 -40.67382812 101.4453125 C-38.7412462 101.35161156 -36.80815624 101.26849221 -34.875 101.1875 C-35.31070313 100.71183594 -35.74640625 100.23617187 -36.1953125 99.74609375 C-41.22421067 93.83550564 -43.8520274 87.87951121 -46.52734375 80.71484375 C-47.596605 77.91616865 -48.72943363 75.32929168 -50.125 72.6875 C-53.18525813 66.56698373 -54.24140842 60.8635552 -54.1875 54.0625 C-54.18012817 52.95152954 -54.18012817 52.95152954 -54.17260742 51.81811523 C-53.86575063 37.20386367 -49.41103255 25.13204998 -39.32421875 14.51171875 C-27.9153597 3.68513002 -15.42808631 0.01146217 0 0 Z " fill="#24364E" transform="translate(510.875,298.8125)"/>
<path d="M0 0 C1.82563864 -0.00401932 3.6512764 -0.00845831 5.47691309 -0.01327956 C10.48219542 -0.02519831 15.48746813 -0.03088254 20.49276185 -0.03546071 C25.89588691 -0.04143457 31.29900057 -0.05303979 36.70211792 -0.06375122 C49.74417395 -0.08823253 62.78623374 -0.10289511 75.82830566 -0.11581129 C79.51430008 -0.11952602 83.20029412 -0.12349901 86.88628817 -0.12756395 C109.79605197 -0.15280081 132.70581642 -0.17484483 155.61559105 -0.1872921 C160.91776914 -0.19022158 166.2199472 -0.19318328 171.52212524 -0.19619751 C172.83988479 -0.19694356 174.15764434 -0.19768961 175.51533599 -0.19845827 C196.85444268 -0.21110756 218.19345302 -0.24432786 239.53252332 -0.28599934 C261.46079117 -0.32846909 283.38901637 -0.35199285 305.31732523 -0.35721266 C317.6212179 -0.36062079 329.92498017 -0.37230567 342.22883224 -0.4053154 C352.70862421 -0.43338617 363.18825899 -0.44428433 373.66808562 -0.43311994 C379.00923045 -0.42795156 384.35004649 -0.43070141 389.69114304 -0.45558548 C394.59311542 -0.47823182 399.49452575 -0.47721986 404.39650901 -0.45838161 C406.15767782 -0.45560304 407.91888604 -0.46105885 409.67999201 -0.47619455 C435.92165058 -0.68770169 459.11290242 7.93088754 478.18960571 26.15390015 C479.11192993 26.96407593 479.11192993 26.96407593 480.05288696 27.7906189 C494.03089689 40.54756129 502.51806319 61.59755804 503.46835589 80.24880588 C503.6102618 84.85263089 503.59030599 89.45555388 503.57055664 94.06098938 C503.57401991 95.83604884 503.57878894 97.61110614 503.58473837 99.386159 C503.59718621 104.22830507 503.59110647 109.07027227 503.58177972 113.91241872 C503.57496389 119.14837591 503.58548301 124.38430333 503.59371948 129.62025452 C503.60703233 139.86373275 503.60418991 150.1071449 503.59548156 160.35062569 C503.5886954 168.67921151 503.58779232 177.00777886 503.59105301 185.33636665 C503.59151271 186.52354428 503.59197241 187.71072192 503.59244604 188.93387463 C503.59340525 191.34591719 503.59437789 193.75795974 503.59536381 196.17000229 C503.60391063 218.76763094 503.59409487 241.36522303 503.57796271 263.96284569 C503.56456192 283.3337591 503.56688705 302.70461857 503.58071899 322.07553101 C503.5967903 344.5929586 503.6030849 367.11035417 503.5938822 389.6277867 C503.5929266 392.03106375 503.59198349 394.43434081 503.59105301 396.83761787 C503.59059018 398.01994478 503.59012736 399.20227168 503.5896505 400.42042668 C503.58706514 408.73416434 503.59142186 417.04788163 503.59849167 425.36161613 C503.60692418 435.50029477 503.60458983 445.63890377 503.58864944 455.77757447 C503.58079002 460.94602408 503.57763524 466.11435777 503.58759689 471.2828064 C503.59659282 476.02204659 503.59153092 480.76106436 503.57566424 485.50028462 C503.57233703 487.20671441 503.57396355 488.91316332 503.5812916 490.61958062 C503.68549515 516.91991717 496.58197349 538.89990793 478.18960571 558.15390015 C477.64948853 558.76878296 477.10937134 559.38366577 476.55288696 560.0171814 C463.42173241 574.40522227 441.9154904 583.31145177 422.70977795 584.52178288 C417.89279932 584.71102392 413.07832043 584.68842453 408.2585907 584.66183472 C406.40883169 584.66645501 404.55907638 584.67281544 402.70932859 584.68074369 C397.67448152 584.69730534 392.63994117 584.68925112 387.6050936 584.67679882 C382.15644256 584.66769619 376.70784187 584.6817438 371.25920105 584.69271851 C360.604028 584.71045331 349.94896802 584.70668614 339.29379065 584.69506794 C330.62920001 584.68601354 321.96464093 584.68481829 313.30004692 584.68916321 C311.44625468 584.69008261 311.44625468 584.69008261 309.55501209 584.69102058 C307.04392532 584.69229955 304.53283856 584.69359641 302.02175181 584.69491094 C279.17514557 584.70597774 256.32859358 584.6945244 233.48199758 584.67354055 C212.6612748 584.65456273 191.84064991 584.65625698 171.01992798 584.67538452 C147.58612685 584.69684107 124.1523768 584.70520128 100.71856683 584.69293547 C98.21670466 584.69166135 95.71484247 584.69040387 93.21298027 584.68916321 C91.98220648 584.68854611 90.75143269 584.687929 89.48336272 584.6872932 C80.8358653 584.68384845 72.18840275 584.68964979 63.54091072 584.69908142 C52.99284288 584.7103337 42.44489401 584.70719374 31.89683969 584.68595845 C26.52139275 584.67549108 21.14614374 584.67125215 15.77069855 584.68455505 C10.83892017 584.69657481 5.90752102 584.68976031 0.97577649 584.66864485 C-0.79723682 584.66421901 -2.57028293 584.66635313 -4.34327471 584.676148 C-21.28171558 584.76246116 -36.77188923 582.28447402 -51.81039429 574.15390015 C-53.11363647 573.45973999 -53.11363647 573.45973999 -54.44320679 572.7515564 C-73.7913548 561.80377986 -87.48047924 544.73625816 -94.13605535 523.59764522 C-97.43167841 511.65459673 -98.24424123 500.43724574 -98.19134521 488.11982727 C-98.19480931 486.34319207 -98.19957888 484.56655902 -98.20552695 482.7899304 C-98.21796328 477.94811298 -98.2119004 473.10647467 -98.20256829 468.2646569 C-98.19574778 463.02737312 -98.20627381 457.79011897 -98.21450806 452.55284119 C-98.22781539 442.30916715 -98.22498112 432.06555923 -98.21627013 421.82188266 C-98.20948254 413.4937889 -98.20858152 405.16571361 -98.21184158 396.83761787 C-98.21230128 395.65028701 -98.21276098 394.46295615 -98.21323461 393.23964556 C-98.21419383 390.8272788 -98.21516647 388.41491205 -98.21615238 386.0025453 C-98.2246974 363.4068501 -98.21488591 340.81119147 -98.19875129 318.21550227 C-98.18534719 298.84428261 -98.18767869 279.47311688 -98.20150757 260.10189819 C-98.2175761 237.58300803 -98.22387533 215.06414987 -98.21467078 192.54525477 C-98.21371517 190.14229207 -98.21277206 187.73932936 -98.21184158 185.33636665 C-98.21114734 183.56310771 -98.21114734 183.56310771 -98.21043908 181.75402535 C-98.20785314 173.43930534 -98.2122116 165.1246057 -98.21928024 156.80988884 C-98.2277095 146.67230378 -98.22538504 136.53478837 -98.20943801 126.39721125 C-98.20157479 121.22887858 -98.19843043 116.06066188 -98.20838547 110.89233017 C-98.21737319 106.15441572 -98.21233278 101.41672396 -98.19645281 96.6788295 C-98.19312222 94.97177445 -98.19475992 93.26470031 -98.20208018 91.55765771 C-98.30357007 65.9083994 -90.70178487 44.88344597 -72.81039429 26.15390015 C-72.2702771 25.53901733 -71.73015991 24.92413452 -71.17367554 24.2906189 C-52.85809829 4.22191335 -25.68023026 0.00613888 0 0 Z M-42.06039429 21.84140015 C-42.72168335 22.18952759 -43.38297241 22.53765503 -44.06430054 22.89633179 C-61.20581095 32.14733868 -73.51754147 45.65888579 -80.02133179 64.2281189 C-80.28172241 65.19362671 -80.54211304 66.15913452 -80.81039429 67.15390015 C-80.9768613 67.76748089 -81.14332831 68.38106164 -81.31483978 69.01323575 C-83.31267373 77.47699521 -83.10451675 85.97822647 -83.0980072 94.61552429 C-83.10389787 96.39110498 -83.11063857 98.16668302 -83.11815208 99.94225758 C-83.13615713 104.80460938 -83.14173837 109.66690691 -83.14513886 114.52928793 C-83.15091349 119.78043352 -83.16804115 125.03154469 -83.18348694 130.28266907 C-83.218182 142.95501082 -83.2338188 155.62734956 -83.24761024 168.29972842 C-83.25458069 174.27568453 -83.26373562 180.2516372 -83.27271843 186.22759056 C-83.30191585 206.10658014 -83.32670816 225.98556639 -83.33734226 245.86457539 C-83.33803296 247.13594943 -83.33872365 248.40732348 -83.33943528 249.71722401 C-83.34012729 250.9915559 -83.34081931 252.26588778 -83.34153229 253.57883579 C-83.34294426 256.16090477 -83.34436507 258.74297375 -83.34579468 261.32504272 C-83.34649985 262.60582477 -83.34720502 263.88660682 -83.34793156 265.20620044 C-83.36017249 285.94254759 -83.40295017 306.67871157 -83.45873488 327.41498277 C-83.51561069 348.73082994 -83.54599929 370.04658468 -83.55035442 391.36250848 C-83.55342926 403.31997598 -83.56780338 415.27718901 -83.61163521 427.2345829 C-83.64886819 437.42009463 -83.66184774 447.60528296 -83.64393032 457.790853 C-83.63551839 462.98048094 -83.63809023 468.1694496 -83.67174911 473.35898972 C-83.85251714 502.88262894 -82.75301307 527.01725082 -61.40805054 549.6499939 C-45.3568661 565.12188746 -25.70722192 569.78149437 -4.20649719 569.65510559 C-2.35576452 569.65900524 -0.50503486 569.66465098 1.34568781 569.67187649 C6.39697214 569.68655353 11.44794226 569.67649621 16.4992162 569.66213977 C21.96008933 569.65098967 27.42091984 569.66298588 32.88179016 569.67198181 C43.56578104 569.68588854 54.24965344 569.67837717 64.93363864 569.66330623 C77.38369507 569.64641491 89.83372224 569.64966031 102.28378659 569.65340031 C125.17258324 569.65945145 148.06132696 569.6436949 170.95010658 569.61821267 C191.82398611 569.59509672 212.69779635 569.5897114 233.57168579 569.59994507 C257.05082591 569.61137258 280.52993577 569.6132754 304.00907606 569.59884697 C306.51398464 569.59732118 309.01889322 569.59580083 311.5238018 569.59428596 C312.75616412 569.59352815 313.98852643 569.59277034 315.25823306 569.59198956 C323.93057908 569.58725268 332.60290943 569.58909392 341.2752552 569.59335136 C351.84731246 569.59828466 362.41929814 569.59226397 372.99133904 569.57245707 C378.38231555 569.56260484 383.77318323 569.55745763 389.1641655 569.56534958 C394.10438214 569.57243354 399.0443797 569.56553845 403.98456758 569.54774595 C405.76632945 569.54371905 407.54811147 569.54467159 409.3298657 569.55126482 C431.17725391 569.6251551 451.92709643 564.25933334 467.96304321 548.3999939 C480.38727537 534.36970246 488.30288084 517.49980403 488.32103348 498.61061573 C488.32308611 497.88013329 488.32513875 497.14965086 488.32725358 496.39703259 C488.33289909 493.95413962 488.33146937 491.51130347 488.33004761 489.06840515 C488.33263264 487.29725126 488.33564619 485.52609796 488.33905101 483.75494546 C488.34710788 478.8912486 488.34890985 474.02756652 488.34964848 469.16386378 C488.35150129 463.91694216 488.35904974 458.67002816 488.36578369 453.42311096 C488.37935778 441.95201225 488.38539017 430.48091704 488.38979435 419.00981164 C488.39255809 411.8461266 488.39679566 404.6824429 488.40129852 397.51875877 C488.41348952 377.68104417 488.42378947 357.84333064 488.42717361 338.00561237 C488.42750296 336.10165 488.42750296 336.10165 488.42783897 334.15922375 C488.42805724 332.88689832 488.42827552 331.6145729 488.42850041 330.30369216 C488.42894388 327.72552256 488.42939044 325.14735295 488.42984009 322.56918335 C488.43017223 320.65089618 488.43017223 320.65089618 488.43051109 318.69385573 C488.43445931 297.97070747 488.45191485 277.24759437 488.47519961 256.5244597 C488.49891768 235.24378522 488.51137566 213.96312837 488.51254153 192.68244046 C488.51345799 180.73592443 488.51920294 168.78945422 488.53736115 156.84295082 C488.55276819 146.67072172 488.55787897 136.49855262 488.54962304 126.32631407 C488.54571884 121.1380259 488.54663508 115.94985851 488.56068039 110.76158524 C488.57343263 106.00742959 488.57221012 101.25348535 488.56008968 96.49932995 C488.558135 94.7839918 488.56120049 93.06863861 488.56993404 91.35332159 C488.67293895 69.74608988 482.77256807 51.55120073 467.74819946 35.5640564 C460.70482593 28.92930606 452.83819409 24.16592883 444.06460571 20.21640015 C443.44448608 19.93385376 442.82436646 19.65130737 442.18545532 19.36019897 C430.94359615 14.59610505 419.09282978 14.8650799 407.11178589 14.89320374 C405.28156973 14.89017983 403.45135483 14.88628916 401.62114215 14.88161117 C396.6126335 14.87135311 391.60419662 14.87350741 386.59568214 14.87779176 C381.18585061 14.88026299 375.77603617 14.87123986 370.36621094 14.86375427 C359.77542134 14.85101597 349.1846571 14.84921253 338.59386113 14.85155454 C329.98297883 14.85333894 321.37210422 14.85158542 312.76122284 14.84733009 C311.53478368 14.8467349 310.30834452 14.84613972 309.04474054 14.84552649 C306.55305538 14.84431471 304.06137023 14.84310058 301.56968507 14.84188411 C278.21095808 14.83101177 254.85224553 14.83316953 231.49351773 14.83926896 C210.13892699 14.84443699 188.78438872 14.83318512 167.4298059 14.81417074 C145.48793013 14.79478366 123.54607593 14.78653793 101.60419154 14.79029399 C89.29155523 14.79220482 76.97895775 14.78973004 64.66632843 14.77557945 C54.18356297 14.76365356 43.70086024 14.7622743 33.2180939 14.77436962 C27.87346514 14.78024997 22.52895105 14.78138106 17.18432999 14.76936722 C12.28399084 14.75848041 7.38386172 14.76164498 2.48353228 14.7756289 C0.71846465 14.77826815 -1.04661958 14.77593379 -2.81167087 14.76789304 C-16.27391224 14.71086166 -29.967653 15.21629609 -42.06039429 21.84140015 Z " fill="#24354D" transform="translate(300.8103942871094,221.84609985351563)"/>
<path d="M0 0 C0.68320312 0.22816406 1.36640625 0.45632813 2.0703125 0.69140625 C7.48048876 2.67211932 9.90037092 5.7507587 12.375 10.8125 C13.75942629 13.52810542 15.13768834 15.56144719 17 17.9375 C22.49814629 25.08645448 24.09244427 32.04379588 24.20532227 40.9934082 C24.21522186 41.67688828 24.22512146 42.36036835 24.23532104 43.06455994 C24.26675406 45.30993254 24.29162095 47.55532626 24.31640625 49.80078125 C24.33699153 51.36305777 24.3579884 52.92532891 24.37937927 54.4875946 C24.43443751 58.58923986 24.48391808 62.69093401 24.53222656 66.79266357 C24.58256061 70.98226243 24.6381844 75.17179072 24.69335938 79.36132812 C24.80074206 87.57415899 24.90223076 95.78704909 25 104 C25.6165596 104.33651077 26.2331192 104.67302155 26.86836243 105.01972961 C27.67790878 105.46479355 28.48745514 105.90985748 29.3215332 106.3684082 C30.1237178 106.80804398 30.9259024 107.24767975 31.75239563 107.70063782 C47.37738703 116.73359896 52.15891206 132.32418982 56.5390625 148.69140625 C57.81132534 153.51799507 59.04643102 158.35350926 60.27197266 163.19213867 C61.26431703 167.0194199 62.33135499 170.82486968 63.40820312 174.62915039 C65.01282944 181.05758527 63.82765211 186.19780475 61 192 C58.05548735 196.79846507 54.3161042 199.34925646 49 201 C43.53081677 201.71648689 38.96509981 201.45821273 33.81835938 199.47290039 C33.10208374 199.1983754 32.38580811 198.9238504 31.64782715 198.64100647 C31.10404419 198.42947433 30.56026123 198.2179422 30 198 C30.00368717 198.76384192 30.00737434 199.52768383 30.01117325 200.31467247 C30.09963305 218.927938 30.16576245 237.54116139 30.20724869 256.15459251 C30.22784603 265.15603576 30.25591234 274.15733842 30.30175781 283.15869141 C30.34171241 291.00718586 30.36745336 298.85557845 30.37635398 306.70417178 C30.38155418 310.85734651 30.39371703 315.01022993 30.42292023 319.163311 C30.45022593 323.07855056 30.4584147 326.99338092 30.45243073 330.90870667 C30.45352423 332.33970494 30.4613877 333.770718 30.4768219 335.20163345 C30.57608505 344.88569026 29.97537202 353.18770755 23.625 360.875 C16.648219 366.52287033 11.84079856 368.43880533 2.953125 368.34375 C-3.23456947 367.62348927 -8.80073565 364.74260057 -12.9375 360.0625 C-17.32040963 353.55454327 -18.44241444 349.03756653 -18.41650391 341.33862305 C-18.42938194 339.90594337 -18.42938194 339.90594337 -18.44252014 338.44432068 C-18.46753408 335.30004451 -18.47195406 332.15608522 -18.4765625 329.01171875 C-18.49087333 326.82549577 -18.50663049 324.63928183 -18.52377319 322.45307922 C-18.56559204 316.70781237 -18.5906157 310.96260152 -18.61126709 305.21722412 C-18.64711606 296.00308294 -18.70790728 286.78907956 -18.76975632 277.57508278 C-18.78890699 274.3504045 -18.80059163 271.12576321 -18.81118774 267.90104675 C-18.82139325 265.93883176 -18.83175061 263.97661755 -18.84228516 262.0144043 C-18.84332748 261.11105347 -18.84436981 260.20770264 -18.84544373 259.27697754 C-18.47666893 255.32211206 -18.47666893 255.32211206 -20 252 C-22.5 251.83333333 -22.5 251.83333333 -25 252 C-26.88175074 253.88175074 -26.13083811 256.61210622 -26.14344788 259.11672974 C-26.1426548 260.43663406 -26.1426548 260.43663406 -26.1418457 261.78320312 C-26.14532013 262.70523529 -26.14879456 263.62726746 -26.15237427 264.57723999 C-26.15974757 266.58797091 -26.16508452 268.59871005 -26.16866493 270.60945129 C-26.17581465 273.79613885 -26.19147248 276.98267099 -26.21000671 280.16931152 C-26.26252875 289.23296909 -26.31040807 298.2965453 -26.32592773 307.36035156 C-26.33603449 312.89893712 -26.36543508 318.43713755 -26.40724754 323.97557068 C-26.41953181 326.08374614 -26.42468352 328.19197609 -26.42244911 330.30018616 C-26.42008456 333.26108515 -26.44235313 336.22088998 -26.4699707 339.18164062 C-26.46006859 340.47725418 -26.46006859 340.47725418 -26.44996643 341.79904175 C-26.57223522 349.82779524 -29.23940665 357.23940665 -35 363 C-41.98613582 367.82648727 -48.6372376 368.95257956 -57 368 C-64.31115861 365.76167676 -69.38737496 361.74926232 -73 355 C-74.65323486 350.72388616 -75.24572483 347.20258444 -75.22705078 342.62744141 C-75.22689972 341.38660797 -75.22674866 340.14577454 -75.22659302 338.86734009 C-75.21638225 337.52874589 -75.2059503 336.19015337 -75.1953125 334.8515625 C-75.19157813 333.47008469 -75.18873316 332.08860422 -75.18673706 330.7071228 C-75.17913392 327.08706229 -75.15951437 323.46716457 -75.1373291 319.84716797 C-75.11679878 316.14683229 -75.10772004 312.44647008 -75.09765625 308.74609375 C-75.07626499 301.49732196 -75.04216964 294.24868387 -75 287 C-71.7 287 -68.4 287 -65 287 C-64.99635437 287.79069382 -64.99270874 288.58138763 -64.98895264 289.39604187 C-64.95105044 296.85584447 -64.89417323 304.31514888 -64.81609726 311.77463055 C-64.77662558 315.60945509 -64.7444359 319.44405013 -64.72900391 323.27905273 C-64.71383479 326.98166097 -64.67938612 330.68363825 -64.63169098 334.38596535 C-64.61687955 335.79685792 -64.60895911 337.20784059 -64.60811615 338.61881065 C-64.60574443 340.59843867 -64.57636874 342.57797812 -64.54589844 344.55737305 C-64.53701599 345.68322311 -64.52813354 346.80907318 -64.51898193 347.96903992 C-63.88567097 351.66770479 -62.58610439 353.32939865 -60 356 C-56.01737304 358.2604099 -52.52184316 358.45984846 -48 358 C-43.75768223 356.62495778 -40.85189968 355.33911664 -38.41075134 351.50183105 C-36.60521119 347.02003728 -36.58896273 343.29212578 -36.63110352 338.50976562 C-36.62733704 337.57243088 -36.62357056 336.63509613 -36.61968994 335.6693573 C-36.61327132 333.64125059 -36.61357446 331.61311379 -36.61987495 329.58500671 C-36.62899957 326.37340231 -36.61874582 323.1623799 -36.60325623 319.95080566 C-36.56319093 310.8225187 -36.56195582 301.69427824 -36.56420898 292.56591797 C-36.56426009 286.97624058 -36.54509312 281.38687808 -36.51487541 275.79728699 C-36.50405208 272.63633897 -36.5161787 269.47599217 -36.52870178 266.31506348 C-36.51979716 264.37344773 -36.5097227 262.43183688 -36.49829102 260.49023438 C-36.50803452 259.61421066 -36.51777802 258.73818695 -36.52781677 257.83561707 C-36.46413018 252.41110625 -35.60993104 249.30717489 -32 245 C-27.60123188 241.87858377 -22.1573735 242.50955141 -17 243 C-12.68546288 244.70783761 -10.94760488 246.83976469 -9 251 C-8.57258415 254.18829663 -8.6137482 257.34768674 -8.64697266 260.56030273 C-8.64481247 261.5169986 -8.64265228 262.47369446 -8.64042664 263.4593811 C-8.63734311 265.53280615 -8.64093533 267.60624952 -8.65044022 269.67965508 C-8.66418388 272.96258714 -8.65773785 276.2449151 -8.64559937 279.52784729 C-8.61464239 288.86015801 -8.61952317 298.19232803 -8.63964844 307.5246582 C-8.6505656 313.23641477 -8.63737688 318.94771702 -8.60975266 324.65941048 C-8.60431234 326.83428731 -8.6083753 329.00920959 -8.62215042 331.18404961 C-8.64119871 334.22663799 -8.62979921 337.26773993 -8.61181641 340.31030273 C-8.62515518 341.20659897 -8.63849396 342.1028952 -8.65223694 343.02635193 C-8.59581004 347.32340942 -8.33930305 350.13304059 -5.58676147 353.54310608 C-1.79674299 357.14284787 0.16102968 357.17999134 5.3125 357.25 C6.44300781 357.27578125 7.57351563 357.3015625 8.73828125 357.328125 C12.39664977 356.96009751 14.13037095 356.27199546 17 354 C19.87187353 350.08437826 20.37935882 347.29139622 20.39872742 342.47636414 C20.41753464 340.49714211 20.41753464 340.49714211 20.4367218 338.47793579 C20.43554783 337.02264379 20.43408872 335.56735201 20.43237305 334.11206055 C20.44139243 332.57438876 20.45172008 331.03672417 20.46325684 329.49906921 C20.49083243 325.33005777 20.5001121 321.16118273 20.50611091 316.99209189 C20.51549312 312.63316681 20.54169639 308.27434367 20.56611633 303.91548157 C20.60978922 295.66374791 20.63833133 287.41203404 20.66143972 279.16021997 C20.68848715 269.76481907 20.73239895 260.36952069 20.77772844 250.97419298 C20.87058602 231.6495161 20.94226167 212.32481211 21 193 C19.52168779 192.80587819 18.04230684 192.61987869 16.5625 192.4375 C15.73878906 192.33308594 14.91507813 192.22867188 14.06640625 192.12109375 C13.38449219 192.08113281 12.70257812 192.04117188 12 192 C11.67 192.33 11.34 192.66 11 193 C9.04719816 193.10450769 7.09059455 193.13855374 5.13500977 193.14526367 C3.25284508 193.15483345 3.25284508 193.15483345 1.33265686 193.16459656 C-0.04775962 193.16612512 -1.42817662 193.16723914 -2.80859375 193.16796875 C-4.21484919 193.17117967 -5.62110429 193.17454362 -7.02735901 193.17805481 C-9.97894058 193.18405232 -12.93049284 193.18589408 -15.88208008 193.18530273 C-19.66980046 193.18520109 -23.45733347 193.19885285 -27.24500942 193.21607494 C-30.15058765 193.22717742 -33.05612033 193.22922248 -35.96171761 193.22869301 C-37.35840564 193.2298758 -38.75509476 193.23431421 -40.15176201 193.24202538 C-42.10302201 193.25178925 -44.05433664 193.24769234 -46.00561523 193.24291992 C-47.11734604 193.24434494 -48.22907684 193.24576996 -49.37449646 193.24723816 C-52 193 -52 193 -54 191 C-54.25396729 188.91271973 -54.25396729 188.91271973 -54.25878906 186.30664062 C-54.26509338 185.33223022 -54.27139771 184.35781982 -54.27789307 183.35388184 C-54.2738446 182.29866333 -54.26979614 181.24344482 -54.265625 180.15625 C-54.26753845 179.07621704 -54.2694519 177.99618408 -54.27142334 176.88342285 C-54.27278607 174.59692146 -54.26908352 172.31041236 -54.26074219 170.02392578 C-54.25004412 166.51447245 -54.26063473 163.00553107 -54.2734375 159.49609375 C-54.27211592 157.2786447 -54.26955356 155.06119597 -54.265625 152.84375 C-54.26967346 151.78853149 -54.27372192 150.73331299 -54.27789307 149.64611816 C-54.27158875 148.67170776 -54.26528442 147.69729736 -54.25878906 146.69335938 C-54.25640228 145.40335022 -54.25640228 145.40335022 -54.25396729 144.08728027 C-54 142 -54 142 -52 140 C-48.7421875 139.8046875 -48.7421875 139.8046875 -44.875 139.875 C-43.59367188 139.89304687 -42.31234375 139.91109375 -40.9921875 139.9296875 C-40.00476563 139.95289063 -39.01734375 139.97609375 -38 140 C-37.87496094 139.24203125 -37.74992188 138.4840625 -37.62109375 137.703125 C-36.81176651 134.18076995 -35.15414646 131.87219528 -33 129 C-29.38046959 127.19023479 -25.17331702 127.72963337 -21.1875 127.6875 C-20.28451172 127.65849609 -19.38152344 127.62949219 -18.45117188 127.59960938 C-14.18247412 127.55883563 -11.6961374 127.57997912 -7.9765625 129.82421875 C-5.32265838 132.74561124 -3 135.93215871 -3 140 C-1.95199219 139.96519531 -0.90398437 139.93039062 0.17578125 139.89453125 C1.55467147 139.86639063 2.93357902 139.83909076 4.3125 139.8125 C5.00279297 139.78736328 5.69308594 139.76222656 6.40429688 139.73632812 C9.30962669 139.6942219 11.45819124 139.66459458 13.96875 141.21875 C15.30055824 143.51914605 15.30237367 145.04540568 15.1875 147.6875 C15.14689453 148.89986328 15.14689453 148.89986328 15.10546875 150.13671875 C15.07066406 150.75160156 15.03585937 151.36648438 15 152 C16.65 152.33 18.3 152.66 20 153 C19.97679687 152.37351562 19.95359375 151.74703125 19.9296875 151.1015625 C19.91164063 150.28429687 19.89359375 149.46703125 19.875 148.625 C19.85179687 147.81289063 19.82859375 147.00078125 19.8046875 146.1640625 C20 144 20 144 22 142 C24.625 142.375 24.625 142.375 27 143 C27.08894531 143.94101562 27.17789063 144.88203125 27.26953125 145.8515625 C28.19690192 153.425066 28.19690192 153.425066 32.6484375 159.265625 C35.39228976 160.71866758 38.07701347 161.95784861 41 163 C40.505 165.97 40.505 165.97 40 169 C35.17647048 170.17852925 32.64514633 169.82832973 28.19140625 167.69140625 C27.11439453 167.19189453 26.03738281 166.69238281 24.92773438 166.17773438 C23.81720703 165.64470703 22.70667969 165.11167969 21.5625 164.5625 C12.20738987 159.67036478 12.20738987 159.67036478 2 159 C-0.58333333 160.41666667 -0.58333333 160.41666667 -2 163 C-2.41666667 166.5 -2.41666667 166.5 -2 170 C-1.938125 170.763125 -1.87625 171.52625 -1.8125 172.3125 C-0.57365886 174.88547775 1.34832943 174.99745058 4 176 C5.9006954 176.83445164 7.80108121 177.66964791 9.69758606 178.51358032 C12.75704327 179.87397618 15.82441018 181.21616322 18.89135742 182.55957031 C20.50228051 183.26846094 22.11102859 183.9823154 23.7175293 184.70117188 C26.05194418 185.7443254 28.39403029 186.7682404 30.73828125 187.7890625 C31.44688797 188.11089508 32.15549469 188.43272766 32.88557434 188.76431274 C37.82857064 190.88794346 41.61732643 191.40392472 47 191 C50.25304353 189.65635159 51.57754673 188.74432243 53.3125 185.6875 C54.96791542 179.21633063 53.31057559 173.82432108 51.4375 167.625 C50.88370369 165.75793433 50.33033586 163.89074152 49.77734375 162.0234375 C49.48585449 161.04600586 49.19436523 160.06857422 48.89404297 159.06152344 C47.97594413 155.9176241 47.10969664 152.76295288 46.25390625 149.6015625 C45.96136963 148.54243652 45.66883301 147.48331055 45.36743164 146.39208984 C44.8040511 144.35136157 44.25179596 142.3075173 43.71264648 140.26025391 C40.89998902 130.25117858 35.76804129 121.85507076 27 116 C19.53924788 112.29839291 12.90617781 109.90764195 4.57910156 109.79467773 C2.62753143 109.7647599 2.62753143 109.7647599 0.63653564 109.73423767 C-0.7787667 109.71725582 -2.19407028 109.70037693 -3.609375 109.68359375 C-5.06097999 109.66301245 -6.51257914 109.64201567 -7.96417236 109.62062073 C-11.77812972 109.56552149 -15.59214007 109.51605885 -19.40618896 109.46777344 C-23.30078834 109.41746951 -27.19531109 109.36182993 -31.08984375 109.30664062 C-38.72649755 109.19920772 -46.36321521 109.09772999 -54 109 C-54.66 106.03 -55.32 103.06 -56 100 C-47.35064292 99.97681109 -38.70129657 99.95905152 -30.05191517 99.94818783 C-26.03549411 99.94297333 -22.01909435 99.93590172 -18.00268555 99.92456055 C-14.12531513 99.91368072 -10.24796518 99.90771236 -6.37058067 99.90512276 C-4.89264288 99.90327769 -3.41470618 99.89967476 -1.93677711 99.89426994 C0.13616719 99.88699188 2.20902736 99.88601191 4.28198242 99.88647461 C6.05069954 99.88314369 6.05069954 99.88314369 7.85514832 99.87974548 C11 100 11 100 16 101 C15.67 90.77 15.34 80.54 15 70 C13.35 72.97 11.7 75.94 10 79 C3.51686268 86.80622657 -5.93200457 92.26413872 -16 94 C-28.90360306 95.18188585 -38.99218537 92.25439896 -49.01953125 83.98046875 C-52.324268 80.675732 -54.59990751 77.00015415 -57 73 C-57.33 79.27 -57.66 85.54 -58 92 C-63.97419968 86.02580032 -66.56133643 81.26830523 -66.64343262 72.72683716 C-66.62703735 71.70580902 -66.61064209 70.68478088 -66.59375 69.6328125 C-66.59379028 68.55804657 -66.59383057 67.48328064 -66.59387207 66.37594604 C-66.5885319 64.11173632 -66.57101408 61.84752611 -66.54199219 59.58349609 C-66.50021028 56.14231854 -66.5009248 52.70310691 -66.5078125 49.26171875 C-66.49731564 47.0520699 -66.48437488 44.84243104 -66.46875 42.6328125 C-66.46854858 41.61583282 -66.46834717 40.59885315 -66.46813965 39.55105591 C-66.29309997 28.83142689 -63.62458774 20.43846295 -57 12 C-56.52046875 11.38253906 -56.0409375 10.76507813 -55.546875 10.12890625 C-42.37861577 -4.80177151 -17.76100528 -6.85789706 0 0 Z " fill="#263850" transform="translate(664,362)"/>
<path d="M0 0 C18.48 0 36.96 0 56 0 C56.3125 26.1875 56.3125 26.1875 56.38793945 34.37182617 C56.42027629 36.55389044 56.45365651 38.73593959 56.48828125 40.91796875 C56.49452515 42.01741821 56.50076904 43.11686768 56.50720215 44.24963379 C56.78938623 59.74239521 60.96946014 75.84591256 71 88 C72.37016544 89.01630609 73.75413936 90.01422468 75.15039062 90.99438477 C77.67968779 93.17744193 78.84508144 94.41203752 79.70263672 97.66671753 C79.92459548 100.89859656 79.90026055 104.04001015 79.78125 107.27734375 C79.76993042 108.4438295 79.75861084 109.61031525 79.74694824 110.81214905 C79.70231634 114.52230006 79.60196493 118.22852572 79.5 121.9375 C79.45985657 124.4589284 79.42335734 126.98041763 79.390625 129.50195312 C79.30262397 135.66929836 79.16891485 141.83436876 79 148 C77.75283203 148.03867187 77.75283203 148.03867187 76.48046875 148.078125 C75.39378906 148.13484375 74.30710937 148.1915625 73.1875 148.25 C72.10855469 148.29640625 71.02960938 148.3428125 69.91796875 148.390625 C66.94935254 148.74837548 66.94935254 148.74837548 65.13853455 150.7298584 C63.81103884 153.37677258 63.61398484 155.11753304 63.59594727 158.07226562 C63.58326309 159.08011108 63.57057892 160.08795654 63.55751038 161.12634277 C63.56044601 162.20871216 63.56338165 163.29108154 63.56640625 164.40625 C63.5611644 165.52310181 63.55592255 166.63995361 63.55052185 167.79064941 C63.54410104 170.15095183 63.54543938 172.51128624 63.55395508 174.87158203 C63.5624684 178.48658058 63.53369681 182.10000119 63.50195312 185.71484375 C63.50034115 188.00781203 63.50091857 190.3007831 63.50390625 192.59375 C63.49267227 193.67611938 63.48143829 194.75848877 63.46986389 195.87365723 C63.47924484 196.88150269 63.48862579 197.88934814 63.49829102 198.92773438 C63.49845718 199.81279663 63.49862335 200.69785889 63.49879456 201.60974121 C64.18311834 204.873295 65.34071631 206.02399129 68 208 C70.80178374 208.69157955 70.80178374 208.69157955 73.75 208.75 C74.73484375 208.80671875 75.7196875 208.8634375 76.734375 208.921875 C77.48203125 208.94765625 78.2296875 208.9734375 79 209 C79.09294702 217.59749375 79.16388933 226.19477528 79.20724869 234.79264832 C79.22806593 238.78561229 79.25627489 242.77823086 79.30175781 246.77099609 C79.3454269 250.62896081 79.36918115 254.48659467 79.37950897 258.3447876 C79.38686282 259.81192224 79.40122288 261.27904009 79.42292023 262.74603271 C79.53612804 270.72211848 79.54443184 277.16747741 75 284 C73.0625 285.875 73.0625 285.875 71 287 C70.29875 287.391875 69.5975 287.78375 68.875 288.1875 C63.25978702 289.77440801 57.38901483 290.11468031 52.125 287.3125 C48.10278945 284.33606419 45.59023953 281.7707186 44 277 C43.90760088 275.46763364 43.87104777 273.93157113 43.86869812 272.39642334 C43.86468994 271.45161606 43.86068176 270.50680878 43.85655212 269.53337097 C43.85708084 268.49852066 43.85760956 267.46367035 43.8581543 266.39746094 C43.85467987 265.30611343 43.85120544 264.21476593 43.84762573 263.09034729 C43.84026627 260.71677918 43.8349219 258.34320419 43.83133507 255.96962738 C43.82417623 252.21205547 43.80851367 248.45461465 43.78999329 244.69708252 C43.73749764 234.01209296 43.68911455 223.32720052 43.67407227 212.64208984 C43.66478102 206.10922392 43.63466041 199.57663031 43.59275246 193.04389191 C43.58043914 190.5544712 43.57532179 188.06500406 43.57755089 185.57555389 C43.57990376 182.09005154 43.55773628 178.60549212 43.5300293 175.12011719 C43.53663071 174.0933638 43.54323212 173.06661041 43.55003357 172.00874329 C43.46901672 165.7959358 42.64033996 162.08257178 39 157 C35.11442599 153.34991533 30.75518741 153.4975752 25.66015625 153.6484375 C20.95839246 154.26981597 18.32247709 156.40586855 15.36680603 159.96867371 C13.30762046 164.53557144 13.59383366 168.85960182 13.63110352 173.8137207 C13.62733704 174.90375397 13.62357056 175.99378723 13.61968994 177.11685181 C13.61325875 179.48164828 13.61358628 181.84647061 13.61987495 184.21126747 C13.62898165 187.95679114 13.61876492 191.70181382 13.60325623 195.4473114 C13.56821142 204.75140615 13.5608272 214.05546876 13.56335449 223.35961914 C13.56521828 231.21956427 13.55129956 239.07922594 13.51487541 246.93910789 C13.50405827 250.62399644 13.51617742 254.30836844 13.52870178 257.99324036 C13.51979523 260.26153064 13.50972011 262.52981673 13.49829102 264.7980957 C13.50803452 265.81811172 13.51777802 266.83812775 13.52781677 267.88905334 C13.4654755 274.10259701 12.55493245 278.81180959 9 284 C3.88649313 288.80359736 -1.92544285 288.33333443 -8.6015625 288.28515625 C-14.08904427 287.82471238 -16.21032101 286.03653127 -19.8125 281.9375 C-22.22599609 277.99969059 -22.15993651 274.29002032 -22.18081665 269.82833862 C-22.18802117 269.09300246 -22.19522568 268.3576663 -22.20264852 267.60004723 C-22.22542023 265.12905081 -22.24095571 262.65806437 -22.25634766 260.18701172 C-22.27079566 258.41794083 -22.2855533 256.64887244 -22.30059814 254.87980652 C-22.43088544 238.72741103 -22.49674206 222.57432429 -22.54844093 206.42150688 C-22.58734895 194.48302083 -22.65570346 182.54547827 -22.76298869 170.6074065 C-22.83589287 162.21153641 -22.87428383 153.81592406 -22.88746679 145.41975033 C-22.89632467 140.40610773 -22.92051757 135.39363181 -22.98213577 130.38033676 C-23.03949007 125.66031842 -23.05402513 120.94206502 -23.03626251 116.22175026 C-23.03713905 114.49356124 -23.0533268 112.76529859 -23.08630753 111.03742409 C-23.35138757 96.38404535 -23.35138757 96.38404535 -17.79452515 90.56472778 C-13.21776704 86.66973777 -7.93211054 84.06058946 -2 83 C0.7578125 83.29296875 0.7578125 83.29296875 3 84 C4.125 85.9375 4.125 85.9375 5 88 C8.92074452 90.61382968 12.31261093 90.3421469 16.8671875 90.37109375 C17.73892609 90.38012222 18.61066467 90.3891507 19.50881958 90.39845276 C21.35301274 90.41295862 23.1972574 90.42184283 25.04150391 90.42553711 C27.85798233 90.43742815 30.67226566 90.48660341 33.48828125 90.53710938 C35.28123932 90.54657446 37.07421083 90.55380909 38.8671875 90.55859375 C39.70692108 90.57812607 40.54665466 90.59765839 41.41183472 90.61778259 C45.79636275 90.5840838 47.46819884 90.42601925 51.00830078 87.59008789 C53.99498932 83.70607481 54.13185128 81.75372606 54.16113281 76.88549805 C54.17074036 75.60043869 54.1803479 74.31537933 54.19024658 72.99137878 C54.19509484 71.58149391 54.1993736 70.17160697 54.203125 68.76171875 C54.20887704 67.31923928 54.21463476 65.87675982 54.22039795 64.4342804 C54.23090948 61.40711104 54.23675086 58.37996825 54.24023438 55.3527832 C54.24571357 51.47899298 54.26972825 47.60555523 54.29820633 43.73187542 C54.31685815 40.7506865 54.32203969 37.76958195 54.32357025 34.78833961 C54.32659257 33.3606251 54.33460694 31.93291192 54.34775543 30.50525475 C54.36486396 28.50446939 54.36108393 26.50353867 54.35644531 24.50268555 C54.36009094 23.365103 54.36373657 22.22752045 54.36749268 21.0554657 C53.95608927 17.63491043 53.01210443 15.7669567 51 13 C47.37727545 10.17216868 42.8677007 10.67636864 38.47265625 10.6640625 C37.6467247 10.6574057 36.82079315 10.6507489 35.96983337 10.64389038 C34.22576113 10.63378101 32.48165034 10.62907283 30.73754883 10.62939453 C28.07503342 10.62502059 25.41417549 10.58868291 22.75195312 10.55078125 C21.05469315 10.54491278 19.35742533 10.54094359 17.66015625 10.5390625 C16.86730728 10.52469147 16.07445831 10.51032043 15.25758362 10.49551392 C11.31049518 10.52800549 9.4344799 10.72231175 6.02124023 12.90380859 C3.16398487 15.86701605 2.86104263 17.5650377 2.68359375 21.5703125 C2.64169922 22.46621094 2.59980469 23.36210937 2.55664062 24.28515625 C2.51732422 25.22230469 2.47800781 26.15945313 2.4375 27.125 C2.39431641 28.06988281 2.35113281 29.01476562 2.30664062 29.98828125 C2.20040928 32.32537092 2.09836824 34.6625683 2 37 C1.34 37 0.68 37 0 37 C0 24.79 0 12.58 0 0 Z " fill="#FCFDFD" transform="translate(482,432)"/>
<path d="M0 0 C1.53413202 0.00373685 3.06826646 0.00658064 4.60240173 0.00857544 C8.61203773 0.01615908 12.6215255 0.03576135 16.63110352 0.0579834 C20.73386633 0.07855628 24.83665343 0.08760147 28.93945312 0.09765625 C36.96881751 0.119013 44.99806212 0.15308412 53.02734375 0.1953125 C52.36734375 3.1653125 51.70734375 6.1353125 51.02734375 9.1953125 C50.20430252 9.19673752 49.38126129 9.19816254 48.53327942 9.19963074 C40.72274201 9.21756573 32.91285475 9.25948639 25.10260487 9.32740307 C21.08859304 9.36148776 17.07495431 9.38675384 13.06079102 9.39086914 C9.17653476 9.39519238 5.29311748 9.42398188 1.40912437 9.46874428 C-0.06214802 9.48159229 -1.53352148 9.48607277 -3.00484276 9.48146629 C-16.22883175 9.44974937 -27.53556254 12.06253387 -37.75 20.8984375 C-49.69454004 33.24182861 -50.43509553 46.70787922 -50.37109375 62.8984375 C-50.37311799 64.7082328 -50.37603234 66.5180273 -50.37979126 68.32781982 C-50.38419361 72.10339191 -50.37784825 75.87874984 -50.36376953 79.65429688 C-50.34662957 84.48511297 -50.35656238 89.3154307 -50.37448692 94.14622879 C-50.38533948 97.87636049 -50.38187251 101.60637441 -50.37410355 105.3365097 C-50.37210816 107.11784678 -50.37453749 108.89919468 -50.38154221 110.6805191 C-50.38918653 113.1691364 -50.37751349 115.65695017 -50.36083984 118.14550781 C-50.36691254 118.87498627 -50.37298523 119.60446472 -50.37924194 120.35604858 C-50.32111372 125.05440085 -49.26162697 128.12858731 -46.97265625 132.1953125 C-46.97265625 132.8553125 -46.97265625 133.5153125 -46.97265625 134.1953125 C-43.57772592 135.89277767 -40.51218127 136.42467244 -36.77734375 136.76171875 C-35.42745361 136.8865564 -35.42745361 136.8865564 -34.05029297 137.01391602 C-33.36467285 137.07377686 -32.67905273 137.1336377 -31.97265625 137.1953125 C-31.97709747 136.09728302 -31.9815387 134.99925354 -31.9861145 133.86795044 C-32.02659593 123.53785241 -32.05660949 113.2077704 -32.07628059 102.87761116 C-32.08673354 97.56632312 -32.10092022 92.25509894 -32.12353516 86.94384766 C-32.14520977 81.82158655 -32.15721348 76.699387 -32.16241074 71.57708359 C-32.16611619 69.6193838 -32.17335166 67.66168752 -32.18411636 65.70401382 C-32.19855982 62.96943029 -32.20063721 60.2351036 -32.19970703 57.50048828 C-32.20689758 56.68481384 -32.21408813 55.8691394 -32.22149658 55.02874756 C-32.20076057 49.42341682 -32.20076057 49.42341682 -29.97265625 47.1953125 C-26.91015625 47.0078125 -26.91015625 47.0078125 -23.97265625 47.1953125 C-22.2253398 48.94262895 -22.84869016 51.22409397 -22.84071231 53.5525552 C-22.8431448 54.32694813 -22.84557729 55.10134106 -22.8480835 55.89920044 C-22.84667335 56.71590993 -22.8452632 57.53261942 -22.84381032 58.37407768 C-22.84013743 61.13237731 -22.84350238 63.89062616 -22.84667969 66.64892578 C-22.84528585 68.61798645 -22.84338714 70.58704683 -22.84101868 72.55610657 C-22.8365114 76.80789557 -22.83466536 81.05967489 -22.83455658 85.31146622 C-22.83341908 92.03448192 -22.82060101 98.75744235 -22.80499268 105.48043823 C-22.80241982 106.61377283 -22.79984697 107.74710743 -22.79719615 108.9147855 C-22.79192919 111.23294962 -22.78664371 113.55111369 -22.78134012 115.86927772 C-22.74619854 131.52809453 -22.71967726 147.18684364 -22.72216797 162.84570312 C-22.7237562 173.39779771 -22.70772667 183.94970488 -22.67146134 194.50173938 C-22.65298889 200.08838486 -22.6436695 205.67471741 -22.65593719 211.26138687 C-22.66737055 216.51952336 -22.65567759 221.77709997 -22.62630272 227.03516197 C-22.61965943 228.96405589 -22.62153358 230.89300101 -22.63260078 232.82187462 C-22.64647166 235.45842612 -22.62957922 238.09308732 -22.60516357 240.72952271 C-22.61651895 241.4905313 -22.62787433 242.2515399 -22.63957381 243.03560936 C-22.54002721 248.57492944 -20.84929205 252.20284394 -16.97265625 256.1953125 C-12.0699378 258.86952256 -7.27441492 258.37130333 -1.97265625 257.1953125 C1.40831679 255.79882364 2.67076762 254.75367179 4.6361084 251.67616272 C6.42301275 247.20535453 6.44550724 243.45640567 6.41210938 238.68920898 C6.41748215 237.75026794 6.42285492 236.8113269 6.4283905 235.84393311 C6.43814769 233.81256094 6.4411189 231.7811472 6.43803406 229.74975395 C6.43354886 226.53422575 6.44757554 223.31924575 6.46643066 220.10377502 C6.5094147 212.12068398 6.52046681 204.13760542 6.53265381 196.15441895 C6.54417902 189.40206835 6.56772818 182.64996821 6.60734558 175.89772224 C6.62092512 172.7307346 6.61674373 169.56408485 6.61193848 166.39707947 C6.62127816 164.45538908 6.63144674 162.51370243 6.64257812 160.57202148 C6.6364299 159.6924025 6.63028168 158.81278351 6.62394714 157.9065094 C6.67170458 153.16506624 6.97541939 150.05987135 10.02734375 146.1953125 C13.99220942 142.60215299 18.2484255 142.69508368 23.36328125 142.83984375 C27.11103444 143.33991052 29.26936526 144.6494862 32.02734375 147.1953125 C33.72781869 150.00877205 34.27735747 152.08603102 34.27890015 155.35641479 C34.28428299 156.17782959 34.28966583 156.99924438 34.29521179 157.84555054 C34.2910878 158.73811554 34.28696381 159.63068054 34.28271484 160.55029297 C34.2863353 161.49708923 34.28995575 162.4438855 34.29368591 163.41937256 C34.3005766 165.47425244 34.30308596 167.5291506 34.30173874 169.5840416 C34.30077386 172.83741391 34.31371137 176.09045551 34.33071899 179.34378052 C34.37700345 188.593256 34.40159904 197.84269787 34.40820312 207.09228516 C34.41321772 212.75099958 34.43746541 218.40936891 34.47352982 224.06796646 C34.48332909 226.22328749 34.48565908 228.37865598 34.48035812 230.53399277 C34.47328792 233.55021797 34.49056951 236.56541491 34.51318359 239.58154297 C34.50501114 240.47005951 34.49683868 241.35857605 34.48841858 242.27401733 C34.56102713 247.72208038 35.35830542 250.89851624 39.02734375 255.1953125 C42.56159087 257.55147725 44.21378477 257.4934353 48.40234375 257.5078125 C49.52382813 257.52457031 50.6453125 257.54132813 51.80078125 257.55859375 C55.44714302 257.14804697 57.19075767 256.51039564 60.02734375 254.1953125 C62.61816013 249.8609652 63.4055876 246.6499199 63.42607117 241.62734985 C63.44487839 239.67130829 63.44487839 239.67130829 63.46406555 237.67575073 C63.46289167 236.2429807 63.46143258 234.81021089 63.4597168 233.37744141 C63.4687389 231.85932621 63.47906722 230.34121831 63.49060059 228.82312012 C63.51814426 224.71201695 63.5274515 220.60105211 63.53345466 216.48986864 C63.54284519 212.1896725 63.56904914 207.8895794 63.59346008 203.58944702 C63.63711009 195.45107801 63.66566625 187.31272902 63.68878347 179.17427862 C63.71584317 169.9070255 63.75975421 160.63987613 63.80507219 151.37269711 C63.89789699 132.31362369 63.96958764 113.25452283 64.02734375 94.1953125 C66.03378182 97.20496961 67.92348073 100.2691709 69.80859375 103.35546875 C71.02759065 105.32822845 71.02759065 105.32822845 73.02734375 107.1953125 C73.28740597 109.64675903 73.28740597 109.64675903 73.30149841 112.79736328 C73.31147354 113.98888504 73.32144867 115.1804068 73.33172607 116.40803528 C73.33239075 117.72228989 73.33305542 119.03654449 73.33374023 120.390625 C73.34135893 121.78354844 73.34978593 123.17646767 73.35896301 124.56938171 C73.38095638 128.36114415 73.38971452 132.1528259 73.39478946 135.94464493 C73.39843038 138.31567595 73.40466936 140.68668578 73.41179085 143.05770874 C73.43631182 151.33617074 73.44934086 159.61456995 73.45288086 167.89306641 C73.45650791 175.59680431 73.48633645 183.30014177 73.52828544 191.00375748 C73.56306377 197.62387065 73.57843068 204.24385179 73.57912689 210.86405563 C73.5799178 214.81491275 73.58856822 218.76536312 73.61712456 222.71612549 C73.64343173 226.43945197 73.64544105 230.16203849 73.62946892 233.88541603 C73.62680861 235.88977867 73.64875692 237.89412768 73.67166138 239.89836121 C73.60922742 247.66184228 72.63362624 253.78151967 68.02734375 260.1953125 C62.32048303 265.69589383 56.7021005 268.19934053 48.77734375 268.6328125 C41.81801816 268.47184851 36.04427466 266.29344445 31.140625 261.2578125 C25.9134688 254.57515275 24.72989595 249.0706371 24.72436523 240.73925781 C24.7159259 239.79403763 24.70748657 238.84881744 24.6987915 237.87495422 C24.67304695 234.75777678 24.66088354 231.64069388 24.6484375 228.5234375 C24.63226372 226.35820769 24.61508385 224.19298518 24.59693909 222.027771 C24.5512751 216.33346927 24.51645153 210.63915787 24.48474121 204.94476318 C24.43283319 195.81547931 24.36790264 186.68630214 24.29652596 177.55715179 C24.27361923 174.36129209 24.25739889 171.16544617 24.24180603 167.96954346 C24.2284065 166.02429042 24.21479232 164.07903884 24.20092773 162.13378906 C24.19831436 161.23821793 24.19570099 160.34264679 24.19300842 159.41993713 C24.54928417 155.49249074 24.54928417 155.49249074 23.02734375 152.1953125 C20.52734375 152.02864583 20.52734375 152.02864583 18.02734375 152.1953125 C15.91251428 154.31014197 16.87308801 159.06898488 16.86962891 161.99438477 C16.86454819 162.91802322 16.85946747 163.84166168 16.85423279 164.79328918 C16.84350181 166.80729271 16.83489242 168.82130836 16.82811356 170.83532906 C16.81635384 174.02593899 16.796906 177.21641176 16.7749939 180.40696716 C16.71329785 189.48163258 16.65941528 198.55628665 16.62597656 207.63110352 C16.60499116 213.17611777 16.56964882 218.72088666 16.52521896 224.26576042 C16.51108087 226.37755372 16.50234149 228.48939048 16.49916458 230.60122871 C16.49423746 233.56457138 16.47103015 236.52726787 16.44384766 239.49047852 C16.44835686 240.79148499 16.44835686 240.79148499 16.45295715 242.11877441 C16.33846099 250.55464177 14.14572115 257.0769351 8.02734375 263.1953125 C4.31719464 265.8587911 0.61152348 267.76887718 -3.97265625 268.1953125 C-5.05160156 268.30746094 -5.05160156 268.30746094 -6.15234375 268.421875 C-13.08492082 268.83221445 -18.31476337 267.25338739 -23.97265625 263.1953125 C-30.81480316 256.18352558 -32.27212034 249.69084993 -32.19970703 240.17260742 C-32.19999908 239.16725952 -32.20029114 238.16191162 -32.20059204 237.12609863 C-32.19920077 233.80923781 -32.18364891 230.49260274 -32.16796875 227.17578125 C-32.1642379 224.87364322 -32.16139127 222.57150359 -32.15939331 220.2693634 C-32.15176252 214.21456507 -32.13211868 208.15986291 -32.10998535 202.10510254 C-32.08951506 195.9248993 -32.08038905 189.7446805 -32.0703125 183.56445312 C-32.04887235 171.44136403 -32.01474299 159.31834627 -31.97265625 147.1953125 C-33.874104 147.210177 -33.874104 147.210177 -35.81396484 147.2253418 C-42.10373821 147.27451188 -46.96971966 145.50492488 -52.22265625 142.0703125 C-61.30651137 132.57355487 -60.68502575 123.14231981 -60.56640625 110.671875 C-60.56469246 108.76052933 -60.56476355 106.84918131 -60.56652832 104.93783569 C-60.56487971 100.94172517 -60.54626954 96.94617872 -60.51464844 92.95019531 C-60.47502673 87.85413284 -60.4706001 82.7588097 -60.47811127 77.66262245 C-60.48119663 73.71779737 -60.46900411 69.77313525 -60.45198059 65.82835007 C-60.44499911 63.95067748 -60.4418201 62.07298643 -60.44267273 60.19530106 C-60.43077894 42.95788788 -58.20353772 28.21110579 -45.94921875 15.0390625 C-32.38627842 2.38746598 -17.92623725 -0.12907795 0 0 Z " fill="#25364F" transform="translate(357.97265625,461.8046875)"/>
<path d="M0 0 C1.04752441 0.24786255 1.04752441 0.24786255 2.11621094 0.50073242 C7.14491957 1.8070901 11.30646193 3.24381678 14.375 7.5625 C15.6875 10.1875 15.6875 10.1875 16.5 12.5 C17.92717439 15.72992098 19.89986353 18.13020715 22.15234375 20.83203125 C26.29390417 27.18663922 27.14985828 33.21856345 27 40.6875 C27.00322266 41.49058594 27.00644531 42.29367187 27.00976562 43.12109375 C26.94590939 50.2846022 25.77516212 56.66089184 22.375 63.0625 C21.03255385 65.61432183 19.70583757 68.1478187 18.49609375 70.765625 C13.72851201 81.02457977 7.67784738 86.93294543 -2.3125 92.1875 C-2.94800781 92.55101562 -3.58351563 92.91453125 -4.23828125 93.2890625 C-12.72973079 96.96709149 -24.17675228 96.42425167 -32.625 93.125 C-44.21948464 87.60528524 -52.17425943 79.62521722 -56.5625 67.4375 C-56.86285156 66.52355469 -57.16320312 65.60960937 -57.47265625 64.66796875 C-58.48121872 61.68919121 -59.88083055 58.98266416 -61.3125 56.1875 C-64.55624943 45.40911219 -63.66064651 31.14512424 -58.98828125 20.984375 C-52.5674193 10.26797138 -42.3747543 1.7390002 -30.125 -1.3671875 C-20.12102979 -2.95114945 -9.81963563 -2.32541921 0 0 Z " fill="#253750" transform="translate(396.3125,360.8125)"/>
<path d="M0 0 C0 13.86 0 27.72 0 42 C-3.58875 43.32 -7.1775 44.64 -10.875 46 C-12.00534668 46.41765625 -13.13569336 46.8353125 -14.30029297 47.265625 C-15.63278076 47.75289063 -15.63278076 47.75289063 -16.9921875 48.25 C-17.90339355 48.58515625 -18.81459961 48.9203125 -19.75341797 49.265625 C-22 50 -22 50 -24 50 C-24 52.64 -24 55.28 -24 58 C-17.67370977 57.47437351 -12.16618996 56.34734982 -6.1875 54.25 C-5.40415283 53.98268066 -4.62080566 53.71536133 -3.8137207 53.43994141 C0.63127511 51.90088501 4.98677219 50.22723983 9.3125 48.375 C28.40216741 40.20504539 28.40216741 40.20504539 37 42 C40.47485838 44.07012839 42.74352278 46.11634312 44 50 C44.49098565 53.7642233 44.15217784 55.68296283 42.5 59.125 C36.93896072 65.52019518 27.62430921 67.72254997 19.8359375 70.4765625 C18.10967636 71.09354507 18.10967636 71.09354507 16.34854126 71.72299194 C12.69236088 73.02839193 9.03371247 74.3267161 5.375 75.625 C2.90869394 76.50475929 0.44254643 77.38496319 -2.0234375 78.265625 C-29.21453102 87.96412239 -29.21453102 87.96412239 -36 87 C-41.07431416 84.56042588 -44.53181701 81.01791916 -47 76 C-48.05651917 67.42660676 -44.89065404 60.80050819 -41.5 53.0625 C-40.94523786 51.76838858 -40.39161654 50.47378754 -39.83911133 49.17871094 C-38.74402389 46.61971268 -37.63923576 44.06526046 -36.52587891 41.51416016 C-35.21366327 38.49207507 -33.93209925 35.46036604 -32.66796875 32.41796875 C-27.23632066 19.49254939 -16.51626777 0 0 0 Z " fill="#FAFBFB" transform="translate(462,435)"/>
<path d="M0 0 C9.82574435 1.78612783 18.95354042 8.6212705 24.91015625 16.5390625 C31.58005533 26.59347512 35.16470395 35.85826104 35.11352539 47.89941406 C35.11367142 48.79732666 35.11381744 49.69523926 35.1139679 50.62036133 C35.11327176 53.58547387 35.10549329 56.55052344 35.09765625 59.515625 C35.09579101 61.57257045 35.09436761 63.62951635 35.09336853 65.6864624 C35.0895517 71.09844185 35.07972851 76.51039444 35.06866455 81.92236328 C35.05843252 87.44563432 35.05386707 92.96890971 35.04882812 98.4921875 C35.03810551 109.3281387 35.02051543 120.16406291 35 131 C27.74 131 20.48 131 13 131 C12.98018066 128.37498535 12.96036133 125.7499707 12.93994141 123.04541016 C12.87313872 114.38800246 12.79549803 105.73071666 12.71247292 97.07345009 C12.66245268 91.8227568 12.6161233 86.5720842 12.578125 81.32128906 C12.54134436 76.2572837 12.49500444 71.19344905 12.44193649 66.12958908 C12.42335402 64.19425821 12.40826043 62.25889069 12.39665604 60.3235054 C12.37985925 57.61995072 12.35084079 54.91679033 12.31884766 52.21337891 C12.31668747 51.40705521 12.31452728 50.60073151 12.31230164 49.76997375 C12.41059815 45.41871732 12.41059815 45.41871732 10 42 C7.45809998 41.7499227 7.45809998 41.7499227 5 42 C2.88074396 44.11925604 3.58168983 48.6196093 3.4375 51.5625 C3.39431641 52.36880859 3.35113281 53.17511719 3.30664062 54.00585938 C3.20024738 56.00368805 3.09959112 58.0018207 3 60 C0.28051018 57.28051018 0.05957623 55.25393566 -0.12025452 51.46893311 C-0.11803391 50.51851135 -0.11581329 49.5680896 -0.11352539 48.58886719 C-0.11344986 47.50804871 -0.11337433 46.42723022 -0.11329651 45.31365967 C-0.10813522 44.15312073 -0.10297394 42.99258179 -0.09765625 41.796875 C-0.0962413 40.60394836 -0.09482635 39.41102173 -0.09336853 38.1819458 C-0.08777038 34.37127171 -0.07521819 30.56065634 -0.0625 26.75 C-0.05748476 24.16666752 -0.0529219 21.58333411 -0.04882812 19 C-0.03780155 12.66664663 -0.02106524 6.33332751 0 0 Z " fill="#FBFCFB" transform="translate(558,435)"/>
<path d="M0 0 C6.22803878 2.95012363 10.63961388 6.3490347 13.25 12.875 C13.83689933 14.58211152 14.42038496 16.29040152 15 18 C15.32226562 18.69480469 15.64453125 19.38960938 15.9765625 20.10546875 C18.48029248 25.5592458 18.01781027 29.41862573 16 35 C11.53440599 46.48550778 4.68362881 52.68003614 -6.36328125 57.87109375 C-14.46330072 61.33910209 -24.42450047 61.20249985 -32.8125 58.5625 C-42.64895357 54.45174328 -50.70965256 45.71792263 -54.8125 36 C-55.25207031 34.989375 -55.69164062 33.97875 -56.14453125 32.9375 C-57.59434578 27.95914142 -55.85800745 24.33388898 -53.9375 19.6875 C-53.57527344 18.80449219 -53.21304687 17.92148437 -52.83984375 17.01171875 C-52.42412109 16.01591797 -52.42412109 16.01591797 -52 15 C-51.43716309 14.9906543 -50.87432617 14.98130859 -50.29443359 14.97167969 C-31.82629866 14.58778938 -14.71740961 12.34878492 0 0 Z " fill="#FCFCFC" transform="translate(530,345)"/>
<path d="M0 0 C2.21680504 1.61516693 2.85776729 2.42893032 3.51953125 5.0859375 C3.61621094 5.84132813 3.71289062 6.59671875 3.8125 7.375 C4.77046856 12.37414686 6.99344778 13.87488927 11 17 C15.5828767 23.99642932 16.1513707 30.65690432 16.0625 38.8125 C16.05798828 39.60076172 16.05347656 40.38902344 16.04882812 41.20117188 C16.03711312 43.13414761 16.01917998 45.06708393 16 47 C14 46 14 46 13.39453125 44.21484375 C13.20246094 43.46332031 13.01039063 42.71179688 12.8125 41.9375 C10.7112225 35.22834494 6.15887544 31.01807922 1.125 26.3125 C-1.18486727 23.79882092 -1.71233553 22.35608552 -2 19 C-4.78839304 18.49734308 -4.78839304 18.49734308 -8 19 C-9.20163935 20.3685337 -10.39103795 21.75249698 -11.4765625 23.21484375 C-18.80550516 31.80286118 -30.09298116 35.80130783 -41 37 C-45.14379604 37.25085518 -49.28897456 37.41231599 -53.4375 37.5625 C-54.55060547 37.60568359 -55.66371094 37.64886719 -56.81054688 37.69335938 C-59.54025844 37.79879888 -62.27005143 37.90092029 -65 38 C-67.49331984 42.82037985 -67.49331984 42.82037985 -69 48 C-69.66 48 -70.32 48 -71 48 C-71.50874678 34.48994649 -71.87563138 21.87136448 -62.7578125 10.875 C-46.3676348 -6.60785621 -22.03874641 -8.62511149 0 0 Z " fill="#F9FAFA" transform="translate(538,313)"/>
<path d="M0 0 C7.09473418 5.61998607 11.51773887 11.11022938 13.703125 20.0703125 C14.36135143 26.56596803 11.72417158 31.50794995 8.10546875 36.73828125 C2.1747978 43.95125944 -4.09549663 48.1224874 -13.390625 49.50390625 C-23.25815446 50.01467044 -30.88612166 47.40128874 -38.3828125 40.94921875 C-42.93567764 36.21995109 -46.88689259 30.5913419 -48 24 C-47.2734375 21.578125 -47.2734375 21.578125 -46 19 C-45.66871094 17.93007813 -45.33742188 16.86015625 -44.99609375 15.7578125 C-43 13 -43 13 -40.98486328 12.40136719 C-38.33753684 12.09426255 -35.72612317 11.96092333 -33.0625 11.875 C-20.88758957 11.09312502 -9.03989997 9.03989997 0 0 Z " fill="#FBFBFB" transform="translate(395,398)"/>
<path d="M0 0 C0.66 0 1.32 0 2 0 C2 0.66 2 1.32 2 2 C2.5775 2.226875 3.155 2.45375 3.75 2.6875 C9.74942617 6.18716527 11.6075368 12.31029426 13.43359375 18.640625 C14.51760527 25.0699347 12.26686771 29.60702766 9.3125 35.1875 C3.22014972 42.59711521 -3.57284099 48.11482241 -13.26171875 49.44921875 C-23.05845264 49.93420558 -30.63919518 47.53681131 -38.16015625 41.171875 C-43.20590567 35.90115586 -47.08043568 29.18265559 -46.9375 21.75 C-46.628125 20.8425 -46.31875 19.935 -46 19 C-45.69964844 17.97519531 -45.39929688 16.95039063 -45.08984375 15.89453125 C-43 13 -43 13 -40.90307617 12.40869141 C-38.13821586 12.13090906 -35.40275721 12.01159193 -32.625 11.9375 C-20.45473538 11.23871935 -8.96712235 8.96712235 0 0 Z " fill="#FBFBFB" transform="translate(659,398)"/>
<path d="M0 0 C1.875 3.1875 1.875 3.1875 3 7 C4.69689719 9.32462766 6.5113069 11.50249948 8.37890625 13.69140625 C11.77482775 18.52752579 12.243322 23.07722181 12.125 28.875 C12.10695313 30.02742188 12.08890625 31.17984375 12.0703125 32.3671875 C12.04710937 33.23601562 12.02390625 34.10484375 12 35 C11.34 34.01 10.68 33.02 10 32 C8.05753867 29.28777071 6.04093694 26.63873998 4 24 C3.42636719 23.24074219 2.85273438 22.48148437 2.26171875 21.69921875 C-1.18260734 17.30575236 -1.18260734 17.30575236 -6.1875 15.1875 C-9.89427386 16.25834578 -10.68940353 17.94185762 -13 21 C-24.84082033 31.08886222 -40.42869579 30.52773335 -55 30 C-55.99 32.31 -56.98 34.62 -58 37 C-58.33 37 -58.66 37 -59 37 C-59.52038743 25.34910366 -59.43030881 16.1604667 -51.75 6.6875 C-39.51443218 -6.28167789 -15.57559139 -8.8331374 0 0 Z " fill="#F9FAFA" transform="translate(402,372)"/>
<path d="M0 0 C0.91966553 0.00974854 1.83933105 0.01949707 2.78686523 0.02954102 C10.08961535 0.21849911 17.41678848 0.5376759 23.8125 4.4375 C25.42820148 6.66067149 26.24183999 8.586092 27.05859375 11.203125 C27.84750798 13.54125423 28.71790669 14.76530259 30.375 16.5625 C36.29841895 23.54909671 36.20519037 29.58015063 35.8125 38.4375 C35.17248047 37.56544922 35.17248047 37.56544922 34.51953125 36.67578125 C32.91892007 34.57703936 31.24975385 32.60000951 29.5 30.625 C26.23660707 26.92417355 23.01715208 23.18928781 19.8125 19.4375 C16.03450087 20.00632234 14.31271008 21.61124638 11.625 24.25 C2.0576701 33.00308906 -9.1414353 34.80301554 -21.75 34.5625 C-22.66330078 34.55347656 -23.57660156 34.54445313 -24.51757812 34.53515625 C-26.74117319 34.51187253 -28.96418677 34.4791771 -31.1875 34.4375 C-32.1775 36.7475 -33.1675 39.0575 -34.1875 41.4375 C-34.5175 41.4375 -34.8475 41.4375 -35.1875 41.4375 C-35.66299288 29.2155719 -35.14867749 20.00809777 -27.07421875 10.41015625 C-19.47258404 2.46227731 -10.78454537 -0.12694647 0 0 Z " fill="#F9FAFA" transform="translate(642.1875,367.5625)"/>
<path d="M0 0 C11.22 0 22.44 0 34 0 C34.02094515 7.92890315 34.04098329 15.85770665 34.05175018 23.78661346 C34.05704002 27.47860391 34.06411374 31.17057155 34.07543945 34.86254883 C34.08627162 38.41570831 34.09227753 41.96884563 34.09487724 45.52202034 C34.0967309 46.88045666 34.10035038 48.23889171 34.10573006 49.59731865 C34.11294475 51.49382223 34.11340809 53.39034793 34.11352539 55.28686523 C34.115746 56.36830307 34.11796661 57.44974091 34.12025452 58.56394958 C34 61 34 61 33 62 C30.55169574 62.08843793 28.13179401 62.11528752 25.68359375 62.09765625 C24.95253922 62.0962413 24.22148468 62.09482635 23.46827698 62.09336853 C21.12464368 62.08775408 18.78110461 62.07519922 16.4375 62.0625 C14.85221492 62.05748686 13.26692834 62.05292363 11.68164062 62.04882812 C7.7877239 62.03777997 3.89387795 62.02050572 0 62 C0.32714844 60.07958984 0.32714844 60.07958984 1 58 C3.765625 56.7265625 3.765625 56.7265625 7.25 55.625 C12.98414038 53.57754133 15.85563478 52.20446657 19 47 C21.76582895 41.12885407 21.84456082 35.37190977 21 29 C18.65926943 23.03630041 15.0058854 19.30843152 9.22265625 16.65625 C6.22709946 15.77179738 3.09200656 15.44171522 0 15 C0 10.05 0 5.1 0 0 Z " fill="#F7F9F9" transform="translate(493,452)"/>
<path d="M0 0 C1.09361343 -0.00642769 1.09361343 -0.00642769 2.20932007 -0.01298523 C3.75428227 -0.01872732 5.2992715 -0.01922967 6.84423828 -0.01489258 C9.18180062 -0.01175782 11.51806523 -0.03510272 13.85546875 -0.06054688 C20.82914527 -0.08909095 27.19111026 -0.04381307 33.75097656 2.62182617 C42.17267607 5.73794463 52.42613759 3.02071455 60.5859375 0.30078125 C65.24910679 0.02612951 69.91128664 -0.01254472 74.58178711 -0.04931641 C76.12100357 -0.06586189 77.66014363 -0.09313409 79.19897461 -0.13134766 C81.42862414 -0.18636529 83.65648018 -0.20802454 85.88671875 -0.22265625 C86.56817459 -0.24532562 87.24963043 -0.267995 87.95173645 -0.29135132 C93.54791898 -0.26683459 95.79583078 1.49454337 99.5859375 5.30078125 C100.78866569 7.70623763 100.68665222 9.25075078 100.6484375 11.92578125 C100.63941406 12.74304688 100.63039063 13.5603125 100.62109375 14.40234375 C100.60949219 15.02882813 100.59789062 15.6553125 100.5859375 16.30078125 C97.91949871 15.79068745 95.28986576 15.22611745 92.65684509 14.56211853 C82.96604209 12.20684189 73.82736317 11.84298219 63.90234375 11.8671875 C62.23192639 11.86261013 60.56151089 11.85730003 58.89109802 11.8513031 C55.41259039 11.84243673 51.93431313 11.84472068 48.45581055 11.85473633 C44.04063791 11.86622253 39.62626557 11.84598671 35.21119785 11.81681919 C31.76807264 11.79830512 28.32513395 11.7987795 24.88197136 11.80445671 C23.25598973 11.80460805 21.62999389 11.79872254 20.00406075 11.78616524 C8.0171349 11.70659057 -2.01132158 13.49986761 -13.4140625 17.30078125 C-13.97896195 6.52584727 -13.97896195 6.52584727 -10.4140625 2.30078125 C-6.81042893 -0.10164113 -4.16496698 -0.0054229 0 0 Z " fill="#F9FAFA" transform="translate(466.4140625,410.69921875)"/>
<path d="M0 0 C3.3 0 6.6 0 10 0 C10.01458252 1.5677417 10.02916504 3.1354834 10.04418945 4.75073242 C10.10257523 10.61976863 10.17980349 16.48843721 10.26245117 22.35717773 C10.29551214 24.88739005 10.32360134 27.41767278 10.34643555 29.94799805 C10.38032967 33.60495756 10.43266156 37.26128255 10.48828125 40.91796875 C10.49467117 42.03205612 10.5010611 43.14614349 10.50764465 44.29399109 C10.7180351 55.77469414 12.64061165 67.2177114 19 77 C20.06154297 77.90298828 20.06154297 77.90298828 21.14453125 78.82421875 C23.80468156 81.94359501 23.39907824 84.22488754 23.25 88.25 C23.21390625 89.51328125 23.1778125 90.7765625 23.140625 92.078125 C23.07101562 93.52445313 23.07101562 93.52445313 23 95 C11.82420034 89.80082364 6.95651268 77.934833 2.86328125 66.94921875 C0.95695224 60.82106841 -0.12862654 54.79490441 -0.11352539 48.36181641 C-0.11344986 47.28114899 -0.11337433 46.20048157 -0.11329651 45.08706665 C-0.10813522 43.93685028 -0.10297394 42.78663391 -0.09765625 41.6015625 C-0.0962413 40.41146576 -0.09482635 39.22136902 -0.09336853 37.99520874 C-0.0877842 34.20511328 -0.07523451 30.41507752 -0.0625 26.625 C-0.05748298 24.0507821 -0.05292042 21.47656328 -0.04882812 18.90234375 C-0.03781989 12.6015396 -0.02056597 6.30077991 0 0 Z " fill="#2CD3B9" transform="translate(538,432)"/>
<path d="M0 0 C0 6.6 0 13.2 0 20 C-18.15 20 -36.3 20 -55 20 C-55 13.73 -55 7.46 -55 1 C-52.36 1.33 -49.72 1.66 -47 2 C-46.67 4.31 -46.34 6.62 -46 9 C-42.41672247 10.00217064 -42.41672247 10.00217064 -39 9 C-38.67 7.02 -38.34 5.04 -38 3 C-31.07 3 -24.14 3 -17 3 C-16.34 5.31 -15.68 7.62 -15 10 C-13.02 9.67 -11.04 9.34 -9 9 C-8.67 6.69 -8.34 4.38 -8 2 C-1.125 0 -1.125 0 0 0 Z " fill="#24CEB8" transform="translate(609,612)"/>
<path d="M0 0 C18.15 0 36.3 0 55 0 C55 11 55 11 53.25 13.625 C51.10606746 14.935181 49.47748667 15.64607333 47 16 C46.34 14.35 45.68 12.7 45 11 C43.35 11 41.7 11 40 11 C39.34 12.65 38.68 14.3 38 16 C34.72963272 16.14510162 31.46008993 16.23399373 28.1875 16.3125 C27.25873047 16.35439453 26.32996094 16.39628906 25.37304688 16.43945312 C22.82229069 16.48549566 20.50536004 16.48798193 18 16 C16.03125 13.5 16.03125 13.5 15 11 C12.37305578 10.58219121 12.37305578 10.58219121 10 11 C9.34 12.65 8.68 14.3 8 16 C3.91927658 15.44855089 3.08669204 15.08669204 0 12 C0 8.04 0 4.08 0 0 Z " fill="#FAFBFB" transform="translate(554,589)"/>
<path d="M0 0 C15.51 0 31.02 0 47 0 C45.68 0.99 44.36 1.98 43 3 C41.3142876 4.64740076 39.6436814 6.31066078 38 8 C34 6 34 6 32.23046875 4.95703125 C27.74154744 3.03096169 22.76830099 3.34770164 18 4 C14.49738432 6.5919356 11.33641842 9.76242635 10.6640625 14.234375 C10.56833478 20.39923997 11.26964914 24.02619885 15 29 C19.56726117 31.96228002 24.75267789 31.55440457 30 31 C32.8334743 29.48537267 32.8334743 29.48537267 35 28 C36.9375 28.5625 36.9375 28.5625 39 30 C40.0725 30.680625 41.145 31.36125 42.25 32.0625 C43.61125 33.0215625 43.61125 33.0215625 45 34 C45 34.33 45 34.66 45 35 C30.15 35 15.3 35 0 35 C0 23.45 0 11.9 0 0 Z " fill="#F8F9FA" transform="translate(618,511)"/>
<path d="M0 0 C3.3 0 6.6 0 10 0 C10 12.54 10 25.08 10 38 C6.7 38.99 3.4 39.98 0 41 C0 27.47 0 13.94 0 0 Z " fill="#21D2B6" transform="translate(472,432)"/>
<path d="M0 0 C0 10.89 0 21.78 0 33 C-5.48697856 31.90260429 -6.02431497 31.35725308 -9 27 C-10.25248502 24.49502996 -10.11374406 22.79146726 -10.09765625 19.9921875 C-10.09443359 19.00605469 -10.09121094 18.01992188 -10.08789062 17.00390625 C-10.07951172 15.97136719 -10.07113281 14.93882812 -10.0625 13.875 C-10.05798828 12.83472656 -10.05347656 11.79445313 -10.04882812 10.72265625 C-10.03701952 8.14838038 -10.02055075 5.57421854 -10 3 C-8.70990357 2.49596232 -7.41786211 1.99690074 -6.125 1.5 C-5.04605469 1.08234375 -5.04605469 1.08234375 -3.9453125 0.65625 C-2 0 -2 0 0 0 Z " fill="#F0F2F3" transform="translate(450,527)"/>
<path d="M0 0 C15.51 0 31.02 0 47 0 C45.68 0.99 44.36 1.98 43 3 C41.3142876 4.64740076 39.6436814 6.31066078 38 8 C34 6 34 6 32.18359375 4.96484375 C29.652952 3.84665321 27.56540536 3.62861751 24.8125 3.4375 C20.09936909 3.09936909 20.09936909 3.09936909 19 2 C17.65984779 1.84417697 16.31241097 1.74955858 14.96484375 1.68359375 C14.23644287 1.64548584 13.50804199 1.60737793 12.75756836 1.56811523 C11.36163452 1.50346069 11.36163452 1.50346069 9.9375 1.4375 C6.988125 1.293125 4.03875 1.14875 1 1 C1 11.89 1 22.78 1 34 C10.9 33.505 10.9 33.505 21 33 C21 32.67 21 32.34 21 32 C21.59167969 31.96261719 22.18335938 31.92523437 22.79296875 31.88671875 C28.04960525 31.46089191 28.04960525 31.46089191 32.8125 29.3125 C33.534375 28.879375 34.25625 28.44625 35 28 C36.9375 28.5625 36.9375 28.5625 39 30 C40.0725 30.680625 41.145 31.36125 42.25 32.0625 C43.61125 33.0215625 43.61125 33.0215625 45 34 C45 34.33 45 34.66 45 35 C30.15 35 15.3 35 0 35 C0 23.45 0 11.9 0 0 Z " fill="#CBD1D7" transform="translate(618,511)"/>
<path d="M0 0 C-0.49502801 0.30546029 -0.99005602 0.61092058 -1.50008488 0.92563725 C-5.14529123 3.73327997 -6.79630971 5.92088472 -7.66166496 10.50538445 C-7.99783001 15.07510623 -7.93212151 19.64763327 -7.88647461 24.22631836 C-7.89436774 25.99089116 -7.9053317 27.7554525 -7.91912842 29.51998901 C-7.94781904 34.29867487 -7.9336383 39.07637958 -7.91168666 43.85506511 C-7.8960413 48.85328703 -7.91992374 53.85131733 -7.93959045 58.84950256 C-7.97081716 68.30898771 -7.96656032 77.7681099 -7.94951588 87.2276178 C-7.93183805 97.9991126 -7.9537769 108.77041313 -7.97902286 119.54187953 C-8.03005765 141.69465331 -8.03140875 163.84719977 -8 186 C-8.33 186 -8.66 186 -9 186 C-9 124.95 -9 63.9 -9 1 C-2 -1 -2 -1 0 0 Z " fill="#525F74" transform="translate(468,521)"/>
<path d="M0 0 C2 2 2 2 2.375 4.875 C2 8 2 8 0.375 10.4375 C-2 12 -2 12 -5.125 11.875 C-8 11 -8 11 -10 9 C-10.543379 3.02283105 -10.543379 3.02283105 -8.9375 0 C-5.80557344 -1.61647822 -3.32814714 -0.78665296 0 0 Z " fill="#45E6C6" transform="translate(647,523)"/>
<path d="M0 0 C1.71316406 -0.04253906 1.71316406 -0.04253906 3.4609375 -0.0859375 C7.20767241 0.45988314 8.37305062 1.39088973 10.625 4.375 C10.625 5.035 10.625 5.695 10.625 6.375 C3.695 6.375 -3.235 6.375 -10.375 6.375 C-7.45853932 0.54207864 -6.32537654 0.07107165 0 0 Z " fill="#DCE0E4" transform="translate(581.375,573.625)"/>
<path d="M0 0 C2.375 0.9375 2.375 0.9375 4.375 3.9375 C4.0508631 7.25990324 3.76723697 8.54526303 1.375 10.9375 C-2.25 10.5625 -2.25 10.5625 -5.625 9.9375 C-6.375 7.1875 -6.375 7.1875 -6.625 3.9375 C-4.61164953 0.91747429 -3.6863031 -0.08776912 0 0 Z " fill="#33DBC6" transform="translate(511.625,456.0625)"/>
<path d="M0 0 C0.9796875 0.00644531 1.959375 0.01289063 2.96875 0.01953125 C3.98453125 0.03628906 5.0003125 0.05304688 6.046875 0.0703125 C7.078125 0.07933594 8.109375 0.08835937 9.171875 0.09765625 C11.71377787 0.12119239 14.2552078 0.15407227 16.796875 0.1953125 C16.19359375 0.63488281 15.5903125 1.07445312 14.96875 1.52734375 C12.34507914 3.54228522 10.10137252 5.82680116 7.796875 8.1953125 C5.57854612 7.12722823 3.57448593 6.04087565 1.546875 4.6328125 C-2.09523945 2.72897994 -5.11949299 2.54138301 -9.203125 2.1953125 C-6.00855149 0.31116608 -3.68809871 -0.04288487 0 0 Z " fill="#F1F3F3" transform="translate(648.203125,510.8046875)"/>
<path d="M0 0 C-0.4948439 0.39333023 -0.98968781 0.78666046 -1.49952698 1.19190979 C-5.10086523 4.35003077 -7.42260056 6.66557227 -7.88647461 11.55834961 C-7.9268103 13.25587675 -7.93046301 14.95457031 -7.90234375 16.65234375 C-7.91463516 17.55247696 -7.92692657 18.45261017 -7.93959045 19.38002014 C-7.97118931 22.23335524 -7.95508244 25.08408693 -7.9375 27.9375 C-7.95061674 29.88088327 -7.96686047 31.8242481 -7.98632812 33.76757812 C-8.02706918 38.51227043 -8.02505433 43.25521742 -8 48 C-8.33 48 -8.66 48 -9 48 C-9 32.49 -9 16.98 -9 1 C-2 -1 -2 -1 0 0 Z " fill="#506475" transform="translate(468,521)"/>
<path d="M0 0 C1.875 1.4375 1.875 1.4375 4.875 5.4375 C0.585 5.4375 -3.705 5.4375 -8.125 5.4375 C-7.125 2.4375 -7.125 2.4375 -4.8125 0.625 C-2.125 -0.5625 -2.125 -0.5625 0 0 Z " fill="#EEF0F1" transform="translate(655.125,539.5625)"/>
<path d="M0 0 C4.62 0 9.24 0 14 0 C14.33 0.99 14.66 1.98 15 3 C9.72 3 4.44 3 -1 3 C-0.67 2.01 -0.34 1.02 0 0 Z " fill="#E9EDF0" transform="translate(636,499)"/>
<path d="M0 0 C0.66 0 1.32 0 2 0 C0.71191248 5.03525121 -1.21495171 7.49883033 -5 11 C-5.99 12.485 -5.99 12.485 -7 14 C-7.66 13.67 -8.32 13.34 -9 13 C-7.8782037 11.2063257 -6.75245517 9.4151227 -5.625 7.625 C-4.99851563 6.62726563 -4.37203125 5.62953125 -3.7265625 4.6015625 C-2 2 -2 2 0 0 Z " fill="#273B51" transform="translate(223,253)"/>
<path d="M0 0 C-1.47721422 3.45201639 -3.43794001 5.64961936 -6.125 8.25 C-6.84945313 8.95640625 -7.57390625 9.6628125 -8.3203125 10.390625 C-8.87460937 10.92171875 -9.42890625 11.4528125 -10 12 C-10.66 11.67 -11.32 11.34 -12 11 C-10.89718873 9.72799029 -9.79269231 8.45744147 -8.6875 7.1875 C-8.07261719 6.47980469 -7.45773437 5.77210938 -6.82421875 5.04296875 C-2.32122371 0 -2.32122371 0 0 0 Z " fill="#2A3F57" transform="translate(478,309)"/>
<path d="M0 0 C0.78375 0.04125 1.5675 0.0825 2.375 0.125 C1.16263672 0.85976563 1.16263672 0.85976563 -0.07421875 1.609375 C-3.46599533 4.95440428 -3.40157121 7.85595667 -3.4375 12.375 C-3.46263672 13.12007813 -3.48777344 13.86515625 -3.51367188 14.6328125 C-3.57233102 16.46297793 -3.6015808 18.29404453 -3.625 20.125 C-4.285 19.795 -4.945 19.465 -5.625 19.125 C-5.51138398 16.33243781 -5.3846411 13.54155882 -5.25 10.75 C-5.2190625 9.9559375 -5.188125 9.161875 -5.15625 8.34375 C-4.74347694 0.22587985 -4.74347694 0.22587985 0 0 Z " fill="#32445B" transform="translate(565.625,475.875)"/>
<path d="M0 0 C-1.1427919 1.16964602 -2.28931715 2.33564556 -3.4375 3.5 C-4.07558594 4.1496875 -4.71367187 4.799375 -5.37109375 5.46875 C-7 7 -7 7 -8 7 C-8 5.02 -8 3.04 -8 1 C-2.25 -1.125 -2.25 -1.125 0 0 Z " fill="#1AD6B9" transform="translate(468,521)"/>
<path d="M0 0 C0.94875 0.04125 1.8975 0.0825 2.875 0.125 C2.1325 0.7025 1.39 1.28 0.625 1.875 C-1.78587643 3.84753526 -3.96542701 5.88544282 -6.125 8.125 C-5.09178322 0.20367133 -5.09178322 0.20367133 0 0 Z " fill="#31445C" transform="translate(350.125,400.875)"/>
<path d="M0 0 C0.33 0 0.66 0 1 0 C1.32357362 3.55930982 1.3880551 5.41791735 -0.625 8.4375 C-3 10 -3 10 -6.25 9.75 C-7.61125 9.37875 -7.61125 9.37875 -9 9 C-9 8.67 -9 8.34 -9 8 C-7.88625 7.79375 -6.7725 7.5875 -5.625 7.375 C-1.73400805 6.38371699 -1.73400805 6.38371699 -0.5625 2.875 C-0.376875 1.92625 -0.19125 0.9775 0 0 Z " fill="#3CC8B2" transform="translate(648,525)"/>
<path d="M0 0 C1.39195915 4.17587745 -0.17676781 6.13474776 -2 10 C-2.66 9.01 -3.32 8.02 -4 7 C-3.1025444 3.93369336 -2.26961192 2.26961192 0 0 Z " fill="#27394F" transform="translate(796,751)"/>
<path d="M0 0 C2.125 0.375 2.125 0.375 4 1 C-1.75 6 -1.75 6 -4 6 C-2.84826645 3.53199953 -1.95216435 1.95216435 0 0 Z M-7 7 C-6.34 7.33 -5.68 7.66 -5 8 C-5.99 8 -6.98 8 -8 8 C-7.67 7.67 -7.34 7.34 -7 7 Z " fill="#2F445C" transform="translate(530,331)"/>
<path d="M0 0 C2.11180592 2.57089417 3.66306057 4.63060567 4 8 C3.34 8.66 2.68 9.32 2 10 C-1.07692308 4.58461538 -1.07692308 4.58461538 -0.6875 1.625 C-0.460625 1.08875 -0.23375 0.5525 0 0 Z " fill="#293A4F" transform="translate(212,753)"/>
<path d="M0 0 C0 3.90838866 -1.50567876 5.11594107 -4 8 C-4.99 7.67 -5.98 7.34 -7 7 C-6.38125 6.7525 -5.7625 6.505 -5.125 6.25 C-2.62985717 4.78226892 -2.09872287 3.62003145 -1 1 C-0.67 0.67 -0.34 0.34 0 0 Z " fill="#3C5467" transform="translate(770,767)"/>
<path d="M0 0 C0.66 1.32 1.32 2.64 2 4 C0.625 6 0.625 6 -1 8 C-1.66 8 -2.32 8 -3 8 C-1.125 2.25 -1.125 2.25 0 0 Z " fill="#304255" transform="translate(213,267)"/>
<path d="M0 0 C0.66 0 1.32 0 2 0 C1.6875 1.875 1.6875 1.875 1 4 C0.01 4.66 -0.98 5.32 -2 6 C-2 2 -2 2 0 0 Z " fill="#283C53" transform="translate(774,780)"/>
<path d="M0 0 C2.97 0.495 2.97 0.495 6 1 C4.68 2.32 3.36 3.64 2 5 C2 4.34 2 3.68 2 3 C1.34 3 0.68 3 0 3 C0 2.01 0 1.02 0 0 Z " fill="#22335A" transform="translate(774,777)"/>
</svg>
